<svg width="2202" height="953" viewBox="0 0 2202 953" fill="none" xmlns="http://www.w3.org/2000/svg">
<g clip-path="url(#clip0_304_387)">
<path d="M2202 0H0V954H2202V0Z" fill="#67ADB2"/>
<path d="M2201.5 0.5H0.5V953.5H2201.5V0.5Z" stroke="#B6D8D4" stroke-opacity="0.4"/>
<path d="M597 953.042C597 944.724 590.274 938 582 938C573.726 938 567 944.724 567 953.042" stroke="#B6D8D4" stroke-opacity="0.4" stroke-width="10"/>
<path d="M543 69.1455C543 77.4629 536.274 84.188 528 84.188C519.726 84.188 513 77.4629 513 69.1455C513 60.8282 519.726 54.1035 528 54.1035C536.274 54.1035 543 60.8282 543 69.1455Z" stroke="#B6D8D4" stroke-opacity="0.4" stroke-width="10"/>
<path d="M680 596.249C680 604.566 673.274 611.291 665 611.291C656.726 611.291 650 604.566 650 596.249C650 587.932 656.726 581.207 665 581.207C673.274 581.207 680 587.932 680 596.249Z" stroke="#B6D8D4" stroke-opacity="0.4" stroke-width="10"/>
<path d="M238 364.284C238 372.602 231.274 379.326 223 379.326C214.726 379.326 208 372.602 208 364.284C208 355.967 214.726 349.242 223 349.242C231.274 349.242 238 355.967 238 364.284Z" stroke="#B6D8D4" stroke-opacity="0.4" stroke-width="10"/>
<path d="M1628 228.479C1628 236.796 1621.27 243.521 1613 243.521C1604.73 243.521 1598 236.796 1598 228.479C1598 220.161 1604.73 213.438 1613 213.438C1621.27 213.438 1628 220.161 1628 228.479Z" stroke="#B6D8D4" stroke-opacity="0.4" stroke-width="10"/>
<path d="M2108 347.364C2108 355.682 2101.27 362.406 2093 362.406C2084.73 362.406 2078 355.682 2078 347.364C2078 339.047 2084.73 332.322 2093 332.322C2101.27 332.322 2108 339.047 2108 347.364Z" stroke="#B6D8D4" stroke-opacity="0.4" stroke-width="10"/>
<path d="M2145 1C2145 9.3174 2138.27 16.042 2130 16.042C2121.73 16.042 2115 9.3174 2115 1" stroke="#B6D8D4" stroke-opacity="0.4" stroke-width="10"/>
<path d="M1122 330.692C1122 339.01 1115.27 345.734 1107 345.734C1098.73 345.734 1092 339.01 1092 330.692C1092 322.375 1098.73 315.65 1107 315.65C1115.27 315.65 1122 322.375 1122 330.692Z" stroke="#B6D8D4" stroke-opacity="0.4" stroke-width="10"/>
<path d="M1134 910.909C1134 919.227 1127.27 925.951 1119 925.951C1110.73 925.951 1104 919.227 1104 910.909C1104 902.592 1110.73 895.867 1119 895.867C1127.27 895.867 1134 902.592 1134 910.909Z" stroke="#B6D8D4" stroke-opacity="0.4" stroke-width="10"/>
<path d="M1692 636.335C1692 644.652 1685.27 651.377 1677 651.377C1668.73 651.377 1662 644.652 1662 636.335C1662 628.018 1668.73 621.293 1677 621.293C1685.27 621.293 1692 628.018 1692 636.335Z" stroke="#B6D8D4" stroke-opacity="0.4" stroke-width="10"/>
<path d="M2068 918.142C2068 926.459 2061.27 933.184 2053 933.184C2044.73 933.184 2038 926.459 2038 918.142C2038 909.824 2044.73 903.1 2053 903.1C2061.27 903.1 2068 909.824 2068 918.142Z" stroke="#B6D8D4" stroke-opacity="0.4" stroke-width="10"/>
<path d="M56 954.042C56 945.725 49.2744 939 41 939C32.7256 939 26 945.725 26 954.042" stroke="#B6D8D4" stroke-opacity="0.4" stroke-width="10"/>
<path d="M1388 910.909C1388 919.227 1381.27 925.951 1373 925.951C1364.73 925.951 1358 919.227 1358 910.909C1358 902.592 1364.73 895.867 1373 895.867C1381.27 895.867 1388 902.592 1388 910.909Z" stroke="#B6D8D4" stroke-opacity="0.4" stroke-width="10"/>
<path d="M646 900.665C646 906.486 641.293 911.193 635.5 911.193C629.707 911.193 625 906.486 625 900.665C625 894.844 629.707 890.137 635.5 890.137C641.293 890.137 646 894.844 646 900.665Z" stroke="#B6D8D4" stroke-opacity="0.4" stroke-width="6"/>
<path d="M729 549.651C729 555.472 724.293 560.18 718.5 560.18C712.707 560.18 708 555.472 708 549.651C708 543.831 712.707 539.123 718.5 539.123C724.293 539.123 729 543.831 729 549.651Z" stroke="#B6D8D4" stroke-opacity="0.4" stroke-width="6"/>
<path d="M287 317.687C287 323.507 282.293 328.215 276.5 328.215C270.707 328.215 266 323.507 266 317.687C266 311.866 270.707 307.158 276.5 307.158C282.293 307.158 287 311.866 287 317.687Z" stroke="#B6D8D4" stroke-opacity="0.4" stroke-width="6"/>
<path d="M117 75.6866C117 81.5072 112.293 86.215 106.5 86.215C100.707 86.215 96 81.5072 96 75.6866C96 69.866 100.707 65.1582 106.5 65.1582C112.293 65.1582 117 69.866 117 75.6866Z" stroke="#B6D8D4" stroke-opacity="0.4" stroke-width="6"/>
<path d="M562 131.776C562 137.597 557.293 142.305 551.5 142.305C545.707 142.305 541 137.597 541 131.776C541 125.956 545.707 121.248 551.5 121.248C557.293 121.248 562 125.956 562 131.776Z" stroke="#B6D8D4" stroke-opacity="0.4" stroke-width="6"/>
<path d="M1590 144.804C1590 150.624 1585.29 155.332 1579.5 155.332C1573.71 155.332 1569 150.624 1569 144.804C1569 138.983 1573.71 134.275 1579.5 134.275C1585.29 134.275 1590 138.983 1590 144.804Z" stroke="#B6D8D4" stroke-opacity="0.4" stroke-width="6"/>
<path d="M1171 284.095C1171 289.915 1166.29 294.623 1160.5 294.623C1154.71 294.623 1150 289.915 1150 284.095C1150 278.274 1154.71 273.566 1160.5 273.566C1166.29 273.566 1171 278.274 1171 284.095Z" stroke="#B6D8D4" stroke-opacity="0.4" stroke-width="6"/>
<path d="M1183 864.312C1183 870.132 1178.29 874.84 1172.5 874.84C1166.71 874.84 1162 870.132 1162 864.312C1162 858.491 1166.71 853.783 1172.5 853.783C1178.29 853.783 1183 858.491 1183 864.312Z" stroke="#B6D8D4" stroke-opacity="0.4" stroke-width="6"/>
<path d="M1151 522.595C1151 528.415 1146.29 533.123 1140.5 533.123C1134.71 533.123 1130 528.415 1130 522.595C1130 516.774 1134.71 512.066 1140.5 512.066C1146.29 512.066 1151 516.774 1151 522.595Z" stroke="#B6D8D4" stroke-opacity="0.4" stroke-width="6"/>
<path d="M578 839.036C578 846.243 572.172 852.071 565 852.071C557.828 852.071 552 846.243 552 839.036C552 831.828 557.828 826 565 826C572.172 826 578 831.828 578 839.036Z" stroke="#B6D8D4" stroke-opacity="0.4" stroke-width="8"/>
<path d="M695 477.001C695 484.208 689.172 490.036 682 490.036C674.828 490.036 669 484.208 669 477.001C669 469.793 674.828 463.965 682 463.965C689.172 463.965 695 469.793 695 477.001Z" stroke="#B6D8D4" stroke-opacity="0.4" stroke-width="8"/>
<path d="M253 245.036C253 252.243 247.172 258.071 240 258.071C232.828 258.071 227 252.243 227 245.036C227 237.828 232.828 232 240 232C247.172 232 253 237.828 253 245.036Z" stroke="#B6D8D4" stroke-opacity="0.4" stroke-width="8"/>
<path d="M83 1C83 8.2074 77.1718 14.0357 70 14.0357C62.8282 14.0357 57 8.2074 57 1" stroke="#B6D8D4" stroke-opacity="0.4" stroke-width="8"/>
<path d="M1643 72.1509C1643 79.3583 1637.17 85.187 1630 85.187C1622.83 85.187 1617 79.3583 1617 72.1509C1617 64.9436 1622.83 59.1152 1630 59.1152C1637.17 59.1152 1643 64.9436 1643 72.1509Z" stroke="#B6D8D4" stroke-opacity="0.4" stroke-width="8"/>
<path d="M2126 266.036C2126 273.243 2120.17 279.071 2113 279.071C2105.83 279.071 2100 273.243 2100 266.036C2100 258.828 2105.83 253 2113 253C2120.17 253 2126 258.828 2126 266.036Z" stroke="#B6D8D4" stroke-opacity="0.4" stroke-width="8"/>
<path d="M1137 211.444C1137 218.651 1131.17 224.48 1124 224.48C1116.83 224.48 1111 218.651 1111 211.444C1111 204.237 1116.83 198.408 1124 198.408C1131.17 198.408 1137 204.237 1137 211.444Z" stroke="#B6D8D4" stroke-opacity="0.4" stroke-width="8"/>
<path d="M1115 802.682C1115 809.89 1109.17 815.719 1102 815.719C1094.83 815.719 1089 809.89 1089 802.682C1089 795.475 1094.83 789.646 1102 789.646C1109.17 789.646 1115 795.475 1115 802.682Z" stroke="#B6D8D4" stroke-opacity="0.4" stroke-width="8"/>
<path d="M1427 864.312C1427 870.132 1422.29 874.84 1416.5 874.84C1410.71 874.84 1406 870.132 1406 864.312C1406 858.491 1410.71 853.783 1416.5 853.783C1422.29 853.783 1427 858.491 1427 864.312Z" stroke="#B6D8D4" stroke-opacity="0.4" stroke-width="6"/>
<path d="M1654 582.722C1654 588.542 1649.29 593.25 1643.5 593.25C1637.71 593.25 1633 588.542 1633 582.722C1633 576.901 1637.71 572.193 1643.5 572.193C1649.29 572.193 1654 576.901 1654 582.722Z" stroke="#B6D8D4" stroke-opacity="0.4" stroke-width="6"/>
<path d="M2030 864.528C2030 870.349 2025.29 875.057 2019.5 875.057C2013.71 875.057 2009 870.349 2009 864.528C2009 858.708 2013.71 854 2019.5 854C2025.29 854 2030 858.708 2030 864.528Z" stroke="#B6D8D4" stroke-opacity="0.4" stroke-width="6"/>
<path d="M70 904.528C70 910.349 65.2931 915.057 59.5 915.057C53.7069 915.057 49 910.349 49 904.528C49 898.708 53.7069 894 59.5 894C65.2931 894 70 898.708 70 904.528Z" stroke="#B6D8D4" stroke-opacity="0.4" stroke-width="6"/>
</g>
<defs>
<clipPath id="clip0_304_387">
<rect width="2202" height="953" fill="white"/>
</clipPath>
</defs>
</svg>
