<svg width="133" height="56" viewBox="0 0 133 56" fill="none" xmlns="http://www.w3.org/2000/svg">
<path d="M54.6975 0.369125C56.2475 0.660713 61.1892 1.91916 61.3274 2.04193C61.3427 2.07263 60.8976 2.21075 60.3298 2.36422C57.506 3.10087 53.4851 4.66625 50.2316 6.26233C42.8344 9.91488 37.555 14.2274 34.148 19.3993C32.1069 22.5147 31.4316 24.4177 31.4316 27.1341C31.4316 29.0985 31.6772 30.1574 32.5213 31.8763C34.2401 35.3907 38.1229 37.7234 43.4789 38.4447C45.3206 38.6903 51.7816 38.7824 52.0118 38.5522C52.0885 38.4754 51.6588 38.2913 51.0296 38.1378C49.587 37.7848 47.0701 36.5724 46.0572 35.759C45.0443 34.9456 43.9547 33.5184 43.3101 32.1372C42.466 30.3416 41.9903 27.2108 42.3126 25.538C42.8037 23.0365 44.2309 19.875 45.7963 17.7878C48.3132 14.4422 53.1014 10.3753 57.8743 7.52077C59.3937 6.59996 63.3225 4.69695 65.0106 4.05238L66.1309 3.60732L66.929 3.89891C69.4766 4.78902 74.2187 7.24453 77.0119 9.08615C80.3575 11.3114 84.8541 15.4244 86.5883 17.8492C89.2433 21.5478 90.4557 25.3078 90.0414 28.5306C89.8265 30.1421 89.1973 32.0758 88.5067 33.2268C88.2151 33.7025 87.4324 34.608 86.7571 35.2526C85.7749 36.1887 85.2225 36.5571 83.9947 37.1402C83.1506 37.5239 81.9536 37.9843 81.355 38.1378C80.7412 38.2913 80.2347 38.4754 80.2347 38.5368C80.2347 38.767 86.3735 38.7363 88.522 38.4908C95.0291 37.7541 99.4951 34.5159 100.723 29.6817C101.014 28.546 101.014 26.0138 100.738 24.6939C100.462 23.4355 99.4951 21.3483 98.4515 19.7369C94.9677 14.4115 89.5656 9.93023 82.3065 6.35441C78.9149 4.6816 76.2599 3.62266 72.9603 2.65581L70.9805 2.07263L71.886 1.79638C73.39 1.33598 77.0119 0.461205 78.3164 0.231003L79.5441 0.0161438L76.7049 0.000797272C73.9118 -0.0145493 71.3949 0.20031 68.034 0.706757C66.6067 0.921612 66.1463 0.936958 64.9646 0.768143C60.2991 0.13892 58.5189 0.000797272 55.7564 0.000797272L52.8405 0.0161438L54.6975 0.369125Z" fill="white"/>
<path d="M64.4281 14.0434C58.673 15.1944 54.7595 20.4584 55.4962 26.06C55.8492 28.6997 56.77 30.572 58.6577 32.4596C60.8676 34.6696 63.1543 35.6211 66.3004 35.6211C71.0733 35.6057 75.4318 32.3062 76.7209 27.7175C77.2274 25.9526 77.1967 23.4357 76.6749 21.7015C75.6773 18.3252 73.053 15.5934 69.7841 14.5038C68.7099 14.1355 68.1881 14.0587 66.6534 14.0127C65.6405 13.9973 64.6429 14.0127 64.4281 14.0434Z" fill="white"/>
<path d="M1.52102 47.4683C0.738329 51.1516 0.0630661 54.2977 0.0170254 54.4665C-0.0597089 54.7734 0.00167856 54.7734 2.90224 54.7734C8.19691 54.7734 9.7316 54.4358 10.99 53.0085C11.7113 52.1952 12.0029 51.2437 11.9109 50.1233C11.8188 49.003 11.3584 48.3891 10.2074 47.8673L9.28654 47.453L9.86972 47.3455C11.1282 47.1 12.1718 46.302 12.6168 45.2277C12.9698 44.3989 12.9391 43.1559 12.5401 42.4959C12.1411 41.836 11.8955 41.6519 11.0207 41.2375C10.3915 40.9306 10.0078 40.8999 6.63153 40.8385L2.94828 40.7771L1.52102 47.4683ZM8.28899 43.2633C8.99495 43.4628 9.33258 43.9232 9.33258 44.6905C9.33258 45.8416 8.2276 46.4861 6.20182 46.4861C5.40378 46.4861 5.17358 46.4401 5.23496 46.2866C5.281 46.1792 5.41913 45.5039 5.5726 44.7826C5.71072 44.0767 5.84884 43.4014 5.87953 43.294C5.95627 43.0638 7.47561 43.0484 8.28899 43.2633ZM7.70581 48.8495C8.67266 49.2486 8.82613 50.7065 7.96671 51.5506C7.47561 52.0417 6.40133 52.3179 4.95872 52.3179C4.40623 52.3179 3.96117 52.3026 3.96117 52.2719C3.96117 52.2259 4.51366 49.6169 4.65178 48.9723C4.72852 48.65 4.8206 48.6347 5.97161 48.6347C6.66222 48.6347 7.41422 48.7268 7.70581 48.8495Z" fill="white"/>
<path d="M69.5231 47.146C67.4819 50.6144 65.625 53.7605 65.4101 54.1135L65.0264 54.7734H66.9141H68.8018L69.6458 53.2694L70.5053 51.7808L73.283 51.7348L76.0608 51.7041L76.1376 52.3486C76.199 52.717 76.2757 53.4076 76.3371 53.8833L76.4292 54.7734H78.1787C79.7441 54.7734 79.9282 54.7427 79.9282 54.4972C79.9282 54.3591 79.4371 51.2437 78.854 47.5758C78.2554 43.9232 77.7797 40.8999 77.7797 40.8692C77.7797 40.8385 76.7668 40.8078 75.5237 40.8078H73.2524L69.5231 47.146ZM75.1707 43.7544C75.1707 43.8618 75.3088 45.0589 75.4777 46.4094C75.6465 47.7599 75.7846 48.957 75.7846 49.0491C75.7846 49.2025 75.2935 49.2486 73.8662 49.2486C72.8073 49.2486 71.9479 49.2025 71.9479 49.1411C71.9479 48.9416 74.9405 43.5702 75.0633 43.5702C75.1247 43.5702 75.1707 43.6623 75.1707 43.7544Z" fill="white"/>
<path d="M96.8871 41.3766C96.4727 41.4993 95.7668 41.6988 95.3371 41.8216C94.5697 42.0365 94.539 42.0672 94.4469 42.6964C94.3856 43.0494 94.2781 43.6019 94.1861 43.9088L94.0326 44.492H92.989H91.9454L91.7612 45.3667C91.6538 45.8578 91.531 46.3796 91.5003 46.5178C91.4236 46.7633 91.5464 46.794 92.5132 46.794C93.5568 46.794 93.5875 46.8094 93.5108 47.1316C92.9276 49.6178 92.6667 51.0758 92.6667 51.8124C92.6667 53.7922 93.8331 54.8511 95.9663 54.8358C97.7005 54.8204 97.8233 54.759 98.0381 53.8229C98.1302 53.3778 98.2376 52.8714 98.2837 52.7026C98.3604 52.4263 98.2837 52.3956 97.3935 52.3956C96.5188 52.3956 96.4267 52.3649 96.2118 51.9813C95.9663 51.5362 96.0123 51.1218 96.749 47.8222L96.9945 46.794H98.253H99.5268L99.7109 45.9039C99.8184 45.4281 99.9411 44.9063 99.9718 44.7529C100.049 44.5227 99.9258 44.492 98.7594 44.492H97.4703L97.8233 42.9112C98.0228 42.0518 98.1916 41.2998 98.1916 41.2231C98.1916 41.0696 97.7772 41.1157 96.8871 41.3766Z" fill="white"/>
<path d="M17.0832 44.4133C16.6689 44.5361 16.2698 44.6282 16.2238 44.6435C16.1624 44.6435 16.0857 44.9351 16.0243 45.2881C15.9629 45.6564 15.8862 46.1782 15.8401 46.4391L15.748 46.9456L16.6382 46.6233C17.7124 46.255 19.4927 46.1629 20.168 46.4545C20.7051 46.6847 20.9967 47.1144 21.0427 47.7896L21.0734 48.25L19.1551 48.2807C15.2569 48.3268 13.3232 49.5699 13.3232 52.0561C13.3232 53.8824 14.7658 55.018 16.9144 54.8952C18.1422 54.8339 18.9249 54.5116 19.7229 53.7442C20.0298 53.468 20.2907 53.2378 20.3061 53.2378C20.3214 53.2378 20.3061 53.5754 20.26 54.0051L20.1833 54.7725H21.5645H22.9304L23.575 51.5036C23.9279 49.7233 24.2195 47.8817 24.2195 47.4367C24.2195 45.9327 23.3601 44.9044 21.6719 44.398C20.7511 44.1217 18.1115 44.1371 17.0832 44.4133ZM20.4595 50.7209C20.0912 51.9793 19.0783 52.7774 17.8659 52.7774C17.3134 52.7774 17.1293 52.7006 16.8684 52.3784C16.6842 52.1482 16.5461 51.7952 16.5461 51.5957C16.5461 50.5674 17.5283 50.0303 19.416 50.0149H20.6744L20.4595 50.7209Z" fill="white"/>
<path d="M32.8905 44.3222C32.1846 44.5064 31.4326 44.9361 30.6038 45.6267C29.8979 46.2099 29.8519 46.2252 29.9439 45.8722C30.0053 45.6574 30.0974 45.2277 30.1434 44.9054L30.2509 44.3376H28.6855C27.8414 44.3376 27.1355 44.3836 27.1355 44.4296C27.1355 44.5371 25.1864 53.868 25.0329 54.4205C24.9562 54.7734 24.9715 54.7734 26.7057 54.7734H28.4553L29.0078 52.1645C29.3147 50.7219 29.7444 49.1872 29.9439 48.7268C30.8034 46.8698 32.8905 46.3327 33.5351 47.8213C33.7807 48.3891 33.7653 48.5119 33.1975 51.3204C32.8752 52.9165 32.5682 54.3591 32.5376 54.4972C32.4762 54.7427 32.6296 54.7734 34.2104 54.7734H35.9599L36.5738 51.8882C37.4486 47.7599 37.4025 46.348 36.2822 45.1356C36.1134 44.9361 35.7757 44.6752 35.5455 44.5524C35.0391 44.2915 33.5198 44.1534 32.8905 44.3222Z" fill="white"/>
<path d="M42.9422 44.4642C40.5021 45.1241 39.0901 46.6588 38.6297 49.145C38.4302 50.2346 38.5684 51.4164 39.0288 52.3679C39.6426 53.657 41.162 54.6545 42.8194 54.8541C43.7556 54.9615 46.1497 54.7006 46.3953 54.455C46.5334 54.3169 46.9478 52.153 46.8557 52.0456C46.825 52.0149 46.5487 52.0609 46.2111 52.153C45.3977 52.3832 44.262 52.3679 43.6635 52.107C41.6377 51.2475 41.7452 48.1014 43.8477 47.0732C44.6764 46.6588 46.0116 46.6281 47.0245 46.9965L47.6384 47.2267L48.0374 46.0143L48.4364 44.8019L47.6537 44.5563C46.426 44.188 44.1393 44.1266 42.9422 44.4642Z" fill="white"/>
<path d="M53.0862 44.414C51.1218 44.8437 49.8174 45.8259 49.004 47.468C48.5743 48.3274 48.4208 48.8339 48.3594 49.724C48.1445 52.6092 49.6946 54.5736 52.4724 54.8959C57.322 55.4791 60.6676 52.5018 60.0998 48.1279C59.8235 46.1021 58.4576 44.7669 56.217 44.3526C55.066 44.1377 54.314 44.1531 53.0862 44.414ZM55.6952 46.7467C56.3091 47.115 56.6314 47.867 56.616 48.9566C56.616 50.6294 55.9408 51.9339 54.8204 52.4864C52.9635 53.3765 51.4595 51.673 51.9659 49.2482C52.411 47.161 54.2679 45.9026 55.6952 46.7467Z" fill="white"/>
<path d="M104.36 44.4157C102.197 45.0142 100.846 46.4721 100.248 48.8202C99.7717 50.6465 100.309 52.8257 101.46 53.7926C102.795 54.9283 104.775 55.2966 107.246 54.8669C108.044 54.7288 108.765 54.5446 108.842 54.4679C108.918 54.3911 109.072 53.8233 109.164 53.2094L109.333 52.0891L108.335 52.4267C106.969 52.8871 104.944 52.9178 104.222 52.4728C103.685 52.1505 103.424 51.7361 103.24 50.9841L103.133 50.4777H106.877H110.607L110.714 49.9252C110.76 49.6336 110.775 48.8202 110.745 48.1296C110.637 46.3187 110.023 45.2751 108.627 44.5538C107.906 44.1854 105.481 44.1087 104.36 44.4157ZM107.092 46.3801C107.568 46.6103 108.013 47.4697 108.013 48.1296V48.636H105.864C103.44 48.636 103.424 48.6207 104.069 47.485C104.713 46.334 106.049 45.8583 107.092 46.3801Z" fill="white"/>
<path d="M116.638 44.3387C114.735 44.7377 113.124 45.9808 112.372 47.6076C111.788 48.8967 111.696 50.6923 112.141 51.874C112.602 53.0864 113.338 53.8691 114.489 54.4062C115.349 54.7899 115.61 54.8359 116.991 54.8359C117.835 54.8206 118.817 54.7439 119.155 54.6364C119.799 54.4676 119.799 54.4523 119.968 53.5008C120.229 52.0275 120.214 51.9507 119.723 52.1042C119.477 52.1809 118.802 52.2423 118.188 52.2423C117.006 52.2423 116.561 52.0428 115.947 51.2141C115.257 50.2933 115.502 48.3749 116.423 47.5308C117.313 46.6867 119.017 46.4719 120.413 47.0397C120.797 47.1932 120.935 47.2085 120.981 47.0551C121.257 46.3184 121.672 45.0446 121.672 44.9372C121.672 44.4768 118.05 44.0317 116.638 44.3387Z" fill="white"/>
<path d="M125.124 44.4164C124.71 44.5392 124.311 44.6313 124.265 44.6466C124.203 44.6466 124.127 44.9382 124.065 45.2912C124.004 45.6595 123.927 46.1813 123.881 46.4422L123.789 46.9487L124.679 46.6264C125.876 46.212 127.702 46.166 128.362 46.519C128.838 46.7799 129.191 47.4398 129.191 48.0383C129.191 48.2685 129.007 48.2992 127.242 48.2992C125.539 48.2838 125.14 48.3452 124.188 48.6675C123.574 48.8824 122.838 49.2354 122.546 49.4656C121.395 50.3403 121.027 52.0899 121.717 53.4097C122.669 55.236 125.892 55.4815 127.672 53.8394C128.025 53.5171 128.332 53.2409 128.347 53.2409C128.362 53.2409 128.347 53.5785 128.301 54.0082L128.224 54.7756H129.621H131.017L131.109 54.1924C131.171 53.8855 131.447 52.4275 131.754 50.9542C132.613 46.6878 132.399 45.6595 130.465 44.6927C129.652 44.309 129.406 44.263 127.733 44.2323C126.49 44.2016 125.646 44.263 125.124 44.4164ZM128.639 50.3557C128.132 52.0438 127.211 52.8419 125.861 52.7498C125.293 52.7191 125.093 52.6117 124.848 52.2894C124.587 51.9364 124.556 51.7676 124.679 51.2918C124.894 50.4171 125.769 50.018 127.472 50.018C128.731 50.018 128.746 50.018 128.639 50.3557Z" fill="white"/>
<path d="M82.5372 45.3658C82.4452 45.8569 82.3224 46.4094 82.2763 46.5936C82.1996 46.9465 82.1996 46.9465 84.2868 46.9465C85.4378 46.9465 86.374 46.9926 86.3586 47.054C86.3586 47.1307 85.1309 48.2664 83.6269 49.6169L80.9105 52.057L80.6496 53.3001C80.4961 53.9754 80.3887 54.5893 80.3887 54.6507C80.3887 54.7274 82.3838 54.7734 84.8239 54.7734C88.9215 54.7734 89.2745 54.7581 89.3512 54.4972C89.3973 54.3591 89.5047 53.8833 89.5968 53.469C89.6889 53.0392 89.7963 52.5788 89.8423 52.4407C89.9191 52.1952 89.7196 52.1645 87.571 52.1338L85.2383 52.0877L88.0007 49.6015L90.7785 47.1L90.9627 46.1485C91.0701 45.6114 91.1929 45.0282 91.2389 44.8287L91.3156 44.491H87.0185H82.7061L82.5372 45.3658Z" fill="white"/>
</svg>
