<svg width="71" height="72" viewBox="0 0 71 72" fill="none" xmlns="http://www.w3.org/2000/svg">
<g clip-path="url(#clip0_244_612)">
<path d="M32.2064 0.0915661C27.5829 0.473286 22.8539 2.4082 19.1656 5.4093C15.7408 8.18663 13.0536 12.0565 11.6441 16.2159C11.407 16.953 11.2094 17.5585 11.2358 17.5848C11.4202 17.7428 14.2654 19.059 15.5432 19.5855C17.4532 20.3621 19.0866 20.836 20.7332 21.1256C22.3139 21.3888 22.8408 21.3757 25.0933 20.9939C28.8606 20.3621 30.4677 19.546 33.0758 16.9793C35.5128 14.5837 36.7905 12.4513 38.1077 8.59468C39.0693 5.80418 40.2812 0.973467 40.0705 0.762865C39.9256 0.631237 38.1473 0.289007 36.7246 0.144217C35.5259 0.0125904 33.4315 -0.0137348 32.2064 0.0915661Z" fill="white"/>
<path d="M47.4208 5.37052C43.6271 7.81878 40.9663 11.2016 39.6095 15.3347C38.5689 18.5069 38.1605 22.4031 38.6479 24.5223C39.1353 26.6151 40.413 29.0502 42.4548 31.7617C44.3516 34.3021 51.0301 40.8045 51.557 40.6334C51.8468 40.5413 53.6646 38.3299 54.5999 36.9215C58.5911 30.972 59.6186 23.5745 57.4319 16.7168C56.8787 14.9925 55.2453 11.7676 54.1783 10.2802C53.6778 9.59575 52.703 8.42427 51.9785 7.674C50.6613 6.29191 48.8566 4.73871 48.5668 4.73871C48.4746 4.73871 47.9609 5.02829 47.4208 5.37052Z" fill="white"/>
<path d="M22.2089 24.9565C18.8894 25.4041 15.2011 26.6414 12.1451 28.3262L10.92 29.0107L10.9991 29.4713C11.1703 30.4059 12.1187 33.0648 12.7642 34.3942C15.728 40.449 21.1551 45.0165 27.5965 46.8988C31.377 48.0044 36.3826 48.1229 39.8996 47.1883C40.2816 47.0962 40.6109 46.9909 40.6373 46.9646C40.6505 46.9383 40.7032 45.7668 40.7558 44.3584C40.8744 40.3437 40.5978 36.8688 39.9523 34.6311C38.9249 31.0377 36.4616 28.1551 32.8523 26.2991C30.2442 24.9565 26.0553 24.43 22.2089 24.9565Z" fill="white"/>
<path d="M34.1832 52.4535C33.2875 52.6905 32.4576 53.5592 32.339 54.4016C32.1019 55.9548 32.7737 56.8236 34.7101 57.4422C36.2645 57.9424 36.8836 58.4952 36.8836 59.4166C36.8836 60.8382 35.7112 61.7464 34.394 61.3515C33.788 61.1804 33.3665 60.7329 33.1294 60.0616C32.9845 59.6141 32.9055 59.5614 32.4839 59.5219C31.957 59.4693 31.9307 59.5351 32.1546 60.3248C32.4708 61.47 33.6036 62.2598 34.934 62.2598C36.4225 62.2466 37.4895 61.4568 37.8056 60.1406C38.2272 58.4163 37.3578 57.2579 35.1448 56.5603C33.788 56.1259 33.2611 55.6652 33.2611 54.9018C33.2611 54.3095 33.5904 53.783 34.1569 53.4408C35.0262 52.9011 36.0669 53.296 36.5543 54.3227C36.7782 54.8228 36.8572 54.8886 37.2392 54.8886C37.7398 54.8886 37.7793 54.7307 37.4632 53.9936C36.9231 52.7036 35.5927 52.0718 34.1832 52.4535Z" fill="white"/>
<path d="M48.5669 52.3871C47.0257 52.6504 45.5504 53.7824 44.839 55.2171C44.4965 55.9279 44.457 56.1385 44.457 57.3232C44.457 58.5078 44.4965 58.7184 44.8259 59.4029C45.3132 60.3769 46.2353 61.2983 47.2364 61.7985C47.9609 62.167 48.119 62.1934 49.4626 62.1934C50.793 62.1934 50.9774 62.167 51.6756 61.8248C52.6503 61.3378 53.6119 60.3769 54.0862 59.416C54.5472 58.4552 54.6657 56.9941 54.3496 55.9147C53.6646 53.5323 51.0828 51.9528 48.5669 52.3871ZM51.2014 53.5981C54.3101 55.0592 54.3891 59.3765 51.3199 60.9429C50.5296 61.3378 50.2925 61.4036 49.4758 61.4036C47.8687 61.4036 46.4197 60.4822 45.6952 58.9948C45.2474 58.0734 45.2606 56.665 45.7348 55.6647C46.288 54.4669 47.2891 53.6244 48.5405 53.2954C49.186 53.1243 50.5032 53.269 51.2014 53.5981Z" fill="white"/>
<path d="M-1.90735e-06 57.3114V62.1289H1.81781C4.07031 62.1289 4.78163 61.9446 5.44026 61.2207C6.37551 60.1808 6.33599 58.417 5.34805 57.5483C5.09777 57.3377 4.82115 57.1271 4.71577 57.0876C4.59722 57.0481 4.63673 56.9296 4.88701 56.6532C5.41391 56.0872 5.53247 55.7713 5.53247 55.021C5.53247 54.1128 5.12412 53.3889 4.34694 52.9413C3.79369 52.6123 3.62245 52.5859 1.88367 52.5465L-1.90735e-06 52.4938V57.3114ZM3.70148 53.6258C4.2679 53.8891 4.61039 54.4419 4.61039 55.0737C4.61039 55.4291 4.50501 55.6792 4.16252 56.0477L3.71466 56.5348L2.31837 56.5742L0.922076 56.6269V55.0605C0.922076 54.1918 0.961594 53.4415 1.02746 53.3889C1.18553 53.2178 3.22727 53.3889 3.70148 53.6258ZM4.18887 57.8247C5.45343 58.5092 5.44026 60.3914 4.16252 60.9969C3.83321 61.1549 3.29313 61.2207 2.34471 61.247L0.987939 61.2733L0.948421 59.3779L0.908904 57.4956L2.33154 57.5483C3.34582 57.5878 3.87273 57.6667 4.18887 57.8247Z" fill="white"/>
<path d="M7.63965 57.3245V62.1289H10.0766H12.5135V61.6945V61.2733H10.5771H8.62759L8.58807 56.8901L8.56172 52.5201H8.10069H7.63965V57.3245Z" fill="white"/>
<path d="M13.5674 55.9812C13.5674 59.8247 13.6464 60.3775 14.3577 61.2331C14.9505 61.9439 15.7013 62.2598 16.8078 62.2598C17.8748 62.2598 18.5598 61.9833 19.1921 61.3252C19.9956 60.4696 20.0746 60.0879 20.1273 56.0996L20.1668 52.5194H19.6399H19.0998V56.0338C19.0998 59.1665 19.0735 59.6141 18.8496 60.0879C17.9407 62.1018 15.2271 61.8122 14.6212 59.6404C14.5553 59.3771 14.4895 57.666 14.4895 55.8364V52.5194H14.0284H13.5674V55.9812Z" fill="white"/>
<path d="M21.9981 57.3245V62.1289H24.6326H27.2672V61.6945V61.2733L25.1595 61.3128L23.0519 61.3523V59.4964V57.6536H25.0937H27.1354V57.2587V56.8638H25.0937H23.0519V55.0869V53.3099H25.1595H27.2672V52.915V52.5201H24.6326H21.9981V57.3245Z" fill="white"/>
<path d="M38.3321 52.915V53.2967L39.4254 53.3362L40.5056 53.3757L40.5451 57.7457L40.5714 62.1289H41.0325H41.4935V57.7194V53.3099H42.6132H43.7328V52.915V52.5201H41.0325H38.3321V52.915Z" fill="white"/>
<path d="M56.115 57.3099V62.1275H56.5761H57.0371L57.0634 57.8891L57.103 53.6375L59.9351 57.8496C62.754 62.0353 62.7803 62.0616 63.2677 62.1011L63.7551 62.1406V57.3362V52.5187H63.2941H62.833L62.8067 56.4807L62.7672 60.4295L60.1326 56.507L57.4981 52.5845L56.8 52.545L56.115 52.5055V57.3099Z" fill="white"/>
<path d="M65.7314 57.3245V62.1289H68.3791H71.0136L70.9741 61.7209L70.9346 61.3128L68.827 61.2997L66.7194 61.2733V59.4964V57.7194L68.8006 57.6799L70.8687 57.6404V57.2587V56.8638H68.7611H66.6404L66.6799 55.1132L66.7194 53.3757L68.8665 53.3362L71.0005 53.3099V52.915V52.5201H68.366H65.7314V57.3245Z" fill="white"/>
<path d="M34.3406 64.5104C31.8905 65.0896 30.5996 67.6431 31.6797 69.8282C32.2988 71.1049 33.7741 72 35.2495 72C37.0014 72 38.8192 70.4995 39.0036 68.9068L39.0563 68.5119L36.5799 68.4724L34.1035 68.4461L34.143 68.8015L34.1825 69.17L36.1979 69.2095L38.2001 69.249L37.9367 69.7623C37.4229 70.7759 36.0925 71.434 34.8806 71.3024C32.8521 71.0523 31.5348 69.0647 32.1934 67.2219C32.9838 65.0369 35.8949 64.392 37.4625 66.0636C37.7259 66.3269 37.9762 66.4717 38.2265 66.4717C38.6875 66.4717 38.6875 66.34 38.2396 65.8135C37.7523 65.2344 37.0146 64.7868 36.132 64.5631C35.3022 64.3393 35.0651 64.3393 34.3406 64.5104Z" fill="white"/>
<path d="M0.527342 68.1836V71.8691H0.922518H1.31769L1.34404 68.7233L1.38356 65.5642L2.70081 68.7233C4.42641 72.8827 4.21565 72.8827 5.99395 68.6574L7.3112 65.4984L7.35072 68.6838L7.37706 71.8691H7.77224H8.16742L8.14107 68.2099L8.10155 64.5638L7.56148 64.5244L7.02141 64.4849L5.7305 67.5254C5.01918 69.1971 4.40007 70.5792 4.36055 70.6055C4.32103 70.6318 3.68875 69.2761 2.96426 67.5781L1.64701 64.498H1.09376H0.527342V68.1836Z" fill="white"/>
<path d="M10.6171 68.0767C9.77401 70.0643 9.08904 71.7228 9.08904 71.7754C9.08904 71.8412 9.24711 71.8676 9.4447 71.8412C9.76084 71.8018 9.86622 71.657 10.3273 70.5776L10.841 69.3535L12.5534 69.393L14.2527 69.4325L14.7532 70.6171C15.2143 71.7096 15.2933 71.8018 15.6621 71.8412C15.8861 71.8676 16.0705 71.8544 16.0705 71.8281C16.0705 71.8018 15.3723 70.1564 14.5161 68.1688C12.9881 64.6281 12.9486 64.5623 12.5534 64.5228L12.1582 64.4833L10.6171 68.0767ZM12.6061 68.6822C11.8816 68.6954 11.2625 68.6954 11.2362 68.6559C11.2098 68.6295 11.4864 67.8793 11.8684 66.9974L12.5534 65.3915L13.2384 67.0237L13.9234 68.6427L12.6061 68.6822Z" fill="white"/>
<path d="M16.9922 68.1704V71.8691H17.3215H17.6508L17.6772 68.6706L17.7167 65.4852L19.877 68.6838C21.8529 71.5664 22.0768 71.8691 22.4193 71.8691H22.7881V68.1704V64.4849L22.4324 64.5244L22.0636 64.5638L22.0241 67.5649L21.9978 70.566L19.9692 67.5649C18.0065 64.6428 17.9406 64.5638 17.4664 64.5244L16.9922 64.4849V68.1704Z" fill="white"/>
<path d="M26.7801 64.656C26.6484 64.8403 23.7109 71.6585 23.7109 71.7902C23.7109 71.8297 23.869 71.8691 24.0798 71.8691C24.4091 71.8691 24.4881 71.7638 24.9623 70.645L25.4892 69.434H27.2017H28.9009L29.4278 70.645C29.902 71.777 29.9679 71.8691 30.3236 71.8691C30.5211 71.8691 30.6924 71.8297 30.6924 71.7902C30.6924 71.6585 27.7549 64.8403 27.6232 64.656C27.5573 64.577 27.3597 64.498 27.2017 64.498C27.0436 64.498 26.846 64.577 26.7801 64.656ZM27.8998 67.0648L28.5716 68.6443L27.2412 68.6838C26.5167 68.6969 25.8976 68.6969 25.8712 68.6706C25.8449 68.6443 26.1347 67.9072 26.5035 67.0253C26.8855 66.1434 27.2017 65.4457 27.2148 65.4589C27.228 65.4721 27.5441 66.196 27.8998 67.0648Z" fill="white"/>
<path d="M40.268 64.577C40.2153 64.6297 40.1758 66.2882 40.1758 68.2757V71.8691H42.2175H44.2593V71.5401V71.211H42.6127H40.9661V69.8289V68.4468H42.5468H44.1275V68.1178V67.7887H42.5468H40.9661V66.4724V65.1562H42.6259C44.2593 65.1562 44.2724 65.1562 44.2329 64.8534C44.1934 64.5638 44.1539 64.5638 42.2702 64.5244C41.2164 64.5112 40.3207 64.5375 40.268 64.577Z" fill="white"/>
<path d="M45.577 68.1836V71.8691H45.9722H46.3673L46.3937 68.7233L46.4332 65.5774L47.7373 68.7364C49.4629 72.8827 49.2521 72.8827 51.0304 68.6443L52.3609 65.4852L52.4004 68.6706L52.4267 71.8691H52.8219H53.2171L53.1907 68.2099L53.1512 64.5638L52.6111 64.5244L52.0711 64.4849L50.7801 67.486C50.082 69.1313 49.4629 70.5265 49.4102 70.5792C49.3575 70.6318 48.7647 69.3682 48.0929 67.7492C47.408 66.1434 46.802 64.7481 46.723 64.656C46.6571 64.577 46.3673 64.498 46.0907 64.498H45.577V68.1836Z" fill="white"/>
<path d="M54.666 68.1836V71.8691H56.6419H58.6178V71.5401V71.211H56.9712H55.3115L55.351 69.8552L55.3905 68.5127L56.9449 68.4732L58.4861 68.4337V68.1178V67.7887H56.9054H55.3115L55.351 66.4988L55.3905 65.222L57.0108 65.1825L58.6178 65.143V64.8271V64.498H56.6419H54.666V68.1836Z" fill="white"/>
<path d="M60.0278 64.5902C59.9751 64.6297 59.9355 66.2882 59.9355 68.2757V71.8691H60.3307H60.7259L60.7522 68.6969L60.7918 65.5379L62.9389 68.6969C64.9279 71.6454 65.1124 71.8691 65.4812 71.8691H65.8632L65.8368 68.2099L65.7973 64.5638L65.4417 64.5244L65.0728 64.4849L65.0465 67.5123L65.007 70.5397L62.9652 67.5123C61.042 64.656 60.9103 64.498 60.5283 64.498C60.2912 64.498 60.0673 64.5375 60.0278 64.5902Z" fill="white"/>
<path d="M66.6533 64.8271C66.6533 65.1298 66.706 65.143 67.4832 65.1825L68.2999 65.222L68.3394 68.539L68.3658 71.8691H68.6951H69.0244L69.0507 68.539L69.0902 65.222L69.9201 65.1825C70.6841 65.143 70.7368 65.1298 70.7368 64.8271V64.498H68.6951H66.6533V64.8271Z" fill="white"/>
</g>
<defs>
<clipPath id="clip0_244_612">
<rect width="71" height="72" fill="white"/>
</clipPath>
</defs>
</svg>
