<svg width="72" height="72" viewBox="0 0 72 72" fill="none" xmlns="http://www.w3.org/2000/svg">
<path d="M27.4834 2.46092C28.3152 2.96356 28.9415 3.72347 29.25 4.6406C29.2849 5.04443 29.2849 5.04443 29.2846 5.49799C29.2852 5.67132 29.2857 5.84466 29.2863 6.02325C29.2855 6.21518 29.2847 6.40711 29.2838 6.59903C29.2839 6.80324 29.2842 7.00744 29.2845 7.21164C29.2852 7.77284 29.284 8.33401 29.2826 8.8952C29.2814 9.50035 29.2818 10.1055 29.2821 10.7107C29.2822 11.7591 29.2813 12.8076 29.2797 13.8561C29.2774 15.372 29.2767 16.888 29.2764 18.4039C29.2757 20.8634 29.2739 23.3228 29.2712 25.7822C29.2686 28.1715 29.2666 30.5607 29.2654 32.95C29.2654 33.0973 29.2653 33.2445 29.2652 33.3962C29.2649 34.1349 29.2645 34.8736 29.2642 35.6124C29.2612 41.7416 29.2562 47.8708 29.25 54C30.735 54 32.22 54 33.75 54C33.6572 53.3967 33.5644 52.7934 33.4687 52.1719C33.429 51.8492 33.3918 51.5262 33.3594 51.2027C33.3425 51.0367 33.3256 50.8707 33.3082 50.6997C33.2912 50.5277 33.2742 50.3556 33.2567 50.1784C33.2384 49.9968 33.2201 49.8152 33.2012 49.6282C33.1531 49.1522 33.1056 48.6762 33.0583 48.2002C33.0096 47.7118 32.9604 47.2234 32.9112 46.735C32.8153 45.7817 32.7199 44.8284 32.625 43.875C32.4916 43.8605 32.3582 43.846 32.2207 43.831C31.7812 43.7344 31.7812 43.7344 31.5 43.3125C31.469 42.8908 31.4539 42.4825 31.4528 42.0606C31.4514 41.8762 31.4514 41.8762 31.4499 41.6881C31.4485 41.4282 31.4478 41.1682 31.4479 40.9083C31.4473 40.5107 31.4422 40.1134 31.4368 39.7158C31.436 39.4632 31.4354 39.2106 31.4352 38.958C31.4321 38.7798 31.4321 38.7798 31.4291 38.598C31.433 38.0879 31.4484 37.7742 31.7127 37.3302C32.2092 37.0389 32.6662 37.055 33.2248 37.07C33.3364 37.0708 33.448 37.0716 33.5629 37.0725C33.9184 37.0756 34.2736 37.0827 34.6289 37.0898C34.8702 37.0926 35.1116 37.0952 35.3529 37.0975C35.9437 37.1037 36.5343 37.1134 37.125 37.125C37.1221 36.9408 37.1191 36.7566 37.1161 36.5669C37.1058 35.8729 37.0994 35.1789 37.0941 34.4848C37.0913 34.1864 37.0875 33.8881 37.0826 33.5897C37.0464 31.3361 37.1233 29.2461 38.2324 27.2197C38.2817 27.1262 38.3309 27.0327 38.3817 26.9364C38.5218 26.6742 38.6658 26.4148 38.8125 26.1562C38.8805 26.0364 38.9485 25.9166 39.0185 25.7931C40.769 22.977 43.6532 21.1832 46.8281 20.3906C50.0184 19.6562 53.1871 20.3594 55.9688 21.9375C56.0886 22.0055 56.2084 22.0734 56.3318 22.1435C59.1479 23.894 60.9417 26.7781 61.7344 29.9531C61.8473 30.4456 61.8917 30.8966 61.8887 31.4017C61.8883 31.539 61.8878 31.6763 61.8874 31.8178C61.8862 31.9594 61.885 32.1011 61.8838 32.247C61.8832 32.3914 61.8825 32.5358 61.8819 32.6846C61.8802 33.0397 61.8779 33.3948 61.875 33.75C61.9595 33.7763 62.0441 33.8025 62.1312 33.8296C63.5021 34.2685 64.2356 34.8344 64.9506 36.1027C65.2454 36.6953 65.2698 37.16 65.2749 37.8161C65.2758 37.9145 65.2767 38.0129 65.2777 38.1142C65.2805 38.4398 65.2821 38.7654 65.2835 39.091C65.2841 39.2024 65.2847 39.3139 65.2852 39.4288C65.2882 40.0191 65.2902 40.6094 65.2915 41.1997C65.2931 41.8076 65.2979 42.4155 65.3035 43.0234C65.3072 43.4923 65.3083 43.9613 65.3088 44.4302C65.3095 44.6542 65.3112 44.8782 65.3138 45.1021C65.3376 47.2814 65.3376 47.2814 64.6875 48.2344C64.4271 48.4645 64.4271 48.4645 64.1777 48.6123C63.7143 48.9827 63.6279 49.2562 63.5535 49.8383C63.5319 50.0022 63.5104 50.1661 63.4882 50.335C63.4659 50.5254 63.4438 50.7158 63.4219 50.9062C63.4033 51.0619 63.4033 51.0619 63.3844 51.2208C63.281 52.0913 63.1856 52.9625 63.0917 53.8341C63.0767 53.9737 63.0616 54.1132 63.046 54.257C62.966 54.9985 62.8866 55.74 62.8076 56.4815C62.7433 57.0835 62.678 57.6853 62.6116 58.287C62.5146 59.1667 62.4198 60.0467 62.3271 60.9269C62.3044 61.1414 62.3044 61.1414 62.2813 61.3603C62.0602 63.4863 61.9296 65.5998 61.939 67.7379C61.9377 68.0149 61.9377 68.0149 61.9363 68.2975C61.9378 68.457 61.9392 68.6165 61.9407 68.7809C61.8572 69.2973 61.722 69.431 61.3125 69.75C60.897 69.8205 60.897 69.8205 60.4015 69.8208C60.3099 69.8216 60.2182 69.8224 60.1238 69.8232C59.8153 69.8253 59.507 69.8233 59.1986 69.8214C58.9758 69.8221 58.7529 69.823 58.5301 69.8241C57.9168 69.8264 57.3035 69.8252 56.6901 69.8235C56.0291 69.8222 55.368 69.8242 54.707 69.8258C53.4116 69.8283 52.1162 69.8277 50.8208 69.8261C49.7682 69.8248 48.7157 69.8246 47.6632 69.8252C47.5136 69.8253 47.3639 69.8254 47.2098 69.8255C46.9058 69.8257 46.6019 69.8259 46.2979 69.8261C43.4459 69.8277 40.5938 69.8258 37.7417 69.8228C35.2929 69.8203 32.8441 69.8207 30.3953 69.8233C27.5537 69.8263 24.712 69.8275 21.8703 69.8258C21.5675 69.8256 21.2646 69.8254 20.9618 69.8252C20.7383 69.8251 20.7383 69.8251 20.5102 69.825C19.4586 69.8245 18.407 69.8253 17.3554 69.8266C16.0743 69.8282 14.7933 69.8278 13.5122 69.8248C12.8582 69.8233 12.2042 69.8227 11.5503 69.8246C10.9521 69.8263 10.354 69.8254 9.75578 69.8224C9.53889 69.8217 9.322 69.8221 9.10511 69.8234C8.81116 69.8251 8.51742 69.8234 8.22348 69.8208C8.05996 69.8207 7.89644 69.8206 7.72796 69.8205C7.21941 69.7342 7.0524 69.6 6.75 69.1875C6.62509 68.1013 6.9183 67.1379 7.20648 66.0959C7.2776 65.8269 7.34873 65.5579 7.41954 65.2888C7.59221 64.6341 7.76766 63.9802 7.94754 63.3274C8.09773 62.7807 8.24329 62.233 8.38421 61.6838C8.4074 61.5935 8.43059 61.5032 8.45448 61.4102C8.85028 59.8338 8.97427 58.3293 8.9548 56.7069C8.94508 55.2021 8.94508 55.2021 9.5625 54.5625C10.2631 53.9926 10.7473 53.9202 11.6122 53.9361C11.7303 53.936 11.8484 53.936 11.97 53.9359C12.3581 53.9363 12.7461 53.9406 13.1342 53.945C13.4041 53.9461 13.674 53.9469 13.944 53.9475C14.6528 53.9496 15.3616 53.9551 16.0704 53.9614C16.7943 53.9671 17.5183 53.9697 18.2422 53.9725C19.6615 53.9785 21.0808 53.9881 22.5 54C22.4998 53.896 22.4996 53.7919 22.4993 53.6848C22.4868 47.5209 22.4771 41.357 22.4713 35.1931C22.4706 34.4532 22.4698 33.7132 22.4691 32.9732C22.469 32.8259 22.4688 32.6785 22.4687 32.5268C22.4662 30.1409 22.4618 27.7551 22.4566 25.3692C22.4513 22.9214 22.4482 20.4736 22.4471 18.0258C22.4463 16.5151 22.4439 15.0045 22.4393 13.4939C22.4363 12.4582 22.4354 11.4226 22.4362 10.3869C22.4365 9.78921 22.436 9.19158 22.4329 8.59391C22.4302 8.04651 22.4301 7.49918 22.432 6.95178C22.4322 6.75397 22.4315 6.55616 22.4297 6.35837C22.4191 5.09281 22.4766 4.18423 23.3388 3.2003C23.4303 3.12452 23.5219 3.04875 23.6162 2.97068C23.7074 2.89273 23.7986 2.81479 23.8925 2.73448C24.8859 2.04999 26.3803 1.97211 27.4834 2.46092ZM25.1279 4.89549C24.7377 5.40138 24.7325 5.81353 24.7327 6.43238C24.7324 6.60173 24.7321 6.77108 24.7318 6.94556C24.7322 7.13444 24.7327 7.32333 24.7331 7.51221C24.733 7.71212 24.7329 7.91202 24.7327 8.11192C24.7324 8.66252 24.733 9.21311 24.7337 9.76371C24.7343 10.357 24.7341 10.9502 24.734 11.5435C24.7339 12.5718 24.7343 13.6001 24.7351 14.6284C24.7363 16.1152 24.7366 17.602 24.7368 19.0887C24.7371 21.5008 24.7381 23.9128 24.7394 26.3248C24.7407 28.6683 24.7417 31.0117 24.7423 33.3551C24.7423 33.4995 24.7423 33.6439 24.7424 33.7927C24.7426 34.517 24.7427 35.2413 24.7429 35.9656C24.7444 41.9771 24.7469 47.9885 24.75 54C25.4925 54 26.235 54 27 54C27.0096 47.8517 27.0171 41.7033 27.0215 35.555C27.0221 34.8294 27.0226 34.1039 27.0232 33.3783C27.0233 33.1616 27.0233 33.1616 27.0235 32.9406C27.0253 30.6005 27.0287 28.2603 27.0325 25.9202C27.0365 23.5198 27.0388 21.1193 27.0397 18.7188C27.0403 17.2372 27.0421 15.7555 27.0455 14.2738C27.0478 13.2583 27.0484 12.2428 27.0479 11.2273C27.0476 10.641 27.048 10.0548 27.0503 9.46859C27.0523 8.93197 27.0524 8.39539 27.051 7.85877C27.0508 7.66457 27.0514 7.47036 27.0527 7.27616C27.0544 7.01221 27.0532 6.74825 27.0519 6.48429C27.0521 6.33766 27.0522 6.19103 27.0524 6.03995C26.99 5.54608 26.8325 5.20687 26.5781 4.78123C26.0444 4.51437 25.5975 4.52743 25.1279 4.89549ZM42.5115 25.3379C40.3045 27.4779 39.4214 30.1494 39.3648 33.1712C39.3503 34.4894 39.364 35.8066 39.375 37.125C41.2312 37.125 43.0875 37.125 45 37.125C45.3248 36.4753 45.6497 35.8256 45.9844 35.1562C46.9716 34.2461 47.9178 33.8272 49.264 33.8298C49.433 33.8277 49.433 33.8277 49.6053 33.8255C49.9743 33.8212 50.3433 33.8199 50.7123 33.8186C50.9695 33.8163 51.2266 33.8137 51.4837 33.811C52.1581 33.8043 52.8324 33.8001 53.5068 33.7964C54.1959 33.7922 54.885 33.7857 55.5741 33.7794C56.9244 33.7673 58.2747 33.7578 59.625 33.75C59.6104 33.3064 59.5927 32.863 59.5745 32.4195C59.5704 32.2956 59.5663 32.1716 59.5622 32.0438C59.4402 29.2268 58.0683 26.8845 56.0797 24.9499C52.1096 21.5025 46.2847 21.8362 42.5115 25.3379ZM47.7574 36.6593C47.1512 37.4429 47.2752 38.4289 47.2885 39.3722C47.2886 39.5776 47.2885 39.7829 47.288 39.9882C47.2881 40.417 47.291 40.8456 47.2961 41.2743C47.3025 41.8234 47.3026 42.3722 47.3007 42.9213C47.2998 43.3446 47.3016 43.7679 47.3044 44.1913C47.3055 44.3937 47.3058 44.5962 47.3054 44.7986C47.3053 45.0813 47.3092 45.364 47.3134 45.6466C47.3147 45.8073 47.316 45.9679 47.3173 46.1335C47.4065 46.6365 47.5501 46.8041 47.9531 47.1094C48.375 47.2031 48.375 47.2031 48.7969 47.1094C49.1973 46.7955 49.3383 46.6101 49.5 46.125C49.5119 45.7817 49.5163 45.4426 49.5137 45.0994C49.5134 44.9505 49.5134 44.9505 49.5131 44.7985C49.5123 44.4819 49.5106 44.1653 49.5088 43.8486C49.5081 43.6337 49.5074 43.4189 49.5069 43.204C49.5054 42.6776 49.5027 42.1513 49.5 41.625C50.2425 41.625 50.985 41.625 51.75 41.625C51.7451 41.94 51.7402 42.2551 51.7352 42.5797C51.7319 42.8869 51.7293 43.194 51.7268 43.5012C51.7247 43.7137 51.7218 43.9262 51.7182 44.1387C51.713 44.4452 51.7107 44.7517 51.7088 45.0582C51.7066 45.2423 51.7044 45.4264 51.7021 45.6161C51.7537 46.1648 51.8826 46.5028 52.1719 46.9687C52.5714 47.1685 52.8546 47.1536 53.2969 47.1094C53.6973 46.7955 53.8383 46.6101 54 46.125C54.0119 45.7817 54.0163 45.4426 54.0137 45.0994C54.0134 44.9505 54.0134 44.9505 54.0131 44.7985C54.0123 44.4819 54.0106 44.1653 54.0088 43.8486C54.0081 43.6337 54.0074 43.4189 54.0069 43.204C54.0054 42.6776 54.0027 42.1513 54 41.625C54.7425 41.625 55.485 41.625 56.25 41.625C56.2451 41.94 56.2402 42.2551 56.2352 42.5797C56.2319 42.8869 56.2293 43.194 56.2268 43.5012C56.2247 43.7137 56.2218 43.9262 56.2182 44.1387C56.213 44.4452 56.2107 44.7517 56.2088 45.0582C56.2055 45.3344 56.2055 45.3344 56.2021 45.6161C56.2537 46.1648 56.3826 46.5028 56.6719 46.9687C57.0714 47.1685 57.3546 47.1536 57.7969 47.1094C58.1973 46.7955 58.3383 46.6101 58.5 46.125C58.5119 45.7817 58.5163 45.4426 58.5137 45.0994C58.5135 45.0001 58.5133 44.9008 58.5131 44.7985C58.5123 44.4819 58.5106 44.1653 58.5088 43.8486C58.5081 43.6337 58.5074 43.4189 58.5069 43.204C58.5054 42.6776 58.5027 42.1513 58.5 41.625C59.2425 41.625 59.985 41.625 60.75 41.625C60.7451 41.94 60.7402 42.2551 60.7352 42.5797C60.7319 42.8869 60.7293 43.194 60.7268 43.5012C60.7247 43.7137 60.7218 43.9262 60.7182 44.1387C60.713 44.4452 60.7107 44.7517 60.7088 45.0582C60.7066 45.2423 60.7044 45.4264 60.7021 45.6161C60.7537 46.1648 60.8826 46.5028 61.1719 46.9687C61.5714 47.1685 61.8546 47.1536 62.2969 47.1094C62.7398 46.7741 62.9019 46.5208 63 45.9844C63.0134 45.7233 63.0194 45.4617 63.0204 45.2003C63.0213 45.043 63.0222 44.8858 63.0231 44.7238C63.0233 44.5544 63.0235 44.3851 63.0236 44.2106C63.0241 44.0358 63.0246 43.861 63.025 43.681C63.0257 43.3111 63.0261 42.9412 63.0261 42.5713C63.026 42.1931 63.027 41.8149 63.0289 41.4367C63.0315 40.8906 63.0322 40.3446 63.0324 39.7985C63.0339 39.5458 63.0339 39.5458 63.0355 39.2879C63.0606 37.9184 63.0606 37.9184 62.5007 36.7086C62.4189 36.643 62.3372 36.5774 62.2529 36.5097C62.1723 36.4419 62.0916 36.3741 62.0085 36.3043C61.3635 35.9191 60.612 35.9791 59.8827 35.9795C59.7121 35.9788 59.7121 35.9788 59.538 35.9781C59.1631 35.9768 58.7882 35.9765 58.4132 35.9764C58.1517 35.9759 57.8903 35.9754 57.6288 35.9749C57.081 35.9741 56.5332 35.9738 55.9854 35.9739C55.2848 35.9739 54.5842 35.972 53.8836 35.9696C53.3437 35.968 52.8037 35.9677 52.2637 35.9678C52.0054 35.9677 51.7472 35.967 51.489 35.9659C51.1272 35.9646 50.7655 35.965 50.4037 35.9658C50.2979 35.965 50.1921 35.9642 50.083 35.9634C49.2543 35.9683 48.3612 36.0269 47.7574 36.6593ZM33.75 39.375C33.75 40.1175 33.75 40.86 33.75 41.625C37.4625 41.625 41.175 41.625 45 41.625C45 40.8825 45 40.14 45 39.375C41.2875 39.375 37.575 39.375 33.75 39.375ZM35.0156 43.875C35.1751 45.4151 35.3347 46.9552 35.499 48.542C35.5491 49.0275 35.5992 49.5129 35.6509 50.0131C35.6909 50.3978 35.7309 50.7825 35.7709 51.1672C35.7812 51.2667 35.7914 51.3662 35.8019 51.4687C35.8322 51.7632 35.8629 52.0577 35.8937 52.3521C35.9108 52.5179 35.928 52.6838 35.9457 52.8546C35.9933 53.2424 36.0576 53.6185 36.1406 54C36.2938 54.0013 36.447 54.0026 36.6049 54.004C37.1757 54.0096 37.7465 54.0188 38.3173 54.0292C38.5639 54.0331 38.8105 54.0361 39.0571 54.0381C39.4125 54.0411 39.7678 54.0477 40.1232 54.0549C40.2326 54.0551 40.3421 54.0553 40.4549 54.0554C41.1844 54.0749 41.6159 54.2116 42.1875 54.7031C42.5933 55.2225 42.6592 55.597 42.6517 56.2483C42.6523 56.413 42.6529 56.5776 42.6536 56.7472C42.6535 56.9225 42.6534 57.0977 42.6533 57.2783C42.6392 60.3037 42.6392 60.3037 43.7344 63C43.9407 63.0134 44.1477 63.0171 44.3546 63.0169C44.5554 63.0172 44.5554 63.0172 44.7603 63.0175C44.9084 63.017 45.0565 63.0165 45.209 63.0159C45.3641 63.016 45.5191 63.016 45.6788 63.016C46.1939 63.0159 46.709 63.0148 47.2242 63.0137C47.5803 63.0135 47.9363 63.0132 48.2924 63.0131C49.1356 63.0126 49.9787 63.0115 50.8219 63.0101C51.7816 63.0085 52.7413 63.0078 53.701 63.0071C55.6757 63.0056 57.6503 63.0031 59.625 63C59.8452 62.5596 59.848 62.0788 59.8978 61.5945C59.9101 61.4783 59.9225 61.3621 59.9352 61.2424C59.9761 60.8568 60.0162 60.471 60.0562 60.0853C60.0844 59.8173 60.1125 59.5492 60.1407 59.2812C60.1998 58.7182 60.2585 58.1553 60.317 57.5923C60.3917 56.8725 60.4674 56.1529 60.5435 55.4333C60.6019 54.8791 60.6598 54.3249 60.7176 53.7706C60.7452 53.5054 60.7731 53.2402 60.8012 52.975C60.8404 52.6029 60.879 52.2307 60.9173 51.8584C60.9289 51.7498 60.9405 51.6412 60.9525 51.5293C61.0215 50.8492 61.0413 50.1836 61.0312 49.5C60.2625 48.9489 60.2625 48.9489 59.3789 48.876C59.2223 48.976 59.2223 48.976 59.0625 49.0781C58.2087 49.4892 57.3184 49.4517 56.3906 49.3594C56.0369 49.2231 56.0369 49.2231 55.749 49.0605C55.2982 48.7451 55.2982 48.7451 54.8877 48.8847C54.7267 48.9805 54.7267 48.9805 54.5625 49.0781C53.7072 49.4877 52.8196 49.4518 51.8906 49.3594C51.5369 49.2231 51.5369 49.2231 51.249 49.0605C50.7982 48.7451 50.7982 48.7451 50.3877 48.8847C50.2267 48.9805 50.2267 48.9805 50.0625 49.0781C49.1428 49.5185 48.0219 49.5254 47.0418 49.2676C46.0662 48.8279 45.5289 48.08 45.1406 47.1094C45.0942 46.042 45.0478 44.9747 45 43.875C41.7052 43.875 38.4103 43.875 35.0156 43.875ZM11.25 56.25C11.25 56.9925 11.25 57.735 11.25 58.5C20.9025 58.5 30.555 58.5 40.5 58.5C40.5 57.7575 40.5 57.015 40.5 56.25C30.8475 56.25 21.195 56.25 11.25 56.25ZM11.1094 60.75C10.6966 61.8962 10.4079 63.0697 10.1149 64.2508C10.0278 64.6018 9.93951 64.9526 9.85116 65.3033C9.79534 65.5268 9.73959 65.7504 9.6839 65.974C9.65754 66.0786 9.63117 66.1832 9.60402 66.2909C9.50192 66.705 9.42187 67.0717 9.42187 67.5C10.0716 67.5 10.7212 67.5 11.3906 67.5C11.8034 66.3537 12.0921 65.1803 12.3851 63.9991C12.4722 63.6481 12.5605 63.2974 12.6488 62.9467C12.7047 62.7231 12.7604 62.4996 12.8161 62.276C12.8425 62.1714 12.8688 62.0668 12.896 61.959C12.9981 61.545 13.0781 61.1782 13.0781 60.75C12.4284 60.75 11.7787 60.75 11.1094 60.75ZM15.6094 60.75C15.1966 61.8962 14.9079 63.0697 14.6149 64.2508C14.5278 64.6018 14.4395 64.9526 14.3512 65.3033C14.2953 65.5268 14.2396 65.7504 14.1839 65.974C14.1575 66.0786 14.1312 66.1832 14.104 66.2909C14.0019 66.705 13.9219 67.0717 13.9219 67.5C14.5716 67.5 15.2212 67.5 15.8906 67.5C16.3034 66.3537 16.5921 65.1803 16.8851 63.9991C16.9722 63.6481 17.0605 63.2974 17.1488 62.9467C17.2047 62.7231 17.2604 62.4996 17.3161 62.276C17.3425 62.1714 17.3688 62.0668 17.396 61.959C17.4981 61.545 17.5781 61.1782 17.5781 60.75C16.9284 60.75 16.2787 60.75 15.6094 60.75ZM20.1094 60.75C19.6966 61.8962 19.4079 63.0697 19.1149 64.2508C19.0278 64.6018 18.9395 64.9526 18.8512 65.3033C18.7953 65.5268 18.7396 65.7504 18.6839 65.974C18.6575 66.0786 18.6312 66.1832 18.604 66.2909C18.5019 66.705 18.4219 67.0717 18.4219 67.5C18.9111 67.504 19.4004 67.5066 19.8896 67.5088C20.0293 67.5099 20.169 67.5111 20.3129 67.5123C20.4457 67.5128 20.5785 67.5132 20.7153 67.5137C20.8997 67.5148 20.8997 67.5148 21.0879 67.5159C21.3742 67.532 21.3742 67.532 21.5156 67.3594C21.5784 66.9562 21.6334 66.5546 21.6832 66.1498C21.7063 65.9663 21.7063 65.9663 21.7299 65.7791C21.7624 65.5193 21.7947 65.2594 21.8266 64.9996C21.8754 64.6041 21.9255 64.2088 21.9757 63.8135C22.0072 63.561 22.0386 63.3085 22.0699 63.056C22.0848 62.9385 22.0998 62.821 22.1152 62.6999C22.1288 62.5878 22.1424 62.4757 22.1564 62.3602C22.1745 62.2143 22.1745 62.2143 22.193 62.0653C22.227 61.6281 22.2187 61.1885 22.2187 60.75C21.5227 60.75 20.8266 60.75 20.1094 60.75ZM24.6094 60.8906C24.5466 61.2938 24.4916 61.6953 24.4418 62.1002C24.4264 62.2225 24.411 62.3448 24.3951 62.4709C24.3626 62.7307 24.3303 62.9905 24.2984 63.2504C24.2496 63.6459 24.1995 64.0412 24.1493 64.4364C24.1178 64.6889 24.0864 64.9414 24.0551 65.1939C24.0402 65.3115 24.0252 65.429 24.0098 65.5501C23.9962 65.6622 23.9826 65.7742 23.9686 65.8897C23.9565 65.987 23.9444 66.0844 23.932 66.1846C23.898 66.6218 23.9062 67.0614 23.9062 67.5C25.2056 67.5 26.505 67.5 27.8437 67.5C27.7621 66.0971 27.6378 64.7104 27.4599 63.3166C27.421 63.011 27.3835 62.7053 27.3461 62.3996C27.3216 62.2046 27.2971 62.0096 27.2725 61.8146C27.2505 61.6402 27.2286 61.4658 27.206 61.2862C27.1825 60.9052 27.1825 60.9052 27 60.75C26.6235 60.7359 26.2514 60.7305 25.875 60.7324C25.7695 60.7319 25.664 60.7313 25.5553 60.7308C25.0402 60.6829 25.0402 60.6829 24.6094 60.8906ZM29.5312 60.75C29.6087 62.1524 29.7373 63.5403 29.9151 64.9334C29.954 65.2389 29.9915 65.5446 30.0289 65.8504C30.0534 66.0454 30.0779 66.2404 30.1025 66.4354C30.1245 66.6098 30.1464 66.7841 30.169 66.9638C30.1925 67.3448 30.1925 67.3448 30.375 67.5C30.5946 67.5122 30.8148 67.515 31.0347 67.5137C31.1675 67.5133 31.3003 67.5128 31.4371 67.5123C31.6466 67.5106 31.6466 67.5106 31.8603 67.5088C32.0006 67.5081 32.1408 67.5075 32.2852 67.5068C32.6329 67.5052 32.9805 67.5029 33.3281 67.5C33.1238 66.2088 32.8117 64.9477 32.4926 63.6812C32.4043 63.33 32.317 62.9785 32.2298 62.627C32.1739 62.4038 32.118 62.1806 32.0619 61.9574C32.0359 61.8522 32.0098 61.7471 31.9829 61.6387C31.8914 61.1544 31.8914 61.1544 31.6406 60.75C31.2845 60.7397 30.9331 60.737 30.5771 60.7412C30.2285 60.7441 29.8799 60.747 29.5312 60.75ZM34.1719 60.75C34.3762 62.0412 34.6883 63.3023 35.0073 64.5688C35.0957 64.92 35.183 65.2715 35.2702 65.623C35.3261 65.8462 35.382 66.0694 35.438 66.2926C35.4641 66.3977 35.4902 66.5029 35.5171 66.6112C35.6086 67.0956 35.6086 67.0956 35.8594 67.5C36.1903 67.5102 36.5215 67.5117 36.8525 67.5088C37.034 67.5075 37.2154 67.5062 37.4024 67.5049C37.6131 67.5025 37.6131 67.5025 37.8281 67.5C37.6238 66.2088 37.3117 64.9477 36.9926 63.6812C36.9043 63.33 36.817 62.9785 36.7298 62.627C36.6739 62.4038 36.618 62.1806 36.5619 61.9574C36.5359 61.8522 36.5098 61.7471 36.4829 61.6387C36.3914 61.1544 36.3914 61.1544 36.1406 60.75C35.8097 60.7398 35.4785 60.7382 35.1475 60.7412C34.966 60.7425 34.7845 60.7437 34.5976 60.745C34.4571 60.7467 34.3166 60.7483 34.1719 60.75ZM38.6719 60.75C38.8762 62.0412 39.1883 63.3023 39.5073 64.5688C39.5957 64.92 39.683 65.2715 39.7702 65.623C39.8261 65.8462 39.882 66.0694 39.938 66.2926C39.9641 66.3977 39.9902 66.5029 40.0171 66.6112C40.1086 67.0956 40.1086 67.0956 40.3594 67.5C40.6903 67.5102 41.0215 67.5117 41.3525 67.5088C41.534 67.5075 41.7154 67.5062 41.9024 67.5049C42.1131 67.5025 42.1131 67.5025 42.3281 67.5C42.1238 66.2088 41.8117 64.9477 41.4926 63.6812C41.4043 63.33 41.317 62.9785 41.2298 62.627C41.1739 62.4038 41.118 62.1806 41.0619 61.9574C41.0359 61.8522 41.0098 61.7471 40.9829 61.6387C40.8914 61.1544 40.8914 61.1544 40.6406 60.75C40.3097 60.7398 39.9785 60.7382 39.6475 60.7412C39.466 60.7425 39.2845 60.7437 39.0976 60.745C38.9571 60.7467 38.8166 60.7483 38.6719 60.75ZM44.2969 65.25C44.5034 66.6777 44.5034 66.6777 44.8594 67.5C49.732 67.5 54.6047 67.5 59.625 67.5C59.625 66.7575 59.625 66.015 59.625 65.25C54.5667 65.25 49.5084 65.25 44.2969 65.25Z" fill="#025D67"/>
<path d="M8.4375 41.625C8.92536 42.0138 9.14906 42.4432 9.4043 43.0048C10.1896 44.6106 11.2855 45.3923 12.8848 46.1689C13.3594 46.4062 13.3594 46.4062 13.5 46.6875C13.5824 47.7091 13.5824 47.7091 13.2671 48.1047C12.9017 48.4044 12.55 48.5839 12.1201 48.7793C10.5144 49.5646 9.73268 50.6605 8.95606 52.2597C8.71875 52.7343 8.71875 52.7343 8.4375 52.875C7.41588 52.9573 7.41588 52.9573 7.02026 52.6421C6.7206 52.2766 6.54105 51.9249 6.3457 51.4951C5.56038 49.8894 4.46451 49.1076 2.86524 48.331C2.39063 48.0937 2.39063 48.0937 2.25 47.8125C2.16761 46.7908 2.16761 46.7908 2.48291 46.3952C2.84835 46.0956 3.20002 45.916 3.62988 45.7207C5.23561 44.9353 6.01732 43.8395 6.79395 42.2402C7.14844 41.5312 7.68202 41.4696 8.4375 41.625ZM7.73438 45.4218C7.5045 45.6545 7.5045 45.6545 7.26856 45.9492C6.89237 46.3946 6.50542 46.7481 6.04688 47.1093C6.04688 47.2021 6.04688 47.295 6.04688 47.3906C6.27954 47.6205 6.27954 47.6205 6.57422 47.8564C7.01967 48.2326 7.3731 48.6195 7.73438 49.0781C7.82719 49.0781 7.92 49.0781 8.01563 49.0781C8.2455 48.8454 8.2455 48.8454 8.48145 48.5507C8.85764 48.1053 9.24458 47.7519 9.70313 47.3906C9.70313 47.2978 9.70313 47.205 9.70313 47.1093C9.47046 46.8795 9.47046 46.8795 9.17578 46.6435C8.73034 46.2673 8.3769 45.8804 8.01563 45.4218C7.92281 45.4218 7.83 45.4218 7.73438 45.4218Z" fill="#025D67"/>
<path d="M15.1875 28.125C15.6754 28.5138 15.8991 28.9432 16.1543 29.5048C16.9396 31.1106 18.0355 31.8923 19.6348 32.6689C20.1094 32.9062 20.1094 32.9062 20.25 33.1875C20.3324 34.2091 20.3324 34.2091 20.0171 34.6047C19.6517 34.9044 19.3 35.0839 18.8701 35.2793C17.2644 36.0646 16.4827 37.1605 15.7061 38.7597C15.4688 39.2343 15.4688 39.2343 15.1875 39.375C14.1659 39.4573 14.1659 39.4573 13.7703 39.1421C13.4706 38.7766 13.291 38.4249 13.0957 37.9951C12.3104 36.3894 11.2145 35.6076 9.61524 34.831C9.14063 34.5937 9.14063 34.5937 9 34.3125C8.91761 33.2908 8.91761 33.2908 9.23291 32.8952C9.59835 32.5956 9.95002 32.416 10.3799 32.2207C11.9856 31.4353 12.7673 30.3395 13.5439 28.7402C13.8984 28.0312 14.432 27.9696 15.1875 28.125ZM14.4844 31.9218C14.2545 32.1545 14.2545 32.1545 14.0186 32.4492C13.6424 32.8946 13.2554 33.2481 12.7969 33.6093C12.7969 33.7021 12.7969 33.795 12.7969 33.8906C13.0295 34.1205 13.0295 34.1205 13.3242 34.3564C13.7697 34.7326 14.1231 35.1195 14.4844 35.5781C14.5772 35.5781 14.67 35.5781 14.7656 35.5781C14.9955 35.3454 14.9955 35.3454 15.2314 35.0507C15.6076 34.6053 15.9946 34.2519 16.4531 33.8906C16.4531 33.7978 16.4531 33.705 16.4531 33.6093C16.2205 33.3795 16.2205 33.3795 15.9258 33.1435C15.4803 32.7673 15.1269 32.3804 14.7656 31.9218C14.6728 31.9218 14.58 31.9218 14.4844 31.9218Z" fill="#025D67"/>
<path d="M64.6875 14.625C65.1754 15.0138 65.3991 15.4432 65.6543 16.0048C66.4396 17.6106 67.5355 18.3923 69.1348 19.1689C69.6094 19.4062 69.6094 19.4062 69.75 19.6875C69.8324 20.7091 69.8324 20.7091 69.5171 21.1047C69.1517 21.4044 68.8 21.5839 68.3701 21.7793C66.7644 22.5646 65.9827 23.6605 65.2061 25.2597C64.9688 25.7343 64.9688 25.7343 64.6875 25.875C63.6659 25.9573 63.6659 25.9573 63.2703 25.6421C62.9706 25.2766 62.791 24.9249 62.5957 24.4951C61.8104 22.8894 60.7145 22.1076 59.1152 21.331C58.6406 21.0937 58.6406 21.0937 58.5 20.8125C58.4176 19.7908 58.4176 19.7908 58.7329 19.3952C59.0984 19.0956 59.45 18.916 59.8799 18.7207C61.4856 17.9353 62.2673 16.8395 63.0439 15.2402C63.3984 14.5312 63.932 14.4696 64.6875 14.625ZM63.9844 18.4218C63.7545 18.6545 63.7545 18.6545 63.5186 18.9492C63.1424 19.3946 62.7554 19.7481 62.2969 20.1093C62.2969 20.2021 62.2969 20.295 62.2969 20.3906C62.5295 20.6205 62.5295 20.6205 62.8242 20.8564C63.2697 21.2326 63.6231 21.6195 63.9844 22.0781C64.0772 22.0781 64.17 22.0781 64.2656 22.0781C64.4955 21.8454 64.4955 21.8454 64.7314 21.5507C65.1076 21.1053 65.4946 20.7519 65.9531 20.3906C65.9531 20.2978 65.9531 20.205 65.9531 20.1093C65.7205 19.8795 65.7205 19.8795 65.4258 19.6435C64.9803 19.2673 64.6269 18.8804 64.2656 18.4218C64.1728 18.4218 64.08 18.4218 63.9844 18.4218Z" fill="#025D67"/>
<path d="M55.125 55.125C55.8675 55.125 56.61 55.125 57.375 55.125C57.375 56.9812 57.375 58.8375 57.375 60.75C56.6325 60.75 55.89 60.75 55.125 60.75C55.125 58.8937 55.125 57.0375 55.125 55.125Z" fill="#025D67"/>
<path d="M55.125 50.625C55.8675 50.625 56.61 50.625 57.375 50.625C57.375 51.3675 57.375 52.11 57.375 52.875C56.6325 52.875 55.89 52.875 55.125 52.875C55.125 52.1325 55.125 51.39 55.125 50.625Z" fill="#025D67"/>
</svg>
