<svg width="152" height="53" viewBox="0 0 152 53" fill="none" xmlns="http://www.w3.org/2000/svg">
<path d="M68.6907 19.6099C68.3314 18.1287 67.4885 17.0958 66.1343 16.4979C65.3743 16.1717 64.5314 16.0087 63.6056 16.0087C61.823 16.0087 60.3721 16.661 59.2252 17.9928C58.0783 19.311 57.5117 21.2951 57.5117 23.9451C57.5117 26.6087 58.1336 28.4976 59.3772 29.5984C60.607 30.6992 62.0303 31.2564 63.6056 31.2564C65.1532 31.2564 66.4107 30.8215 67.4056 29.9382C68.4005 29.0684 69.0085 27.9133 69.2296 26.5135H64.1168V22.8987H73.3059V34.5587H70.2521L69.7823 31.8407C68.8979 32.8599 68.0965 33.5938 67.3918 34.0151C66.1758 34.7489 64.6696 35.1158 62.9008 35.1158C59.9714 35.1158 57.5808 34.1238 55.7154 32.1261C53.767 30.1284 52.7859 27.3833 52.7859 23.9043C52.7859 20.3982 53.767 17.5715 55.743 15.4515C57.7052 13.3315 60.3168 12.2715 63.5503 12.2715C66.3554 12.2715 68.6077 12.9646 70.3212 14.3643C72.0208 15.764 73.0019 17.5035 73.2507 19.6099H68.6907Z" fill="white"/>
<path d="M84.5125 18.1152C84.5677 18.1152 84.6783 18.1287 84.8717 18.1287V22.4231C84.5954 22.3959 84.3605 22.3687 84.1532 22.3687C83.9459 22.3552 83.7663 22.3552 83.6419 22.3552C81.9285 22.3552 80.7677 22.8987 80.1874 23.9995C79.8557 24.611 79.6899 25.5759 79.6899 26.8534V34.5316H75.3925V18.4821H79.4688V21.2816C80.1321 20.208 80.6986 19.4877 81.1823 19.08C81.9837 18.4277 83.0201 18.1016 84.2914 18.1016C84.3881 18.1016 84.4572 18.1016 84.5125 18.1152Z" fill="white"/>
<path d="M90.8688 18.4804V28.1563C90.8688 29.0668 90.9794 29.7599 91.1866 30.2083C91.5736 31.0237 92.3336 31.4314 93.4666 31.4314C94.9176 31.4314 95.9125 30.8606 96.4514 29.6919C96.7277 29.0668 96.8659 28.2242 96.8659 27.205V18.4804H101.191V34.5299H97.0456V32.2604C97.0041 32.3147 96.9074 32.4642 96.7416 32.6953C96.5757 32.9399 96.3961 33.1573 96.175 33.3476C95.5117 33.9319 94.8623 34.3396 94.2405 34.5571C93.6186 34.7745 92.8863 34.8832 92.0572 34.8832C89.6528 34.8832 88.0223 34.0271 87.1794 32.3147C86.7096 31.3635 86.4885 29.9909 86.4885 28.1427V18.4668L90.8688 18.4804Z" fill="white"/>
<path d="M117.165 20.2062C118.506 21.5923 119.169 23.6308 119.169 26.308C119.169 29.1346 118.519 31.2954 117.22 32.7767C115.922 34.258 114.25 35.0054 112.191 35.0054C110.892 35.0054 109.8 34.6929 108.93 34.0541C108.46 33.7008 108.004 33.1844 107.548 32.5049V40.8626H103.319V18.4803H107.41V20.8449C107.879 20.1518 108.363 19.6082 108.888 19.2005C109.842 18.4803 110.975 18.127 112.301 18.127C114.208 18.127 115.825 18.82 117.165 20.2062ZM113.89 23.2231C113.31 22.2718 112.37 21.7962 111.071 21.7962C109.51 21.7962 108.432 22.5164 107.852 23.9705C107.548 24.7316 107.396 25.71 107.396 26.8787C107.396 28.7541 107.907 30.0452 108.93 30.8062C109.538 31.2411 110.256 31.4721 111.085 31.4721C112.287 31.4721 113.199 31.0236 113.835 30.1131C114.457 29.2026 114.788 28.0067 114.788 26.4982C114.761 25.2752 114.471 24.1744 113.89 23.2231Z" fill="white"/>
<path d="M127.114 24.774C127.915 24.6789 128.482 24.5566 128.827 24.4071C129.449 24.1489 129.753 23.7548 129.753 23.2112C129.753 22.5589 129.518 22.0969 129.048 21.8522C128.578 21.6076 127.887 21.4717 126.975 21.4717C125.953 21.4717 125.221 21.7164 124.806 22.2056C124.502 22.5725 124.295 23.0617 124.198 23.6733H120.08C120.177 22.2735 120.578 21.1184 121.282 20.2079C122.415 18.7946 124.35 18.0879 127.114 18.0879C128.91 18.0879 130.499 18.4412 131.895 19.1343C133.29 19.8274 133.981 21.1456 133.981 23.0889V30.4546C133.981 30.9574 133.995 31.5825 134.009 32.3164C134.037 32.8599 134.119 33.2405 134.258 33.4443C134.396 33.6481 134.617 33.7976 134.879 33.9335V34.5451H130.237C130.098 34.2189 130.015 33.9199 129.96 33.6346C129.905 33.3492 129.863 33.023 129.836 32.6561C129.242 33.2812 128.565 33.8248 127.777 34.2597C126.851 34.7761 125.801 35.0343 124.64 35.0343C123.148 35.0343 121.932 34.613 120.965 33.7976C119.997 32.9687 119.514 31.7864 119.514 30.2643C119.514 28.2938 120.287 26.8669 121.849 25.9835C122.706 25.5079 123.963 25.1546 125.621 24.9507L127.114 24.774ZM129.711 26.731C129.435 26.894 129.159 27.0299 128.882 27.1387C128.606 27.2338 128.219 27.3425 127.735 27.424L126.768 27.6007C125.856 27.7638 125.207 27.954 124.806 28.1715C124.143 28.5656 123.797 29.1499 123.797 29.9517C123.797 30.672 124.005 31.1884 124.419 31.501C124.834 31.8135 125.331 31.9766 125.911 31.9766C126.837 31.9766 127.708 31.7048 128.495 31.1748C129.283 30.6448 129.684 29.6664 129.725 28.2666C129.711 28.2938 129.711 26.731 129.711 26.731Z" fill="white"/>
<path d="M136.123 12.8965H140.31V24.6108L145.699 18.5634H151.005L145.16 24.5429L151.24 34.5449H146.045L142.079 27.6821L140.31 29.4896V34.5449H136.123V12.8965Z" fill="white"/>
<path d="M55.467 43.5279C55.2321 43.7181 54.8866 43.7997 54.4583 43.7997H53.6154V45.1858H52.7725V41.3535H54.5136C54.9143 41.3535 55.2321 41.4486 55.4808 41.6525C55.7296 41.8563 55.8401 42.1553 55.8401 42.563C55.8263 43.0115 55.7019 43.3376 55.467 43.5279ZM54.8176 42.1417C54.707 42.0466 54.5688 42.0058 54.3754 42.0058H53.6154V43.1338H54.3754C54.5688 43.1338 54.7208 43.0794 54.8176 42.9979C54.9281 42.9027 54.9834 42.7533 54.9834 42.563C54.9834 42.3727 54.9143 42.2368 54.8176 42.1417Z" fill="white"/>
<path d="M57.567 43.4597C57.7052 43.4461 57.8158 43.4189 57.8849 43.3917C57.9954 43.3373 58.0507 43.2694 58.0507 43.1879C58.0507 43.0655 58.0092 42.984 57.9125 42.9432C57.8158 42.9025 57.7052 42.8753 57.5256 42.8753C57.3459 42.8753 57.2078 42.9161 57.1249 43.0112C57.0696 43.0655 57.0281 43.1607 57.0143 43.2694H56.2543C56.2681 43.0248 56.351 42.8209 56.4754 42.6579C56.6827 42.4132 57.0419 42.2773 57.5532 42.2773C57.871 42.2773 58.175 42.3317 58.4376 42.4676C58.6863 42.5899 58.8245 42.8209 58.8245 43.1607V44.4653C58.8245 44.5604 58.8245 44.6691 58.8383 44.7914C58.8521 44.8866 58.8521 44.9545 58.8936 44.9953C58.9212 45.0225 58.9489 45.0497 59.0041 45.0904V45.1991H58.1612C58.1474 45.1448 58.1198 45.0904 58.1059 45.0361C58.0921 44.9817 58.0921 44.9273 58.0921 44.873C57.9816 44.9817 57.8572 45.0768 57.719 45.1584C57.5532 45.2535 57.3598 45.2943 57.1387 45.2943C56.8623 45.2943 56.6412 45.2263 56.4616 45.0768C56.2819 44.9273 56.199 44.7235 56.199 44.4517C56.199 44.0984 56.3372 43.8538 56.6274 43.6907C56.7794 43.5956 57.0143 43.5412 57.3183 43.514L57.567 43.4597ZM58.0369 43.7994C57.9816 43.8266 57.9401 43.8538 57.8849 43.8673C57.8296 43.8809 57.7605 43.9081 57.6776 43.9217L57.5118 43.9625C57.3459 43.9896 57.2354 44.0168 57.1525 44.0576C57.0281 44.1255 56.9729 44.2207 56.9729 44.3702C56.9729 44.5061 57.0143 44.5876 57.0834 44.642C57.1525 44.6963 57.2492 44.7371 57.3598 44.7371C57.5256 44.7371 57.6776 44.6827 57.8296 44.6012C57.9678 44.5061 58.0507 44.3294 58.0507 44.0848L58.0369 43.7994Z" fill="white"/>
<path d="M61.9477 42.6433C62.1964 42.8879 62.3069 43.2549 62.3069 43.7169C62.3069 44.2197 62.1826 44.6002 61.9477 44.8585C61.6989 45.1167 61.3949 45.2526 61.0219 45.2526C60.7731 45.2526 60.5935 45.1982 60.4277 45.0895C60.3309 45.0351 60.2619 44.94 60.1789 44.8177V46.299H59.4189V42.3444H60.1651V42.7656C60.248 42.6433 60.3309 42.5482 60.4415 42.4802C60.6073 42.3444 60.8284 42.29 61.0633 42.29C61.4088 42.2764 61.7128 42.4123 61.9477 42.6433ZM61.3535 43.1869C61.2568 43.0238 61.0771 42.9423 60.8422 42.9423C60.5659 42.9423 60.3586 43.0782 60.2619 43.3364C60.2066 43.4723 60.1789 43.649 60.1789 43.8528C60.1789 44.179 60.2757 44.41 60.4553 44.5459C60.5659 44.6274 60.704 44.6682 60.856 44.6682C61.0771 44.6682 61.2429 44.5867 61.3673 44.4236C61.4779 44.2605 61.5331 44.0567 61.5331 43.7849C61.5193 43.5403 61.4502 43.35 61.3535 43.1869Z" fill="white"/>
<path d="M64.766 42.4145C64.9733 42.5096 65.1529 42.6455 65.2773 42.8357C65.4016 42.9988 65.4845 43.2027 65.526 43.4201C65.5398 43.556 65.5536 43.7327 65.5536 43.9909H63.3842C63.398 44.2763 63.5085 44.4801 63.702 44.5888C63.8263 44.6568 63.9645 44.6975 64.1303 44.6975C64.31 44.6975 64.4482 44.6568 64.5587 44.5616C64.614 44.5073 64.6693 44.4529 64.7245 44.3578H65.526C65.5122 44.5209 65.4016 44.6975 65.2358 44.8742C64.9733 45.146 64.5864 45.2955 64.1165 45.2955C63.7158 45.2955 63.3703 45.1732 63.0663 44.9422C62.7623 44.7111 62.6104 44.3306 62.6104 43.8142C62.6104 43.325 62.7485 42.9445 63.0249 42.6863C63.3013 42.428 63.6467 42.2922 64.1027 42.2922C64.31 42.265 64.5449 42.3193 64.766 42.4145ZM63.5914 43.0532C63.4809 43.1619 63.4118 43.3114 63.3842 43.488H64.7245C64.7107 43.2842 64.6416 43.1347 64.5173 43.0396C64.3929 42.9445 64.2409 42.8901 64.0474 42.8901C63.854 42.8901 63.702 42.9309 63.5914 43.0532Z" fill="white"/>
<path d="M66.6732 41.3396H65.8994V45.1719H66.6732V41.3396Z" fill="white"/>
<path d="M68.9946 45.7296H69.0914C69.1743 45.7296 69.2434 45.7295 69.3125 45.716C69.3816 45.7024 69.4506 45.6888 69.4783 45.6616C69.5336 45.6344 69.575 45.5665 69.6165 45.4713C69.6579 45.3762 69.6717 45.3219 69.6717 45.3083L68.5663 42.3457H69.4368L70.1001 44.4385L70.7219 42.3457H71.551L70.5285 45.1452C70.3212 45.6888 70.1692 46.0149 70.0587 46.1508C69.9481 46.2867 69.7132 46.3547 69.3677 46.3547C69.2987 46.3547 69.2434 46.3547 69.2019 46.3547C69.1605 46.3547 69.1052 46.3547 69.0085 46.3411L68.9946 45.7296Z" fill="white"/>
<path d="M75.4058 42.4145C75.6131 42.5096 75.7927 42.6455 75.9171 42.8357C76.0414 42.9988 76.1243 43.2027 76.1658 43.4201C76.1796 43.556 76.1934 43.7327 76.1934 43.9909H74.024C74.0378 44.2763 74.1483 44.4801 74.3418 44.5888C74.4661 44.6568 74.6043 44.6975 74.7701 44.6975C74.9498 44.6975 75.088 44.6568 75.1985 44.5616C75.2538 44.5073 75.3091 44.4529 75.3643 44.3578H76.1658C76.152 44.5209 76.0414 44.6975 75.8756 44.8742C75.6131 45.146 75.2261 45.2955 74.7563 45.2955C74.3556 45.2955 74.0101 45.1732 73.7061 44.9422C73.3883 44.7111 73.2363 44.3306 73.2363 43.8142C73.2363 43.325 73.3745 42.9445 73.6509 42.6863C73.9272 42.428 74.2727 42.2922 74.7287 42.2922C74.9498 42.265 75.1847 42.3193 75.4058 42.4145ZM74.2312 43.0532C74.1207 43.1619 74.0516 43.3114 74.024 43.488H75.3643C75.3505 43.2842 75.2814 43.1347 75.1571 43.0396C75.0327 42.9445 74.8807 42.8901 74.6872 42.8901C74.4938 42.8901 74.3418 42.9309 74.2312 43.0532Z" fill="white"/>
<path d="M80.2426 42.3585C80.3808 42.4129 80.4914 42.4944 80.5881 42.6167C80.671 42.7119 80.7263 42.8342 80.7539 42.9836C80.7677 43.0788 80.7815 43.2283 80.7815 43.4049L80.7677 45.1988H79.9663V43.3913C79.9663 43.2826 79.9524 43.1875 79.911 43.1195C79.8419 42.9836 79.7037 42.9157 79.5241 42.9157C79.3168 42.9157 79.1648 43.0108 79.0819 43.1739C79.0404 43.269 79.0266 43.3777 79.0266 43.5001V45.1852H78.239V43.5001C78.239 43.337 78.2252 43.2147 78.1837 43.1331C78.1146 42.9972 77.9903 42.9293 77.7968 42.9293C77.5757 42.9293 77.4237 42.9972 77.3546 43.1331C77.3132 43.2147 77.2994 43.337 77.2994 43.4865V45.1988H76.5117V42.3585H77.2717V42.7798C77.3684 42.6303 77.4652 42.5352 77.5481 42.4672C77.7001 42.3585 77.8935 42.3042 78.1284 42.3042C78.3634 42.3042 78.543 42.3585 78.6812 42.4401C78.7917 42.5352 78.8884 42.6439 78.9437 42.7798C79.0404 42.6167 79.1786 42.4944 79.3306 42.4129C79.4964 42.3313 79.6761 42.2906 79.8695 42.2906C79.9801 42.277 80.1183 42.3042 80.2426 42.3585Z" fill="white"/>
<path d="M84.0017 44.8321C83.7806 45.1039 83.4628 45.2398 83.0759 45.2398C82.8548 45.2398 82.6751 45.1991 82.537 45.1039C82.4126 45.036 82.302 44.9409 82.2191 44.805V46.1639H81.4453V42.3316H82.2191V42.685C82.3159 42.5491 82.4264 42.4403 82.5093 42.3996C82.6613 42.3044 82.8686 42.2637 83.1035 42.2637C83.5042 42.2637 83.7944 42.4132 84.0293 42.6985C84.2504 42.9839 84.3609 43.3509 84.3609 43.7993C84.3333 44.2206 84.2228 44.5739 84.0017 44.8321ZM82.8686 42.8752C82.6337 42.8752 82.4679 42.9567 82.3435 43.1198C82.233 43.2829 82.1777 43.4732 82.1777 43.7314C82.1777 43.9352 82.2053 44.1119 82.2606 44.2342C82.3711 44.4788 82.5646 44.6011 82.841 44.6011C83.1173 44.6011 83.3108 44.4652 83.4213 44.2206C83.4766 44.0847 83.5042 43.9216 83.5042 43.7178C83.5042 43.4732 83.449 43.2557 83.3384 43.1062C83.2417 42.9567 83.0759 42.8752 82.8686 42.8752Z" fill="white"/>
<path d="M86.0046 43.4597C86.1428 43.4461 86.2533 43.4189 86.3224 43.3917C86.4329 43.3373 86.4882 43.2694 86.4882 43.1879C86.4882 43.0655 86.4468 42.984 86.35 42.9432C86.2533 42.9025 86.1428 42.8753 85.9769 42.8753C85.7835 42.8753 85.6591 42.9161 85.5762 43.0112C85.5209 43.0655 85.4795 43.1607 85.4657 43.2694H84.7057C84.7195 43.0248 84.8024 42.8209 84.9268 42.6579C85.134 42.4132 85.4933 42.2773 86.0046 42.2773C86.3224 42.2773 86.6264 42.3317 86.8889 42.4676C87.1377 42.5899 87.2758 42.8209 87.2758 43.1607V44.4653C87.2758 44.5604 87.2758 44.6691 87.2897 44.7914C87.3035 44.8866 87.3035 44.9545 87.3449 44.9953C87.3726 45.0225 87.4002 45.0497 87.4555 45.0904V45.1991H86.6126C86.5988 45.1448 86.5711 45.0904 86.5573 45.0361C86.5435 44.9817 86.5435 44.9273 86.5435 44.873C86.4329 44.9817 86.3086 45.0768 86.1704 45.1584C86.0046 45.2535 85.8111 45.2943 85.59 45.2943C85.3137 45.2943 85.0926 45.2263 84.9129 45.0768C84.7333 44.9273 84.6504 44.7235 84.6504 44.4517C84.6504 44.0984 84.7886 43.8538 85.0788 43.6907C85.2308 43.5956 85.4657 43.5412 85.7697 43.514L86.0046 43.4597ZM86.4882 43.7994C86.4329 43.8266 86.3915 43.8538 86.3362 43.8673C86.2809 43.8809 86.2119 43.9081 86.1289 43.9217L85.9631 43.9625C85.7973 43.9896 85.6868 44.0168 85.6038 44.0576C85.4795 44.1255 85.4242 44.2207 85.4242 44.3702C85.4242 44.5061 85.4657 44.5876 85.5348 44.642C85.6038 44.6963 85.7006 44.7371 85.8111 44.7371C85.9769 44.7371 86.1289 44.6827 86.2809 44.6012C86.4191 44.5061 86.502 44.3294 86.502 44.0848V43.7994H86.4882Z" fill="white"/>
<path d="M96.3267 42.4145C96.534 42.5096 96.7136 42.6455 96.838 42.8357C96.9623 42.9988 97.0452 43.2027 97.0867 43.4201C97.1005 43.556 97.1143 43.7327 97.1143 43.9909H94.931C94.9449 44.2763 95.0554 44.4801 95.2489 44.5888C95.3732 44.6568 95.5114 44.6975 95.6772 44.6975C95.8569 44.6975 95.995 44.6568 96.1056 44.5616C96.1609 44.5073 96.2161 44.4529 96.2714 44.3578H97.0729C97.059 44.5209 96.9485 44.6975 96.7827 44.8742C96.5201 45.146 96.1332 45.2955 95.6634 45.2955C95.2627 45.2955 94.9172 45.1732 94.6132 44.9422C94.3092 44.7111 94.1572 44.3306 94.1572 43.8142C94.1572 43.325 94.2954 42.9445 94.5718 42.6863C94.8481 42.428 95.1936 42.2922 95.6496 42.2922C95.8845 42.265 96.1194 42.3193 96.3267 42.4145ZM95.166 43.0532C95.0554 43.1619 94.9863 43.3114 94.9587 43.488H96.299C96.2852 43.2842 96.2161 43.1347 96.0918 43.0396C95.9674 42.9445 95.8154 42.8901 95.622 42.8901C95.4285 42.8901 95.2765 42.9309 95.166 43.0532Z" fill="white"/>
<path d="M100.099 42.3863C100.237 42.4678 100.348 42.5629 100.445 42.6988V41.3398H101.232V45.1722H100.472V44.778C100.362 44.9411 100.223 45.0634 100.085 45.145C99.9471 45.2265 99.7675 45.2673 99.5464 45.2673C99.2009 45.2673 98.8969 45.1314 98.662 44.8732C98.4133 44.6014 98.3027 44.2616 98.3027 43.8404C98.3027 43.3511 98.4271 42.9706 98.662 42.6988C98.8969 42.427 99.2147 42.2775 99.6016 42.2775C99.8089 42.2775 99.9747 42.3183 100.099 42.3863ZM100.293 44.4247C100.403 44.2616 100.458 44.0714 100.458 43.8132C100.458 43.4598 100.362 43.2152 100.182 43.0657C100.071 42.9706 99.9333 42.9298 99.7813 42.9298C99.5464 42.9298 99.3805 43.0114 99.27 43.1745C99.1595 43.3375 99.1042 43.5414 99.1042 43.786C99.1042 44.0442 99.1595 44.248 99.27 44.4111C99.3805 44.5742 99.5464 44.6557 99.7675 44.6557C99.9885 44.6557 100.182 44.5742 100.293 44.4247Z" fill="white"/>
<path d="M103.844 42.4145C104.051 42.5096 104.231 42.6455 104.355 42.8357C104.48 42.9988 104.563 43.2027 104.604 43.4201C104.618 43.556 104.632 43.7327 104.632 43.9909H102.462C102.476 44.2763 102.573 44.4801 102.78 44.5888C102.904 44.6568 103.043 44.6975 103.208 44.6975C103.388 44.6975 103.526 44.6568 103.637 44.5616C103.692 44.5073 103.747 44.4529 103.803 44.3578H104.604C104.59 44.5209 104.48 44.6975 104.314 44.8742C104.051 45.146 103.664 45.2955 103.195 45.2955C102.794 45.2955 102.448 45.1732 102.144 44.9422C101.84 44.7111 101.688 44.3306 101.688 43.8142C101.688 43.325 101.827 42.9445 102.103 42.6863C102.379 42.428 102.725 42.2922 103.181 42.2922C103.402 42.265 103.637 42.3193 103.844 42.4145ZM102.67 43.0532C102.559 43.1619 102.49 43.3114 102.462 43.488H103.803C103.789 43.2842 103.72 43.1347 103.595 43.0396C103.471 42.9445 103.319 42.8901 103.126 42.8901C102.946 42.8901 102.78 42.9309 102.67 43.0532Z" fill="white"/>
<path d="M108.252 43.3646C108.238 43.2559 108.197 43.1608 108.142 43.0792C108.045 42.9705 107.92 42.9161 107.741 42.9161C107.478 42.9161 107.299 43.0385 107.188 43.2831C107.133 43.419 107.105 43.5956 107.105 43.8131C107.105 44.0169 107.133 44.1936 107.188 44.3159C107.285 44.5605 107.464 44.6692 107.713 44.6692C107.893 44.6692 108.031 44.6149 108.114 44.5333C108.197 44.4382 108.238 44.3159 108.252 44.1664H109.054C109.04 44.3974 108.957 44.6013 108.791 44.8051C108.542 45.1313 108.183 45.2944 107.699 45.2944C107.216 45.2944 106.856 45.1584 106.635 44.8867C106.414 44.6149 106.29 44.2615 106.29 43.8267C106.29 43.3374 106.414 42.9569 106.663 42.6987C106.912 42.4269 107.257 42.291 107.699 42.291C108.072 42.291 108.376 42.3726 108.625 42.5356C108.874 42.6987 109.012 42.9705 109.054 43.3782L108.252 43.3646Z" fill="white"/>
<path d="M110.711 43.4597C110.849 43.4461 110.96 43.4189 111.029 43.3917C111.14 43.3373 111.195 43.2694 111.195 43.1879C111.195 43.0655 111.153 42.984 111.057 42.9432C110.96 42.9025 110.849 42.8753 110.684 42.8753C110.504 42.8753 110.366 42.9161 110.283 43.0112C110.228 43.0655 110.186 43.1607 110.172 43.2694H109.44C109.454 43.0248 109.537 42.8209 109.661 42.6579C109.868 42.4132 110.228 42.2773 110.739 42.2773C111.057 42.2773 111.361 42.3317 111.623 42.4676C111.872 42.5899 112.01 42.8209 112.01 43.1607V44.4653C112.01 44.5604 112.01 44.6691 112.024 44.7914C112.038 44.8866 112.038 44.9545 112.079 44.9953C112.107 45.0225 112.135 45.0497 112.19 45.0904V45.1991H111.347C111.333 45.1448 111.305 45.0904 111.292 45.0361C111.278 44.9817 111.278 44.9273 111.278 44.873C111.167 44.9817 111.043 45.0768 110.905 45.1584C110.739 45.2535 110.545 45.2943 110.324 45.2943C110.048 45.2943 109.827 45.2263 109.647 45.0768C109.468 44.9273 109.385 44.7235 109.385 44.4517C109.385 44.0984 109.523 43.8538 109.813 43.6907C109.965 43.5956 110.2 43.5412 110.504 43.514L110.711 43.4597ZM111.195 43.7994C111.14 43.8266 111.098 43.8538 111.043 43.8673C110.988 43.8809 110.919 43.9081 110.836 43.9217L110.67 43.9625C110.504 43.9896 110.393 44.0168 110.311 44.0576C110.186 44.1255 110.131 44.2207 110.131 44.3702C110.131 44.5061 110.172 44.5876 110.241 44.642C110.311 44.6963 110.407 44.7371 110.518 44.7371C110.684 44.7371 110.836 44.6827 110.988 44.6012C111.126 44.5061 111.209 44.3294 111.209 44.0848L111.195 43.7994Z" fill="white"/>
<path d="M114.249 42.2773C114.263 42.2773 114.277 42.2773 114.318 42.2773V43.0383C114.263 43.0247 114.222 43.0247 114.18 43.0247C114.139 43.0247 114.111 43.0247 114.083 43.0247C113.766 43.0247 113.558 43.1198 113.448 43.3101C113.393 43.4188 113.351 43.5819 113.351 43.8129V45.1719H112.563V42.3316H113.31V42.8344C113.434 42.6442 113.531 42.5219 113.627 42.4403C113.766 42.318 113.959 42.2637 114.194 42.2637L114.249 42.2773Z" fill="white"/>
<path d="M114.415 42.9021V42.3721H114.83V41.5703H115.603V42.3721H116.087V42.9021H115.603V44.4106C115.603 44.5329 115.617 44.6008 115.659 44.628C115.686 44.6552 115.783 44.6688 115.935 44.6688C115.949 44.6688 115.99 44.6688 116.004 44.6688C116.032 44.6688 116.059 44.6688 116.087 44.6688V45.226L115.714 45.2395C115.341 45.2531 115.092 45.1852 114.954 45.0629C114.857 44.9677 114.816 44.8454 114.816 44.6688V42.9157H114.415V42.9021Z" fill="white"/>
<path d="M119.03 44.8315C118.782 45.1305 118.395 45.28 117.883 45.28C117.372 45.28 116.985 45.1305 116.737 44.8315C116.488 44.5325 116.363 44.1792 116.363 43.7715C116.363 43.3638 116.488 43.0105 116.737 42.7115C116.985 42.4125 117.372 42.263 117.883 42.263C118.395 42.263 118.782 42.4125 119.03 42.7115C119.279 43.0105 119.403 43.3638 119.403 43.7715C119.417 44.1928 119.279 44.5325 119.03 44.8315ZM118.395 44.4238C118.519 44.2607 118.574 44.0433 118.574 43.7715C118.574 43.4861 118.519 43.2687 118.395 43.1192C118.27 42.9697 118.104 42.8882 117.87 42.8882C117.635 42.8882 117.469 42.9697 117.344 43.1192C117.22 43.2687 117.165 43.4861 117.165 43.7715C117.165 44.0569 117.22 44.2743 117.344 44.4238C117.469 44.5869 117.648 44.6548 117.87 44.6548C118.104 44.6548 118.284 44.5733 118.395 44.4238ZM118.809 41.1895L117.98 41.9641H117.414L117.939 41.1895H118.809Z" fill="white"/>
<path d="M122.319 42.5083C122.513 42.6578 122.61 42.916 122.61 43.2693V45.1855H121.808V43.4596C121.808 43.3101 121.794 43.1878 121.753 43.1062C121.67 42.9567 121.532 42.8888 121.324 42.8888C121.062 42.8888 120.882 42.9975 120.772 43.2014C120.716 43.3101 120.689 43.4596 120.689 43.6226V45.1583H119.915V42.318H120.675V42.7393C120.772 42.5898 120.868 42.4947 120.951 42.4267C121.117 42.3044 121.311 42.2637 121.559 42.2637C121.863 42.2773 122.126 42.3588 122.319 42.5083Z" fill="white"/>
<path d="M126.575 43.3646C126.561 43.2559 126.52 43.1608 126.465 43.0792C126.368 42.9705 126.244 42.9161 126.064 42.9161C125.801 42.9161 125.622 43.0385 125.511 43.2831C125.456 43.419 125.428 43.5956 125.428 43.8131C125.428 44.0169 125.456 44.1936 125.511 44.3159C125.608 44.5605 125.788 44.6692 126.036 44.6692C126.216 44.6692 126.354 44.6149 126.437 44.5333C126.52 44.4518 126.561 44.3159 126.575 44.1664H127.377C127.363 44.3974 127.28 44.6013 127.128 44.8051C126.879 45.1313 126.52 45.2944 126.036 45.2944C125.553 45.2944 125.193 45.1584 124.972 44.8867C124.751 44.6149 124.627 44.2615 124.627 43.8267C124.627 43.3374 124.751 42.9569 125 42.6987C125.249 42.4269 125.594 42.291 126.036 42.291C126.409 42.291 126.713 42.3726 126.962 42.5356C127.211 42.6987 127.349 42.9705 127.391 43.3782L126.575 43.3646Z" fill="white"/>
<path d="M130.347 44.8321C130.099 45.1311 129.712 45.2806 129.201 45.2806C128.689 45.2806 128.302 45.1311 128.054 44.8321C127.805 44.5332 127.681 44.1798 127.681 43.7721C127.681 43.3644 127.805 43.0111 128.054 42.7121C128.302 42.4132 128.689 42.2637 129.201 42.2637C129.712 42.2637 130.099 42.4132 130.347 42.7121C130.596 43.0111 130.721 43.3644 130.721 43.7721C130.721 44.1934 130.596 44.5332 130.347 44.8321ZM129.712 44.4244C129.836 44.2614 129.891 44.0439 129.891 43.7721C129.891 43.4867 129.836 43.2693 129.712 43.1198C129.587 42.9703 129.422 42.8888 129.187 42.8888C128.952 42.8888 128.786 42.9703 128.662 43.1198C128.537 43.2693 128.482 43.4867 128.482 43.7721C128.482 44.0575 128.537 44.275 128.662 44.4244C128.786 44.5875 128.966 44.6555 129.187 44.6555C129.408 44.6555 129.601 44.5739 129.712 44.4244Z" fill="white"/>
<path d="M132.876 42.2773C132.89 42.2773 132.904 42.2773 132.945 42.2773V43.0383C132.89 43.0247 132.848 43.0247 132.807 43.0247C132.766 43.0247 132.738 43.0247 132.71 43.0247C132.392 43.0247 132.185 43.1198 132.075 43.3101C132.019 43.4188 131.978 43.5819 131.978 43.8129V45.1719H131.19V42.3316H131.936V42.8344C132.061 42.6442 132.158 42.5219 132.254 42.4403C132.392 42.318 132.586 42.2637 132.821 42.2637L132.876 42.2773Z" fill="white"/>
<path d="M135.004 42.2773C135.018 42.2773 135.032 42.2773 135.073 42.2773V43.0383C135.018 43.0247 134.977 43.0247 134.935 43.0247C134.894 43.0247 134.866 43.0247 134.838 43.0247C134.521 43.0247 134.313 43.1198 134.203 43.3101C134.147 43.4188 134.106 43.5819 134.106 43.8129V45.1719H133.318V42.3316H134.065V42.8344C134.189 42.6442 134.286 42.5219 134.382 42.4403C134.521 42.318 134.714 42.2637 134.949 42.2637L135.004 42.2773Z" fill="white"/>
<path d="M136.262 42.3457V44.058C136.262 44.2211 136.275 44.3298 136.317 44.4249C136.386 44.5608 136.524 44.6424 136.731 44.6424C136.994 44.6424 137.174 44.5472 137.284 44.3298C137.339 44.2211 137.367 44.0716 137.367 43.8949V42.3593H138.155V45.1995H137.395V44.8054C137.381 44.819 137.367 44.8462 137.339 44.887C137.312 44.9278 137.284 44.9685 137.243 45.0093C137.118 45.1044 136.994 45.186 136.883 45.2131C136.773 45.2539 136.635 45.2675 136.483 45.2675C136.041 45.2675 135.75 45.118 135.598 44.8054C135.502 44.6424 135.46 44.3978 135.46 44.0716V42.3593L136.262 42.3457Z" fill="white"/>
<path d="M140.324 42.3453C140.518 42.4132 140.67 42.5491 140.78 42.753V42.3453H141.54V45.0361C141.54 45.403 141.485 45.6884 141.347 45.865C141.126 46.1776 140.697 46.3407 140.062 46.3407C139.675 46.3407 139.371 46.2727 139.136 46.1368C138.887 46.0009 138.763 45.7835 138.735 45.4981H139.578C139.592 45.5932 139.633 45.6476 139.689 45.6884C139.772 45.7563 139.91 45.7835 140.117 45.7835C140.393 45.7835 140.587 45.6884 140.684 45.5117C140.739 45.3894 140.78 45.1991 140.78 44.9409V44.7643C140.711 44.8866 140.628 44.9681 140.532 45.0361C140.38 45.1448 140.172 45.1991 139.924 45.1991C139.537 45.1991 139.233 45.0632 138.998 44.805C138.763 44.5468 138.652 44.1935 138.652 43.7586C138.652 43.3373 138.763 42.984 138.984 42.6986C139.205 42.4132 139.523 42.2773 139.924 42.2773C140.076 42.2773 140.214 42.3045 140.324 42.3453ZM140.587 44.3838C140.711 44.2479 140.78 44.044 140.78 43.7586C140.78 43.4868 140.725 43.283 140.601 43.1471C140.476 43.0112 140.324 42.9432 140.131 42.9432C139.855 42.9432 139.661 43.0655 139.564 43.3102C139.509 43.4461 139.481 43.5955 139.481 43.7858C139.481 43.9489 139.509 44.0984 139.578 44.2207C139.675 44.4653 139.868 44.574 140.145 44.574C140.311 44.574 140.463 44.5061 140.587 44.3838Z" fill="white"/>
<path d="M143.406 43.4597C143.544 43.4461 143.655 43.4189 143.724 43.3917C143.834 43.3373 143.89 43.2694 143.89 43.1879C143.89 43.0655 143.848 42.984 143.751 42.9432C143.655 42.9025 143.544 42.8753 143.378 42.8753C143.199 42.8753 143.06 42.9161 142.978 43.0112C142.922 43.0655 142.881 43.1607 142.867 43.2694H142.107C142.121 43.0248 142.204 42.8209 142.328 42.6579C142.535 42.4132 142.895 42.2773 143.406 42.2773C143.724 42.2773 144.028 42.3317 144.29 42.4676C144.539 42.5899 144.677 42.8209 144.677 43.1607V44.4653C144.677 44.5604 144.677 44.6691 144.691 44.7914C144.705 44.8866 144.705 44.9545 144.746 44.9953C144.774 45.0225 144.802 45.0497 144.857 45.0904V45.1991H144.014C144 45.1448 143.972 45.0904 143.959 45.0361C143.945 44.9817 143.945 44.9273 143.945 44.873C143.834 44.9817 143.71 45.0768 143.572 45.1584C143.406 45.2535 143.212 45.2943 142.991 45.2943C142.715 45.2943 142.494 45.2263 142.314 45.0768C142.135 44.9273 142.052 44.7235 142.052 44.4517C142.052 44.0984 142.19 43.8538 142.48 43.6907C142.632 43.5956 142.867 43.5412 143.171 43.514L143.406 43.4597ZM143.89 43.7994C143.834 43.8266 143.793 43.8538 143.738 43.8673C143.682 43.8809 143.613 43.9081 143.53 43.9217L143.351 43.9625C143.185 43.9896 143.074 44.0168 142.991 44.0576C142.867 44.1255 142.812 44.2207 142.812 44.3702C142.812 44.5061 142.853 44.5876 142.922 44.642C142.991 44.6963 143.088 44.7371 143.199 44.7371C143.364 44.7371 143.516 44.6827 143.668 44.6012C143.807 44.5061 143.89 44.3294 143.89 44.0848V43.7994Z" fill="white"/>
<path d="M146.874 42.3863C147.012 42.4678 147.122 42.5629 147.219 42.6988V41.3398H148.007V45.1722H147.247V44.778C147.136 44.9411 146.998 45.0634 146.86 45.145C146.722 45.2265 146.542 45.2673 146.321 45.2673C145.962 45.2673 145.671 45.1314 145.436 44.8732C145.188 44.6014 145.077 44.2616 145.077 43.8404C145.077 43.3511 145.202 42.9706 145.436 42.6988C145.671 42.427 145.989 42.2775 146.376 42.2775C146.57 42.2775 146.722 42.3183 146.874 42.3863ZM147.053 44.4247C147.164 44.2616 147.219 44.0714 147.219 43.8132C147.219 43.4598 147.122 43.2152 146.943 43.0657C146.832 42.9706 146.694 42.9298 146.542 42.9298C146.307 42.9298 146.141 43.0114 146.031 43.1745C145.92 43.3375 145.865 43.5414 145.865 43.786C145.865 44.0442 145.92 44.248 146.031 44.4111C146.141 44.5742 146.307 44.6557 146.528 44.6557C146.749 44.6557 146.943 44.5742 147.053 44.4247Z" fill="white"/>
<path d="M151.143 44.8321C150.895 45.1311 150.508 45.2806 149.997 45.2806C149.485 45.2806 149.098 45.1311 148.85 44.8321C148.601 44.5332 148.477 44.1798 148.477 43.7721C148.477 43.3644 148.601 43.0111 148.85 42.7121C149.098 42.4132 149.485 42.2637 149.997 42.2637C150.508 42.2637 150.895 42.4132 151.143 42.7121C151.392 43.0111 151.517 43.3644 151.517 43.7721C151.53 44.1934 151.392 44.5332 151.143 44.8321ZM150.522 44.4244C150.646 44.2614 150.701 44.0439 150.701 43.7721C150.701 43.4867 150.646 43.2693 150.522 43.1198C150.397 42.9703 150.231 42.8888 149.997 42.8888C149.762 42.8888 149.596 42.9703 149.471 43.1198C149.347 43.2693 149.292 43.4867 149.292 43.7721C149.292 44.0575 149.347 44.275 149.471 44.4244C149.596 44.5875 149.775 44.6555 149.997 44.6555C150.218 44.6555 150.397 44.5739 150.522 44.4244Z" fill="white"/>
<path d="M15.3248 30.1016C19.3459 33.2272 22.7314 36.5567 25.9096 40.5113C22.7314 44.4659 19.3459 47.7954 15.3248 50.9211C11.3037 47.7954 7.91829 44.4659 4.74011 40.5113C7.91829 36.5567 11.3037 33.2408 15.3248 30.1016Z" fill="white"/>
<path d="M26.3377 40.1031C26.3377 40.1031 22.1231 34.4226 15.7529 29.6934L22.8002 33.1995L26.3377 40.1031Z" fill="white"/>
<path d="M26.3377 40.1031C26.3377 40.1031 22.1231 34.4226 15.7529 29.6934L22.8002 33.1995L26.3377 40.1031Z" fill="white"/>
<mask id="mask0_244_514" style="mask-type:luminance" maskUnits="userSpaceOnUse" x="15" y="29" width="12" height="12">
<path d="M26.3377 40.1031C26.3377 40.1031 22.1231 34.4226 15.7529 29.6934L22.8002 33.1995L26.3377 40.1031Z" fill="white"/>
</mask>
<g mask="url(#mask0_244_514)">
<path d="M26.3237 29.6934H15.739V40.1031H26.3237V29.6934Z" fill="white"/>
</g>
<path d="M38.3739 25.6161C35.1542 23.0748 32.4873 20.452 29.9033 17.2856C32.4873 14.1192 35.1542 11.4964 38.3739 8.95508C41.5935 11.4964 44.2604 14.1192 46.8444 17.2856C44.2604 20.452 41.5935 23.0612 38.3739 25.6161Z" fill="white"/>
<path d="M29.5714 17.6113C29.5714 17.6113 32.943 22.1503 38.042 25.9418L32.4041 23.1288L29.5714 17.6113Z" fill="white"/>
<path d="M29.5714 17.6113C29.5714 17.6113 32.943 22.1503 38.042 25.9418L32.4041 23.1288L29.5714 17.6113Z" fill="white"/>
<mask id="mask1_244_514" style="mask-type:luminance" maskUnits="userSpaceOnUse" x="29" y="17" width="10" height="9">
<path d="M29.5714 17.6113C29.5714 17.6113 32.943 22.1503 38.042 25.9418L32.4041 23.1288L29.5714 17.6113Z" fill="white"/>
</mask>
<g mask="url(#mask1_244_514)">
<path d="M38.042 17.6113H29.5714V25.9418H38.042V17.6113Z" fill="white"/>
</g>
<path d="M27.1532 14.2007C23.2565 19.1474 18.959 23.3738 13.9292 27.2061C8.88559 23.3738 4.60195 19.161 0.691406 14.2007C4.58813 9.25403 8.88559 5.02762 13.9154 1.19531C18.959 5.02762 23.2427 9.25403 27.1532 14.2007Z" fill="white"/>
<path d="M14.4543 27.7222C14.4543 27.7222 21.6674 22.5445 27.6783 14.7168L23.215 23.3735L14.4543 27.7222Z" fill="white"/>
<path d="M29.4609 39.1116C32.0449 35.6869 35.1402 32.6293 38.6223 30.1016C42.1045 32.6428 45.1998 35.6869 47.7838 39.1116C45.1998 42.5362 42.1045 45.5803 38.6223 48.1216C35.1402 45.5939 32.0311 42.5498 29.4609 39.1116Z" fill="white"/>
<path d="M38.2631 29.7344C38.2631 29.7344 33.2609 33.3221 29.1016 38.7444L32.1969 32.7377L38.2631 29.7344Z" fill="white"/>
<path fill-rule="evenodd" clip-rule="evenodd" d="M3.89673 11.0076L3.92436 10.9804L3.97964 10.8989L4.07636 10.7902L4.14545 10.7222L4.15927 10.7086L4.18691 10.6815L4.28363 10.5727C4.39418 10.4368 4.51854 10.301 4.62909 10.1786L4.69818 10.1107L4.80873 9.9748L4.85018 9.92044L4.90545 9.85249L5.016 9.71659C5.168 9.55352 5.30618 9.40403 5.44436 9.25454L5.58254 9.10505L5.74836 8.94198C5.85891 8.80608 5.98327 8.68377 6.09382 8.56146C6.14909 8.49352 6.21818 8.42557 6.27345 8.37121L6.30109 8.34403C6.43927 8.20813 6.57745 8.07223 6.70182 7.92275L6.72945 7.89557L6.75709 7.88198L6.92291 7.70531L6.97818 7.65095L7.03345 7.59659L7.04727 7.583C7.17163 7.4607 7.28218 7.33839 7.40654 7.22967C7.46182 7.16172 7.54473 7.09377 7.6 7.02582L7.65527 6.97146L7.82109 6.82198L7.87636 6.76762L7.93163 6.71326L7.94545 6.69967L7.95927 6.68608L8.056 6.60454L8.06982 6.59095C8.13891 6.523 8.208 6.45505 8.27709 6.4007L8.33236 6.34634L8.48436 6.21044L8.53963 6.15608L8.67782 6.02018L8.73309 5.96582L8.91273 5.80275C8.98182 5.70762 9.06473 5.65326 9.12 5.58531L9.17527 5.54454L9.18909 5.53095L9.20291 5.51736L9.21673 5.50377L9.29963 5.43582L9.39636 5.3407L9.49309 5.25916L9.58982 5.16403L9.68654 5.0689L9.78327 4.98736L9.79709 4.97377L9.85236 4.933L9.94909 4.85146L10.0458 4.76993L10.1287 4.68839L10.1978 4.62044L10.2807 4.55249L10.3775 4.45736L10.4327 4.41659L10.488 4.36223L10.6538 4.21275L10.6815 4.18557L10.7782 4.11762L10.8611 4.06326L10.9855 3.96813L10.9993 3.95454C11.1513 3.81864 11.2895 3.70993 11.4276 3.58762C11.4829 3.54685 11.552 3.49249 11.6073 3.43813C11.7316 3.343 11.8422 3.24787 11.9527 3.16634L12.1185 3.03044C12.2153 2.9489 12.3258 2.86736 12.4225 2.78582C13.3898 2.0248 13.984 1.61711 13.9978 1.60352C14.0945 1.67146 14.1775 1.73941 14.2742 1.80736C14.5505 2.01121 14.8269 2.21505 15.0895 2.4189C15.1724 2.48685 15.2553 2.5548 15.3382 2.62275L15.4764 2.73146C15.7251 2.92172 15.96 3.11198 16.1949 3.30223C16.3331 3.42454 16.4851 3.54685 16.6233 3.65557L16.6785 3.69634L16.6924 3.70993C17.0102 3.98172 17.328 4.23993 17.632 4.49813L17.7287 4.59326L17.8393 4.68839L17.9775 4.8107L18.0465 4.86505C18.1709 4.96018 18.2815 5.0689 18.392 5.17762L18.4058 5.19121L18.4749 5.24557C18.544 5.31352 18.6269 5.38146 18.696 5.44941L18.7098 5.43582C18.7651 5.49018 18.8065 5.53095 18.8618 5.57172L18.8756 5.58531L18.9309 5.63967L19.0415 5.74839L19.1658 5.85711L19.2625 5.95223L19.3869 6.06095C19.4422 6.11531 19.5113 6.16967 19.5665 6.22403L19.5942 6.25121C19.6495 6.30557 19.7047 6.35993 19.76 6.41428L19.8015 6.45505C19.8567 6.50941 19.912 6.56377 19.9673 6.61813L20.0087 6.6589L20.1469 6.7948L20.2436 6.87634L20.3265 6.95787L20.4371 7.06659L20.4924 7.12095L20.5338 7.16172L20.6305 7.25685L20.7687 7.36557L20.8378 7.43352L20.9345 7.52864L21.0313 7.62377L21.0865 7.67813L21.2109 7.80044L21.2662 7.8548L21.3767 7.97711L21.4458 8.05864L21.5564 8.15377L21.7084 8.31685L21.7913 8.41198L21.8604 8.49352L21.9433 8.57505L22.0124 8.65659L22.0676 8.71095L22.1644 8.80608L22.192 8.83326L22.2887 8.94198L22.344 8.99634L22.4407 9.10505L22.4545 9.11864L22.5513 9.24095L22.6065 9.29531C22.6756 9.37685 22.7447 9.45839 22.8138 9.53993L22.8276 9.55352L22.9244 9.67582L22.9382 9.703C23.0073 9.78454 23.0764 9.86608 23.1455 9.94762L23.2422 10.0563L23.256 10.0699L23.3389 10.1651L23.3527 10.1786C23.4771 10.3145 23.5876 10.4504 23.6844 10.5727L23.6982 10.5863C23.7396 10.6407 23.7949 10.6951 23.8364 10.7358L23.8502 10.7494C24.1265 11.0892 24.2647 11.2794 24.2647 11.293C21.0727 9.49916 17.7287 8.88762 14.6749 8.88762C14.4538 8.88762 14.2189 8.88762 13.9978 8.90121H13.9287C13.68 8.90121 13.4313 8.9148 13.1687 8.92839H13.0996C12.8509 8.95557 12.6022 8.96916 12.3673 8.99634H12.2982C12.0495 9.02352 11.8145 9.05069 11.5658 9.07787L11.5105 9.09146C11.2618 9.11864 11.0269 9.15941 10.792 9.18659H10.7505C10.5156 9.21377 10.2807 9.25454 10.0596 9.3089H10.0182C9.79709 9.36326 9.576 9.40403 9.35491 9.4448L9.29963 9.45839C9.20291 9.48557 9.09236 9.49916 8.98182 9.52634H8.968C8.87127 9.55352 8.76073 9.5807 8.664 9.59429L8.63636 9.60787C8.52582 9.62146 8.41527 9.66223 8.31854 9.68941H8.30473C8.208 9.703 8.11127 9.74377 8.01454 9.75736L7.98691 9.77095C7.89018 9.79813 7.77963 9.81172 7.69673 9.85249C7.58618 9.87967 7.50327 9.89326 7.40654 9.92044L7.36509 9.93403C7.28218 9.96121 7.18545 9.98839 7.10254 10.0156H7.08873C7.00582 10.0427 6.90909 10.0699 6.82618 10.0971L6.79854 10.1107C6.61891 10.1515 6.45309 10.2194 6.28727 10.2602H6.27345C4.68436 10.7902 3.70327 11.2658 3.68945 11.2658L3.70327 11.2522C3.75854 11.1843 3.82763 11.0892 3.89673 11.0076Z" fill="white"/>
<path d="M3.89673 11.0076L3.92436 10.9804L3.97964 10.8989L4.07636 10.7902L4.14545 10.7222L4.15927 10.7086L4.18691 10.6815L4.28363 10.5727C4.39418 10.4368 4.51854 10.301 4.62909 10.1786L4.69818 10.1107L4.80873 9.9748L4.85018 9.92044L4.90545 9.85249L5.016 9.71659C5.168 9.55352 5.30618 9.40403 5.44436 9.25454L5.58254 9.10505L5.74836 8.94198C5.85891 8.80608 5.98327 8.68377 6.09382 8.56146C6.14909 8.49352 6.21818 8.42557 6.27345 8.37121L6.30109 8.34403C6.43927 8.20813 6.57745 8.07223 6.70182 7.92275L6.72945 7.89557L6.75709 7.88198L6.92291 7.70531L6.97818 7.65095L7.03345 7.59659L7.04727 7.583C7.17163 7.4607 7.28218 7.33839 7.40654 7.22967C7.46182 7.16172 7.54473 7.09377 7.6 7.02582L7.65527 6.97146L7.82109 6.82198L7.87636 6.76762L7.93163 6.71326L7.94545 6.69967L7.95927 6.68608L8.056 6.60454L8.06982 6.59095C8.13891 6.523 8.208 6.45505 8.27709 6.4007L8.33236 6.34634L8.48436 6.21044L8.53963 6.15608L8.67782 6.02018L8.73309 5.96582L8.91273 5.80275C8.98182 5.70762 9.06473 5.65326 9.12 5.58531L9.17527 5.54454L9.18909 5.53095L9.20291 5.51736L9.21673 5.50377L9.29963 5.43582L9.39636 5.3407L9.49309 5.25916L9.58982 5.16403L9.68654 5.0689L9.78327 4.98736L9.79709 4.97377L9.85236 4.933L9.94909 4.85146L10.0458 4.76993L10.1287 4.68839L10.1978 4.62044L10.2807 4.55249L10.3775 4.45736L10.4327 4.41659L10.488 4.36223L10.6538 4.21275L10.6815 4.18557L10.7782 4.11762L10.8611 4.06326L10.9855 3.96813L10.9993 3.95454C11.1513 3.81864 11.2895 3.70993 11.4276 3.58762C11.4829 3.54685 11.552 3.49249 11.6073 3.43813C11.7316 3.343 11.8422 3.24787 11.9527 3.16634L12.1185 3.03044C12.2153 2.9489 12.3258 2.86736 12.4225 2.78582C13.3898 2.0248 13.984 1.61711 13.9978 1.60352C14.0945 1.67146 14.1775 1.73941 14.2742 1.80736C14.5505 2.01121 14.8269 2.21505 15.0895 2.4189C15.1724 2.48685 15.2553 2.5548 15.3382 2.62275L15.4764 2.73146C15.7251 2.92172 15.96 3.11198 16.1949 3.30223C16.3331 3.42454 16.4851 3.54685 16.6233 3.65557L16.6785 3.69634L16.6924 3.70993C17.0102 3.98172 17.328 4.23993 17.632 4.49813L17.7287 4.59326L17.8393 4.68839L17.9775 4.8107L18.0465 4.86505C18.1709 4.96018 18.2815 5.0689 18.392 5.17762L18.4058 5.19121L18.4749 5.24557C18.544 5.31352 18.6269 5.38146 18.696 5.44941L18.7098 5.43582C18.7651 5.49018 18.8065 5.53095 18.8618 5.57172L18.8756 5.58531L18.9309 5.63967L19.0415 5.74839L19.1658 5.85711L19.2625 5.95223L19.3869 6.06095C19.4422 6.11531 19.5113 6.16967 19.5665 6.22403L19.5942 6.25121C19.6495 6.30557 19.7047 6.35993 19.76 6.41428L19.8015 6.45505C19.8567 6.50941 19.912 6.56377 19.9673 6.61813L20.0087 6.6589L20.1469 6.7948L20.2436 6.87634L20.3265 6.95787L20.4371 7.06659L20.4924 7.12095L20.5338 7.16172L20.6305 7.25685L20.7687 7.36557L20.8378 7.43352L20.9345 7.52864L21.0313 7.62377L21.0865 7.67813L21.2109 7.80044L21.2662 7.8548L21.3767 7.97711L21.4458 8.05864L21.5564 8.15377L21.7084 8.31685L21.7913 8.41198L21.8604 8.49352L21.9433 8.57505L22.0124 8.65659L22.0676 8.71095L22.1644 8.80608L22.192 8.83326L22.2887 8.94198L22.344 8.99634L22.4407 9.10505L22.4545 9.11864L22.5513 9.24095L22.6065 9.29531C22.6756 9.37685 22.7447 9.45839 22.8138 9.53993L22.8276 9.55352L22.9244 9.67582L22.9382 9.703C23.0073 9.78454 23.0764 9.86608 23.1455 9.94762L23.2422 10.0563L23.256 10.0699L23.3389 10.1651L23.3527 10.1786C23.4771 10.3145 23.5876 10.4504 23.6844 10.5727L23.6982 10.5863C23.7396 10.6407 23.7949 10.6951 23.8364 10.7358L23.8502 10.7494C24.1265 11.0892 24.2647 11.2794 24.2647 11.293C21.0727 9.49916 17.7287 8.88762 14.6749 8.88762C14.4538 8.88762 14.2189 8.88762 13.9978 8.90121H13.9287C13.68 8.90121 13.4313 8.9148 13.1687 8.92839H13.0996C12.8509 8.95557 12.6022 8.96916 12.3673 8.99634H12.2982C12.0495 9.02352 11.8145 9.05069 11.5658 9.07787L11.5105 9.09146C11.2618 9.11864 11.0269 9.15941 10.792 9.18659H10.7505C10.5156 9.21377 10.2807 9.25454 10.0596 9.3089H10.0182C9.79709 9.36326 9.576 9.40403 9.35491 9.4448L9.29963 9.45839C9.20291 9.48557 9.09236 9.49916 8.98182 9.52634H8.968C8.87127 9.55352 8.76073 9.5807 8.664 9.59429L8.63636 9.60787C8.52582 9.62146 8.41527 9.66223 8.31854 9.68941H8.30473C8.208 9.703 8.11127 9.74377 8.01454 9.75736L7.98691 9.77095C7.89018 9.79813 7.77963 9.81172 7.69673 9.85249C7.58618 9.87967 7.50327 9.89326 7.40654 9.92044L7.36509 9.93403C7.28218 9.96121 7.18545 9.98839 7.10254 10.0156H7.08873C7.00582 10.0427 6.90909 10.0699 6.82618 10.0971L6.79854 10.1107C6.61891 10.1515 6.45309 10.2194 6.28727 10.2602H6.27345C4.68436 10.7902 3.70327 11.2658 3.68945 11.2658L3.70327 11.2522C3.75854 11.1843 3.82763 11.0892 3.89673 11.0076Z" fill="white"/>
<mask id="mask2_244_514" style="mask-type:luminance" maskUnits="userSpaceOnUse" x="3" y="1" width="22" height="11">
<path d="M3.89673 11.0076L3.92436 10.9804L3.97964 10.8989L4.07636 10.7902L4.14545 10.7222L4.15927 10.7086L4.18691 10.6815L4.28363 10.5727C4.39418 10.4368 4.51854 10.301 4.62909 10.1786L4.69818 10.1107L4.80873 9.9748L4.85018 9.92044L4.90545 9.85249L5.016 9.71659C5.168 9.55352 5.30618 9.40403 5.44436 9.25454L5.58254 9.10505L5.74836 8.94198C5.85891 8.80608 5.98327 8.68377 6.09382 8.56146C6.14909 8.49352 6.21818 8.42557 6.27345 8.37121L6.30109 8.34403C6.43927 8.20813 6.57745 8.07223 6.70182 7.92275L6.72945 7.89557L6.75709 7.88198L6.92291 7.70531L6.97818 7.65095L7.03345 7.59659L7.04727 7.583C7.17163 7.4607 7.28218 7.33839 7.40654 7.22967C7.46182 7.16172 7.54473 7.09377 7.6 7.02582L7.65527 6.97146L7.82109 6.82198L7.87636 6.76762L7.93163 6.71326L7.94545 6.69967L7.95927 6.68608L8.056 6.60454L8.06982 6.59095C8.13891 6.523 8.208 6.45505 8.27709 6.4007L8.33236 6.34634L8.48436 6.21044L8.53963 6.15608L8.67782 6.02018L8.73309 5.96582L8.91273 5.80275C8.98182 5.70762 9.06473 5.65326 9.12 5.58531L9.17527 5.54454L9.18909 5.53095L9.20291 5.51736L9.21673 5.50377L9.29963 5.43582L9.39636 5.3407L9.49309 5.25916L9.58982 5.16403L9.68654 5.0689L9.78327 4.98736L9.79709 4.97377L9.85236 4.933L9.94909 4.85146L10.0458 4.76993L10.1287 4.68839L10.1978 4.62044L10.2807 4.55249L10.3775 4.45736L10.4327 4.41659L10.488 4.36223L10.6538 4.21275L10.6815 4.18557L10.7782 4.11762L10.8611 4.06326L10.9855 3.96813L10.9993 3.95454C11.1513 3.81864 11.2895 3.70993 11.4276 3.58762C11.4829 3.54685 11.552 3.49249 11.6073 3.43813C11.7316 3.343 11.8422 3.24787 11.9527 3.16634L12.1185 3.03044C12.2153 2.9489 12.3258 2.86736 12.4225 2.78582C13.3898 2.0248 13.984 1.61711 13.9978 1.60352C14.0945 1.67146 14.1775 1.73941 14.2742 1.80736C14.5505 2.01121 14.8269 2.21505 15.0895 2.4189C15.1724 2.48685 15.2553 2.5548 15.3382 2.62275L15.4764 2.73146C15.7251 2.92172 15.96 3.11198 16.1949 3.30223C16.3331 3.42454 16.4851 3.54685 16.6233 3.65557L16.6785 3.69634L16.6924 3.70993C17.0102 3.98172 17.328 4.23993 17.632 4.49813L17.7287 4.59326L17.8393 4.68839L17.9775 4.8107L18.0465 4.86505C18.1709 4.96018 18.2815 5.0689 18.392 5.17762L18.4058 5.19121L18.4749 5.24557C18.544 5.31352 18.6269 5.38146 18.696 5.44941L18.7098 5.43582C18.7651 5.49018 18.8065 5.53095 18.8618 5.57172L18.8756 5.58531L18.9309 5.63967L19.0415 5.74839L19.1658 5.85711L19.2625 5.95223L19.3869 6.06095C19.4422 6.11531 19.5113 6.16967 19.5665 6.22403L19.5942 6.25121C19.6495 6.30557 19.7047 6.35993 19.76 6.41428L19.8015 6.45505C19.8567 6.50941 19.912 6.56377 19.9673 6.61813L20.0087 6.6589L20.1469 6.7948L20.2436 6.87634L20.3265 6.95787L20.4371 7.06659L20.4924 7.12095L20.5338 7.16172L20.6305 7.25685L20.7687 7.36557L20.8378 7.43352L20.9345 7.52864L21.0313 7.62377L21.0865 7.67813L21.2109 7.80044L21.2662 7.8548L21.3767 7.97711L21.4458 8.05864L21.5564 8.15377L21.7084 8.31685L21.7913 8.41198L21.8604 8.49352L21.9433 8.57505L22.0124 8.65659L22.0676 8.71095L22.1644 8.80608L22.192 8.83326L22.2887 8.94198L22.344 8.99634L22.4407 9.10505L22.4545 9.11864L22.5513 9.24095L22.6065 9.29531C22.6756 9.37685 22.7447 9.45839 22.8138 9.53993L22.8276 9.55352L22.9244 9.67582L22.9382 9.703C23.0073 9.78454 23.0764 9.86608 23.1455 9.94762L23.2422 10.0563L23.256 10.0699L23.3389 10.1651L23.3527 10.1786C23.4771 10.3145 23.5876 10.4504 23.6844 10.5727L23.6982 10.5863C23.7396 10.6407 23.7949 10.6951 23.8364 10.7358L23.8502 10.7494C24.1265 11.0892 24.2647 11.2794 24.2647 11.293C21.0727 9.49916 17.7287 8.88762 14.6749 8.88762C14.4538 8.88762 14.2189 8.88762 13.9978 8.90121H13.9287C13.68 8.90121 13.4313 8.9148 13.1687 8.92839H13.0996C12.8509 8.95557 12.6022 8.96916 12.3673 8.99634H12.2982C12.0495 9.02352 11.8145 9.05069 11.5658 9.07787L11.5105 9.09146C11.2618 9.11864 11.0269 9.15941 10.792 9.18659H10.7505C10.5156 9.21377 10.2807 9.25454 10.0596 9.3089H10.0182C9.79709 9.36326 9.576 9.40403 9.35491 9.4448L9.29963 9.45839C9.20291 9.48557 9.09236 9.49916 8.98182 9.52634H8.968C8.87127 9.55352 8.76073 9.5807 8.664 9.59429L8.63636 9.60787C8.52582 9.62146 8.41527 9.66223 8.31854 9.68941H8.30473C8.208 9.703 8.11127 9.74377 8.01454 9.75736L7.98691 9.77095C7.89018 9.79813 7.77963 9.81172 7.69673 9.85249C7.58618 9.87967 7.50327 9.89326 7.40654 9.92044L7.36509 9.93403C7.28218 9.96121 7.18545 9.98839 7.10254 10.0156H7.08873C7.00582 10.0427 6.90909 10.0699 6.82618 10.0971L6.79854 10.1107C6.61891 10.1515 6.45309 10.2194 6.28727 10.2602H6.27345C4.68436 10.7902 3.70327 11.2658 3.68945 11.2658L3.70327 11.2522C3.75854 11.1843 3.82763 11.0892 3.89673 11.0076Z" fill="white"/>
</mask>
<g mask="url(#mask2_244_514)">
<path d="M24.3062 1.61719H3.68945V11.2795H24.3062V1.61719Z" fill="white"/>
</g>
<path fill-rule="evenodd" clip-rule="evenodd" d="M32.3489 15.098L32.3627 15.0844L32.4042 15.03L32.4594 14.9621L32.5009 14.9213L32.5147 14.9077L32.5285 14.8941L32.5838 14.8262C32.6529 14.7447 32.722 14.6631 32.7911 14.5816L32.8325 14.5408L32.9016 14.4593L32.9293 14.4185L32.9569 14.3777L33.026 14.2962C33.1089 14.2011 33.1918 14.1059 33.2747 14.0244L33.3576 13.9293L33.4543 13.8206C33.5234 13.739 33.5925 13.6711 33.6616 13.5895C33.7031 13.5488 33.7307 13.508 33.7722 13.4672L33.786 13.4536C33.8689 13.3585 33.9518 13.2906 34.0347 13.1954L34.0485 13.1818L34.1453 13.0731L34.1729 13.0459L34.2005 13.0188L34.2143 13.0052C34.2834 12.9372 34.3525 12.8557 34.4216 12.7877C34.4631 12.747 34.5045 12.7062 34.5322 12.6654L34.5598 12.6247L34.6565 12.5295L34.6842 12.5023L34.7118 12.4752L34.7256 12.4616L34.7394 12.448L34.7947 12.3936L34.8085 12.38C34.85 12.3393 34.8914 12.2985 34.9329 12.2577L34.9605 12.2306L35.0573 12.1354L35.0849 12.1082L35.1678 12.0267L35.2093 11.9859L35.3198 11.8908C35.3613 11.85 35.4027 11.8229 35.4303 11.7821L35.458 11.7549L35.4718 11.7413L35.4856 11.7277L35.4994 11.7141L35.5547 11.6598L35.61 11.6054L35.6653 11.5511L35.7205 11.4967L35.7758 11.4423L35.8311 11.388L35.8449 11.3744L35.8725 11.3472L35.9278 11.2929L35.9831 11.2385L36.0383 11.1841L36.0936 11.1434L36.1489 11.089L36.1765 11.0754L36.218 11.0347L36.3147 10.9395L36.3285 10.9259L36.3838 10.8716L36.4253 10.8308L36.4943 10.7765C36.5911 10.6949 36.674 10.627 36.7569 10.5454C36.7983 10.5182 36.826 10.4911 36.8674 10.4503C36.9365 10.3959 37.0056 10.328 37.0747 10.2872L37.1714 10.2057C37.2267 10.1513 37.2958 10.1106 37.3511 10.0562C37.9314 9.59414 38.2907 9.33594 38.2907 9.33594C38.346 9.37671 38.4013 9.41748 38.4565 9.47183C38.6223 9.60773 38.7743 9.71645 38.9402 9.83876C38.9954 9.87953 39.0369 9.9203 39.0922 9.96107L39.1751 10.029C39.3133 10.1513 39.4514 10.26 39.6034 10.3823C39.7002 10.4503 39.7693 10.5182 39.866 10.5998L39.8936 10.627L39.9074 10.6406C40.1009 10.8036 40.2943 10.9667 40.474 11.1298L40.5293 11.1841L40.5845 11.2385L40.6674 11.32L40.7089 11.3608C40.778 11.4152 40.8471 11.4831 40.9162 11.5511L40.93 11.5647L40.9714 11.6054C41.0129 11.6462 41.0682 11.687 41.1096 11.7277L41.2063 11.7006C41.234 11.7277 41.2616 11.7549 41.3031 11.7821L41.3169 11.7957L41.3583 11.8365L41.4274 11.8908L41.4965 11.9588L41.5518 12.0131L41.6209 12.0811C41.6623 12.1218 41.69 12.149 41.7314 12.1762L41.7453 12.1898C41.7729 12.217 41.8143 12.2577 41.842 12.2849L41.8696 12.3121C41.8973 12.3393 41.9387 12.3665 41.9663 12.4072L41.994 12.4208L42.0631 12.4888L42.1183 12.5431L42.1736 12.5975L42.2427 12.6654L42.2703 12.6926L42.298 12.7198L42.3533 12.7741L42.4223 12.8421L42.4638 12.8829L42.5191 12.9372L42.5743 12.9916L42.6158 13.0323L42.6711 13.1139L42.6987 13.1411L42.7678 13.209L42.8093 13.2634L42.8645 13.3313L42.9751 13.4536L43.0303 13.508L43.0718 13.5623L43.1271 13.6167L43.1685 13.6711L43.21 13.7118L43.2653 13.7662L43.2791 13.7798L43.3343 13.8477L43.362 13.8749L43.4173 13.9429L43.4311 13.9565L43.4863 14.0244L43.514 14.0516C43.5554 14.1059 43.5969 14.1467 43.6383 14.1875V14.2011L43.6936 14.269L43.7074 14.2826C43.7489 14.337 43.7903 14.3777 43.8318 14.4185L43.8871 14.4865L43.9009 14.5L43.9562 14.5544V14.568C44.0253 14.6631 44.0943 14.7311 44.1634 14.8126L44.1773 14.8262C44.2049 14.8534 44.2325 14.8941 44.2463 14.9213V14.9349C44.4122 15.1388 44.4951 15.2611 44.4951 15.2611C42.5882 14.1603 40.5983 13.7934 38.7743 13.7934C38.6362 13.7934 38.498 13.7934 38.3736 13.807H38.3322C38.1802 13.807 38.0282 13.8206 37.8762 13.8206H37.8347C37.6827 13.8341 37.5445 13.8341 37.3925 13.8613H37.3511C37.2129 13.8749 37.0609 13.8885 36.9227 13.9157H36.8813C36.7431 13.9293 36.6049 13.9564 36.4529 13.97H36.4253C36.2871 13.9836 36.1489 14.0244 36.0107 14.038L35.9831 14.0516C35.8449 14.0788 35.7205 14.1059 35.5823 14.1331L35.5547 14.1467C35.4994 14.1603 35.4165 14.1739 35.3613 14.1875H35.3474C35.2922 14.2011 35.2231 14.2147 35.1678 14.2282L35.154 14.2418C35.0987 14.2554 35.0296 14.269 34.9743 14.2962H34.9605C34.9053 14.3098 34.8362 14.3234 34.7947 14.3506H34.7809C34.7256 14.3641 34.6565 14.3777 34.6013 14.4049C34.546 14.4185 34.4907 14.4321 34.4354 14.4593L34.4216 14.4729C34.3663 14.4864 34.3111 14.5 34.2558 14.5272C34.2005 14.5408 34.1591 14.5544 34.1038 14.5816L34.09 14.5952C33.9794 14.6223 33.8827 14.6631 33.786 14.6903C32.8187 15.0029 32.2522 15.3018 32.2383 15.3018L32.2522 15.2882C32.266 15.2067 32.3074 15.1523 32.3489 15.098Z" fill="white"/>
<path d="M32.3489 15.098L32.3627 15.0844L32.4042 15.03L32.4594 14.9621L32.5009 14.9213L32.5147 14.9077L32.5285 14.8941L32.5838 14.8262C32.6529 14.7447 32.722 14.6631 32.7911 14.5816L32.8325 14.5408L32.9016 14.4593L32.9293 14.4185L32.9569 14.3777L33.026 14.2962C33.1089 14.2011 33.1918 14.1059 33.2747 14.0244L33.3576 13.9293L33.4543 13.8206C33.5234 13.739 33.5925 13.6711 33.6616 13.5895C33.7031 13.5488 33.7307 13.508 33.7722 13.4672L33.786 13.4536C33.8689 13.3585 33.9518 13.2906 34.0347 13.1954L34.0485 13.1818L34.1453 13.0731L34.1729 13.0459L34.2005 13.0188L34.2143 13.0052C34.2834 12.9372 34.3525 12.8557 34.4216 12.7877C34.4631 12.747 34.5045 12.7062 34.5322 12.6654L34.5598 12.6247L34.6565 12.5295L34.6842 12.5023L34.7118 12.4752L34.7256 12.4616L34.7394 12.448L34.7947 12.3936L34.8085 12.38C34.85 12.3393 34.8914 12.2985 34.9329 12.2577L34.9605 12.2306L35.0573 12.1354L35.0849 12.1082L35.1678 12.0267L35.2093 11.9859L35.3198 11.8908C35.3613 11.85 35.4027 11.8229 35.4303 11.7821L35.458 11.7549L35.4718 11.7413L35.4856 11.7277L35.4994 11.7141L35.5547 11.6598L35.61 11.6054L35.6653 11.5511L35.7205 11.4967L35.7758 11.4423L35.8311 11.388L35.8449 11.3744L35.8725 11.3472L35.9278 11.2929L35.9831 11.2385L36.0383 11.1841L36.0936 11.1434L36.1489 11.089L36.1765 11.0754L36.218 11.0347L36.3147 10.9395L36.3285 10.9259L36.3838 10.8716L36.4253 10.8308L36.4943 10.7765C36.5911 10.6949 36.674 10.627 36.7569 10.5454C36.7983 10.5182 36.826 10.4911 36.8674 10.4503C36.9365 10.3959 37.0056 10.328 37.0747 10.2872L37.1714 10.2057C37.2267 10.1513 37.2958 10.1106 37.3511 10.0562C37.9314 9.59414 38.2907 9.33594 38.2907 9.33594C38.346 9.37671 38.4013 9.41748 38.4565 9.47183C38.6223 9.60773 38.7743 9.71645 38.9402 9.83876C38.9954 9.87953 39.0369 9.9203 39.0922 9.96107L39.1751 10.029C39.3133 10.1513 39.4514 10.26 39.6034 10.3823C39.7002 10.4503 39.7693 10.5182 39.866 10.5998L39.8936 10.627L39.9074 10.6406C40.1009 10.8036 40.2943 10.9667 40.474 11.1298L40.5293 11.1841L40.5845 11.2385L40.6674 11.32L40.7089 11.3608C40.778 11.4152 40.8471 11.4831 40.9162 11.5511L40.93 11.5647L40.9714 11.6054C41.0129 11.6462 41.0682 11.687 41.1096 11.7277L41.2063 11.7006C41.234 11.7277 41.2616 11.7549 41.3031 11.7821L41.3169 11.7957L41.3583 11.8365L41.4274 11.8908L41.4965 11.9588L41.5518 12.0131L41.6209 12.0811C41.6623 12.1218 41.69 12.149 41.7314 12.1762L41.7453 12.1898C41.7729 12.217 41.8143 12.2577 41.842 12.2849L41.8696 12.3121C41.8973 12.3393 41.9387 12.3665 41.9663 12.4072L41.994 12.4208L42.0631 12.4888L42.1183 12.5431L42.1736 12.5975L42.2427 12.6654L42.2703 12.6926L42.298 12.7198L42.3533 12.7741L42.4223 12.8421L42.4638 12.8829L42.5191 12.9372L42.5743 12.9916L42.6158 13.0323L42.6711 13.1139L42.6987 13.1411L42.7678 13.209L42.8093 13.2634L42.8645 13.3313L42.9751 13.4536L43.0303 13.508L43.0718 13.5623L43.1271 13.6167L43.1685 13.6711L43.21 13.7118L43.2653 13.7662L43.2791 13.7798L43.3343 13.8477L43.362 13.8749L43.4173 13.9429L43.4311 13.9565L43.4863 14.0244L43.514 14.0516C43.5554 14.1059 43.5969 14.1467 43.6383 14.1875V14.2011L43.6936 14.269L43.7074 14.2826C43.7489 14.337 43.7903 14.3777 43.8318 14.4185L43.8871 14.4865L43.9009 14.5L43.9562 14.5544V14.568C44.0253 14.6631 44.0943 14.7311 44.1634 14.8126L44.1773 14.8262C44.2049 14.8534 44.2325 14.8941 44.2463 14.9213V14.9349C44.4122 15.1388 44.4951 15.2611 44.4951 15.2611C42.5882 14.1603 40.5983 13.7934 38.7743 13.7934C38.6362 13.7934 38.498 13.7934 38.3736 13.807H38.3322C38.1802 13.807 38.0282 13.8206 37.8762 13.8206H37.8347C37.6827 13.8341 37.5445 13.8341 37.3925 13.8613H37.3511C37.2129 13.8749 37.0609 13.8885 36.9227 13.9157H36.8813C36.7431 13.9293 36.6049 13.9564 36.4529 13.97H36.4253C36.2871 13.9836 36.1489 14.0244 36.0107 14.038L35.9831 14.0516C35.8449 14.0788 35.7205 14.1059 35.5823 14.1331L35.5547 14.1467C35.4994 14.1603 35.4165 14.1739 35.3613 14.1875H35.3474C35.2922 14.2011 35.2231 14.2147 35.1678 14.2282L35.154 14.2418C35.0987 14.2554 35.0296 14.269 34.9743 14.2962H34.9605C34.9053 14.3098 34.8362 14.3234 34.7947 14.3506H34.7809C34.7256 14.3641 34.6565 14.3777 34.6013 14.4049C34.546 14.4185 34.4907 14.4321 34.4354 14.4593L34.4216 14.4729C34.3663 14.4864 34.3111 14.5 34.2558 14.5272C34.2005 14.5408 34.1591 14.5544 34.1038 14.5816L34.09 14.5952C33.9794 14.6223 33.8827 14.6631 33.786 14.6903C32.8187 15.0029 32.2522 15.3018 32.2383 15.3018L32.2522 15.2882C32.266 15.2067 32.3074 15.1523 32.3489 15.098Z" fill="white"/>
<mask id="mask3_244_514" style="mask-type:luminance" maskUnits="userSpaceOnUse" x="32" y="9" width="13" height="7">
<path d="M32.3489 15.098L32.3627 15.0844L32.4042 15.03L32.4594 14.9621L32.5009 14.9213L32.5147 14.9077L32.5285 14.8941L32.5838 14.8262C32.6529 14.7447 32.722 14.6631 32.7911 14.5816L32.8325 14.5408L32.9016 14.4593L32.9293 14.4185L32.9569 14.3777L33.026 14.2962C33.1089 14.2011 33.1918 14.1059 33.2747 14.0244L33.3576 13.9293L33.4543 13.8206C33.5234 13.739 33.5925 13.6711 33.6616 13.5895C33.7031 13.5488 33.7307 13.508 33.7722 13.4672L33.786 13.4536C33.8689 13.3585 33.9518 13.2906 34.0347 13.1954L34.0485 13.1818L34.1453 13.0731L34.1729 13.0459L34.2005 13.0188L34.2143 13.0052C34.2834 12.9372 34.3525 12.8557 34.4216 12.7877C34.4631 12.747 34.5045 12.7062 34.5322 12.6654L34.5598 12.6247L34.6565 12.5295L34.6842 12.5023L34.7118 12.4752L34.7256 12.4616L34.7394 12.448L34.7947 12.3936L34.8085 12.38C34.85 12.3393 34.8914 12.2985 34.9329 12.2577L34.9605 12.2306L35.0573 12.1354L35.0849 12.1082L35.1678 12.0267L35.2093 11.9859L35.3198 11.8908C35.3613 11.85 35.4027 11.8229 35.4303 11.7821L35.458 11.7549L35.4718 11.7413L35.4856 11.7277L35.4994 11.7141L35.5547 11.6598L35.61 11.6054L35.6653 11.5511L35.7205 11.4967L35.7758 11.4423L35.8311 11.388L35.8449 11.3744L35.8725 11.3472L35.9278 11.2929L35.9831 11.2385L36.0383 11.1841L36.0936 11.1434L36.1489 11.089L36.1765 11.0754L36.218 11.0347L36.3147 10.9395L36.3285 10.9259L36.3838 10.8716L36.4253 10.8308L36.4943 10.7765C36.5911 10.6949 36.674 10.627 36.7569 10.5454C36.7983 10.5182 36.826 10.4911 36.8674 10.4503C36.9365 10.3959 37.0056 10.328 37.0747 10.2872L37.1714 10.2057C37.2267 10.1513 37.2958 10.1106 37.3511 10.0562C37.9314 9.59414 38.2907 9.33594 38.2907 9.33594C38.346 9.37671 38.4013 9.41748 38.4565 9.47183C38.6223 9.60773 38.7743 9.71645 38.9402 9.83876C38.9954 9.87953 39.0369 9.9203 39.0922 9.96107L39.1751 10.029C39.3133 10.1513 39.4514 10.26 39.6034 10.3823C39.7002 10.4503 39.7693 10.5182 39.866 10.5998L39.8936 10.627L39.9074 10.6406C40.1009 10.8036 40.2943 10.9667 40.474 11.1298L40.5293 11.1841L40.5845 11.2385L40.6674 11.32L40.7089 11.3608C40.778 11.4152 40.8471 11.4831 40.9162 11.5511L40.93 11.5647L40.9714 11.6054C41.0129 11.6462 41.0682 11.687 41.1096 11.7277L41.2063 11.7006C41.234 11.7277 41.2616 11.7549 41.3031 11.7821L41.3169 11.7957L41.3583 11.8365L41.4274 11.8908L41.4965 11.9588L41.5518 12.0131L41.6209 12.0811C41.6623 12.1218 41.69 12.149 41.7314 12.1762L41.7453 12.1898C41.7729 12.217 41.8143 12.2577 41.842 12.2849L41.8696 12.3121C41.8973 12.3393 41.9387 12.3665 41.9663 12.4072L41.994 12.4208L42.0631 12.4888L42.1183 12.5431L42.1736 12.5975L42.2427 12.6654L42.2703 12.6926L42.298 12.7198L42.3533 12.7741L42.4223 12.8421L42.4638 12.8829L42.5191 12.9372L42.5743 12.9916L42.6158 13.0323L42.6711 13.1139L42.6987 13.1411L42.7678 13.209L42.8093 13.2634L42.8645 13.3313L42.9751 13.4536L43.0303 13.508L43.0718 13.5623L43.1271 13.6167L43.1685 13.6711L43.21 13.7118L43.2653 13.7662L43.2791 13.7798L43.3343 13.8477L43.362 13.8749L43.4173 13.9429L43.4311 13.9565L43.4863 14.0244L43.514 14.0516C43.5554 14.1059 43.5969 14.1467 43.6383 14.1875V14.2011L43.6936 14.269L43.7074 14.2826C43.7489 14.337 43.7903 14.3777 43.8318 14.4185L43.8871 14.4865L43.9009 14.5L43.9562 14.5544V14.568C44.0253 14.6631 44.0943 14.7311 44.1634 14.8126L44.1773 14.8262C44.2049 14.8534 44.2325 14.8941 44.2463 14.9213V14.9349C44.4122 15.1388 44.4951 15.2611 44.4951 15.2611C42.5882 14.1603 40.5983 13.7934 38.7743 13.7934C38.6362 13.7934 38.498 13.7934 38.3736 13.807H38.3322C38.1802 13.807 38.0282 13.8206 37.8762 13.8206H37.8347C37.6827 13.8341 37.5445 13.8341 37.3925 13.8613H37.3511C37.2129 13.8749 37.0609 13.8885 36.9227 13.9157H36.8813C36.7431 13.9293 36.6049 13.9564 36.4529 13.97H36.4253C36.2871 13.9836 36.1489 14.0244 36.0107 14.038L35.9831 14.0516C35.8449 14.0788 35.7205 14.1059 35.5823 14.1331L35.5547 14.1467C35.4994 14.1603 35.4165 14.1739 35.3613 14.1875H35.3474C35.2922 14.2011 35.2231 14.2147 35.1678 14.2282L35.154 14.2418C35.0987 14.2554 35.0296 14.269 34.9743 14.2962H34.9605C34.9053 14.3098 34.8362 14.3234 34.7947 14.3506H34.7809C34.7256 14.3641 34.6565 14.3777 34.6013 14.4049C34.546 14.4185 34.4907 14.4321 34.4354 14.4593L34.4216 14.4729C34.3663 14.4864 34.3111 14.5 34.2558 14.5272C34.2005 14.5408 34.1591 14.5544 34.1038 14.5816L34.09 14.5952C33.9794 14.6223 33.8827 14.6631 33.786 14.6903C32.8187 15.0029 32.2522 15.3018 32.2383 15.3018L32.2522 15.2882C32.266 15.2067 32.3074 15.1523 32.3489 15.098Z" fill="white"/>
</mask>
<g mask="url(#mask3_244_514)">
<path d="M44.523 9.33594H32.211V15.2475H44.523V9.33594Z" fill="white"/>
</g>
<path fill-rule="evenodd" clip-rule="evenodd" d="M6.92378 38.2263L6.93759 38.1991L6.99287 38.1448L7.06196 38.0496L7.11723 37.9953L7.13105 37.9817L7.14487 37.9681L7.22778 37.873C7.3245 37.7642 7.42123 37.6555 7.51796 37.5468L7.57323 37.4924L7.66996 37.3837L7.71141 37.3294L7.76669 37.275L7.86341 37.1663C7.97396 37.0304 8.09832 36.9217 8.20887 36.7858L8.31941 36.6635L8.45759 36.5276C8.55432 36.4324 8.65105 36.3237 8.73396 36.2286C8.78923 36.1742 8.83069 36.1199 8.88596 36.0655L8.89978 36.0519C9.01032 35.9296 9.12087 35.8209 9.23141 35.7122L9.25905 35.685L9.39723 35.5355L9.43869 35.4948L9.49396 35.4404L9.50778 35.4268C9.6045 35.3317 9.71505 35.223 9.79796 35.1278C9.85323 35.0735 9.9085 35.0191 9.96378 34.9648L10.019 34.9104L10.1572 34.7745L10.1987 34.7337L10.254 34.6794L10.2678 34.6658L10.2816 34.6522L10.3507 34.5842L10.3645 34.5707C10.4198 34.5163 10.475 34.4619 10.5303 34.4076L10.5856 34.3668L10.71 34.2445L10.7652 34.1901L10.8896 34.0814L10.9449 34.0271L11.0969 33.8912C11.1521 33.8368 11.2074 33.796 11.2627 33.7417L11.3041 33.7009L11.318 33.6873L11.3318 33.6737L11.3456 33.6601L11.4147 33.5922L11.4976 33.5242L11.5805 33.4563L11.6496 33.4019L11.7463 33.3204L11.8154 33.2524L11.8292 33.2389L11.8845 33.2117L11.9536 33.1573L12.0227 33.0894L12.0918 33.035L12.1747 32.9671L12.23 32.9127L12.3129 32.8448L12.3543 32.8176L12.4096 32.7632L12.5478 32.6137L12.5754 32.6001L12.6445 32.5458L12.7136 32.4778L12.8103 32.3827H12.8241C12.9485 32.274 13.0729 32.1789 13.1834 32.0837C13.2387 32.043 13.2801 32.0022 13.3354 31.9478C13.4321 31.8663 13.5289 31.7848 13.6256 31.7168L13.7638 31.6081C13.8605 31.5401 13.9296 31.4722 14.0125 31.4042C14.8278 30.7655 15.3114 30.4258 15.3252 30.4258C15.4081 30.4801 15.4772 30.5345 15.5601 30.5889C15.795 30.7519 16.0161 30.9286 16.2372 31.0917C16.3063 31.146 16.3754 31.2004 16.4445 31.2548L16.555 31.3499C16.7623 31.513 16.9558 31.6624 17.1492 31.8119C17.2736 31.9071 17.398 32.0022 17.5085 32.0973L17.55 32.1381L17.5638 32.1517C17.8401 32.3691 18.1027 32.5866 18.3514 32.804L18.4343 32.8719L18.531 32.9535L18.6554 33.0486L18.7107 33.103C18.8074 33.1845 18.9041 33.266 19.0009 33.3476L19.0147 33.3612L19.07 33.4155C19.1252 33.4699 19.1943 33.5242 19.2496 33.5786L19.2634 33.5922C19.3049 33.633 19.3463 33.6737 19.4016 33.7009L19.4154 33.7145L19.4707 33.7689L19.5674 33.864L19.6641 33.9591L19.747 34.0407L19.8438 34.1358C19.899 34.1901 19.9405 34.2309 19.9958 34.2717L20.0096 34.2853C20.0649 34.326 20.1063 34.3804 20.1478 34.4212L20.1892 34.4619C20.2445 34.5027 20.286 34.5571 20.3274 34.5978L20.3689 34.625L20.4656 34.7201L20.5347 34.7881L20.6038 34.856L20.7005 34.9512L20.7558 35.0055L20.7972 35.0463L20.8663 35.1142L20.963 35.2094L21.0183 35.2637L21.115 35.3317L21.1841 35.3996L21.2394 35.454L21.3361 35.5491L21.3776 35.5899L21.4743 35.685L21.5296 35.7394L21.6263 35.8345L21.7645 35.9704L21.8336 36.0383L21.8889 36.0927L21.958 36.1607L22.0132 36.2286L22.0685 36.283L22.1514 36.3645L22.179 36.3917L22.2758 36.4868L22.3172 36.5276L22.4001 36.6227L22.414 36.6363L22.5107 36.7314L22.5521 36.7858C22.6074 36.8537 22.6765 36.9217 22.718 36.9896L22.7318 37.0032L22.8285 37.0983L22.8423 37.1119C22.8976 37.1799 22.9667 37.2478 23.0081 37.3022L23.091 37.3973L23.1049 37.4109L23.174 37.4924L23.1878 37.506C23.2845 37.6283 23.3812 37.7371 23.4641 37.8322L23.478 37.8458C23.5194 37.9001 23.547 37.9409 23.5747 37.9817V37.9953C23.8096 38.2671 23.9201 38.4301 23.934 38.4301C21.2809 36.9353 18.4896 36.446 15.947 36.446C15.7536 36.446 15.574 36.446 15.3805 36.4596H15.3252C15.118 36.4732 14.8969 36.4732 14.6896 36.4868H14.6343C14.427 36.5004 14.2198 36.514 14.0125 36.5412L13.9572 36.5548C13.75 36.5683 13.5565 36.5955 13.3492 36.6227L13.294 36.6363C13.0867 36.6635 12.8932 36.6907 12.6998 36.7178L12.6583 36.7314C12.4649 36.7586 12.2714 36.7858 12.078 36.8266L12.0227 36.813C11.8292 36.8401 11.6496 36.8809 11.47 36.9217L11.4285 36.9353C11.3318 36.9489 11.2489 36.976 11.166 36.9896H11.1521C11.0692 37.0032 10.9863 37.0304 10.9034 37.044H10.862C10.7652 37.0576 10.6961 37.0848 10.5994 37.0983H10.5856C10.5027 37.1119 10.4198 37.1391 10.3369 37.1527L10.323 37.1663C10.2401 37.1799 10.1572 37.2071 10.0743 37.2342C9.99141 37.2478 9.92232 37.275 9.83941 37.2886L9.81178 37.3294C9.72887 37.343 9.65978 37.3701 9.57687 37.3973C9.50778 37.4109 9.43869 37.4381 9.3696 37.4517L9.34196 37.4653C9.18996 37.5196 9.05178 37.5604 8.91359 37.6012C7.57323 38.0224 6.77178 38.4301 6.74414 38.4301L6.75796 38.4166C6.79941 38.3622 6.8685 38.2942 6.92378 38.2263Z" fill="white"/>
<path d="M6.92378 38.2263L6.93759 38.1991L6.99287 38.1448L7.06196 38.0496L7.11723 37.9953L7.13105 37.9817L7.14487 37.9681L7.22778 37.873C7.3245 37.7642 7.42123 37.6555 7.51796 37.5468L7.57323 37.4924L7.66996 37.3837L7.71141 37.3294L7.76669 37.275L7.86341 37.1663C7.97396 37.0304 8.09832 36.9217 8.20887 36.7858L8.31941 36.6635L8.45759 36.5276C8.55432 36.4324 8.65105 36.3237 8.73396 36.2286C8.78923 36.1742 8.83069 36.1199 8.88596 36.0655L8.89978 36.0519C9.01032 35.9296 9.12087 35.8209 9.23141 35.7122L9.25905 35.685L9.39723 35.5355L9.43869 35.4948L9.49396 35.4404L9.50778 35.4268C9.6045 35.3317 9.71505 35.223 9.79796 35.1278C9.85323 35.0735 9.9085 35.0191 9.96378 34.9648L10.019 34.9104L10.1572 34.7745L10.1987 34.7337L10.254 34.6794L10.2678 34.6658L10.2816 34.6522L10.3507 34.5842L10.3645 34.5707C10.4198 34.5163 10.475 34.4619 10.5303 34.4076L10.5856 34.3668L10.71 34.2445L10.7652 34.1901L10.8896 34.0814L10.9449 34.0271L11.0969 33.8912C11.1521 33.8368 11.2074 33.796 11.2627 33.7417L11.3041 33.7009L11.318 33.6873L11.3318 33.6737L11.3456 33.6601L11.4147 33.5922L11.4976 33.5242L11.5805 33.4563L11.6496 33.4019L11.7463 33.3204L11.8154 33.2524L11.8292 33.2389L11.8845 33.2117L11.9536 33.1573L12.0227 33.0894L12.0918 33.035L12.1747 32.9671L12.23 32.9127L12.3129 32.8448L12.3543 32.8176L12.4096 32.7632L12.5478 32.6137L12.5754 32.6001L12.6445 32.5458L12.7136 32.4778L12.8103 32.3827H12.8241C12.9485 32.274 13.0729 32.1789 13.1834 32.0837C13.2387 32.043 13.2801 32.0022 13.3354 31.9478C13.4321 31.8663 13.5289 31.7848 13.6256 31.7168L13.7638 31.6081C13.8605 31.5401 13.9296 31.4722 14.0125 31.4042C14.8278 30.7655 15.3114 30.4258 15.3252 30.4258C15.4081 30.4801 15.4772 30.5345 15.5601 30.5889C15.795 30.7519 16.0161 30.9286 16.2372 31.0917C16.3063 31.146 16.3754 31.2004 16.4445 31.2548L16.555 31.3499C16.7623 31.513 16.9558 31.6624 17.1492 31.8119C17.2736 31.9071 17.398 32.0022 17.5085 32.0973L17.55 32.1381L17.5638 32.1517C17.8401 32.3691 18.1027 32.5866 18.3514 32.804L18.4343 32.8719L18.531 32.9535L18.6554 33.0486L18.7107 33.103C18.8074 33.1845 18.9041 33.266 19.0009 33.3476L19.0147 33.3612L19.07 33.4155C19.1252 33.4699 19.1943 33.5242 19.2496 33.5786L19.2634 33.5922C19.3049 33.633 19.3463 33.6737 19.4016 33.7009L19.4154 33.7145L19.4707 33.7689L19.5674 33.864L19.6641 33.9591L19.747 34.0407L19.8438 34.1358C19.899 34.1901 19.9405 34.2309 19.9958 34.2717L20.0096 34.2853C20.0649 34.326 20.1063 34.3804 20.1478 34.4212L20.1892 34.4619C20.2445 34.5027 20.286 34.5571 20.3274 34.5978L20.3689 34.625L20.4656 34.7201L20.5347 34.7881L20.6038 34.856L20.7005 34.9512L20.7558 35.0055L20.7972 35.0463L20.8663 35.1142L20.963 35.2094L21.0183 35.2637L21.115 35.3317L21.1841 35.3996L21.2394 35.454L21.3361 35.5491L21.3776 35.5899L21.4743 35.685L21.5296 35.7394L21.6263 35.8345L21.7645 35.9704L21.8336 36.0383L21.8889 36.0927L21.958 36.1607L22.0132 36.2286L22.0685 36.283L22.1514 36.3645L22.179 36.3917L22.2758 36.4868L22.3172 36.5276L22.4001 36.6227L22.414 36.6363L22.5107 36.7314L22.5521 36.7858C22.6074 36.8537 22.6765 36.9217 22.718 36.9896L22.7318 37.0032L22.8285 37.0983L22.8423 37.1119C22.8976 37.1799 22.9667 37.2478 23.0081 37.3022L23.091 37.3973L23.1049 37.4109L23.174 37.4924L23.1878 37.506C23.2845 37.6283 23.3812 37.7371 23.4641 37.8322L23.478 37.8458C23.5194 37.9001 23.547 37.9409 23.5747 37.9817V37.9953C23.8096 38.2671 23.9201 38.4301 23.934 38.4301C21.2809 36.9353 18.4896 36.446 15.947 36.446C15.7536 36.446 15.574 36.446 15.3805 36.4596H15.3252C15.118 36.4732 14.8969 36.4732 14.6896 36.4868H14.6343C14.427 36.5004 14.2198 36.514 14.0125 36.5412L13.9572 36.5548C13.75 36.5683 13.5565 36.5955 13.3492 36.6227L13.294 36.6363C13.0867 36.6635 12.8932 36.6907 12.6998 36.7178L12.6583 36.7314C12.4649 36.7586 12.2714 36.7858 12.078 36.8266L12.0227 36.813C11.8292 36.8401 11.6496 36.8809 11.47 36.9217L11.4285 36.9353C11.3318 36.9489 11.2489 36.976 11.166 36.9896H11.1521C11.0692 37.0032 10.9863 37.0304 10.9034 37.044H10.862C10.7652 37.0576 10.6961 37.0848 10.5994 37.0983H10.5856C10.5027 37.1119 10.4198 37.1391 10.3369 37.1527L10.323 37.1663C10.2401 37.1799 10.1572 37.2071 10.0743 37.2342C9.99141 37.2478 9.92232 37.275 9.83941 37.2886L9.81178 37.3294C9.72887 37.343 9.65978 37.3701 9.57687 37.3973C9.50778 37.4109 9.43869 37.4381 9.3696 37.4517L9.34196 37.4653C9.18996 37.5196 9.05178 37.5604 8.91359 37.6012C7.57323 38.0224 6.77178 38.4301 6.74414 38.4301L6.75796 38.4166C6.79941 38.3622 6.8685 38.2942 6.92378 38.2263Z" fill="white"/>
<mask id="mask4_244_514" style="mask-type:luminance" maskUnits="userSpaceOnUse" x="6" y="30" width="18" height="9">
<path d="M6.92378 38.2263L6.93759 38.1991L6.99287 38.1448L7.06196 38.0496L7.11723 37.9953L7.13105 37.9817L7.14487 37.9681L7.22778 37.873C7.3245 37.7642 7.42123 37.6555 7.51796 37.5468L7.57323 37.4924L7.66996 37.3837L7.71141 37.3294L7.76669 37.275L7.86341 37.1663C7.97396 37.0304 8.09832 36.9217 8.20887 36.7858L8.31941 36.6635L8.45759 36.5276C8.55432 36.4324 8.65105 36.3237 8.73396 36.2286C8.78923 36.1742 8.83069 36.1199 8.88596 36.0655L8.89978 36.0519C9.01032 35.9296 9.12087 35.8209 9.23141 35.7122L9.25905 35.685L9.39723 35.5355L9.43869 35.4948L9.49396 35.4404L9.50778 35.4268C9.6045 35.3317 9.71505 35.223 9.79796 35.1278C9.85323 35.0735 9.9085 35.0191 9.96378 34.9648L10.019 34.9104L10.1572 34.7745L10.1987 34.7337L10.254 34.6794L10.2678 34.6658L10.2816 34.6522L10.3507 34.5842L10.3645 34.5707C10.4198 34.5163 10.475 34.4619 10.5303 34.4076L10.5856 34.3668L10.71 34.2445L10.7652 34.1901L10.8896 34.0814L10.9449 34.0271L11.0969 33.8912C11.1521 33.8368 11.2074 33.796 11.2627 33.7417L11.3041 33.7009L11.318 33.6873L11.3318 33.6737L11.3456 33.6601L11.4147 33.5922L11.4976 33.5242L11.5805 33.4563L11.6496 33.4019L11.7463 33.3204L11.8154 33.2524L11.8292 33.2389L11.8845 33.2117L11.9536 33.1573L12.0227 33.0894L12.0918 33.035L12.1747 32.9671L12.23 32.9127L12.3129 32.8448L12.3543 32.8176L12.4096 32.7632L12.5478 32.6137L12.5754 32.6001L12.6445 32.5458L12.7136 32.4778L12.8103 32.3827H12.8241C12.9485 32.274 13.0729 32.1789 13.1834 32.0837C13.2387 32.043 13.2801 32.0022 13.3354 31.9478C13.4321 31.8663 13.5289 31.7848 13.6256 31.7168L13.7638 31.6081C13.8605 31.5401 13.9296 31.4722 14.0125 31.4042C14.8278 30.7655 15.3114 30.4258 15.3252 30.4258C15.4081 30.4801 15.4772 30.5345 15.5601 30.5889C15.795 30.7519 16.0161 30.9286 16.2372 31.0917C16.3063 31.146 16.3754 31.2004 16.4445 31.2548L16.555 31.3499C16.7623 31.513 16.9558 31.6624 17.1492 31.8119C17.2736 31.9071 17.398 32.0022 17.5085 32.0973L17.55 32.1381L17.5638 32.1517C17.8401 32.3691 18.1027 32.5866 18.3514 32.804L18.4343 32.8719L18.531 32.9535L18.6554 33.0486L18.7107 33.103C18.8074 33.1845 18.9041 33.266 19.0009 33.3476L19.0147 33.3612L19.07 33.4155C19.1252 33.4699 19.1943 33.5242 19.2496 33.5786L19.2634 33.5922C19.3049 33.633 19.3463 33.6737 19.4016 33.7009L19.4154 33.7145L19.4707 33.7689L19.5674 33.864L19.6641 33.9591L19.747 34.0407L19.8438 34.1358C19.899 34.1901 19.9405 34.2309 19.9958 34.2717L20.0096 34.2853C20.0649 34.326 20.1063 34.3804 20.1478 34.4212L20.1892 34.4619C20.2445 34.5027 20.286 34.5571 20.3274 34.5978L20.3689 34.625L20.4656 34.7201L20.5347 34.7881L20.6038 34.856L20.7005 34.9512L20.7558 35.0055L20.7972 35.0463L20.8663 35.1142L20.963 35.2094L21.0183 35.2637L21.115 35.3317L21.1841 35.3996L21.2394 35.454L21.3361 35.5491L21.3776 35.5899L21.4743 35.685L21.5296 35.7394L21.6263 35.8345L21.7645 35.9704L21.8336 36.0383L21.8889 36.0927L21.958 36.1607L22.0132 36.2286L22.0685 36.283L22.1514 36.3645L22.179 36.3917L22.2758 36.4868L22.3172 36.5276L22.4001 36.6227L22.414 36.6363L22.5107 36.7314L22.5521 36.7858C22.6074 36.8537 22.6765 36.9217 22.718 36.9896L22.7318 37.0032L22.8285 37.0983L22.8423 37.1119C22.8976 37.1799 22.9667 37.2478 23.0081 37.3022L23.091 37.3973L23.1049 37.4109L23.174 37.4924L23.1878 37.506C23.2845 37.6283 23.3812 37.7371 23.4641 37.8322L23.478 37.8458C23.5194 37.9001 23.547 37.9409 23.5747 37.9817V37.9953C23.8096 38.2671 23.9201 38.4301 23.934 38.4301C21.2809 36.9353 18.4896 36.446 15.947 36.446C15.7536 36.446 15.574 36.446 15.3805 36.4596H15.3252C15.118 36.4732 14.8969 36.4732 14.6896 36.4868H14.6343C14.427 36.5004 14.2198 36.514 14.0125 36.5412L13.9572 36.5548C13.75 36.5683 13.5565 36.5955 13.3492 36.6227L13.294 36.6363C13.0867 36.6635 12.8932 36.6907 12.6998 36.7178L12.6583 36.7314C12.4649 36.7586 12.2714 36.7858 12.078 36.8266L12.0227 36.813C11.8292 36.8401 11.6496 36.8809 11.47 36.9217L11.4285 36.9353C11.3318 36.9489 11.2489 36.976 11.166 36.9896H11.1521C11.0692 37.0032 10.9863 37.0304 10.9034 37.044H10.862C10.7652 37.0576 10.6961 37.0848 10.5994 37.0983H10.5856C10.5027 37.1119 10.4198 37.1391 10.3369 37.1527L10.323 37.1663C10.2401 37.1799 10.1572 37.2071 10.0743 37.2342C9.99141 37.2478 9.92232 37.275 9.83941 37.2886L9.81178 37.3294C9.72887 37.343 9.65978 37.3701 9.57687 37.3973C9.50778 37.4109 9.43869 37.4381 9.3696 37.4517L9.34196 37.4653C9.18996 37.5196 9.05178 37.5604 8.91359 37.6012C7.57323 38.0224 6.77178 38.4301 6.74414 38.4301L6.75796 38.4166C6.79941 38.3622 6.8685 38.2942 6.92378 38.2263Z" fill="white"/>
</mask>
<g mask="url(#mask4_244_514)">
<path d="M23.9201 30.4395H6.74414V38.4302H23.9201V30.4395Z" fill="white"/>
</g>
<path fill-rule="evenodd" clip-rule="evenodd" d="M31.2848 37.0056L31.2987 36.992L31.3539 36.9376L31.423 36.8561L31.4645 36.8017L31.4783 36.7881L31.4921 36.7746L31.5612 36.7066C31.6441 36.6115 31.727 36.5163 31.8099 36.4348L31.8652 36.3805L31.9481 36.2853L31.9896 36.2446L32.031 36.1902L32.1139 36.0951C32.2107 35.9863 32.3212 35.8912 32.4179 35.7825L32.5147 35.6874L32.639 35.5651C32.7219 35.4699 32.8048 35.402 32.8878 35.3069C32.9292 35.2525 32.9845 35.2117 33.0259 35.171L33.0398 35.1574C33.1365 35.0622 33.2332 34.9671 33.3299 34.872L33.3438 34.8584L33.4819 34.7361L33.5096 34.7089L33.551 34.6681L33.5648 34.6546C33.6616 34.573 33.7307 34.4915 33.8274 34.4099C33.8827 34.3556 33.9241 34.3148 33.9656 34.274L34.007 34.2333L34.1176 34.1246L34.159 34.0974L34.2005 34.0566L34.2143 34.043L34.2281 34.0294L34.2834 33.9751L34.2972 33.9615C34.3525 33.9071 34.3939 33.8663 34.4492 33.8256L34.4907 33.7848L34.6012 33.6897L34.6427 33.6489L34.7394 33.5538L34.7947 33.513L34.9328 33.3907C34.9881 33.3499 35.0296 33.3092 35.071 33.2684L35.0987 33.2412L35.1125 33.2276L35.1263 33.214L35.1401 33.2005L35.1954 33.1461L35.2645 33.0917L35.3336 33.0374L35.3888 32.983L35.4579 32.9151L35.5132 32.8607L35.527 32.8471L35.5547 32.8199L35.6099 32.7656L35.6652 32.7112L35.7205 32.6569L35.7896 32.6025L35.8448 32.5481L35.9139 32.4938L35.9416 32.4666L35.9968 32.4258L36.1212 32.3307L36.1488 32.3171L36.2041 32.2628L36.2594 32.222L36.3561 32.154H36.3699C36.4805 32.0589 36.5772 31.991 36.6878 31.8958C36.7292 31.8551 36.7845 31.8279 36.8259 31.7871C36.9227 31.7192 36.9918 31.6512 37.0747 31.5833L37.199 31.4881C37.2681 31.4338 37.351 31.3794 37.4201 31.3251C38.1248 30.7815 38.567 30.5097 38.567 30.4961C38.6361 30.5505 38.7052 30.5912 38.7743 30.632C38.9816 30.7679 39.175 30.9038 39.3547 31.0533C39.4099 31.1076 39.479 31.1484 39.5343 31.1892L39.6863 31.2571C39.8659 31.393 40.0456 31.5153 40.1976 31.6512C40.3081 31.7328 40.4048 31.8143 40.5154 31.8958L40.5568 31.923L40.5707 31.9366C40.8056 32.1269 41.0405 32.3035 41.2616 32.4802L41.3307 32.5346L41.4136 32.6025L41.5103 32.6976L41.5656 32.7384C41.6485 32.8063 41.7314 32.8743 41.8143 32.9422L41.8281 32.9558L41.8834 32.9966C41.9387 33.051 41.9939 33.0917 42.0492 33.1325L42.063 33.1461C42.1045 33.1733 42.1321 33.2005 42.1736 33.2412L42.1874 33.2548L42.2427 33.2956L42.3256 33.3635L42.4085 33.4451L42.4776 33.4994L42.5743 33.581C42.6158 33.6217 42.671 33.6625 42.7125 33.7033L42.7263 33.7169C42.7678 33.7576 42.8092 33.7848 42.8507 33.8256L42.8783 33.8528C42.9198 33.8935 42.9612 33.9207 43.0027 33.9615L43.0303 33.9887L43.127 34.0702L43.1823 34.1246L43.2376 34.1789L43.3205 34.2605L43.3619 34.3012L43.3896 34.3284L43.4448 34.3828L43.5416 34.4643L43.5968 34.5187L43.6659 34.5866L43.7212 34.641L43.7765 34.6817L43.8732 34.7633L43.9147 34.804L43.9976 34.8856L44.0528 34.9399L44.1358 35.0215L44.2463 35.1302L44.3016 35.1846L44.3568 35.2389L44.4121 35.2933L44.4674 35.3476L44.5088 35.402L44.5779 35.4699L44.5918 35.4835L44.6747 35.5651L44.7161 35.6058L44.7852 35.6738L44.799 35.6874L44.8819 35.7689L44.9234 35.8097C44.9787 35.864 45.0201 35.9184 45.0754 35.9728L45.0892 35.9863L45.1721 36.0679L45.1859 36.0815C45.2412 36.1358 45.2827 36.1902 45.3379 36.2446L45.407 36.3261L45.4208 36.3397L45.4761 36.4076L45.4899 36.4212C45.5867 36.5163 45.6558 36.6115 45.7387 36.693L45.7525 36.7066C45.7801 36.7474 45.8078 36.7746 45.8492 36.8153L45.863 36.8289C46.0703 37.0735 46.167 37.1958 46.167 37.1958C43.8456 35.9456 41.4136 35.5243 39.1888 35.5243C39.023 35.5243 38.8572 35.5243 38.6914 35.5379H38.6361C38.4427 35.5515 38.263 35.5515 38.0834 35.5651H38.0281C37.8485 35.5787 37.6688 35.5922 37.4892 35.6058H37.4339C37.2543 35.6194 37.0747 35.6466 36.9088 35.6602L36.8536 35.6738C36.6878 35.6874 36.5081 35.7281 36.3423 35.7417L36.3008 35.7553C36.135 35.7825 35.9554 35.8097 35.7896 35.8369L35.7619 35.8505C35.5961 35.8776 35.4441 35.9048 35.2783 35.9456L35.2368 35.9592C35.1539 35.9728 35.0848 35.9863 35.0019 36.0135H34.9605C34.8914 36.0271 34.8085 36.0407 34.7394 36.0679L34.7256 36.0815C34.6427 36.0951 34.5736 36.1087 34.5045 36.1358H34.4907C34.4216 36.1494 34.3525 36.163 34.2834 36.1902L34.2696 36.2038C34.2005 36.2174 34.1314 36.2446 34.0623 36.2581C33.9932 36.2717 33.9241 36.2989 33.855 36.3125L33.8274 36.3261C33.7583 36.3397 33.6892 36.3669 33.6201 36.3805C33.5648 36.394 33.4958 36.4212 33.4405 36.4348L33.4128 36.4484C33.2747 36.4892 33.1641 36.5299 33.0398 36.5571C31.879 36.924 31.1743 37.2502 31.1467 37.2502L31.1605 37.2366C31.1881 37.1143 31.2296 37.0599 31.2848 37.0056Z" fill="white"/>
<path d="M31.2848 37.0056L31.2987 36.992L31.3539 36.9376L31.423 36.8561L31.4645 36.8017L31.4783 36.7881L31.4921 36.7746L31.5612 36.7066C31.6441 36.6115 31.727 36.5163 31.8099 36.4348L31.8652 36.3805L31.9481 36.2853L31.9896 36.2446L32.031 36.1902L32.1139 36.0951C32.2107 35.9863 32.3212 35.8912 32.4179 35.7825L32.5147 35.6874L32.639 35.5651C32.7219 35.4699 32.8048 35.402 32.8878 35.3069C32.9292 35.2525 32.9845 35.2117 33.0259 35.171L33.0398 35.1574C33.1365 35.0622 33.2332 34.9671 33.3299 34.872L33.3438 34.8584L33.4819 34.7361L33.5096 34.7089L33.551 34.6681L33.5648 34.6546C33.6616 34.573 33.7307 34.4915 33.8274 34.4099C33.8827 34.3556 33.9241 34.3148 33.9656 34.274L34.007 34.2333L34.1176 34.1246L34.159 34.0974L34.2005 34.0566L34.2143 34.043L34.2281 34.0294L34.2834 33.9751L34.2972 33.9615C34.3525 33.9071 34.3939 33.8663 34.4492 33.8256L34.4907 33.7848L34.6012 33.6897L34.6427 33.6489L34.7394 33.5538L34.7947 33.513L34.9328 33.3907C34.9881 33.3499 35.0296 33.3092 35.071 33.2684L35.0987 33.2412L35.1125 33.2276L35.1263 33.214L35.1401 33.2005L35.1954 33.1461L35.2645 33.0917L35.3336 33.0374L35.3888 32.983L35.4579 32.9151L35.5132 32.8607L35.527 32.8471L35.5547 32.8199L35.6099 32.7656L35.6652 32.7112L35.7205 32.6569L35.7896 32.6025L35.8448 32.5481L35.9139 32.4938L35.9416 32.4666L35.9968 32.4258L36.1212 32.3307L36.1488 32.3171L36.2041 32.2628L36.2594 32.222L36.3561 32.154H36.3699C36.4805 32.0589 36.5772 31.991 36.6878 31.8958C36.7292 31.8551 36.7845 31.8279 36.8259 31.7871C36.9227 31.7192 36.9918 31.6512 37.0747 31.5833L37.199 31.4881C37.2681 31.4338 37.351 31.3794 37.4201 31.3251C38.1248 30.7815 38.567 30.5097 38.567 30.4961C38.6361 30.5505 38.7052 30.5912 38.7743 30.632C38.9816 30.7679 39.175 30.9038 39.3547 31.0533C39.4099 31.1076 39.479 31.1484 39.5343 31.1892L39.6863 31.2571C39.8659 31.393 40.0456 31.5153 40.1976 31.6512C40.3081 31.7328 40.4048 31.8143 40.5154 31.8958L40.5568 31.923L40.5707 31.9366C40.8056 32.1269 41.0405 32.3035 41.2616 32.4802L41.3307 32.5346L41.4136 32.6025L41.5103 32.6976L41.5656 32.7384C41.6485 32.8063 41.7314 32.8743 41.8143 32.9422L41.8281 32.9558L41.8834 32.9966C41.9387 33.051 41.9939 33.0917 42.0492 33.1325L42.063 33.1461C42.1045 33.1733 42.1321 33.2005 42.1736 33.2412L42.1874 33.2548L42.2427 33.2956L42.3256 33.3635L42.4085 33.4451L42.4776 33.4994L42.5743 33.581C42.6158 33.6217 42.671 33.6625 42.7125 33.7033L42.7263 33.7169C42.7678 33.7576 42.8092 33.7848 42.8507 33.8256L42.8783 33.8528C42.9198 33.8935 42.9612 33.9207 43.0027 33.9615L43.0303 33.9887L43.127 34.0702L43.1823 34.1246L43.2376 34.1789L43.3205 34.2605L43.3619 34.3012L43.3896 34.3284L43.4448 34.3828L43.5416 34.4643L43.5968 34.5187L43.6659 34.5866L43.7212 34.641L43.7765 34.6817L43.8732 34.7633L43.9147 34.804L43.9976 34.8856L44.0528 34.9399L44.1358 35.0215L44.2463 35.1302L44.3016 35.1846L44.3568 35.2389L44.4121 35.2933L44.4674 35.3476L44.5088 35.402L44.5779 35.4699L44.5918 35.4835L44.6747 35.5651L44.7161 35.6058L44.7852 35.6738L44.799 35.6874L44.8819 35.7689L44.9234 35.8097C44.9787 35.864 45.0201 35.9184 45.0754 35.9728L45.0892 35.9863L45.1721 36.0679L45.1859 36.0815C45.2412 36.1358 45.2827 36.1902 45.3379 36.2446L45.407 36.3261L45.4208 36.3397L45.4761 36.4076L45.4899 36.4212C45.5867 36.5163 45.6558 36.6115 45.7387 36.693L45.7525 36.7066C45.7801 36.7474 45.8078 36.7746 45.8492 36.8153L45.863 36.8289C46.0703 37.0735 46.167 37.1958 46.167 37.1958C43.8456 35.9456 41.4136 35.5243 39.1888 35.5243C39.023 35.5243 38.8572 35.5243 38.6914 35.5379H38.6361C38.4427 35.5515 38.263 35.5515 38.0834 35.5651H38.0281C37.8485 35.5787 37.6688 35.5922 37.4892 35.6058H37.4339C37.2543 35.6194 37.0747 35.6466 36.9088 35.6602L36.8536 35.6738C36.6878 35.6874 36.5081 35.7281 36.3423 35.7417L36.3008 35.7553C36.135 35.7825 35.9554 35.8097 35.7896 35.8369L35.7619 35.8505C35.5961 35.8776 35.4441 35.9048 35.2783 35.9456L35.2368 35.9592C35.1539 35.9728 35.0848 35.9863 35.0019 36.0135H34.9605C34.8914 36.0271 34.8085 36.0407 34.7394 36.0679L34.7256 36.0815C34.6427 36.0951 34.5736 36.1087 34.5045 36.1358H34.4907C34.4216 36.1494 34.3525 36.163 34.2834 36.1902L34.2696 36.2038C34.2005 36.2174 34.1314 36.2446 34.0623 36.2581C33.9932 36.2717 33.9241 36.2989 33.855 36.3125L33.8274 36.3261C33.7583 36.3397 33.6892 36.3669 33.6201 36.3805C33.5648 36.394 33.4958 36.4212 33.4405 36.4348L33.4128 36.4484C33.2747 36.4892 33.1641 36.5299 33.0398 36.5571C31.879 36.924 31.1743 37.2502 31.1467 37.2502L31.1605 37.2366C31.1881 37.1143 31.2296 37.0599 31.2848 37.0056Z" fill="white"/>
<mask id="mask5_244_514" style="mask-type:luminance" maskUnits="userSpaceOnUse" x="31" y="30" width="16" height="8">
<path d="M31.2848 37.0056L31.2987 36.992L31.3539 36.9376L31.423 36.8561L31.4645 36.8017L31.4783 36.7881L31.4921 36.7746L31.5612 36.7066C31.6441 36.6115 31.727 36.5163 31.8099 36.4348L31.8652 36.3805L31.9481 36.2853L31.9896 36.2446L32.031 36.1902L32.1139 36.0951C32.2107 35.9863 32.3212 35.8912 32.4179 35.7825L32.5147 35.6874L32.639 35.5651C32.7219 35.4699 32.8048 35.402 32.8878 35.3069C32.9292 35.2525 32.9845 35.2117 33.0259 35.171L33.0398 35.1574C33.1365 35.0622 33.2332 34.9671 33.3299 34.872L33.3438 34.8584L33.4819 34.7361L33.5096 34.7089L33.551 34.6681L33.5648 34.6546C33.6616 34.573 33.7307 34.4915 33.8274 34.4099C33.8827 34.3556 33.9241 34.3148 33.9656 34.274L34.007 34.2333L34.1176 34.1246L34.159 34.0974L34.2005 34.0566L34.2143 34.043L34.2281 34.0294L34.2834 33.9751L34.2972 33.9615C34.3525 33.9071 34.3939 33.8663 34.4492 33.8256L34.4907 33.7848L34.6012 33.6897L34.6427 33.6489L34.7394 33.5538L34.7947 33.513L34.9328 33.3907C34.9881 33.3499 35.0296 33.3092 35.071 33.2684L35.0987 33.2412L35.1125 33.2276L35.1263 33.214L35.1401 33.2005L35.1954 33.1461L35.2645 33.0917L35.3336 33.0374L35.3888 32.983L35.4579 32.9151L35.5132 32.8607L35.527 32.8471L35.5547 32.8199L35.6099 32.7656L35.6652 32.7112L35.7205 32.6569L35.7896 32.6025L35.8448 32.5481L35.9139 32.4938L35.9416 32.4666L35.9968 32.4258L36.1212 32.3307L36.1488 32.3171L36.2041 32.2628L36.2594 32.222L36.3561 32.154H36.3699C36.4805 32.0589 36.5772 31.991 36.6878 31.8958C36.7292 31.8551 36.7845 31.8279 36.8259 31.7871C36.9227 31.7192 36.9918 31.6512 37.0747 31.5833L37.199 31.4881C37.2681 31.4338 37.351 31.3794 37.4201 31.3251C38.1248 30.7815 38.567 30.5097 38.567 30.4961C38.6361 30.5505 38.7052 30.5912 38.7743 30.632C38.9816 30.7679 39.175 30.9038 39.3547 31.0533C39.4099 31.1076 39.479 31.1484 39.5343 31.1892L39.6863 31.2571C39.8659 31.393 40.0456 31.5153 40.1976 31.6512C40.3081 31.7328 40.4048 31.8143 40.5154 31.8958L40.5568 31.923L40.5707 31.9366C40.8056 32.1269 41.0405 32.3035 41.2616 32.4802L41.3307 32.5346L41.4136 32.6025L41.5103 32.6976L41.5656 32.7384C41.6485 32.8063 41.7314 32.8743 41.8143 32.9422L41.8281 32.9558L41.8834 32.9966C41.9387 33.051 41.9939 33.0917 42.0492 33.1325L42.063 33.1461C42.1045 33.1733 42.1321 33.2005 42.1736 33.2412L42.1874 33.2548L42.2427 33.2956L42.3256 33.3635L42.4085 33.4451L42.4776 33.4994L42.5743 33.581C42.6158 33.6217 42.671 33.6625 42.7125 33.7033L42.7263 33.7169C42.7678 33.7576 42.8092 33.7848 42.8507 33.8256L42.8783 33.8528C42.9198 33.8935 42.9612 33.9207 43.0027 33.9615L43.0303 33.9887L43.127 34.0702L43.1823 34.1246L43.2376 34.1789L43.3205 34.2605L43.3619 34.3012L43.3896 34.3284L43.4448 34.3828L43.5416 34.4643L43.5968 34.5187L43.6659 34.5866L43.7212 34.641L43.7765 34.6817L43.8732 34.7633L43.9147 34.804L43.9976 34.8856L44.0528 34.9399L44.1358 35.0215L44.2463 35.1302L44.3016 35.1846L44.3568 35.2389L44.4121 35.2933L44.4674 35.3476L44.5088 35.402L44.5779 35.4699L44.5918 35.4835L44.6747 35.5651L44.7161 35.6058L44.7852 35.6738L44.799 35.6874L44.8819 35.7689L44.9234 35.8097C44.9787 35.864 45.0201 35.9184 45.0754 35.9728L45.0892 35.9863L45.1721 36.0679L45.1859 36.0815C45.2412 36.1358 45.2827 36.1902 45.3379 36.2446L45.407 36.3261L45.4208 36.3397L45.4761 36.4076L45.4899 36.4212C45.5867 36.5163 45.6558 36.6115 45.7387 36.693L45.7525 36.7066C45.7801 36.7474 45.8078 36.7746 45.8492 36.8153L45.863 36.8289C46.0703 37.0735 46.167 37.1958 46.167 37.1958C43.8456 35.9456 41.4136 35.5243 39.1888 35.5243C39.023 35.5243 38.8572 35.5243 38.6914 35.5379H38.6361C38.4427 35.5515 38.263 35.5515 38.0834 35.5651H38.0281C37.8485 35.5787 37.6688 35.5922 37.4892 35.6058H37.4339C37.2543 35.6194 37.0747 35.6466 36.9088 35.6602L36.8536 35.6738C36.6878 35.6874 36.5081 35.7281 36.3423 35.7417L36.3008 35.7553C36.135 35.7825 35.9554 35.8097 35.7896 35.8369L35.7619 35.8505C35.5961 35.8776 35.4441 35.9048 35.2783 35.9456L35.2368 35.9592C35.1539 35.9728 35.0848 35.9863 35.0019 36.0135H34.9605C34.8914 36.0271 34.8085 36.0407 34.7394 36.0679L34.7256 36.0815C34.6427 36.0951 34.5736 36.1087 34.5045 36.1358H34.4907C34.4216 36.1494 34.3525 36.163 34.2834 36.1902L34.2696 36.2038C34.2005 36.2174 34.1314 36.2446 34.0623 36.2581C33.9932 36.2717 33.9241 36.2989 33.855 36.3125L33.8274 36.3261C33.7583 36.3397 33.6892 36.3669 33.6201 36.3805C33.5648 36.394 33.4958 36.4212 33.4405 36.4348L33.4128 36.4484C33.2747 36.4892 33.1641 36.5299 33.0398 36.5571C31.879 36.924 31.1743 37.2502 31.1467 37.2502L31.1605 37.2366C31.1881 37.1143 31.2296 37.0599 31.2848 37.0056Z" fill="white"/>
</mask>
<g mask="url(#mask5_244_514)">
<path d="M46.112 30.4551H31.1193V37.182H46.112V30.4551Z" fill="white"/>
</g>
<path d="M87.9674 44.8867C87.7463 44.6149 87.6357 44.2752 87.6357 43.8403C87.6357 43.4055 87.7463 43.0385 87.9674 42.7396C88.1885 42.4542 88.4925 42.3047 88.8932 42.3047C89.1419 42.3047 89.3354 42.359 89.4874 42.4406C89.5841 42.4949 89.6808 42.5901 89.7776 42.726V42.3726H90.5514V46.2049H89.7776V44.846C89.6808 44.9819 89.5703 45.077 89.4597 45.1449C89.3216 45.2401 89.1419 45.2808 88.9208 45.2808C88.5063 45.2944 88.1885 45.1585 87.9674 44.8867ZM88.6307 43.1608C88.5201 43.3239 88.4648 43.5142 88.4648 43.7724C88.4648 43.9762 88.4925 44.1393 88.5477 44.2752C88.6445 44.5198 88.8379 44.6557 89.1281 44.6557C89.4045 44.6557 89.6117 44.5334 89.7085 44.2888C89.7637 44.1529 89.7914 43.9898 89.7914 43.786C89.7914 43.5414 89.7361 43.3375 89.6256 43.1744C89.515 43.0114 89.3492 42.9298 89.1005 42.9298C88.8932 42.9298 88.7412 43.0114 88.6307 43.1608Z" fill="white"/>
<path d="M91.8914 42.3574V44.0697C91.8914 44.2328 91.9052 44.3415 91.9467 44.4367C92.0158 44.5726 92.154 44.6541 92.3612 44.6541C92.6238 44.6541 92.8034 44.559 92.914 44.3415C92.9692 44.2328 92.9969 44.0833 92.9969 43.9067V42.371H93.7845V45.2113H93.0245V44.8172C93.0107 44.8308 92.9969 44.8579 92.9692 44.8987C92.9416 44.9395 92.914 44.9802 92.8725 45.021C92.7481 45.1161 92.6238 45.1977 92.5132 45.2249C92.4027 45.2656 92.2645 45.2792 92.1125 45.2792C91.6703 45.2792 91.3801 45.1297 91.2281 44.8172C91.1314 44.6541 91.09 44.4095 91.09 44.0833V42.371L91.8914 42.3574Z" fill="white"/>
</svg>
