<svg width="64" height="64" viewBox="0 0 64 64" fill="none" xmlns="http://www.w3.org/2000/svg">
<g clip-path="url(#clip0_244_812)">
<path d="M62.6952 0.29605C63.3274 0.750912 63.7486 1.25802 63.9999 1.99918C64.1653 3.05146 64.1144 3.93081 63.4936 4.81216C63.4131 4.91513 63.3327 5.01809 63.2499 5.12418C63.1605 5.2439 63.071 5.36362 62.9789 5.48697C62.7161 5.83375 62.4493 6.17659 62.1803 6.51852C61.8535 6.93634 61.5326 7.35867 61.2108 7.78043C61.072 7.96208 60.9332 8.14372 60.7943 8.32535C60.7249 8.41615 60.6556 8.50694 60.5841 8.60049C60.2436 9.04596 59.903 9.49131 59.5624 9.93668C59.427 10.1138 59.2916 10.2908 59.1562 10.4679C56.7187 13.6554 56.7187 13.6554 56.5156 13.9209C56.3799 14.0984 56.2442 14.2759 56.1085 14.4534C55.7747 14.8899 55.4408 15.3264 55.1068 15.7628C54.3618 16.7366 53.6178 17.7112 52.8749 18.6867C52.0669 19.7476 51.2575 20.8075 50.447 21.8666C50.1104 22.3066 49.7739 22.7466 49.4374 23.1867C49.302 23.3638 49.1666 23.5408 49.0312 23.7179C48.9641 23.8056 48.8971 23.8932 48.828 23.9836C46.5937 26.9054 46.5937 26.9054 46.3906 27.1709C46.2549 27.3484 46.1192 27.5259 45.9835 27.7034C45.6497 28.1399 45.3158 28.5764 44.9818 29.0128C44.2368 29.9866 43.4928 30.9612 42.7499 31.9367C41.9419 32.9976 41.1325 34.0575 40.322 35.1166C39.9854 35.5566 39.6489 35.9966 39.3124 36.4367C39.177 36.6138 39.0416 36.7908 38.9062 36.9679C38.8391 37.0556 38.7721 37.1432 38.703 37.2336C34.8437 42.2804 34.8437 42.2804 34.6406 42.5459C34.5049 42.7234 34.3692 42.9009 34.2335 43.0784C33.8338 43.601 33.4341 44.1236 33.0342 44.646C32.9023 44.8185 32.7705 44.9911 32.6389 45.1638C32.2481 45.6765 31.8542 46.1865 31.4574 46.6945C31.2737 46.9315 31.0899 47.1684 30.9062 47.4054C30.8181 47.5171 30.7301 47.6288 30.6394 47.7439C30.5579 47.8494 30.4764 47.9549 30.3925 48.0636C30.3197 48.1568 30.2469 48.25 30.1719 48.346C29.9839 48.65 29.9231 48.8973 29.8749 49.2492C29.9655 49.2524 30.056 49.2556 30.1493 49.2589C31.097 49.3145 31.6353 49.4702 32.289 50.1945C32.5668 50.5958 32.6407 50.8989 32.6371 51.3756C32.6367 51.4703 32.6363 51.565 32.6359 51.6625C32.6348 51.7607 32.6338 51.8589 32.6327 51.9601C32.6321 52.0598 32.6316 52.1594 32.631 52.2621C32.6295 52.5078 32.6273 52.7535 32.6249 52.9992C32.8125 52.9983 32.8125 52.9983 33.0039 52.9975C34.1881 52.9924 35.3723 52.9887 36.5565 52.9862C37.1651 52.9849 37.7738 52.9832 38.3825 52.9803C38.9709 52.9776 39.5593 52.9761 40.1477 52.9755C40.3712 52.975 40.5946 52.9741 40.8181 52.9727C44.5194 52.9511 44.5194 52.9511 45.9687 54.2726C46.8373 55.1938 47.1479 56.2333 47.1327 57.4679C47.1321 57.5551 47.1316 57.6423 47.131 57.7321C47.1295 57.9461 47.1273 58.1601 47.1249 58.3742C47.2006 58.3737 47.2764 58.3733 47.3544 58.3728C49.2001 58.3617 51.0458 58.3535 52.8915 58.3483C53.784 58.3457 54.6766 58.3422 55.5692 58.3365C56.3474 58.3315 57.1257 58.3282 57.9039 58.3271C58.3158 58.3265 58.7276 58.3247 59.1394 58.3213C59.5999 58.3177 60.0604 58.3172 60.5209 58.3174C60.6564 58.3156 60.7919 58.3138 60.9315 58.312C61.8638 58.317 62.5271 58.4662 63.2528 59.0924C63.3086 59.1622 63.3643 59.232 63.4218 59.3039C63.4795 59.3733 63.5371 59.4428 63.5966 59.5143C64.1045 60.2923 64.0861 61.0982 63.9999 61.9992C63.7906 62.7736 63.2888 63.3158 62.6249 63.7492C62.1725 63.9596 61.8148 64.0314 61.3173 64.0355C61.117 64.0379 61.117 64.0379 60.9128 64.0403C60.6985 64.0407 60.6985 64.0407 60.4799 64.0412C60.3321 64.042 60.1844 64.0428 60.0321 64.0437C59.7202 64.045 59.4083 64.0455 59.0963 64.0455C58.6184 64.0461 58.1406 64.0506 57.6627 64.0553C57.3596 64.0561 57.0565 64.0566 56.7533 64.0568C56.5387 64.0595 56.5387 64.0595 56.3197 64.0622C56.1866 64.0615 56.0535 64.0607 55.9164 64.0599C55.741 64.0604 55.741 64.0604 55.5621 64.061C55.1519 63.9798 55.0035 63.826 54.7499 63.4992C54.6832 63.0323 54.6675 62.7551 54.9218 62.351C55.4376 61.9944 55.9491 62.0537 56.5619 62.0568C56.7542 62.0546 56.7542 62.0546 56.9504 62.0523C57.3602 62.0479 57.7698 62.0468 58.1796 62.0461C58.5889 62.044 58.9981 62.0412 59.4074 62.0371C59.662 62.0346 59.9166 62.0335 60.1712 62.0337C61.0933 62.0541 61.0933 62.0541 61.8749 61.6242C61.9062 61.1919 61.9062 61.1919 61.8749 60.7492C61.4496 60.3239 61.0204 60.3597 60.4341 60.3573C60.3421 60.3576 60.2502 60.3578 60.1554 60.3581C60.0567 60.3579 59.9579 60.3577 59.8562 60.3574C59.5233 60.3568 59.1905 60.3572 58.8576 60.3575C58.6173 60.3572 58.3771 60.3569 58.1368 60.3566C57.475 60.3558 56.8132 60.3559 56.1514 60.356C55.4383 60.356 54.7252 60.3553 54.0121 60.3547C52.6144 60.3537 51.2167 60.3534 49.8191 60.3533C48.6834 60.3532 47.5478 60.353 46.4122 60.3526C43.7187 60.3517 41.0252 60.3509 38.3316 60.351C38.2024 60.351 38.2024 60.351 38.0705 60.351C37.6338 60.351 37.1971 60.351 36.7603 60.351C36.6736 60.351 36.5868 60.351 36.4975 60.351C36.3221 60.351 36.1467 60.351 35.9712 60.351C33.2414 60.3511 30.5115 60.3502 27.7817 60.3484C24.716 60.3465 21.6503 60.3455 18.5845 60.3456C16.9608 60.3456 15.3371 60.3453 13.7134 60.3439C12.3311 60.3428 10.9489 60.3425 9.56669 60.3434C8.86106 60.3438 8.15543 60.3438 7.44979 60.3427C6.80436 60.3417 6.15895 60.3419 5.51352 60.343C5.27951 60.3432 5.04549 60.3429 4.81148 60.3422C4.49435 60.3414 4.17726 60.342 3.86012 60.3431C3.76846 60.3424 3.67678 60.3418 3.58234 60.3412C3.06069 60.3448 2.51546 60.3586 2.1249 60.7492C2.09365 61.1815 2.09365 61.1815 2.1249 61.6242C2.48367 61.9829 2.74947 61.994 3.25062 62.0148C3.4732 62.0148 3.4732 62.0148 3.70028 62.0148C3.82502 62.015 3.82502 62.015 3.95227 62.0153C4.23215 62.0157 4.51202 62.0152 4.79189 62.0147C4.99409 62.0149 5.19628 62.015 5.39847 62.0153C5.8387 62.0157 6.27894 62.0157 6.71917 62.0153C7.43539 62.0148 8.1516 62.0152 8.86782 62.0156C9.77272 62.0161 10.6776 62.0164 11.5825 62.0164C13.36 62.0165 15.1375 62.018 16.9149 62.0201C17.1946 62.0205 17.4743 62.0208 17.7539 62.0211C18.1778 62.0216 18.6016 62.0221 19.0254 62.0226C20.6237 62.0245 22.222 62.0262 23.8202 62.0277C24.0394 62.0279 24.0394 62.0279 24.263 62.0281C26.6326 62.0303 29.0022 62.0307 31.3719 62.0304C33.8031 62.0303 36.2343 62.0325 38.6656 62.0368C40.1662 62.0394 41.6667 62.0401 43.1673 62.0383C44.195 62.0372 45.2226 62.0384 46.2502 62.0414C46.8437 62.0431 47.4371 62.0438 48.0306 62.0417C48.5735 62.0398 49.1162 62.0408 49.659 62.0441C49.8559 62.0448 50.0527 62.0444 50.2495 62.0428C50.5163 62.0409 50.7828 62.0428 51.0495 62.0457C51.2721 62.0458 51.2721 62.0458 51.4992 62.0459C51.8749 62.1242 51.8749 62.1242 52.177 62.4133C52.3749 62.7492 52.3749 62.7492 52.3671 63.2023C52.2121 63.7602 52.2121 63.7602 51.8749 63.9992C51.5097 64.0463 51.5097 64.0463 51.0526 64.0467C50.9683 64.0473 50.884 64.0479 50.7971 64.0485C50.5124 64.05 50.2278 64.0488 49.9431 64.0476C49.7378 64.0481 49.5324 64.0488 49.3271 64.0497C48.7612 64.0515 48.1953 64.0509 47.6295 64.05C47.0198 64.0494 46.4101 64.051 45.8004 64.0523C44.6052 64.0544 43.41 64.0545 42.2149 64.0539C41.2435 64.0534 40.2721 64.0536 39.3007 64.0542C39.1626 64.0543 39.0245 64.0544 38.8823 64.0545C38.6018 64.0547 38.3213 64.0549 38.0408 64.0551C35.4079 64.0568 32.775 64.0561 30.1421 64.0547C27.7328 64.0534 25.3235 64.0551 22.9142 64.0581C20.4417 64.0611 17.9692 64.0623 15.4968 64.0615C14.1081 64.061 12.7195 64.0613 11.3308 64.0635C10.1483 64.0653 8.96586 64.0654 7.78337 64.0632C7.17996 64.0622 6.57657 64.0619 5.97316 64.0638C5.42068 64.0656 4.86824 64.065 4.31576 64.0625C4.11598 64.0621 3.91618 64.0624 3.7164 64.0637C2.56951 64.0707 1.64962 64.0711 0.746973 63.2765C0.691221 63.2056 0.635469 63.1347 0.578027 63.0617C0.520342 62.9908 0.462656 62.9199 0.403223 62.8468C-0.147618 62.0469 -0.0958201 61.1867 -9.75132e-05 60.2492C0.279101 59.4559 0.910364 58.8559 1.65576 58.4841C2.07916 58.3489 2.43691 58.346 2.88125 58.3498C3.00478 58.3503 3.00478 58.3503 3.1308 58.3508C3.39188 58.3522 3.6529 58.3554 3.91396 58.3586C4.09178 58.3598 4.2696 58.3609 4.44741 58.362C4.88159 58.3647 5.31574 58.369 5.7499 58.3742C5.73988 58.301 5.72986 58.2279 5.71954 58.1525C5.55484 56.8466 5.77794 55.7252 6.53897 54.6403C7.33089 53.6396 8.34349 53.1753 9.59738 53.0254C10.052 52.9825 10.5044 52.9761 10.9608 52.9757C11.0524 52.9742 11.144 52.9727 11.2384 52.9711C11.8832 52.9694 12.3714 53.021 12.8593 53.4601C13.0669 53.8869 12.9898 54.1726 12.8749 54.6242C12.6737 54.892 12.5666 54.9871 12.2342 55.0473C12.1334 55.0482 12.0325 55.049 11.9286 55.05C11.8165 55.0527 11.7043 55.0554 11.5888 55.0583C11.4133 55.06 11.4133 55.06 11.2343 55.0617C10.196 55.0719 9.24986 55.1296 8.39053 55.7648C7.93164 56.3857 7.74013 57 7.74615 57.7693C7.74801 58.0068 7.74801 58.0068 7.7499 58.2492C12.4592 58.252 17.1686 58.2542 21.8779 58.2556C22.4333 58.2557 22.9888 58.2559 23.5443 58.256C23.6549 58.2561 23.7655 58.2561 23.8794 58.2561C25.6721 58.2567 27.4647 58.2577 29.2574 58.2588C31.0957 58.26 32.9339 58.2607 34.7722 58.2609C35.9073 58.2611 37.0424 58.2617 38.1775 58.2627C38.9549 58.2633 39.7324 58.2635 40.5098 58.2634C40.9589 58.2633 41.4081 58.2634 41.8572 58.2641C42.3432 58.2648 42.8292 58.2646 43.3152 58.2642C43.4584 58.2646 43.6016 58.2649 43.7492 58.2653C43.9433 58.2649 43.9433 58.2649 44.1413 58.2646C44.3097 58.2646 44.3097 58.2646 44.4816 58.2647C44.7563 58.2665 44.7563 58.2665 44.9999 58.1242C45.0693 57.2849 45.0673 56.6536 44.5614 55.9562C44.109 55.454 43.6577 55.2185 42.9999 55.1242C42.6317 55.1124 42.2665 55.107 41.8983 55.1078C41.7874 55.1075 41.6764 55.1072 41.5621 55.107C41.1904 55.1062 40.8186 55.1063 40.4469 55.1064C40.1804 55.1061 39.9139 55.1056 39.6473 55.1051C39.0734 55.1041 38.4996 55.1035 37.9257 55.1031C37.0187 55.1024 36.1117 55.1003 35.2047 55.0979C34.8942 55.0971 34.5838 55.0963 34.2734 55.0956C34.1179 55.0952 33.9625 55.0948 33.8023 55.0944C31.6906 55.0891 29.579 55.085 27.4673 55.0834C26.0429 55.0824 24.6185 55.0796 23.194 55.0748C22.4401 55.0723 21.6861 55.0707 20.9321 55.0714C20.2234 55.0719 19.5148 55.0702 18.8062 55.0667C18.5457 55.0659 18.2853 55.0659 18.0249 55.0668C17.6701 55.0679 17.3154 55.0659 16.9606 55.0632C16.8569 55.0643 16.7533 55.0653 16.6465 55.0664C16.1989 55.06 15.9288 55.0381 15.561 54.7725C15.2875 54.3708 15.3072 54.0984 15.3749 53.6242C15.6522 53.2608 15.8148 53.1442 16.2499 52.9992C16.5445 52.9887 16.8394 52.9858 17.1342 52.987C17.2624 52.9872 17.2624 52.9872 17.3932 52.9875C17.6658 52.9882 17.9383 52.9898 18.2108 52.9914C18.3958 52.992 18.5808 52.9926 18.7658 52.9931C19.2188 52.9944 19.6719 52.9966 20.1249 52.9992C20.1226 52.8195 20.1226 52.8195 20.1202 52.6361C20.119 52.4788 20.1178 52.3214 20.1166 52.1593C20.1143 51.9255 20.1143 51.9255 20.1119 51.6869C20.1355 50.8931 20.3223 50.3771 20.8983 49.8273C21.5043 49.3549 22.11 49.2492 22.8749 49.2492C22.8706 49.1464 22.8662 49.0436 22.8617 48.9377C22.8304 47.6472 22.9518 46.4719 23.8749 45.4992C24.2378 45.1863 24.5812 44.9227 25.0453 44.7892C25.5368 44.5431 25.7734 44.1524 26.0858 43.7101C26.2192 43.5268 26.3527 43.3435 26.4862 43.1603C26.5521 43.0691 26.6179 42.978 26.6857 42.8841C26.9479 42.5239 27.2192 42.1717 27.4921 41.8195C27.594 41.6875 27.6959 41.5555 27.7978 41.4235C27.8502 41.3556 27.9026 41.2877 27.9566 41.2177C28.2768 40.802 28.5953 40.3849 28.914 39.9679C28.9824 39.8783 29.0509 39.7888 29.1215 39.6965C29.2612 39.5136 29.401 39.3307 29.5407 39.1479C29.8812 38.7024 30.2218 38.257 30.5624 37.8117C30.6978 37.6346 30.8332 37.4575 30.9687 37.2804C33.4062 34.0929 33.4062 34.0929 33.6092 33.8274C33.7449 33.6499 33.8806 33.4724 34.0163 33.295C34.3502 32.8584 34.684 32.4219 35.018 31.9855C35.7631 31.0117 36.507 30.0371 37.2499 29.0617C38.0579 28.0007 38.8673 26.9408 39.6778 25.8817C40.0145 25.4418 40.3509 25.0017 40.6874 24.5617C40.8228 24.3846 40.9582 24.2075 41.0937 24.0304C41.1607 23.9428 41.2277 23.8551 41.2968 23.7648C43.1249 21.3742 44.953 18.9836 46.7812 16.5929C46.8483 16.5051 46.9154 16.4174 46.9845 16.3269C47.119 16.1511 47.2536 15.9753 47.3883 15.7996C47.7417 15.3384 48.093 14.8758 48.4413 14.4108C48.5139 14.3144 48.5865 14.2181 48.6613 14.1188C48.7998 13.9349 48.9377 13.7505 49.0749 13.5656C49.4249 13.1021 49.7552 12.693 50.2499 12.3742C50.6833 12.3816 50.9859 12.423 51.3671 12.632C51.6038 13.0636 51.6256 13.4104 51.4999 13.8742C51.2245 14.3325 50.8941 14.739 50.5551 15.1518C50.2248 15.5594 49.9109 15.9797 49.5937 16.3976C49.4538 16.5805 49.3138 16.7632 49.1737 16.946C48.7613 17.4843 48.3493 18.0229 47.9374 18.5617C47.802 18.7388 47.6666 18.9158 47.5312 19.0929C47.4641 19.1806 47.3971 19.2682 47.328 19.3586C45.0937 22.2804 45.0937 22.2804 44.8906 22.5459C44.7549 22.7234 44.6192 22.9009 44.4835 23.0784C44.1497 23.5149 43.8158 23.9514 43.4818 24.3878C42.7368 25.3616 41.9928 26.3362 41.2499 27.3117C40.4419 28.3726 39.6325 29.4325 38.822 30.4916C38.4854 30.9316 38.1489 31.3716 37.8124 31.8117C37.677 31.9888 37.5416 32.1658 37.4062 32.3429C37.3391 32.4306 37.2721 32.5182 37.203 32.6086C34.9687 35.5304 34.9687 35.5304 34.7656 35.7959C34.6299 35.9734 34.4942 36.1509 34.3585 36.3284C34.0247 36.7649 33.6908 37.2014 33.3568 37.6378C32.6118 38.6116 31.8678 39.5862 31.1249 40.5617C30.4899 41.3953 29.8548 42.2289 29.2187 43.0617C29.1531 43.1476 29.0875 43.2336 29.0199 43.3222C28.9585 43.4025 28.8971 43.4828 28.8339 43.5656C28.7769 43.6402 28.72 43.7148 28.6613 43.7917C28.513 43.9823 28.3592 44.1687 28.205 44.3546C27.9747 44.6009 27.9747 44.6009 27.9999 44.8742C28.2463 45.0461 28.497 45.2119 28.7499 45.3742C28.9595 45.5393 29.168 45.7057 29.3749 45.8742C30.0786 45.0354 30.7472 44.1772 31.4004 43.299C31.8836 42.6507 32.3768 42.0111 32.8749 41.3742C33.4242 40.6714 33.967 39.9645 34.4999 39.2492C35.0328 38.5338 35.5756 37.827 36.1249 37.1242C36.7486 36.3261 37.3621 35.5215 37.9679 34.7098C38.4471 34.0682 38.9334 33.4324 39.4228 32.7985C39.7964 32.3145 40.1677 31.8287 40.539 31.3429C40.6074 31.2533 40.6759 31.1638 40.7465 31.0715C40.8862 30.8886 41.026 30.7057 41.1657 30.5229C41.5062 30.0774 41.8468 29.632 42.1874 29.1867C42.3228 29.0096 42.4582 28.8325 42.5937 28.6554C46.6562 23.3429 46.6562 23.3429 46.8592 23.0774C46.9949 22.8999 47.1306 22.7224 47.2663 22.545C47.6002 22.1084 47.934 21.6719 48.268 21.2355C49.0131 20.2617 49.757 19.2871 50.4999 18.3117C51.3079 17.2507 52.1173 16.1908 52.9278 15.1317C53.2645 14.6918 53.6009 14.2517 53.9374 13.8117C54.0728 13.6346 54.2082 13.4575 54.3437 13.2804C54.4107 13.1928 54.4777 13.1051 54.5468 13.0148C56.7812 10.0929 56.7812 10.0929 56.9842 9.82742C57.1199 9.64993 57.2556 9.47244 57.3913 9.29495C57.7252 8.85841 58.059 8.42192 58.393 7.9855C58.8038 7.44856 59.2144 6.91141 59.6249 6.37418C59.7546 6.20444 59.7546 6.20444 59.887 6.03128C60.1617 5.67172 60.4363 5.31202 60.7108 4.9523C60.7978 4.8385 60.8848 4.7247 60.9744 4.60745C61.0555 4.50114 61.1366 4.39484 61.2201 4.28531C61.3283 4.14358 61.3283 4.14358 61.4387 3.99899C61.765 3.56115 61.9063 3.33266 61.8905 2.78824C61.8883 2.68721 61.886 2.58618 61.8837 2.48209C61.8808 2.40523 61.8779 2.32837 61.8749 2.24918C61.5146 2.12909 61.2876 2.11095 60.914 2.11636C60.8129 2.11749 60.7119 2.11862 60.6078 2.11978C60.531 2.12123 60.4541 2.12268 60.3749 2.12418C60.3448 2.19201 60.3146 2.25985 60.2836 2.32974C60.0855 2.69734 59.8433 3.00608 59.5858 3.33511C59.4725 3.48075 59.3592 3.62642 59.246 3.77212C59.1857 3.84945 59.1255 3.92677 59.0634 4.00644C58.7351 4.42923 58.4106 4.85495 58.0858 5.28043C57.947 5.46207 57.8082 5.64371 57.6693 5.82535C57.5999 5.91615 57.5306 6.00694 57.4591 6.10049C57.2535 6.36949 57.0478 6.63844 56.8422 6.90738C56.7753 6.9949 56.7083 7.08243 56.6394 7.17261C56.5054 7.34781 56.3713 7.52296 56.2371 7.69806C55.8812 8.16281 55.5269 8.62872 55.1747 9.09634C55.101 9.19383 55.0273 9.29131 54.9513 9.39175C54.8097 9.57906 54.6686 9.7667 54.528 9.95474C54.4642 10.0389 54.4005 10.123 54.3349 10.2096C54.2512 10.3209 54.2512 10.3209 54.1659 10.4344C53.8636 10.7801 53.6489 10.8716 53.1952 10.9211C52.7499 10.8742 52.7499 10.8742 52.4452 10.6789C52.2432 10.3637 52.146 10.1375 52.1723 9.75943C52.3367 9.20818 52.7282 8.78013 53.0819 8.33633C53.2646 8.10565 53.443 7.87215 53.621 7.63785C53.9664 7.18306 54.3138 6.72978 54.6617 6.27689C55.0043 5.83066 55.3458 5.38364 55.6874 4.93668C55.8218 4.76089 55.9563 4.58511 56.0907 4.40933C56.4432 3.94843 56.7954 3.48736 57.1475 3.02615C57.2871 2.84357 57.427 2.66119 57.5672 2.47903C57.8443 2.11871 58.1183 1.75842 58.3817 1.38785C59.3997 -0.0289268 61.0686 -0.566392 62.6952 0.29605ZM25.4999 46.8742C24.7492 47.6644 24.8749 48.0604 24.8749 49.2492C25.8649 49.2492 26.8549 49.2492 27.8749 49.2492C27.8826 48.9939 27.8904 48.7387 27.8983 48.4757C27.9027 48.3322 27.907 48.1886 27.9115 48.0407C27.8624 47.4814 27.6719 47.1597 27.2655 46.7804C26.5924 46.3845 26.1753 46.5058 25.4999 46.8742ZM22.1249 51.4992C22.1249 51.9942 22.1249 52.4892 22.1249 52.9992C24.9299 52.9992 27.7349 52.9992 30.6249 52.9992C30.6249 52.4629 30.6249 51.9267 30.6249 51.3742C30.2803 51.2019 30.0018 51.2323 29.6161 51.231C29.4568 51.2302 29.2974 51.2294 29.1333 51.2286C28.9586 51.2284 28.7839 51.2283 28.6093 51.2282C28.4309 51.2278 28.2525 51.2274 28.0741 51.2269C27.7 51.2262 27.3259 51.2259 26.9518 51.226C26.4718 51.226 25.9917 51.2243 25.5117 51.2222C25.1432 51.2208 24.7748 51.2205 24.4063 51.2206C24.2293 51.2204 24.0523 51.2199 23.8753 51.2189C23.6281 51.2177 23.3809 51.2182 23.1337 51.2188C22.9929 51.2186 22.8521 51.2185 22.707 51.2183C22.3555 51.2153 22.3555 51.2153 22.1249 51.4992Z" fill="#025D67"/>
<path d="M54.2109 32.1485C54.9193 32.7037 55.2966 33.4973 55.7188 34.2735C55.7821 34.3878 55.8454 34.5021 55.9106 34.6199C56.375 35.4679 56.375 35.4679 56.375 35.75C56.4754 35.779 56.5758 35.808 56.6792 35.8379C57.2369 36.0407 57.739 36.3078 58.2578 36.5938C58.4059 36.6721 58.4059 36.6721 58.5569 36.752C59.1769 37.0929 59.6062 37.4066 60 38C60.083 38.3203 60.083 38.3203 60.0781 38.625C60.0805 38.7758 60.0805 38.7758 60.083 38.9297C59.9264 39.5342 59.5765 39.8679 59.0699 40.2001C58.7097 40.408 58.3452 40.6041 57.9766 40.7969C57.8503 40.8651 57.7241 40.9332 57.594 41.0034C56.6637 41.5 56.6637 41.5 56.375 41.5C56.3476 41.599 56.3202 41.6979 56.292 41.7998C56.073 42.3901 55.7702 42.9108 55.4531 43.4532C55.3929 43.5589 55.3326 43.6646 55.2705 43.7735C54.5426 45.0275 54.5426 45.0275 53.875 45.25C53.2474 45.2965 52.8753 45.2672 52.375 44.875C51.7871 44.2315 51.4354 43.4384 51.0522 42.6631C50.65 41.8953 50.2728 41.5086 49.5 41.125C49.3288 41.0318 49.1577 40.9382 48.9868 40.8443C48.731 40.7064 48.4749 40.5695 48.217 40.4353C47.5289 40.0611 47.0117 39.6515 46.75 38.8828C46.75 38.3707 46.8737 38.0709 47.125 37.625C47.6317 37.1381 48.1495 36.85 48.7792 36.5452C50.1628 35.8649 50.7656 35.2845 51.375 33.875C51.5063 33.6383 51.6413 33.4036 51.7812 33.1719C51.836 33.0775 51.8908 32.9831 51.9473 32.8858C52.5061 32.0659 53.2477 31.7228 54.2109 32.1485ZM53.375 34.5C53.3427 34.5723 53.3103 34.6447 53.277 34.7192C52.3634 36.6897 51.3862 37.6732 49.375 38.5C49.375 38.5825 49.375 38.665 49.375 38.75C49.4429 38.7779 49.5108 38.8058 49.5807 38.8346C51.5861 39.6962 52.4908 40.7732 53.375 42.75C53.7361 42.3346 53.9868 41.9261 54.2235 41.4351C54.6455 40.5664 54.9718 40.0266 55.875 39.625C56.0918 39.508 56.3085 39.391 56.5243 39.2722C56.8478 39.0948 57.1739 38.9225 57.5 38.75C57.5 38.6675 57.5 38.585 57.5 38.5C57.3943 38.4513 57.3943 38.4513 57.2864 38.4016C55.663 37.6347 54.7144 37.0446 54 35.375C53.8399 35.079 53.6708 34.7901 53.5 34.5C53.4587 34.5 53.4175 34.5 53.375 34.5Z" fill="#025D67"/>
<path d="M6.06569 33.6057C6.21256 33.6049 6.35943 33.604 6.51075 33.603C6.75368 33.6025 6.75368 33.6025 7.00152 33.602C7.17315 33.6012 7.34479 33.6004 7.51643 33.5995C7.98337 33.5974 8.45032 33.596 8.91727 33.595C9.20886 33.5944 9.50046 33.5936 9.79206 33.5928C10.704 33.5904 11.616 33.5887 12.5279 33.5876C13.5814 33.5864 14.6348 33.5831 15.6883 33.5781C16.5021 33.5743 17.3159 33.5724 18.1297 33.572C18.616 33.5717 19.1022 33.5706 19.5885 33.5675C20.0459 33.5646 20.5032 33.564 20.9606 33.5653C21.2086 33.5654 21.4566 33.563 21.7046 33.5605C21.8522 33.5614 21.9998 33.5623 22.1518 33.5632C22.2801 33.5629 22.4083 33.5626 22.5405 33.5623C22.9653 33.6409 23.1103 33.7889 23.3746 34.1241C23.5216 34.5847 23.5415 34.7845 23.3356 35.2257C23.1246 35.4991 23.1246 35.4991 22.8746 35.6241C22.6445 35.6369 22.414 35.6416 22.1836 35.6425C22.0367 35.6434 21.8898 35.6443 21.7385 35.6453C21.5765 35.6456 21.4146 35.6459 21.2477 35.6463C21.0761 35.6471 20.9045 35.6479 20.7328 35.6488C20.2659 35.6509 19.7989 35.6523 19.332 35.6533C19.0404 35.6539 18.7488 35.6547 18.4572 35.6555C17.5452 35.6579 16.6333 35.6596 15.7213 35.6607C14.6679 35.6619 13.6144 35.6652 12.561 35.6702C11.7472 35.674 10.9334 35.6759 10.1196 35.6763C9.6333 35.6766 9.14705 35.6777 8.66078 35.6808C8.20338 35.6837 7.74604 35.6843 7.28863 35.683C7.04062 35.6829 6.79262 35.6853 6.54463 35.6877C6.39706 35.6869 6.24948 35.686 6.09744 35.6851C5.96917 35.6854 5.84091 35.6857 5.70875 35.686C5.28397 35.6074 5.1389 35.4594 4.87462 35.1241C4.72764 34.6636 4.70777 34.4638 4.91369 34.0226C5.26032 33.5732 5.52124 33.608 6.06569 33.6057Z" fill="#025D67"/>
<path d="M9.35558 27.935C9.50173 27.9334 9.64788 27.9318 9.79846 27.9302C9.9577 27.931 10.1169 27.9318 10.281 27.9327C10.4513 27.9318 10.6215 27.9307 10.7918 27.9294C11.2533 27.9266 11.7148 27.9269 12.1763 27.9281C12.5618 27.9287 12.9473 27.9278 13.3328 27.9269C14.2423 27.9247 15.1517 27.9252 16.0612 27.9273C16.9991 27.9294 17.937 27.9274 18.8749 27.9234C19.6807 27.92 20.4864 27.9191 21.2922 27.9202C21.7732 27.9208 22.2542 27.9205 22.7352 27.918C23.1875 27.9157 23.6397 27.9164 24.092 27.9195C24.3369 27.9204 24.5817 27.9183 24.8265 27.916C26.0233 27.929 26.0233 27.929 26.4111 28.2933C26.677 28.7049 26.7251 28.8938 26.625 29.3743C26.4184 29.694 26.3243 29.8204 26 29.9993C25.449 30.0946 24.902 30.0833 24.344 30.0782C24.1737 30.0789 24.0035 30.0798 23.8332 30.0809C23.3717 30.0832 22.9102 30.0816 22.4487 30.0792C21.9654 30.0771 21.482 30.0782 20.9987 30.0789C20.187 30.0794 19.3754 30.0774 18.5638 30.0739C17.6259 30.0699 16.688 30.0699 15.7501 30.0721C14.8473 30.0741 13.9445 30.0732 13.0416 30.0711C12.6577 30.0702 12.2737 30.0704 11.8898 30.0713C11.4375 30.0723 10.9853 30.0707 10.533 30.0673C10.2881 30.0661 10.0433 30.0672 9.79846 30.0685C9.57923 30.0661 9.57923 30.0661 9.35558 30.0637C9.16546 30.0631 9.16546 30.0631 8.97151 30.0626C8.53166 29.9823 8.31912 29.8062 8 29.4993C7.91699 29.2493 7.91699 29.2493 7.92188 28.9993C7.92026 28.9168 7.91865 28.8343 7.91699 28.7493C8.13603 28.0896 8.72646 27.9367 9.35558 27.935Z" fill="#025D67"/>
<path d="M13.4065 22.2968C13.5767 22.2962 13.747 22.2952 13.9172 22.2941C14.3788 22.2918 14.8402 22.2934 15.3018 22.2958C15.7851 22.2979 16.2684 22.2968 16.7518 22.2962C17.5634 22.2956 18.375 22.2976 19.1867 22.3011C20.1246 22.3051 21.0625 22.3051 22.0004 22.3029C22.9032 22.3009 23.806 22.3018 24.7088 22.3039C25.0928 22.3048 25.4767 22.3046 25.8607 22.3037C26.313 22.3028 26.7652 22.3043 27.2175 22.3077C27.4623 22.309 27.7072 22.3078 27.952 22.3065C28.0982 22.3081 28.2443 22.3097 28.3949 22.3114C28.585 22.3119 28.585 22.3119 28.779 22.3124C29.2188 22.3927 29.4314 22.5688 29.7505 22.8757C29.8335 23.1257 29.8335 23.1257 29.8286 23.3757C29.8302 23.4582 29.8318 23.5407 29.8335 23.6257C29.7044 24.0143 29.4594 24.1502 29.1255 24.3757C28.779 24.439 28.779 24.439 28.3949 24.44C28.2487 24.4416 28.1026 24.4432 27.952 24.4448C27.7928 24.444 27.6335 24.4432 27.4695 24.4424C27.2992 24.4432 27.1289 24.4443 26.9587 24.4456C26.4972 24.4484 26.0357 24.4481 25.5742 24.447C25.1886 24.4463 24.8031 24.4472 24.4176 24.4481C23.5082 24.4503 22.5987 24.4498 21.6892 24.4477C20.7513 24.4456 19.8135 24.4476 18.8755 24.4516C18.0698 24.455 17.2641 24.4559 16.4583 24.4548C15.9773 24.4542 15.4963 24.4545 15.0152 24.457C14.5629 24.4593 14.1107 24.4586 13.6584 24.4555C13.4136 24.4546 13.1688 24.4568 12.9239 24.459C11.7272 24.446 11.7272 24.446 11.3393 24.0817C11.0734 23.6701 11.0254 23.4812 11.1255 23.0007C11.6763 22.1482 12.4711 22.2882 13.4065 22.2968Z" fill="#025D67"/>
</g>
<defs>
<clipPath id="clip0_244_812">
<rect width="64" height="64" fill="white"/>
</clipPath>
</defs>
</svg>
