<svg width="128" height="66" viewBox="0 0 128 66" fill="none" xmlns="http://www.w3.org/2000/svg">
<path d="M50.6077 11.4278C26.1336 16.8734 5.89064 21.3861 5.62989 21.4561C3.7573 21.9925 2.21656 23.2868 1.77804 24.6978C1.54101 25.4674 1.54101 25.6423 1.56471 43.2035L1.60026 60.9278L1.97952 61.7091C2.50101 62.7936 3.16471 63.4699 4.24323 63.9946L5.14397 64.4261L65.1262 64.4611L125.12 64.4844L125.511 64.2278C125.725 64.0762 126.021 63.808 126.151 63.6331C126.4 63.3066 126.4 63.19 126.436 56.9515L126.471 50.5964L126.199 50.13C126.057 49.8734 125.748 49.5469 125.511 49.407L125.097 49.1505L100.622 49.0921L76.1484 49.0338L86.104 46.83C91.5795 45.6172 96.3321 44.5328 96.6521 44.4278C98.2047 43.9031 99.4492 42.9819 99.9825 41.9674C100.137 41.6642 100.314 41.0929 100.385 40.6847C100.551 39.6586 100.551 6.51864 100.374 5.49249C100.113 3.89497 99.1529 2.62394 97.6832 1.94762C96.1188 1.22465 100.314 0.373413 50.6077 11.4278ZM96.8892 3.37023C97.6003 3.68507 98.1099 4.1515 98.4655 4.82783L98.7855 5.42253V23.0886V40.7547L98.4655 41.2911C98.0981 41.8974 97.3632 42.4338 96.4269 42.7837C95.7869 43.0169 7.20619 62.7119 6.30545 62.8169C5.3336 62.9452 4.0773 62.1989 3.52026 61.1727L3.25952 60.6946L3.22397 43.0868L3.20026 25.4907L3.49656 24.8727C3.85212 24.1731 4.59878 23.5784 5.59434 23.2052C6.48323 22.8671 95.218 3.172 95.8818 3.16034C96.1781 3.16034 96.6284 3.25362 96.8892 3.37023ZM114.465 53.4883C114.43 53.6049 113.873 55.3423 113.233 57.3363L112.06 60.9861H111.005C110.128 60.9861 109.974 60.9628 110.033 60.8112C110.116 60.5897 110.128 60.5897 109.571 60.8695C109.298 61.0095 108.871 61.1027 108.528 61.1027C108.042 61.1027 107.9 61.0444 107.591 60.7413C107.248 60.4031 107.236 60.3565 107.295 59.6102C107.39 58.3625 108.006 56.8466 108.717 56.1119C109.547 55.2607 110.78 54.9925 111.348 55.5522L111.633 55.8321L112.036 54.6543L112.439 53.4649L113.257 53.395C113.707 53.36 114.169 53.325 114.3 53.3133C114.454 53.3017 114.501 53.3483 114.465 53.4883ZM124.018 53.4066C124.528 53.5932 124.421 54.048 123.295 56.2635L122.252 58.3042H121.825H121.399L121.719 56.2285C121.885 55.0974 122.098 54.048 122.181 53.8964C122.454 53.395 123.366 53.1618 124.018 53.4066ZM63.2773 53.7798C63.2773 53.9897 63.2062 55.2607 63.1232 56.6133C63.0403 57.966 62.981 59.0738 62.9929 59.0971C63.0047 59.1088 63.7988 57.8377 64.7588 56.2635L66.5129 53.4066H66.9277C67.3306 53.4066 67.3425 53.4183 67.1766 53.6632C67.0817 53.8148 66.0269 55.5172 64.8299 57.4529L62.6492 60.9861H61.6655H60.6818V60.3681C60.6818 60.0416 60.7647 58.4441 60.8595 56.8466C60.9543 55.2374 61.0373 53.8148 61.0373 53.6632C61.0373 53.4183 61.0729 53.4066 62.1632 53.4066H63.2892L63.2773 53.7798ZM101.452 53.6632C101.452 53.6865 101.345 54.0363 101.215 54.4328C101.085 54.8409 100.978 55.2257 100.978 55.284C100.978 55.3423 101.168 55.389 101.393 55.389C101.855 55.389 101.855 55.3773 101.689 55.7854C101.594 56.042 101.5 56.0886 101.12 56.0886H100.67L100.006 58.1526C99.3899 60.0883 99.2951 60.7063 99.6981 60.3098C99.781 60.2282 99.9706 60.1699 100.137 60.1699H100.433L100.089 60.5197C99.4018 61.2194 97.7188 61.2543 97.3988 60.578C97.2921 60.3448 97.3751 59.9717 97.8729 58.3974C98.2047 57.348 98.5129 56.4035 98.5484 56.2868C98.6195 56.1353 98.5721 56.0886 98.3232 56.0886C98.0151 56.0886 97.944 55.937 98.0862 55.5755C98.1336 55.4706 98.2995 55.389 98.501 55.389C98.7855 55.389 98.8566 55.3307 98.9751 54.9225C99.1055 54.4794 99.1529 54.4561 100.018 54.1646C100.516 54.0013 101.002 53.8148 101.097 53.7565C101.262 53.6515 101.452 53.6049 101.452 53.6632ZM58.9988 55.4123C59.2121 55.6222 59.1647 56.1936 58.8921 56.625C58.5721 57.1381 57.8492 57.383 57.3751 57.1264C57.2092 57.0331 57.0551 56.8466 57.0314 56.7066C56.9721 56.3335 57.3514 55.6338 57.7069 55.4473C58.0862 55.249 58.8092 55.2257 58.9988 55.4123ZM71.1706 55.4356C71.9055 55.7388 71.9173 55.9137 71.1825 58.1876C70.8151 59.307 70.5662 60.2632 70.6136 60.2982C70.661 60.3448 70.8032 60.4031 70.9218 60.4264C71.2418 60.4731 71.2892 60.7179 71.0047 60.8579C70.3173 61.231 68.741 61.1144 68.5751 60.683C68.5277 60.5547 68.3973 60.578 67.9588 60.8112C66.9869 61.3243 65.6358 61.1261 65.4699 60.4614C65.1973 59.4003 66.1929 58.1759 67.6625 57.7561C69.0018 57.383 69.6892 56.8932 69.6892 56.3335C69.6892 55.8671 69.4284 55.6921 68.824 55.7738C68.2432 55.8554 67.8403 56.2402 67.7218 56.8466C67.6506 57.208 67.6151 57.243 67.3306 57.1847C66.7381 57.0565 66.7381 57.0565 66.8447 56.6483C66.9869 56.1702 67.6743 55.5639 68.2432 55.4123C68.9425 55.2257 70.7084 55.249 71.1706 55.4356ZM80.6047 55.4473C81.0314 55.6688 81.221 56.1003 81.1143 56.625C81.0551 56.9399 80.9603 57.0448 80.5692 57.1964C80.3084 57.3013 80.0714 57.3596 80.0358 57.3363C80.0121 57.3013 80.0477 57.0448 80.1188 56.7533C80.498 55.2957 79.0521 55.424 78.2818 56.9165C77.9143 57.6162 77.3929 59.3653 77.3929 59.8784C77.3929 60.4381 77.6773 60.6713 78.258 60.6013C78.8743 60.5197 79.3721 60.03 79.6566 59.2254C79.8343 58.689 79.9055 58.5957 80.1425 58.6307C80.5573 58.6773 80.6403 58.8289 80.4743 59.237C79.9529 60.4614 78.9573 61.1027 77.5469 61.1027C76.1129 61.1027 75.5084 60.7063 75.4018 59.7268C75.2477 58.1176 76.5514 56.1236 78.1514 55.5172C78.898 55.2257 80.1069 55.2024 80.6047 55.4473ZM86.4477 55.5406C86.9573 55.8787 87.1469 56.2635 87.1351 56.9982C87.1232 58.1876 86.4714 59.5635 85.5706 60.3215C84.9188 60.8579 84.184 61.1027 83.1766 61.1027C81.7899 61.1027 81.1855 60.6946 81.0906 59.7035C80.9721 58.5024 81.8018 56.6133 82.7381 55.9603C83.4492 55.4706 84.2314 55.2607 85.2388 55.3073C85.8314 55.3307 86.2462 55.4123 86.4477 55.5406ZM90.7381 55.5522C90.7025 55.7038 90.6314 55.9254 90.584 56.0536C90.5247 56.2169 90.5958 56.1936 90.9395 55.937C91.8166 55.284 92.9306 55.0741 93.4877 55.4589C93.9025 55.7388 93.8195 56.2868 93.0373 58.689C92.6462 59.89 92.3262 60.9045 92.3262 60.9278C92.3262 60.9628 91.8521 60.9861 91.2714 60.9861H90.2166L90.9158 58.8522C91.2951 57.6861 91.6151 56.6367 91.6151 56.5201C91.6151 56.1469 91.0818 56.2868 90.6314 56.7766C90.2877 57.1497 90.0862 57.5929 89.5884 59.1088L88.9721 60.9861H87.9884C87.2655 60.9861 86.9929 60.9512 86.9929 60.8346C86.9929 60.7646 87.384 59.5169 87.858 58.0709L88.7232 55.4473L89.4818 55.3773C90.9158 55.249 90.821 55.2374 90.7381 55.5522ZM106.477 55.5406C106.987 55.8787 107.177 56.2635 107.165 56.9982C107.153 58.1876 106.501 59.5635 105.6 60.3215C104.948 60.8579 104.214 61.1027 103.206 61.1027C101.82 61.1027 101.215 60.6946 101.12 59.7035C101.002 58.5024 101.831 56.6133 102.768 55.9603C103.479 55.4706 104.261 55.2607 105.268 55.3073C105.861 55.3307 106.276 55.4123 106.477 55.5406ZM118.839 55.4939C119.526 55.8088 119.751 56.2752 119.668 57.1847C119.526 58.6773 118.708 60.0533 117.582 60.6713C117.061 60.9628 116.765 61.0328 116.006 61.0794C114.074 61.1844 113.316 60.4614 113.66 58.8056C113.991 57.1964 115.058 55.8204 116.255 55.4589C117.049 55.2141 118.234 55.2374 118.839 55.4939ZM57.9084 58.2692C57.8847 58.3858 57.7306 59.342 57.5884 60.3914C57.3514 62.0939 57.2803 62.3505 57.0077 62.6536C56.4506 63.2717 54.9929 63.1784 54.9929 62.5254C54.9929 62.4204 55.4551 61.3709 56.024 60.1932L57.0432 58.0709H57.5055C57.8966 58.0709 57.9677 58.1059 57.9084 58.2692ZM122.074 59.3303C122.691 59.8201 121.92 61.1027 121.02 61.1027C120.356 61.1027 120.131 60.8812 120.214 60.3448C120.368 59.3886 121.434 58.8172 122.074 59.3303Z" fill="white"/>
<path d="M89.7899 8.36138C89.7425 8.93276 89.6832 9.69071 89.6477 10.0522C89.5766 10.6819 89.5884 10.7285 89.8255 10.7285C90.0506 10.7285 90.0744 10.6586 90.0744 9.87728C90.0744 9.42251 90.1099 8.82781 90.1573 8.58293C90.2284 8.12816 90.2403 8.15148 90.6314 9.3642C91.1647 11.02 91.2951 11.02 91.8521 9.41085C92.0773 8.75784 92.3025 8.17481 92.3499 8.10484C92.4092 8.04654 92.4447 8.45466 92.4447 9.00272C92.4447 10.2504 92.5395 10.7285 92.7766 10.7285C92.9306 10.7285 92.9425 10.5653 92.8832 9.58576C92.8358 8.96774 92.8003 8.19813 92.8003 7.89495C92.8003 7.34689 92.7884 7.33523 92.4803 7.37021C92.1721 7.40519 92.1129 7.49848 91.7099 8.67622C91.4729 9.38753 91.2477 9.87728 91.2121 9.78399C90.4181 7.34689 90.4181 7.34689 90.1336 7.34689C89.8729 7.34689 89.8492 7.39353 89.7899 8.36138Z" fill="white"/>
<path d="M93.6299 9.0381C93.6299 10.4374 93.6536 10.7289 93.8077 10.7289C93.9262 10.7289 93.9854 10.5423 94.0091 9.99429C94.0447 9.35294 94.0684 9.27132 94.3054 9.23634C94.6728 9.18969 95.0165 9.5745 95.1114 10.1459C95.1825 10.589 95.4314 10.8572 95.6091 10.6823C95.7277 10.5773 95.4195 9.3646 95.2299 9.21301C95.0995 9.10807 95.1232 9.0381 95.3603 8.80489C95.704 8.45506 95.7277 8.0586 95.3958 7.65047C95.1825 7.38227 95.0758 7.34729 94.3884 7.34729H93.6299V9.0381ZM95.0284 7.8487C95.4432 8.16354 95.0047 8.86319 94.3765 8.86319C93.9854 8.86319 93.9854 8.86319 93.9854 8.29181C93.9854 7.83704 94.0328 7.70877 94.1988 7.67379C94.4477 7.61549 94.8269 7.69711 95.0284 7.8487Z" fill="white"/>
<path d="M51.9711 17.7703C49.7666 19.3445 49.4585 19.706 50.3592 19.706C50.6318 19.706 50.8451 19.7176 50.8451 19.7409C50.8451 19.7526 50.6555 21.525 50.4303 23.6706C50.2051 25.8162 50.0155 27.7985 50.0155 28.0784C50.0155 28.813 50.2407 29.571 50.5607 29.9091C50.94 30.3173 52.0422 30.3289 52.6348 29.9325C53.0259 29.6759 53.0377 29.6409 53.0733 28.8247L53.1088 27.9851H52.7414C52.2081 27.9851 52.1133 27.6236 52.1963 25.9445C52.374 22.866 52.9903 19.2862 53.6896 17.3272C53.8792 16.8141 54.0214 16.3826 54.0096 16.371C53.9977 16.3593 53.0851 16.989 51.9711 17.7703Z" fill="white"/>
<path d="M64.0595 18.2715C63.3958 18.4114 62.9929 18.598 62.6255 18.9245C62.0803 19.3909 61.867 19.8107 61.867 20.4521C61.867 21.175 62.3173 21.7231 64.0951 23.1224C65.3751 24.1252 65.541 24.3001 65.541 24.615C65.541 24.8599 65.4225 25.0814 65.1855 25.3146C64.8773 25.6178 64.7588 25.6644 64.2729 25.6295C63.787 25.5945 63.6803 25.5478 63.5499 25.268C63.4077 24.9881 63.4195 24.9065 63.5618 24.6849C63.787 24.3351 63.704 24.1719 63.2299 24.0203C62.8981 23.9153 62.744 23.927 62.3884 24.0902C61.1558 24.6616 61.2388 26.3291 62.5188 26.9821C63.2299 27.3436 65.1262 27.3319 65.9558 26.9588C66.9633 26.504 67.5795 25.7461 67.7455 24.7549C67.8403 24.1485 67.4847 23.6588 66.4062 22.9125C64.4744 21.5715 64.0714 21.2683 63.8462 20.9652C63.621 20.6736 63.621 20.6153 63.7751 20.2072C63.9884 19.6708 64.5929 19.4026 65.1736 19.6008C65.5055 19.7174 65.6003 19.8574 65.8492 20.697C66.0151 21.2217 66.4655 21.4199 67.0699 21.2333C68.267 20.8835 68.1366 19.2977 66.8566 18.668C66.1455 18.3065 64.7707 18.1083 64.0595 18.2715Z" fill="white"/>
<path d="M46.0206 18.9949C44.8591 19.2864 43.7095 20.126 43.2354 21.0239C42.951 21.572 42.8088 23.3677 42.7969 26.6794C42.7851 28.8366 42.714 29.0232 41.6236 30.0727C40.5095 31.1338 39.668 31.5303 38.554 31.5419C37.8784 31.5419 37.6414 31.4953 37.3688 31.297C36.551 30.714 36.3021 29.1048 36.8591 28.102C37.4754 27.0175 38.5658 26.7493 39.2651 27.519C40.071 28.4052 39.2532 29.7112 38.0917 29.3963C37.8429 29.3264 37.6295 29.2914 37.6058 29.3147C37.4991 29.4197 38.554 30.2009 38.791 30.2009C39.6325 30.2009 41.2917 28.8366 41.5762 27.9038C41.9554 26.6677 41.5051 25.3617 40.5332 24.8603C38.7673 23.9508 36.0414 25.8048 35.4251 28.3352C35.3421 28.685 35.271 29.6062 35.271 30.3758L35.2591 31.7751L34.9391 31.8101C34.4058 31.8684 34.3584 31.5769 34.5243 28.5568L34.6666 25.8631L33.8962 25.9331C33.4695 25.9681 32.9836 26.0031 32.8058 26.0031H32.474V28.7317V31.4603L32.0829 31.9734C31.5851 32.6147 30.7554 32.9296 30.4947 32.5797C30.3762 32.4165 30.3525 32.1716 30.4236 31.5419C30.554 30.3758 30.5184 28.4751 30.3406 27.8804C30.2695 27.6006 30.0443 27.2158 29.8547 27.0292C29.4517 26.6211 29.108 26.6444 28.1717 27.1458C26.9866 27.7638 26.2162 29.0232 25.908 30.8423C25.5643 32.7896 25.3273 33.2327 24.6754 33.2327C23.7629 33.2327 23.3125 31.6352 23.7747 30.0727C23.8814 29.7228 24.2962 28.8133 24.6991 28.0437C25.0903 27.2741 25.4458 26.6094 25.4577 26.5628C25.4814 26.5045 25.1851 26.4695 24.794 26.4695C23.988 26.4695 23.9051 26.5278 23.3599 27.6006C22.8266 28.6617 22.5184 29.8744 22.4354 31.2621C22.2103 35.2151 23.7984 37.6988 25.5643 36.1246C25.8014 35.9031 25.8251 35.9031 25.9317 36.1013C26.0384 36.2879 26.0977 36.2879 26.5362 36.1596L27.0221 36.0197V34.9469C27.0221 32.8596 27.2354 31.2504 27.591 30.5508C27.9466 29.8394 28.2903 29.6762 28.6932 30.0377C29.0014 30.3175 28.9777 30.749 28.5629 32.0317C27.9584 33.8857 28.1599 34.9235 29.1791 35.3084C29.5584 35.4483 29.6532 35.4483 30.0206 35.2734C30.2458 35.1684 30.6369 34.8303 30.8858 34.5154C31.3125 33.9907 32.0354 33.4659 32.3436 33.4659C32.4147 33.4659 32.474 33.6175 32.474 33.8041C32.474 33.9907 32.5925 34.2589 32.7703 34.4455C33.0191 34.7137 33.1495 34.7486 33.7658 34.7486C34.4295 34.7486 34.5243 34.7137 34.951 34.3288C35.2117 34.1073 35.508 33.6875 35.6147 33.4076L35.8162 32.9062L36.3851 33.2561C37.2147 33.7575 38.151 33.8274 38.9332 33.431C39.7154 33.0462 40.7821 32.2649 41.7658 31.367L42.5599 30.6324L42.9984 31.0405C43.7451 31.7518 44.3732 31.9967 45.4517 31.9967C46.2814 32.0084 46.471 31.9617 46.9569 31.6935C48.3792 30.8656 49.4221 28.9299 49.4221 27.0758C49.4221 25.4783 48.7584 23.8108 47.8814 23.2278C47.3717 22.878 46.554 22.9246 45.9969 23.3094C45.6295 23.5659 45.6295 23.5776 45.6295 24.6271V25.6765L45.9021 25.49C46.6725 24.9419 47.3243 25.0469 47.6799 25.8048C47.9525 26.3529 47.9406 27.449 47.6562 28.0437C47.2058 29.0349 46.0799 29.6296 45.4399 29.2098C44.8947 28.8599 44.8354 28.4985 44.7643 25.0935C44.6932 22.0617 44.7051 21.8751 44.9303 21.2571C45.2503 20.4409 45.7717 19.8462 46.2695 19.7529C46.8266 19.6596 47.6443 19.8928 47.6443 20.161C47.6443 20.4292 47.194 20.8373 46.7792 20.9306C46.6014 20.9773 46.471 21.0705 46.4947 21.1522C46.5658 21.397 47.3362 21.7002 47.7036 21.6303C48.2369 21.537 48.9362 21.0239 49.1495 20.5808C49.3273 20.2193 49.3273 20.161 49.1377 19.8811C48.711 19.2515 46.9806 18.7617 46.0206 18.9949Z" fill="white"/>
<path d="M56.6166 20.4188C54.9929 20.792 53.7603 22.2846 53.2625 24.4418C52.8003 26.5058 53.3929 28.045 54.9218 28.698C55.7751 29.0595 57.4462 29.0711 58.1455 28.7213C59.0936 28.2316 59.781 27.2287 60.0773 25.9111C60.2788 24.9432 60.2195 24.71 59.9469 25.4097C59.4373 26.7273 57.9914 27.6602 56.8062 27.4503C55.4551 27.2054 54.6373 26.2726 54.6373 24.9549C54.6373 23.6256 55.6921 22.3895 56.8299 22.3895C57.7662 22.3895 58.1692 23.404 57.5884 24.3252C57.3395 24.7217 56.6403 25.0715 56.0832 25.0715L55.7632 25.0832L56.0358 25.3047C56.3795 25.5846 56.9958 25.7012 57.5529 25.6079C58.5603 25.4213 59.6151 23.8704 59.6151 22.5878C59.6151 20.9203 58.3706 20.0107 56.6166 20.4188Z" fill="white"/>
<path d="M25.304 21.9929C23.9766 22.3077 23.5381 22.5526 21.9143 23.8936L20.9543 24.6982L19.9825 24.2318C19.0581 23.7886 18.9869 23.777 18.0625 23.812C17.1262 23.8586 17.0669 23.8819 15.7158 24.6515L14.3292 25.4445L14.3647 27.6833L14.3884 29.9339L14.8151 29.2809C16.024 27.4385 17.8729 26.6922 18.9751 27.6017C19.6981 28.1964 19.6981 28.2547 19.6151 31.9395C19.5321 35.7876 19.4373 36.2773 18.5484 37.595C18.2521 38.0381 18.0151 38.4229 18.0151 38.4462C18.0151 38.4696 18.2758 38.353 18.584 38.2014C19.4492 37.7699 20.5514 37.4318 21.0966 37.4318C21.6655 37.4318 21.701 37.2802 21.3218 36.4289C21.0729 35.8809 21.061 35.7643 21.1321 32.301C21.1795 29.1176 21.2151 28.6628 21.4403 27.9749C22.0803 25.9809 23.9292 24.8614 26.4062 24.978L27.2595 25.013L27.5677 24.0219C27.7455 23.4738 27.9469 22.7975 28.0418 22.506C28.1366 22.2144 28.2077 21.9462 28.2077 21.8879C28.2077 21.748 26.0506 21.818 25.304 21.9929Z" fill="white"/>
<path d="M71.5857 27.8701C58.3827 30.8786 47.1946 33.4207 46.7324 33.5256L45.8672 33.7122V34.2369C45.8672 34.715 45.8909 34.75 46.1398 34.6917C47.2657 34.4235 95.6805 23.439 95.7161 23.439C95.7398 23.439 95.7635 23.2058 95.7635 22.9143C95.7635 22.6228 95.7279 22.3896 95.6805 22.4012C95.6213 22.4012 84.7887 24.8733 71.5857 27.8701Z" fill="white"/>
<path d="M17.221 28.4407C16.0832 28.9771 16.0714 29.0004 15.9884 32.0089C15.9529 33.7464 15.8699 34.7026 15.7632 34.9824C15.064 36.7549 13.464 37.746 11.4492 37.6411C9.96768 37.5594 9.09064 36.9881 8.79435 35.9036C8.61657 35.2623 8.75879 34.8775 9.35139 34.2828C10.1336 33.5248 10.6669 33.3849 12.0418 33.6298C12.6225 33.7347 13.2625 33.8513 13.4521 33.8863L13.8077 33.9446L13.3336 33.5132C13.0729 33.2799 12.5158 32.9185 12.0892 32.7202C11.4018 32.3937 11.2003 32.3587 10.2521 32.3587C9.32768 32.3587 9.1025 32.4054 8.52176 32.6852C7.2299 33.3033 6.41213 34.5043 6.30546 35.9386C6.25805 36.6616 6.28176 36.8015 6.62546 37.4895C7.06398 38.364 7.70398 38.9471 8.74694 39.4368C11.3543 40.6612 15.4788 39.157 16.7469 36.5333L17.1262 35.7404L17.1381 32.592C17.1381 29.2103 17.1618 29.0587 17.8136 28.3591C18.1218 28.0326 18.0981 28.0326 17.221 28.4407Z" fill="white"/>
<path d="M91.8523 28.6855C91.4257 28.8254 91.0464 29.0586 90.762 29.3735C90.3709 29.7816 90.3116 29.9099 90.3116 30.4229C90.3116 31.5074 90.5723 31.624 91.4612 30.9593C92.2079 30.3996 92.6583 30.4113 93.2746 30.9827C93.8909 31.5657 94.0686 32.2187 93.879 33.1399C93.6064 34.3759 92.8598 35.0989 91.8168 35.0989C90.679 35.0989 89.6835 34.341 89.3398 33.1982C89.2094 32.7667 89.3042 31.2858 89.5531 29.9099L89.6242 29.56L89.3753 29.8516C88.9368 30.3763 88.202 31.8805 88.0598 32.5569C87.7279 34.1894 88.7353 36.4166 90.1101 37.0696C90.4538 37.2328 90.8568 37.3145 91.3309 37.3145C92.3027 37.3145 93.0612 36.9296 93.962 35.9735C96.0123 33.8279 96.1664 31.0176 94.3294 29.3268C93.7842 28.8254 93.0731 28.4523 92.6938 28.4523C92.5872 28.4639 92.2079 28.5572 91.8523 28.6855Z" fill="white"/>
<path d="M83.5207 30.0853C82.0985 30.4468 81.1977 31.5896 81.5533 32.6157C81.7311 33.1638 82.4422 33.9101 83.5681 34.7613C85.3103 36.0673 85.5236 36.4405 84.8718 37.0935C84.5874 37.3733 84.4214 37.4316 83.9829 37.4316C83.5325 37.4316 83.414 37.385 83.2362 37.1285C83.0466 36.8369 83.0466 36.802 83.2244 36.4871C83.4022 36.1839 83.4022 36.1373 83.2481 35.974C83.1414 35.8691 82.857 35.7991 82.5488 35.7991C82.0985 35.7991 81.9562 35.8691 81.5888 36.2189C81.174 36.6387 81.1622 36.6737 81.2096 37.35C81.257 37.968 81.3044 38.0846 81.6836 38.4228C82.6911 39.344 85.4051 39.2157 86.4955 38.2129C87.2659 37.5016 87.6096 36.2656 87.2066 35.6592C87.0999 35.4959 86.3177 34.8779 85.4644 34.2949C83.6392 33.0239 83.2718 32.6391 83.3666 32.1493C83.4614 31.6712 83.6274 31.508 84.1133 31.3797C84.8244 31.1815 85.3222 31.508 85.4407 32.2659C85.5829 33.0938 86.614 33.3737 87.2422 32.7557C87.5977 32.4058 87.5622 31.3797 87.1711 30.9133C86.6022 30.2603 84.6466 29.8171 83.5207 30.0853Z" fill="white"/>
<path d="M77.1198 32.4865C76.7761 32.5914 76.3494 32.848 76.0294 33.1628C75.5317 33.6176 75.4961 33.6992 75.4961 34.2473C75.4961 34.5738 75.5317 34.9236 75.5672 35.0285C75.6857 35.3317 76.1124 35.2384 76.6694 34.807C77.262 34.3406 77.7124 34.2823 78.2694 34.6204C79.3361 35.2734 79.4309 37.1974 78.4591 38.2936C77.985 38.8183 77.5346 38.9815 76.7406 38.9232C75.8872 38.8533 75.1998 38.3752 74.7613 37.5473C74.3702 36.836 74.3465 36.3812 74.6072 34.702C74.702 34.0607 74.7613 33.5243 74.7376 33.501C74.6665 33.431 74.0028 34.5155 73.6709 35.2268C73.0309 36.5794 73.0428 37.7455 73.6946 39.1098C74.3702 40.5324 75.2354 41.1621 76.5154 41.1621C77.4398 41.1621 78.222 40.789 79.0872 39.9261C80.6398 38.3868 81.2206 36.1013 80.4857 34.4572C80.0354 33.466 78.6369 32.2883 77.9139 32.3116C77.7954 32.3116 77.4398 32.3932 77.1198 32.4865Z" fill="white"/>
<path d="M68.5396 34.154C67.307 34.5738 66.501 35.3434 65.9914 36.6144C65.7662 37.1624 65.7307 37.4889 65.7188 38.8882C65.7188 40.3458 65.7425 40.5791 65.9914 41.1038C66.347 41.8734 66.7736 42.2932 67.4966 42.6314C68.7884 43.2377 70.1751 42.8995 71.4077 41.6868C72.344 40.754 72.5336 40.2875 72.5336 38.8183V37.6056L72.1188 38.3285C71.5855 39.2497 70.6136 40.2875 70.021 40.5907C69.0136 41.1038 67.947 40.9522 67.4136 40.2176C67.0818 39.7745 67.0107 38.7716 67.2596 37.9437C67.5203 37.0575 67.8166 36.661 68.3381 36.4978C69.0966 36.2529 69.7484 36.5794 69.8788 37.2791C69.9262 37.5006 70.0092 37.6639 70.0921 37.6405C70.1633 37.6172 70.661 37.3723 71.2062 37.0808C71.8462 36.7427 72.2136 36.4745 72.2492 36.3112C72.4388 35.5999 71.6684 34.5038 70.7321 34.1073C70.1514 33.8741 69.2981 33.8858 68.5396 34.154Z" fill="white"/>
<path d="M43.5562 34.1548C43.414 34.3881 42.217 34.9828 41.5296 35.1577C40.9133 35.3209 40.6051 35.3209 39.0407 35.2043L37.2392 35.0644L36.6822 35.3909C36.374 35.5658 35.9118 35.8923 35.6629 36.1139C35.2125 36.522 35.2007 36.5336 35.2007 37.3732C35.2007 37.828 35.2362 38.9241 35.2837 39.7987L35.3548 41.3962L35.7459 40.8481C35.9474 40.5333 36.3503 40.0785 36.6111 39.822C37.0496 39.4139 37.18 39.3556 37.6303 39.3672C38.614 39.3905 38.6377 39.4605 38.6377 42.0375V44.2647L37.4762 43.8799C35.3666 43.1919 34.1933 43.1686 32.5103 43.7866C31.5266 44.1598 31.0288 44.4513 30.294 45.1276C29.5 45.8506 29.1562 46.5969 29.1562 47.6464C29.1562 49.069 29.8437 50.0368 31.3251 50.7365C32.9133 51.4711 34.537 51.4361 36.1607 50.6432C37.6422 49.9086 38.697 48.7075 39.254 47.1216L39.5029 46.4103L39.9414 46.7601C40.5103 47.2033 40.7237 47.658 40.8422 48.6842L40.9251 49.5004L41.0792 48.9174C41.1622 48.5909 41.2333 47.8563 41.2333 47.2732C41.2451 46.0605 41.0792 45.7107 40.2259 45.0693L39.7518 44.7195L39.7992 42.329C39.8229 41.0114 39.894 39.7637 39.9533 39.5654C40.0244 39.3556 40.214 39.0757 40.38 38.9474C40.6644 38.7259 40.7948 38.7142 41.8377 38.7842C42.8333 38.8541 43.0466 38.8308 43.3666 38.6442C43.7222 38.4344 43.734 38.411 43.734 37.5481C43.734 37.07 43.7696 36.0789 43.817 35.3559C43.8644 34.4464 43.8525 34.0499 43.7577 34.0499C43.6866 34.0499 43.6037 34.0965 43.5562 34.1548ZM37.4407 44.8828C38.614 45.2559 38.6259 45.2909 38.1044 46.3637C36.9903 48.6025 34.7029 49.3022 33.2214 47.8563C32.4748 47.1216 32.3444 46.0722 32.9133 45.4541C33.4348 44.8944 34.94 44.393 35.8407 44.498C36.1607 44.5329 36.8837 44.7078 37.4407 44.8828Z" fill="white"/>
<path d="M61.405 35.9723C60.931 36.2055 60.3739 36.497 60.1843 36.6253C59.8406 36.8702 59.8287 36.8702 59.5206 36.6486C59.3428 36.5203 59.1413 36.3921 59.0702 36.3454C58.9754 36.2988 58.6791 36.6719 58.2643 37.3482C57.8969 37.9429 57.6006 38.456 57.6006 38.5027C57.6006 38.5493 57.7665 38.5959 57.968 38.6193C58.6198 38.6776 58.6317 38.8058 58.2643 41.7444C58.0747 43.2253 57.9443 44.4497 57.968 44.473C57.9917 44.4963 58.4776 44.403 59.0347 44.2747L60.0539 44.0415L60.3147 41.6511C60.5635 39.3656 60.7532 38.5376 61.0732 38.3394C61.3221 38.1878 61.7013 38.2345 61.891 38.4444C62.1991 38.7942 62.2228 39.2023 62.045 40.7065C61.7724 42.9804 61.7961 43.2836 62.2702 43.7733C62.4835 44.0065 62.7798 44.1931 62.9102 44.1931C63.2421 44.1931 63.8939 43.6217 64.3443 42.9454C64.6524 42.5023 64.7117 42.2924 64.7117 41.7327V41.0564L64.2969 41.1263C63.7754 41.208 63.5265 41.0097 63.5265 40.5316C63.5384 40.3334 63.6924 39.4122 63.8702 38.4793C64.1902 36.8585 64.2021 36.7769 64.0124 36.4387C63.7398 35.9723 63.0998 35.5641 62.6495 35.5641C62.448 35.5641 61.8791 35.7507 61.405 35.9723Z" fill="white"/>
<path d="M19.6511 39.6705L6.28223 42.7139V43.2387C6.28223 43.7284 6.29408 43.7518 6.57852 43.6818C7.01704 43.5768 31.977 37.9097 32.6289 37.7698L33.1859 37.6415V37.1284C33.1859 36.8486 33.1504 36.6154 33.103 36.627C33.0437 36.627 26.9993 38.003 19.6511 39.6705Z" fill="white"/>
<path d="M53.203 38.1783C52.4563 38.3765 51.8993 38.7147 51.5793 39.1928C51.1408 39.8108 51.3067 41.0352 51.8163 41.0469C51.8638 41.0469 52.1482 40.837 52.4445 40.5804C53.2149 39.9274 53.6534 39.9391 54.3408 40.6154C54.7438 41.0119 54.8741 41.2218 54.9334 41.6765C55.0993 42.761 54.566 44.102 53.8312 44.4635C52.5749 45.0931 50.9749 44.3935 50.4297 42.9709C50.2045 42.4228 50.2401 41.7815 50.5601 39.5893L50.6312 39.1228L50.1926 39.7525C49.3275 40.9769 49.1378 41.5483 49.126 42.8543C49.126 43.9154 49.1615 44.0903 49.4934 44.7783C50.2045 46.2592 51.1052 46.9355 52.326 46.9355C53.2741 46.9355 54.0208 46.5624 54.9334 45.6645C56.486 44.1136 57.0549 41.8398 56.3082 40.1723C55.8934 39.2628 54.8623 38.3416 53.9852 38.0967C53.8549 38.0617 53.4993 38.0967 53.203 38.1783Z" fill="white"/>
<path d="M50.8447 48.847L6.34104 58.9686L6.30548 59.4466C6.26993 59.8548 6.30548 59.9364 6.48326 59.9247C6.60178 59.9247 26.7262 55.377 51.2003 49.8148L95.704 39.6933L95.7396 39.2035C95.7751 38.7954 95.7396 38.7138 95.5618 38.7254C95.4433 38.7254 75.3188 43.2848 50.8447 48.847Z" fill="white"/>
<path d="M20.9193 42.1553C14.3415 43.6596 8.34445 45.0239 7.60963 45.1871L6.28223 45.502V48.0557C6.28223 50.0263 6.31778 50.6094 6.4363 50.6094C6.50741 50.5977 11.2482 49.5366 16.9489 48.2422L27.3074 45.8868L27.7104 45.1871C28.5519 43.6945 30.3059 42.3885 32.2615 41.7822C33.1859 41.4906 33.3044 41.4323 33.257 41.2224C33.2215 41.0942 33.1859 40.6394 33.1859 40.1963C33.1859 39.6482 33.1385 39.415 33.0437 39.4267C32.9607 39.4267 27.5089 40.6627 20.9193 42.1553Z" fill="white"/>
<path d="M46.3412 39.8339C46.1161 39.9272 45.6657 40.1721 45.3457 40.3703L44.7649 40.7435L44.0064 40.3587C43.5916 40.1371 43.2361 39.9855 43.2124 40.0088C43.2005 40.0322 42.9042 40.5219 42.5724 41.105L41.9561 42.1428L42.359 42.5626C42.5724 42.7841 42.8094 43.0756 42.8805 43.2039C42.9398 43.3322 43.0109 44.4749 43.0346 45.7459L43.082 48.0548L42.7501 48.4512C42.5724 48.6728 42.4657 48.8594 42.5131 48.8594C42.7975 48.8594 45.6301 48.218 45.6301 48.1597C45.6301 48.1131 45.4998 47.9615 45.3338 47.8099L45.0375 47.5417V45.1163V42.6908L45.3575 42.4459C45.8079 42.0961 46.1161 42.1894 46.4361 42.7608C47.0642 43.8919 48.2612 43.3088 48.4272 41.7813C48.4746 41.3382 48.439 41.1166 48.2138 40.7085C47.7516 39.8339 47.0761 39.5191 46.3412 39.8339Z" fill="white"/>
<path d="M16.6526 49.8382L6.34149 52.1937L6.30593 54.7824L6.28223 57.3711L6.54297 57.3128C7.38445 57.1146 28.4807 52.322 28.9548 52.2287L29.5119 52.1004L28.7652 51.3891C27.7815 50.4446 27.2482 49.4184 27.1652 48.2757C27.1415 47.8326 27.0822 47.4594 27.0348 47.4711C26.9993 47.4711 22.3296 48.5439 16.6526 49.8382Z" fill="white"/>
<path d="M110.471 56.3903C110.163 56.7751 109.238 59.5737 109.298 59.9585C109.345 60.2966 109.795 60.3783 110.115 60.0984C110.424 59.8186 111.312 57.1016 111.265 56.5652C111.218 56.0171 110.838 55.9355 110.471 56.3903Z" fill="white"/>
<path d="M68.6106 58.0933C67.9825 58.5597 67.5321 59.3643 67.5795 59.924C67.6625 60.8686 68.4329 60.2156 68.9069 58.793C69.0966 58.2566 69.2151 57.8018 69.1795 57.7668C69.1558 57.7318 68.8951 57.8834 68.6106 58.0933Z" fill="white"/>
<path d="M84.5869 55.866C83.9943 56.2042 82.7854 59.6791 83.0225 60.3904C83.1291 60.7402 83.4847 60.6936 83.8284 60.2855C84.4447 59.5741 85.3454 56.7173 85.1676 56.0409C85.0847 55.7144 84.9306 55.6678 84.5869 55.866Z" fill="white"/>
<path d="M104.616 55.866C104.024 56.2042 102.815 59.6791 103.052 60.3904C103.159 60.7402 103.514 60.6936 103.858 60.2855C104.474 59.5741 105.375 56.7173 105.197 56.0409C105.114 55.7144 104.96 55.6678 104.616 55.866Z" fill="white"/>
<path d="M117.014 55.995C116.469 56.5781 115.71 58.6187 115.592 59.7731C115.521 60.5427 115.616 60.706 116.03 60.5777C116.493 60.4378 117.287 58.6887 117.63 57.0328C117.879 55.9018 117.571 55.4003 117.014 55.995Z" fill="white"/>
</svg>
