<svg width="64" height="64" viewBox="0 0 64 64" fill="none" xmlns="http://www.w3.org/2000/svg">
<g clip-path="url(#clip0_244_745)">
<path d="M25.75 20.75C27.6969 21.4182 29.5882 22.221 31.125 23.625C31.2101 23.6986 31.2952 23.7723 31.3828 23.8481C32.2145 24.6133 32.8703 25.6157 33.375 26.625C33.462 26.5902 33.549 26.5554 33.6387 26.5195C33.7579 26.4718 33.8771 26.4241 34 26.375C34.1244 26.3247 34.2488 26.2745 34.377 26.2227C36.4151 25.4153 38.3335 25.3002 40.5 25.5C40.2658 25.919 40.0349 26.2336 39.6797 26.5547C37.1524 29.031 36.2792 32.2594 35.625 35.625C36.2437 35.625 36.8625 35.625 37.5 35.625C37.5031 36.4548 37.5054 37.2846 37.5069 38.1145C37.5075 38.3969 37.5083 38.6793 37.5094 38.9616C37.5109 39.3672 37.5117 39.7727 37.5122 40.1782C37.5129 40.3048 37.5135 40.4314 37.5142 40.5618C37.5142 40.6794 37.5142 40.797 37.5142 40.9181C37.5145 41.0217 37.5147 41.1252 37.515 41.2319C37.5 41.5 37.5 41.5 37.375 41.875C37.4461 41.8745 37.5172 41.8741 37.5905 41.8736C39.3246 41.8625 41.0587 41.8543 42.7928 41.8491C43.6315 41.8465 44.4701 41.843 45.3087 41.8373C46.1184 41.8318 46.928 41.8289 47.7377 41.8276C48.0463 41.8266 48.3548 41.8248 48.6633 41.8221C49.0963 41.8185 49.5291 41.818 49.9621 41.8182C50.089 41.8164 50.2159 41.8146 50.3466 41.8128C51.2863 41.8182 52.0569 42.0095 52.7925 42.6162C53.4361 43.3999 53.6907 44.029 53.6631 45.0518C53.552 45.9943 53.106 46.5937 52.3994 47.1987C51.0809 48.0457 49.5294 47.625 48 47.625C48 53.0288 48 58.4325 48 64C47.34 64 46.68 64 46 64C46 58.5962 46 53.1925 46 47.625C44.5562 47.625 43.1125 47.625 41.625 47.625C41.625 46.965 41.625 46.305 41.625 45.625C41.9064 45.6238 42.1878 45.6227 42.4777 45.6215C43.4072 45.6172 44.3367 45.6103 45.2661 45.602C45.8297 45.5971 46.3933 45.5931 46.9568 45.5911C47.5007 45.5892 48.0445 45.5849 48.5884 45.579C48.7959 45.5771 49.0034 45.5761 49.2109 45.576C49.5016 45.5757 49.792 45.5723 50.0826 45.5682C50.1685 45.5689 50.2544 45.5695 50.3428 45.5701C50.7571 45.5611 50.9721 45.5208 51.3078 45.2701C51.5389 45.0022 51.5389 45.0022 51.4922 44.6094C51.4041 44.2135 51.4041 44.2135 51 44C50.7453 43.9621 50.7453 43.9621 50.4619 43.9673C50.3514 43.9664 50.241 43.9654 50.1271 43.9645C50.0057 43.9647 49.8842 43.9649 49.759 43.9652C49.5656 43.9641 49.5656 43.9641 49.3683 43.963C48.9341 43.9609 48.5 43.9605 48.0658 43.9601C47.7554 43.959 47.445 43.9577 47.1346 43.9563C46.4653 43.9536 45.796 43.9517 45.1267 43.9504C44.1589 43.9486 43.1912 43.9454 42.2235 43.9419C40.6535 43.9362 39.0835 43.9316 37.5135 43.9277C35.9882 43.924 34.4629 43.9197 32.9377 43.9147C32.8437 43.9144 32.7497 43.9141 32.6528 43.9137C32.1813 43.9122 31.7098 43.9106 31.2383 43.9091C27.3255 43.8961 23.4128 43.885 19.5 43.875C19.5 43.215 19.5 42.555 19.5 41.875C23.0887 41.8131 23.0887 41.8131 26.75 41.75C26.75 39.7288 26.75 37.7075 26.75 35.625C27.3275 35.625 27.905 35.625 28.5 35.625C28.1488 30.8506 27.6122 26.0932 25.9106 21.5811C25.75 21.125 25.75 21.125 25.75 20.75ZM29.125 24.75C29.224 25.6576 29.3924 26.5487 29.5625 27.4453C29.9017 29.239 29.9017 29.239 30 30C30.0825 30 30.165 30 30.25 30C30.4273 29.7729 30.4273 29.7729 30.6016 29.4844C30.8352 29.1166 31.0666 28.7915 31.3672 28.4766C31.6646 28.1497 31.6646 28.1497 31.6025 27.77C31.319 26.6777 30.4846 25.7072 29.625 25C29.3584 24.8506 29.3584 24.8506 29.125 24.75ZM34.9297 28.1719C34.128 28.5897 33.5081 29.1101 32.875 29.75C32.806 29.8148 32.7371 29.8796 32.666 29.9463C31.2167 31.4346 30.7319 33.6361 30.625 35.625C31.615 35.625 32.605 35.625 33.625 35.625C33.6946 35.1945 33.7642 34.7639 33.8359 34.3203C34.2327 32.0138 34.943 30.0898 36 28C35.5113 27.8371 35.3848 27.9476 34.9297 28.1719ZM28.75 37.625C28.7371 38.2334 28.7242 38.8419 28.7109 39.4688C28.7052 39.66 28.6996 39.8512 28.6937 40.0482C28.6921 40.1992 28.6906 40.3503 28.689 40.5059C28.6857 40.6603 28.6824 40.8148 28.679 40.974C28.7189 41.3848 28.7189 41.3848 28.9887 41.6749C29.5356 41.9582 30.0093 41.9491 30.6172 41.9458C30.7369 41.9466 30.8566 41.9473 30.9799 41.9481C31.2325 41.949 31.4851 41.9486 31.7377 41.9471C32.1238 41.9453 32.5095 41.9496 32.8955 41.9543C33.1413 41.9545 33.387 41.9542 33.6328 41.9536C33.7479 41.9553 33.8631 41.9569 33.9817 41.9586C34.5277 41.9507 34.801 41.9256 35.2613 41.611C35.5539 41.1685 35.5727 40.9233 35.561 40.396C35.5587 40.1775 35.5587 40.1775 35.5563 39.9547C35.5506 39.7711 35.5449 39.5876 35.5391 39.3984C35.5262 38.8132 35.5133 38.228 35.5 37.625C33.2725 37.625 31.045 37.625 28.75 37.625Z" fill="#025D67"/>
<path d="M62.125 0.500387C63.0764 1.19501 63.7543 1.95504 64 3.12539C64.1408 4.38435 63.8932 5.38492 63.1328 6.39882C62.9659 6.60135 62.7963 6.80157 62.625 7.00039C62.5674 7.06758 62.5098 7.13477 62.4504 7.204C62.1102 7.60044 61.768 7.99508 61.4243 8.38857C61.0301 8.84013 60.6394 9.29468 60.25 9.75039C59.7315 10.3566 59.2103 10.9604 58.6875 11.5629C58.5526 11.7186 58.4176 11.8744 58.2827 12.0302C58.005 12.3507 57.7266 12.6706 57.4478 12.9901C57.3115 13.1472 57.1753 13.3042 57.0391 13.4613C56.9759 13.5333 56.9127 13.6054 56.8477 13.6796C56.5545 14.0187 56.2981 14.3344 56.125 14.7504C56.1998 14.8355 56.2745 14.9205 56.3516 15.0082C57.085 15.9931 57.1314 16.913 57 18.1254C56.8224 18.7346 56.5295 19.2124 56.0932 19.6727C55.2024 20.6504 55.1272 21.4475 55.1694 22.7435C55.1803 22.9698 55.1916 23.196 55.2031 23.4223C55.2207 23.8685 55.235 24.3147 55.2471 24.7611C55.2516 24.9217 55.2516 24.9217 55.2562 25.0856C55.2765 26.2932 55.1712 27.599 54.3496 28.5487C53.511 29.3017 52.4261 29.692 51.2979 29.6566C47.3329 29.2406 43.821 26.4992 41 23.8754C40.9048 23.7884 40.8095 23.7014 40.7114 23.6117C39.3684 22.3362 38.139 20.6518 38.0859 18.7348C38.0984 17.8857 38.2801 17.1682 38.8281 16.5043C40.1064 15.29 41.8587 14.8615 43.4971 14.3544C43.6236 14.3149 43.7502 14.2754 43.8806 14.2347C44.1194 14.164 44.36 14.0993 44.6024 14.042C45.2666 13.8783 45.6283 13.722 46.0035 13.1395C46.0487 13.0626 46.094 12.9858 46.1406 12.9066C46.2439 12.7483 46.3481 12.5906 46.4531 12.4335C46.5031 12.3584 46.553 12.2833 46.6045 12.2059C47.1261 11.4691 47.8582 10.9211 48.75 10.7504C49.6739 10.6617 50.4073 10.7365 51.25 11.1254C51.2782 11.0443 51.3064 10.9633 51.3354 10.8798C51.5574 10.3681 51.8429 9.90582 52.1328 9.43007C52.1979 9.32241 52.263 9.21474 52.3301 9.10381C52.553 8.73571 52.7765 8.36805 53 8.00039C53.1701 7.71981 53.3402 7.43921 53.5103 7.15859C53.9147 6.49135 54.32 5.82462 54.7255 5.15804C55.0289 4.65919 55.3309 4.15955 55.6323 3.65957C55.7116 3.52837 55.7909 3.39718 55.8726 3.26201C56.021 3.01644 56.1691 2.77066 56.3168 2.52465C57.0262 1.35296 57.7049 0.465019 59.0605 0.0638637C60.1511 -0.156283 61.156 -0.0575351 62.125 0.500387ZM58.8264 2.5465C58.2977 3.15233 57.8984 3.80379 57.5 4.50039C57.3564 4.74723 57.2127 4.99397 57.0688 5.24062C56.9955 5.36671 56.9221 5.49279 56.8465 5.6227C56.4954 6.22138 56.1349 6.8142 55.7734 7.40664C55.6676 7.58084 55.6676 7.58084 55.5595 7.75857C55.1965 8.35439 54.8304 8.94801 54.4586 9.53842C54.2703 9.83776 54.0828 10.1377 53.8953 10.4376C53.8041 10.5829 53.7124 10.7279 53.6202 10.8727C53.4919 11.074 53.3653 11.2764 53.2388 11.4789C53.1655 11.5948 53.0922 11.7107 53.0166 11.8301C52.8292 12.133 52.8292 12.133 53 12.5004C53.2806 12.7383 53.2806 12.7383 53.6172 12.9613C53.7852 13.0781 53.7852 13.0781 53.9565 13.1972C54.2284 13.397 54.2284 13.397 54.5 13.3754C54.6742 13.1813 54.8392 12.9791 55 12.7738C55.4022 12.2705 55.8125 11.7866 56.25 11.3129C56.7642 10.7542 57.2464 10.1766 57.7231 9.58584C58.0831 9.1497 58.4634 8.73414 58.8442 8.3163C59.2308 7.88133 59.5931 7.4282 59.958 6.975C60.2642 6.60833 60.5865 6.26215 60.9141 5.91445C61.5211 5.25071 61.9365 4.71076 62.0625 3.79726C61.9645 3.1361 61.6657 2.77137 61.1719 2.33632C60.3991 1.78728 59.5129 1.86971 58.8264 2.5465ZM48.375 13.2504C48.0673 13.6144 47.779 13.9891 47.5 14.3754C47.6694 14.7714 47.836 14.9762 48.1875 15.2226C48.3212 15.3176 48.3212 15.3176 48.4577 15.4146C48.5542 15.4816 48.6506 15.5486 48.75 15.6176C48.9548 15.7626 49.1595 15.9076 49.3643 16.0526C49.4695 16.1267 49.5748 16.2007 49.6832 16.2769C50.1822 16.6289 50.6771 16.9864 51.1719 17.3441C51.2648 17.4112 51.3578 17.4782 51.4536 17.5473C52.2262 18.1056 52.9906 18.6742 53.75 19.2504C54.6969 18.3712 54.6969 18.3712 55.0859 17.1879C55.0331 16.5273 54.7114 16.2001 54.25 15.7504C53.9321 15.4905 53.5988 15.2601 53.2578 15.0316C53.069 14.9028 52.8804 14.7737 52.6919 14.6444C52.5973 14.5796 52.5028 14.5148 52.4053 14.4481C52.1336 14.2565 51.8707 14.0573 51.6089 13.8524C51.5273 13.7893 51.4456 13.7262 51.3615 13.6612C51.2089 13.5423 51.0575 13.4217 50.9077 13.2991C50.0828 12.6643 49.18 12.5153 48.375 13.2504ZM41.4687 17.2035C41.3893 17.2366 41.3098 17.2696 41.228 17.3036C40.7231 17.5311 40.4269 17.7874 40.125 18.2504C39.9437 19.1385 40.4321 19.8856 40.875 20.6254C43.0727 23.8238 47.1475 26.7343 50.9619 27.5746C51.5686 27.6651 52.0468 27.6067 52.625 27.3754C53.1084 26.9729 53.178 26.4767 53.25 25.8754C53.2774 25.2706 53.2808 24.6678 53.2757 24.0625C53.2734 23.7805 53.2732 23.4986 53.2732 23.2167C53.2984 22.1596 53.2984 22.1596 53.125 21.1254C52.8797 20.91 52.6537 20.7396 52.3828 20.5629C52.2221 20.4532 52.0614 20.3433 51.9009 20.2333C51.8153 20.1754 51.7296 20.1175 51.6414 20.0578C51.1816 19.7429 50.732 19.414 50.2812 19.0863C50.0909 18.9486 49.9004 18.8109 49.71 18.6732C49.6142 18.604 49.5185 18.5347 49.4198 18.4634C49.1189 18.246 48.8178 18.0289 48.5166 17.8119C48.417 17.7401 48.3174 17.6683 48.2147 17.5943C48.0261 17.4583 47.8373 17.3224 47.6486 17.1865C47.5185 17.0927 47.5185 17.0927 47.3857 16.997C47.3018 16.9364 47.2178 16.8758 47.1312 16.8134C46.7763 16.553 46.4284 16.2836 46.0814 16.0128C45.185 15.4159 42.4111 16.8 41.4687 17.2035Z" fill="#025D67"/>
<path d="M63.0001 35.3758C63.5706 35.8722 63.9588 36.4444 64.0323 37.2115C64.0327 37.3332 64.0331 37.4548 64.0335 37.5802C64.0346 37.7205 64.0357 37.8609 64.0368 38.0055C64.0366 38.1583 64.0365 38.3111 64.0364 38.4685C64.0373 38.6304 64.0381 38.7922 64.039 38.959C64.0412 39.4022 64.0418 39.8454 64.0419 40.2886C64.0421 40.5658 64.0426 40.843 64.0433 41.1202C64.0456 42.0883 64.0466 43.0564 64.0464 44.0244C64.0463 44.9253 64.0489 45.8261 64.0529 46.7269C64.0561 47.5016 64.0575 48.2762 64.0573 49.0509C64.0572 49.513 64.058 49.9751 64.0606 50.4372C64.0635 50.953 64.0623 51.4688 64.0608 51.9846C64.0622 52.1367 64.0636 52.2887 64.0651 52.4454C64.0579 53.4181 63.9601 54.1521 63.2545 54.8788C63.1731 54.9345 63.0918 54.9903 63.0079 55.0477C62.9269 55.1054 62.8458 55.1631 62.7623 55.2225C62.2114 55.5447 61.7692 55.6568 61.1305 55.6503C61.0051 55.6496 60.8798 55.649 60.7507 55.6484C60.5932 55.6461 60.4358 55.6438 60.2735 55.6415C59.7708 55.6363 59.2681 55.6312 58.7501 55.6258C58.7501 57.0696 58.7501 58.5133 58.7501 60.0008C59.0801 60.0008 59.4101 60.0008 59.7501 60.0008C60.9049 60.1284 61.8717 60.5038 62.6739 61.3612C63.3311 62.2257 63.5001 62.9119 63.5001 64.0008C62.8401 64.0008 62.1801 64.0008 61.5001 64.0008C61.4266 63.7379 61.4266 63.7379 61.3517 63.4696C61.172 62.9348 61.0008 62.667 60.5001 62.3758C59.9246 62.1328 59.3663 62.0646 58.7501 62.0008C58.7501 62.6608 58.7501 63.3208 58.7501 64.0008C58.0901 64.0008 57.4301 64.0008 56.7501 64.0008C56.7501 63.3408 56.7501 62.6808 56.7501 62.0008C55.5287 62.1345 55.5287 62.1345 54.5001 62.7508C54.1723 63.1917 54.112 63.4412 54.0001 64.0008C53.3401 64.0008 52.6801 64.0008 52.0001 64.0008C52.0001 62.8292 52.2445 62.0828 53.0152 61.1957C54.1417 60.1356 55.2272 60.0008 56.7501 60.0008C56.7501 58.5571 56.7501 57.1133 56.7501 55.6258C55.819 55.6455 55.819 55.6455 54.8881 55.6709C53.9282 55.681 52.9974 55.574 52.2572 54.907C51.5259 54.1149 51.4434 53.363 51.461 52.3075C51.5324 51.5186 51.7981 51.0824 52.3439 50.5243C53.3959 49.8162 54.3503 49.8231 55.5846 49.8348C55.7616 49.8352 55.9386 49.8354 56.1157 49.8355C56.4848 49.8361 56.8538 49.8379 57.2229 49.8407C57.6959 49.8442 58.1689 49.8456 58.6419 49.8461C59.0066 49.8467 59.3713 49.8479 59.736 49.8494C59.9105 49.8501 60.085 49.8507 60.2594 49.8512C60.5026 49.852 60.7458 49.8538 60.989 49.8557C61.1273 49.8566 61.2656 49.8574 61.408 49.8583C61.7501 49.8758 61.7501 49.8758 62.1251 50.0008C62.1251 49.3408 62.1251 48.6808 62.1251 48.0008C61.8853 47.966 61.8853 47.966 61.6407 47.9305C60.5566 47.6881 59.6065 46.9198 59.0001 46.0008C58.4158 44.9073 58.2834 43.9486 58.2965 42.7215C58.2962 42.5568 58.2959 42.392 58.2956 42.2223C58.2952 41.8764 58.297 41.5307 58.3005 41.1849C58.3048 40.7441 58.304 40.3035 58.3017 39.8628C58.3 39.4381 58.3023 39.0134 58.3043 38.5887C58.3037 38.4318 58.3031 38.2749 58.3024 38.1132C58.3169 37.033 58.4396 36.3213 59.2189 35.5243C60.4438 34.6998 61.7032 34.6228 63.0001 35.3758ZM60.5782 37.0946C60.2889 37.4952 60.2343 37.8111 60.2319 38.2919C60.2311 38.4009 60.2303 38.5098 60.2295 38.6221C60.2294 38.7397 60.2292 38.8572 60.2291 38.9784C60.2287 39.1 60.2283 39.2217 60.2278 39.347C60.2272 39.6049 60.2269 39.8627 60.2269 40.1206C60.2267 40.5123 60.2244 40.904 60.222 41.2958C60.2217 41.5467 60.2214 41.7977 60.2213 42.0487C60.2204 42.1647 60.2195 42.2808 60.2186 42.4004C60.2228 43.6286 60.3813 44.5915 61.2501 45.5008C61.6509 45.803 61.6509 45.803 62.1251 45.8758C62.1338 44.8294 62.1405 43.783 62.1445 42.7366C62.1465 42.2506 62.1491 41.7647 62.1534 41.2788C62.1575 40.8095 62.1597 40.3403 62.1607 39.871C62.1614 39.6923 62.1627 39.5136 62.1647 39.3349C62.1675 39.0839 62.1676 38.8328 62.1677 38.5818C62.1685 38.4392 62.1693 38.2965 62.1702 38.1495C62.1181 37.6889 61.9989 37.3908 61.7501 37.0008C61.2483 36.8366 61.0128 36.7743 60.5782 37.0946ZM53.5001 52.3758C53.4168 52.7508 53.4168 52.7508 53.5001 53.1258C53.764 53.4679 53.9123 53.6095 54.3416 53.6893C54.4722 53.6897 54.6028 53.6901 54.7374 53.6905C54.9602 53.6929 54.9602 53.6929 55.1874 53.6953C55.4273 53.6938 55.4273 53.6938 55.672 53.6922C55.8366 53.6927 56.0011 53.6932 56.1707 53.6937C56.5187 53.6944 56.8667 53.6934 57.2147 53.691C57.6603 53.6882 58.1057 53.6898 58.5513 53.6928C58.977 53.6951 59.4026 53.6935 59.8282 53.6922C59.9881 53.6933 60.148 53.6943 60.3128 53.6953C60.4613 53.6937 60.6098 53.6922 60.7628 53.6905C60.9587 53.6899 60.9587 53.6899 61.1586 53.6893C61.5879 53.6095 61.7362 53.4679 62.0001 53.1258C62.0834 52.7508 62.0834 52.7508 62.0001 52.3758C61.7362 52.0338 61.5879 51.8922 61.1586 51.8123C61.028 51.8119 60.8974 51.8116 60.7628 51.8111C60.6143 51.8096 60.4658 51.808 60.3128 51.8064C60.1529 51.8074 59.993 51.8084 59.8282 51.8094C59.6636 51.809 59.4991 51.8085 59.3295 51.808C58.9815 51.8072 58.6335 51.8083 58.2855 51.8107C57.8399 51.8135 57.3945 51.8119 56.9489 51.8089C56.5232 51.8066 56.0976 51.8082 55.672 51.8094C55.4321 51.8079 55.4321 51.8079 55.1874 51.8064C54.9647 51.8087 54.9647 51.8087 54.7374 51.8111C54.6068 51.8115 54.4762 51.8119 54.3416 51.8123C53.9123 51.8922 53.764 52.0338 53.5001 52.3758Z" fill="#025D67"/>
<path d="M4.16406 35.125C4.8829 35.5256 5.36475 36.0942 5.625 36.875C5.63919 37.1143 5.64615 37.354 5.64911 37.5937C5.65112 37.7415 5.65313 37.8893 5.65519 38.0415C5.66077 38.7206 5.66594 39.3996 5.66876 40.0786C5.67042 40.4357 5.67389 40.7926 5.67902 41.1497C5.68524 41.5829 5.68829 42.0161 5.68917 42.4494C5.6904 42.692 5.69466 42.9345 5.69902 43.1771C5.69555 44.6479 5.29491 45.8197 4.2627 46.8867C3.52337 47.5573 2.8549 47.8316 1.875 48C1.875 48.66 1.875 49.32 1.875 50C2.06063 49.9381 2.06063 49.9381 2.25 49.875C2.50211 49.8613 2.75464 49.8551 3.00711 49.8528C3.16321 49.8512 3.31932 49.8496 3.48015 49.848C3.65099 49.847 3.82183 49.846 3.99268 49.8452C4.12221 49.8444 4.12221 49.8444 4.25436 49.8436C4.71211 49.841 5.16985 49.8393 5.62759 49.8381C6.09762 49.8367 6.56756 49.8324 7.03755 49.8274C7.40122 49.8241 7.76487 49.8231 8.12855 49.8227C8.30162 49.8221 8.47468 49.8206 8.64773 49.8183C9.75442 49.8043 10.8773 49.8114 11.7418 50.5938C12.4752 51.384 12.5567 52.1384 12.5391 53.1933C12.4677 53.9823 12.202 54.4184 11.6563 54.9765C10.676 55.6364 9.83857 55.6751 8.6875 55.6484C8.21313 55.6407 7.73875 55.6329 7.25 55.625C7.25 57.0687 7.25 58.5125 7.25 60C7.58 60 7.91 60 8.25 60C9.40479 60.1275 10.3716 60.5029 11.1738 61.3603C11.831 62.2248 12 62.911 12 64C11.34 64 10.68 64 10 64C9.92652 63.737 9.92652 63.737 9.85156 63.4687C9.67189 62.9339 9.50073 62.6661 9 62.375C8.42447 62.132 7.8662 62.0637 7.25 62C7.25 62.66 7.25 63.32 7.25 64C6.59 64 5.93 64 5.25 64C5.25 63.34 5.25 62.68 5.25 62C4.02856 62.1336 4.02856 62.1336 3 62.75C2.67217 63.1908 2.61193 63.4404 2.5 64C1.84 64 1.18 64 0.5 64C0.5 62.8283 0.744409 62.0819 1.51514 61.1948C2.64158 60.1347 3.72708 60 5.25 60C5.25 58.5562 5.25 57.1125 5.25 55.625C4.27775 55.6495 4.27775 55.6495 3.30573 55.6813C2.36927 55.6931 1.64663 55.5527 0.875 55C0.276082 54.3591 -0.0145057 53.8384 -0.0183964 52.9507C-0.0192908 52.8107 -0.0201852 52.6707 -0.0211067 52.5264C-0.0214428 52.3727 -0.0217789 52.219 -0.0221252 52.0607C-0.0229466 51.8989 -0.023768 51.737 -0.0246143 51.5703C-0.0272426 51.0334 -0.0285396 50.4964 -0.0297852 49.9594C-0.0302912 49.7744 -0.0308056 49.5893 -0.0313287 49.4043C-0.0337099 48.5346 -0.035489 47.665 -0.0365305 46.7953C-0.0377512 45.7926 -0.0410389 44.7899 -0.046093 43.7872C-0.0498682 43.0115 -0.0517143 42.2358 -0.0521278 41.4601C-0.0524211 40.9972 -0.0535347 40.5342 -0.0566859 40.0713C-0.0601486 39.5542 -0.0596153 39.0372 -0.0587463 38.5201C-0.0603476 38.3677 -0.0619489 38.2153 -0.0635986 38.0582C-0.0576332 37.0839 0.0387913 36.3499 0.745606 35.622C0.826978 35.5663 0.90835 35.5105 0.992188 35.4531C1.07324 35.3954 1.15429 35.3377 1.23779 35.2783C2.17734 34.7289 3.16722 34.6778 4.16406 35.125ZM2.20313 37.0937C1.85645 37.5737 1.8597 37.9623 1.86081 38.5384C1.86082 38.701 1.86083 38.8637 1.86084 39.0312C1.86148 39.2088 1.86213 39.3864 1.86279 39.5639C1.86303 39.7456 1.8632 39.9272 1.86333 40.1088C1.86381 40.5866 1.86503 41.0644 1.86642 41.5422C1.8677 42.0298 1.86827 42.5175 1.8689 43.0051C1.87024 43.9617 1.87237 44.9184 1.875 45.875C2.6197 45.6419 2.93406 45.3819 3.375 44.75C3.79967 43.9209 3.77125 43.0074 3.77539 42.0976C3.7761 41.9756 3.77682 41.8536 3.77755 41.7279C3.77873 41.4707 3.77955 41.2135 3.78003 40.9563C3.78125 40.5638 3.78513 40.1713 3.78906 39.7788C3.78988 39.5283 3.79054 39.2778 3.79102 39.0273C3.79256 38.9105 3.7941 38.7937 3.79569 38.6733C3.79349 38.0274 3.75731 37.5487 3.375 37C2.87321 36.8358 2.63774 36.7735 2.20313 37.0937ZM2 52.375C1.91667 52.75 1.91667 52.75 2 53.125C2.26386 53.467 2.41218 53.6086 2.84149 53.6885C2.97211 53.6889 3.10273 53.6893 3.23731 53.6897C3.46006 53.692 3.46006 53.692 3.68732 53.6944C3.92717 53.6929 3.92717 53.6929 4.17188 53.6914C4.33645 53.6919 4.50103 53.6923 4.67059 53.6928C5.01862 53.6936 5.36658 53.6925 5.7146 53.6902C6.16019 53.6873 6.60562 53.689 7.05121 53.6919C7.47686 53.6942 7.90247 53.6926 8.32813 53.6914C8.48803 53.6924 8.64793 53.6934 8.81268 53.6944C8.96119 53.6929 9.10969 53.6913 9.2627 53.6897C9.45862 53.6891 9.45862 53.6891 9.65851 53.6885C10.0878 53.6086 10.2361 53.467 10.5 53.125C10.5833 52.75 10.5833 52.75 10.5 52.375C10.2361 52.0329 10.0878 51.8913 9.65851 51.8115C9.52789 51.8111 9.39727 51.8107 9.2627 51.8103C9.11419 51.8087 8.96569 51.8071 8.81268 51.8055C8.65278 51.8065 8.49288 51.8075 8.32813 51.8086C8.16355 51.8081 7.99897 51.8076 7.82941 51.8071C7.48138 51.8064 7.13342 51.8075 6.7854 51.8098C6.33981 51.8126 5.89438 51.811 5.4488 51.808C5.02314 51.8058 4.59753 51.8073 4.17188 51.8086C3.93202 51.8071 3.93202 51.8071 3.68732 51.8055C3.46456 51.8079 3.46456 51.8079 3.23731 51.8103C3.10669 51.8107 2.97607 51.8111 2.84149 51.8115C2.41218 51.8913 2.26386 52.0329 2 52.375Z" fill="#025D67"/>
<path d="M13.792 41.8506C13.9569 41.8511 13.9569 41.8511 14.1251 41.8517C14.474 41.8531 14.8229 41.8562 15.1719 41.8594C15.4093 41.8606 15.6468 41.8618 15.8843 41.8628C16.4645 41.8656 17.0448 41.8699 17.625 41.875C17.625 42.535 17.625 43.195 17.625 43.875C17.2969 43.8782 16.9689 43.8815 16.6309 43.8848C16.3127 43.8896 15.9946 43.8952 15.6765 43.901C15.4556 43.9045 15.2347 43.9071 15.0137 43.9089C14.6959 43.9116 14.3783 43.9174 14.0606 43.9238C13.9127 43.9241 13.9127 43.9241 13.7618 43.9243C13.3157 43.9362 13.0487 43.9646 12.6832 44.2304C12.4623 44.4995 12.4623 44.4995 12.5078 44.8906C12.5959 45.2865 12.5959 45.2865 13 45.5C13.3591 45.5252 13.7062 45.5357 14.0654 45.5348C14.1754 45.5355 14.2855 45.5363 14.3989 45.537C14.7692 45.5391 15.1394 45.5395 15.5096 45.5399C15.7744 45.541 16.0393 45.5423 16.3041 45.5437C17.0244 45.5471 17.7446 45.549 18.4649 45.5506C19.2171 45.5526 19.9693 45.5559 20.7216 45.5591C22.1466 45.565 23.5716 45.5696 24.9967 45.5737C26.6188 45.5785 28.2409 45.5846 29.863 45.5909C33.2003 45.6039 36.5377 45.615 39.875 45.625C39.875 46.285 39.875 46.945 39.875 47.625C32.6563 47.625 25.4375 47.625 18 47.625C18 53.0288 18 58.4325 18 64C17.34 64 16.68 64 16 64C16 58.5963 16 53.1925 16 47.625C14.8863 47.625 13.7725 47.625 12.625 47.625C11.5209 47.1343 10.9718 46.8187 10.4453 45.7656C10.2635 44.7556 10.2946 43.8755 10.875 43C11.7296 42.0472 12.5482 41.8354 13.792 41.8506Z" fill="#025D67"/>
<path d="M7.75 0C8.41 0 9.07 0 9.75 0C9.82348 0.479531 9.82348 0.479531 9.89844 0.96875C10.2378 2.9703 11.1385 4.87817 12.8081 6.10059C14.3085 7.10373 15.7408 7.48045 17.5 7.75C17.5 8.41 17.5 9.07 17.5 9.75C17.0205 9.82348 17.0205 9.82348 16.5312 9.89844C14.5297 10.2378 12.6218 11.1385 11.3994 12.8081C10.3963 14.3085 10.0195 15.7408 9.75 17.5C9.09 17.5 8.43 17.5 7.75 17.5C7.67652 17.0205 7.67652 17.0205 7.60156 16.5312C7.26224 14.5297 6.36147 12.6218 4.69189 11.3994C3.19149 10.3963 1.75915 10.0195 0 9.75C0 9.09 0 8.43 0 7.75C0.479531 7.67652 0.479531 7.67652 0.96875 7.60156C2.9703 7.26224 4.87817 6.36147 6.10059 4.69189C7.10373 3.19149 7.48045 1.75915 7.75 0ZM8.625 4.5C8.46851 4.71841 8.32183 4.94387 8.17969 5.17188C7.26381 6.56866 6.26524 7.48155 4.875 8.375C4.75125 8.4575 4.6275 8.54 4.5 8.625C4.65879 9.10137 4.81488 9.14251 5.24219 9.39062C6.62754 10.2509 7.50534 11.2718 8.375 12.625C8.4575 12.7487 8.54 12.8725 8.625 13C9.10137 12.8412 9.14251 12.6851 9.39062 12.2578C10.2509 10.8725 11.2718 9.99466 12.625 9.125C12.7487 9.0425 12.8725 8.96 13 8.875C12.8412 8.39863 12.6851 8.35749 12.2578 8.10938C10.8725 7.24913 9.99466 6.22823 9.125 4.875C9.0425 4.75125 8.96 4.6275 8.875 4.5C8.7925 4.5 8.71 4.5 8.625 4.5Z" fill="#025D67"/>
<path d="M26.625 5.875C27.285 5.875 27.945 5.875 28.625 5.875C28.6714 6.13539 28.7178 6.39578 28.7656 6.66406C28.9542 7.54684 29.2632 8.24434 29.75 9C29.8222 9.11344 29.8944 9.22688 29.9688 9.34375C31.0824 10.4574 32.3473 10.8704 33.875 11.125C33.875 11.785 33.875 12.445 33.875 13.125C33.612 13.174 33.3491 13.223 33.0781 13.2734C31.5019 13.6126 30.3634 14.2905 29.4512 15.6387C28.9765 16.4912 28.784 17.4207 28.625 18.375C27.965 18.375 27.305 18.375 26.625 18.375C26.576 18.112 26.527 17.8491 26.4766 17.5781C26.1374 16.0019 25.4595 14.8634 24.1113 13.9512C23.2588 13.4765 22.3293 13.284 21.375 13.125C21.375 12.465 21.375 11.805 21.375 11.125C21.6354 11.0786 21.8958 11.0322 22.1641 10.9844C23.0468 10.7958 23.7443 10.4868 24.5 10C24.6134 9.92781 24.7269 9.85562 24.8438 9.78125C25.9574 8.66758 26.3704 7.40266 26.625 5.875ZM27.5 9.625C27.3505 9.82886 27.2086 10.0384 27.0703 10.25C26.5951 10.9283 26.0801 11.3546 25.3906 11.8052C25.303 11.8695 25.2153 11.9338 25.125 12C25.125 12.0825 25.125 12.165 25.125 12.25C25.3289 12.3995 25.5384 12.5414 25.75 12.6797C26.4283 13.1549 26.8546 13.6699 27.3052 14.3594C27.4016 14.4909 27.4016 14.4909 27.5 14.625C27.5825 14.625 27.665 14.625 27.75 14.625C27.8995 14.4211 28.0414 14.2116 28.1797 14C28.6549 13.3217 29.1699 12.8954 29.8594 12.4448C29.9909 12.3484 29.9909 12.3484 30.125 12.25C30.125 12.1675 30.125 12.085 30.125 12C29.9211 11.8505 29.7116 11.7086 29.5 11.5703C28.8217 11.0951 28.3954 10.5801 27.9448 9.89062C27.8805 9.80297 27.8162 9.71531 27.75 9.625C27.6675 9.625 27.585 9.625 27.5 9.625Z" fill="#025D67"/>
<path d="M16.625 17.375C17.285 17.375 17.945 17.375 18.625 17.375C18.6985 17.7153 18.6985 17.7153 18.7734 18.0625C18.926 18.6808 19.1218 19.1545 19.4893 19.6724C19.625 19.875 19.625 19.875 19.75 20.25C19.9758 20.3874 19.9758 20.3874 20.25 20.5C20.3899 20.5754 20.3899 20.5754 20.5327 20.6523C21.2281 21.0196 21.8506 21.2376 22.625 21.375C22.625 22.035 22.625 22.695 22.625 23.375C22.2847 23.4485 22.2847 23.4485 21.9375 23.5234C21.3192 23.676 20.8455 23.8718 20.3276 24.2393C20.125 24.375 20.125 24.375 19.75 24.5C19.6126 24.7258 19.6126 24.7258 19.5 25C19.4497 25.0933 19.3995 25.1866 19.3477 25.2827C18.9804 25.9781 18.7624 26.6006 18.625 27.375C17.965 27.375 17.305 27.375 16.625 27.375C16.5515 27.0347 16.5515 27.0347 16.4766 26.6875C16.324 26.0692 16.1282 25.5955 15.7607 25.0776C15.625 24.875 15.625 24.875 15.5 24.5C15.2742 24.3626 15.2742 24.3626 15 24.25C14.9067 24.1997 14.8134 24.1495 14.7173 24.0977C14.0219 23.7304 13.3994 23.5124 12.625 23.375C12.625 22.715 12.625 22.055 12.625 21.375C12.8519 21.326 13.0788 21.277 13.3125 21.2266C14.478 20.9307 15.3266 20.3885 16 19.375C16.3024 18.7217 16.484 18.0802 16.625 17.375ZM17.5 20.75C17.3539 20.9628 17.2081 21.1758 17.0635 21.3896C16.8627 21.6404 16.6637 21.7972 16.3984 21.9766C16.267 22.0668 16.1355 22.157 16 22.25C16 22.3325 16 22.415 16 22.5C16.2128 22.6461 16.4258 22.7919 16.6396 22.9365C16.8904 23.1373 17.0472 23.3363 17.2266 23.6016C17.3168 23.733 17.407 23.8645 17.5 24C17.5825 24 17.665 24 17.75 24C17.8961 23.7872 18.0419 23.5742 18.1865 23.3604C18.3873 23.1096 18.5863 22.9528 18.8516 22.7734C18.983 22.6832 19.1145 22.593 19.25 22.5C19.25 22.4175 19.25 22.335 19.25 22.25C19.0372 22.1039 18.8242 21.9581 18.6104 21.8135C18.3596 21.6127 18.2028 21.4137 18.0234 21.1484C17.9332 21.017 17.843 20.8855 17.75 20.75C17.6675 20.75 17.585 20.75 17.5 20.75Z" fill="#025D67"/>
<path d="M45.375 19.125C45.7934 19.3186 46.1558 19.5614 46.5312 19.8281C46.6428 19.9071 46.7543 19.986 46.8691 20.0674C46.9958 20.1578 46.9958 20.1578 47.125 20.25C46.7986 20.8544 46.4532 21.3589 46 21.875C45.3638 21.6762 44.8907 21.2819 44.375 20.875C44.453 20.4049 44.6685 20.1013 44.9453 19.7188C45.0254 19.6072 45.1055 19.4957 45.188 19.3809C45.2806 19.2542 45.2806 19.2542 45.375 19.125Z" fill="#025D67"/>
<path d="M48.375 21.375C48.8278 21.5407 49.2044 21.7429 49.6016 22.0156C49.7003 22.083 49.7991 22.1503 49.9009 22.2197C49.9748 22.271 50.0488 22.3222 50.125 22.375C49.9563 22.8546 49.7403 23.2065 49.4219 23.6016C49.3429 23.7003 49.264 23.7991 49.1826 23.9009C49.1224 23.9748 49.0621 24.0488 49 24.125C48.3956 23.7986 47.8911 23.4532 47.375 23C47.5585 22.6116 47.775 22.2619 48.0156 21.9062C48.083 21.8063 48.1503 21.7064 48.2197 21.6035C48.2966 21.4904 48.2966 21.4904 48.375 21.375Z" fill="#025D67"/>
</g>
<defs>
<clipPath id="clip0_244_745">
<rect width="64" height="64" fill="white"/>
</clipPath>
</defs>
</svg>
