<svg width="175" height="47" viewBox="0 0 175 47" fill="none" xmlns="http://www.w3.org/2000/svg">
<path d="M15.918 43.7559C7.51953 42.1827 1.66016 36.0864 1.66016 27.7287C1.66016 17.9944 9.66797 8.45672 20.3125 4.62199C11.5234 8.65337 5.07812 18.0927 4.98047 27.7287C4.88281 35.7915 9.375 41.7894 15.918 43.7559ZM34.4727 3.34375C42.6758 5.0153 48.4375 11.0132 48.4375 19.2726C48.4375 29.2036 40.0391 39.0362 29.0039 42.6743C38.0859 38.7412 44.9219 29.1053 45.0195 19.1743C45.1172 11.3082 40.8203 5.4086 34.4727 3.34375Z" fill="white"/>
<path d="M21.875 11.7988H28.0273L38.9648 29.3009L33.4961 39.1336H16.3086L10.8398 29.3009L21.875 11.7988Z" fill="white"/>
<path d="M21.875 5.01562H28.0273V9.73529H21.875V5.01562Z" fill="white"/>
<path fill-rule="evenodd" clip-rule="evenodd" d="M76.1719 19.6646C76.1719 16.8131 74.1211 15.2399 71.4844 14.4533C68.75 13.5684 65.5273 13.5684 63.6719 13.5684C60.1562 13.5684 55.6641 14.06 55.6641 14.06C55.6641 14.06 55.6641 15.7315 55.6641 18.878C55.6641 23.4993 55.6641 32.8403 55.6641 32.8403H62.1094V17.1081C62.1094 17.1081 69.8242 16.0265 69.8242 19.7629C69.8242 22.2211 66.5039 22.811 65.0391 22.811C64.0625 23.8926 62.6953 25.4658 62.207 26.0558C63.3789 26.2525 66.3086 26.2525 68.8477 25.7608C74.9023 24.5809 76.1719 21.8278 76.1719 19.6646ZM144.141 23.401C143.164 23.0077 140.332 22.3194 139.941 22.2211C138.477 21.7294 137.402 21.4345 137.402 20.3529C137.402 18.9763 139.844 18.6813 141.602 18.6813C143.457 18.6813 144.727 18.9763 146.387 19.5663C146.777 18.583 147.266 17.5014 147.656 16.5181C145.312 15.8299 143.164 15.6332 140.43 15.7315C138.281 15.7315 132.129 16.5182 131.641 20.3529C131.445 21.6311 132.031 22.6144 132.617 23.106C134.18 24.6792 136.621 25.1709 139.062 25.8592C140.234 26.1541 142.773 26.6458 142.773 28.1207C142.773 29.2023 141.992 29.7922 139.648 29.9889C137.5 30.1855 135.352 29.6939 133.691 29.3006C132.91 30.1855 131.25 32.0537 131.25 32.0537C131.25 32.0537 132.324 32.447 134.766 32.8403C138.867 33.6269 144.434 32.9387 146.68 31.1688C147.559 30.4805 148.633 29.4972 148.633 27.924C148.633 25.3675 146.484 24.1876 144.141 23.401ZM89.4531 15.8299H82.0312L74.2188 32.742H80.0781C80.0781 32.742 80.7617 31.2671 81.3477 29.6939C82.1289 27.629 82.9102 25.2692 82.9102 25.2692L85.4492 18.6813L88.2812 25.6625H84.5703L82.1289 28.514H89.2578L91.2109 32.8403H97.3633C97.3633 32.8403 96.6797 31.4638 95.8008 29.4972C93.457 24.3843 89.4531 15.8299 89.4531 15.8299ZM110.742 19.6646C110.742 19.6646 109.082 23.4993 108.301 25.2692C107.324 27.5307 106.836 29.3006 106.836 29.3006C106.836 29.3006 106.348 27.5307 105.371 25.2692C104.688 23.4993 103.027 19.6646 103.027 19.6646L101.465 15.9282H95.2148L103.223 32.8403H109.961C109.961 32.8403 115.625 21.5328 118.457 15.9282C116.406 15.9282 112.402 15.9282 112.402 15.9282L110.742 19.6646ZM127.148 27.924C127.148 23.8926 127.148 19.8612 127.148 15.8299C125.293 15.8299 123.34 15.8299 121.484 15.8299C121.484 15.8299 121.484 15.8299 121.387 15.8299V32.742C123.242 32.742 125.195 32.742 127.051 32.742C127.148 32.447 127.148 31.8571 127.148 31.4638V27.924ZM171.289 29.3989C169.043 24.4826 165.039 15.9282 165.039 15.9282H157.617L149.805 32.8403H155.664C155.664 32.8403 156.348 31.3654 156.934 29.7922C157.715 27.7274 158.496 25.3675 158.496 25.3675L161.035 18.7797L163.867 25.7608H160.156L157.715 28.6123H164.844L166.797 32.9387H172.949C172.852 32.742 172.168 31.3654 171.289 29.3989Z" fill="white"/>
</svg>
