<svg width="32" height="32" viewBox="0 0 32 32" fill="none" xmlns="http://www.w3.org/2000/svg">
<g clip-path="url(#clip0_346_845)">
<path d="M23.6785 18.386C23.6161 18.356 21.2833 17.2073 20.8687 17.0581C20.6995 16.9973 20.5182 16.938 20.3253 16.938C20.0103 16.938 19.7457 17.0949 19.5396 17.4033C19.3065 17.7497 18.6011 18.5743 18.3831 18.8207C18.3546 18.8532 18.3158 18.892 18.2925 18.892C18.2716 18.892 17.9106 18.7434 17.8013 18.6959C15.2987 17.6088 13.3992 14.9947 13.1387 14.5539C13.1015 14.4905 13.1 14.4617 13.0997 14.4617C13.1088 14.4281 13.193 14.3438 13.2364 14.3002C13.3635 14.1745 13.5011 14.0088 13.6343 13.8485C13.6974 13.7726 13.7606 13.6965 13.8226 13.6248C14.0158 13.4 14.1019 13.2254 14.2016 13.0233L14.2539 12.9182C14.4974 12.4344 14.2894 12.0261 14.2222 11.8942C14.167 11.7839 13.182 9.40653 13.0772 9.15676C12.8254 8.55406 12.4926 8.27344 12.0302 8.27344C11.9873 8.27344 12.0302 8.27344 11.8502 8.28102C11.6311 8.29027 10.4379 8.44736 9.91027 8.77993C9.35079 9.13266 8.4043 10.257 8.4043 12.2344C8.4043 14.014 9.53365 15.6943 10.0185 16.3334C10.0306 16.3495 10.0527 16.3822 10.0848 16.4292C11.9418 19.1411 14.2567 21.1508 16.6034 22.0883C18.8626 22.9907 19.9324 23.095 20.5406 23.095H20.5407C20.7963 23.095 21.0009 23.075 21.1813 23.0572L21.2958 23.0463C22.0763 22.9771 23.7914 22.0884 24.1815 21.0042C24.4889 20.1503 24.5699 19.2173 24.3654 18.8787C24.2254 18.6485 23.984 18.5327 23.6785 18.386Z" fill="white"/>
<path d="M16.284 0C7.61743 0 0.566625 6.99782 0.566625 15.5993C0.566625 18.3813 1.31114 21.1045 2.72153 23.4879L0.0220019 31.451C-0.0282839 31.5995 0.00911872 31.7636 0.118937 31.8754C0.19821 31.9564 0.305742 32 0.41556 32C0.457638 32 0.500028 31.9937 0.541378 31.9805L8.84475 29.3419C11.117 30.5559 13.6851 31.1968 16.2841 31.1968C24.9499 31.1969 32 24.1998 32 15.5993C32 6.99782 24.9499 0 16.284 0ZM16.284 27.9474C13.8384 27.9474 11.4697 27.2412 9.43353 25.9051C9.36507 25.8602 9.28559 25.8371 9.20559 25.8371C9.1633 25.8371 9.12091 25.8435 9.07966 25.8566L4.92018 27.1788L6.26294 23.2174C6.30636 23.0891 6.28465 22.9477 6.20465 22.8384C4.65411 20.7198 3.83447 18.2166 3.83447 15.5993C3.83447 8.78961 9.4193 3.24945 16.2839 3.24945C23.1477 3.24945 28.7319 8.78961 28.7319 15.5993C28.732 22.4081 23.1479 27.9474 16.284 27.9474Z" fill="white"/>
</g>
<defs>
<clipPath id="clip0_346_845">
<rect width="32" height="32" fill="white"/>
</clipPath>
</defs>
</svg>
