<svg width="64" height="64" viewBox="0 0 64 64" fill="none" xmlns="http://www.w3.org/2000/svg">
<path d="M3.48116 1.93767C3.63123 1.93658 3.63123 1.93658 3.78432 1.93547C4.12166 1.93363 4.4589 1.93538 4.79624 1.9371C5.03968 1.93652 5.28312 1.93573 5.52656 1.93473C6.19717 1.93264 6.86774 1.93368 7.53835 1.93523C8.26092 1.93635 8.98349 1.93461 9.70606 1.93324C11.1222 1.93101 12.5384 1.93149 13.9546 1.93294C15.1052 1.93407 16.2557 1.93423 17.4063 1.93368C17.6516 1.93357 17.6516 1.93357 17.9019 1.93345C18.2341 1.93329 18.5662 1.93313 18.8984 1.93296C21.927 1.93153 24.9555 1.93301 27.984 1.93563C30.75 1.93801 33.5159 1.93779 36.2818 1.9354C39.3879 1.93273 42.4939 1.93167 45.6 1.93321C45.9309 1.93337 46.2619 1.93353 46.5929 1.93368C46.8372 1.9338 46.8372 1.9338 47.0864 1.93391C48.2361 1.93435 49.3858 1.93362 50.5355 1.93244C51.9359 1.93104 53.3362 1.93141 54.7366 1.93408C55.4516 1.9354 56.1666 1.9359 56.8816 1.93426C57.5354 1.93277 58.1892 1.93358 58.8431 1.93624C59.0803 1.93681 59.3175 1.93651 59.5547 1.93531C59.8759 1.9338 60.1969 1.93533 60.5181 1.93767C60.6579 1.93591 60.6579 1.93591 60.8005 1.93412C61.2178 1.94022 61.4615 1.97398 61.8071 2.21554C62.0335 2.5507 62.0618 2.72262 62.0611 3.12434C62.0621 3.25074 62.0631 3.37713 62.0642 3.50736C62.0627 3.64598 62.0612 3.7846 62.0597 3.92741C62.0602 4.07485 62.0606 4.22228 62.061 4.37419C62.0617 4.78354 62.0602 5.19282 62.0576 5.60217C62.0555 6.04354 62.0562 6.48491 62.0566 6.92628C62.0569 7.69103 62.0553 8.45576 62.0525 9.22051C62.0484 10.3262 62.0471 11.4319 62.0465 12.5376C62.0454 14.3314 62.0421 16.1253 62.0373 17.9192C62.0327 19.6618 62.0292 21.4045 62.0271 23.1472C62.0269 23.2546 62.0268 23.362 62.0267 23.4726C62.026 24.0114 62.0254 24.5502 62.0248 25.089C62.0196 29.5596 62.0107 34.0301 61.9996 38.5006C61.3396 38.5006 60.6796 38.5006 59.9996 38.5006C59.9377 22.2893 59.9377 22.2893 59.8746 5.75059C58.41 6.93733 58.41 6.93733 57.8954 8.44297C57.9001 8.54439 57.9047 8.6458 57.9094 8.75029C57.9074 8.86358 57.9054 8.97686 57.9033 9.09357C57.8988 9.46693 57.9066 9.83892 57.9145 10.2122C57.9137 10.4822 57.9122 10.7521 57.91 11.0221C57.9062 11.7502 57.913 12.4778 57.9219 13.2058C57.9294 13.9684 57.9269 14.7309 57.9255 15.4935C57.9243 16.9354 57.932 18.3771 57.9429 19.819C57.9549 21.4614 57.957 23.1037 57.9582 24.7461C57.961 28.1227 57.9762 31.4991 57.9996 34.8756C57.3396 34.8756 56.6796 34.8756 55.9996 34.8756C55.9996 26.0068 55.9996 17.1381 55.9996 8.00059C50.3071 8.00059 44.6146 8.00059 38.7496 8.00059C38.7496 7.34059 38.7496 6.68059 38.7496 6.00059C38.9681 6.00291 39.1866 6.00523 39.4117 6.00762C41.4751 6.02838 43.5384 6.03997 45.6019 6.04236C46.6627 6.04383 47.7233 6.04853 48.784 6.06101C49.7092 6.07189 50.6343 6.07653 51.5596 6.07387C52.049 6.07268 52.538 6.07447 53.0274 6.08376C53.4895 6.09244 53.9509 6.09267 54.413 6.08683C54.6606 6.08578 54.9081 6.09332 55.1554 6.10126C56.8115 6.06353 56.8876 5.4876 58.2496 4.12559C40.9246 4.12559 23.5996 4.12559 5.74961 4.12559C7.17098 5.80191 7.17098 5.80191 8.86979 6.11044C8.95545 6.10741 9.04111 6.10438 9.12936 6.10126C9.22851 6.09882 9.32767 6.09638 9.42982 6.09387C9.53243 6.09118 9.63504 6.0885 9.74076 6.08573C9.96023 6.08647 10.1797 6.08798 10.3992 6.0902C10.9896 6.09401 11.5796 6.08717 12.17 6.07827C12.7889 6.0708 13.4078 6.07332 14.0267 6.07473C15.1964 6.07592 16.3658 6.06823 17.5354 6.05729C18.8679 6.04527 20.2004 6.04323 21.533 6.042C24.272 6.03924 27.0108 6.02371 29.7496 6.00059C29.7496 6.66059 29.7496 7.32059 29.7496 8.00059C22.5721 8.00059 15.3946 8.00059 7.99961 8.00059C7.99961 15.3018 7.99961 22.6031 7.99961 30.1256C7.33961 30.1256 6.67961 30.1256 5.99961 30.1256C6.00193 29.846 6.00425 29.5665 6.00664 29.2784C6.02769 26.6411 6.03899 24.0039 6.04139 21.3665C6.04286 20.0106 6.04757 18.6549 6.06004 17.299C6.0709 16.1167 6.07556 14.9345 6.0729 13.7521C6.0717 13.1265 6.07352 12.5012 6.08279 11.8757C6.09143 11.2856 6.09171 10.696 6.08585 10.1059C6.08514 9.8905 6.08736 9.6751 6.09289 9.45982C6.09655 9.3085 6.09655 9.3085 6.10028 9.15413C6.10331 9.06697 6.10634 8.97981 6.10946 8.89001C6.00079 7.12075 5.61138 7.23735 4.12461 5.75059C4.12461 23.0756 4.12461 40.4006 4.12461 58.2506C5.77459 56.8505 5.77459 56.8505 6.10028 55.1564C6.09516 54.9967 6.09003 54.837 6.08476 54.6725C6.0855 54.4974 6.08701 54.3222 6.08922 54.1471C6.09303 53.6774 6.08621 53.2085 6.07729 52.7389C6.0698 52.2461 6.07234 51.7533 6.07376 51.2605C6.07494 50.3299 6.06727 49.3996 6.05632 48.469C6.04427 47.4085 6.04225 46.3481 6.04102 45.2876C6.03827 43.1084 6.02275 40.9296 5.99961 38.7506C6.65961 38.7506 7.31961 38.7506 7.99961 38.7506C7.99961 44.4431 7.99961 50.1356 7.99961 56.0006C23.8396 56.0006 39.6796 56.0006 55.9996 56.0006C55.9996 56.6606 55.9996 57.3206 55.9996 58.0006C55.7513 57.9996 55.5029 57.9986 55.2471 57.9977C49.3491 57.9749 43.4511 57.9615 37.5531 57.959C36.8269 57.9587 36.1006 57.9583 35.3743 57.9579C35.1574 57.9577 35.1574 57.9577 34.9362 57.9576C32.5964 57.956 30.2568 57.9483 27.9171 57.9383C25.5155 57.9281 23.114 57.9247 20.7124 57.9273C19.2309 57.9287 17.7497 57.925 16.2683 57.9146C15.2519 57.908 14.2355 57.9078 13.219 57.9127C12.6328 57.9154 12.047 57.9152 11.4609 57.9073C10.9232 57.9001 10.3862 57.9012 9.84847 57.9085C9.65497 57.9097 9.46141 57.9081 9.26797 57.903C9.17785 57.9009 9.08774 57.8987 8.9949 57.8964C8.91727 57.8936 8.83965 57.8908 8.75967 57.8879C7.09241 58.0063 7.16558 58.4596 5.74961 59.8756C23.1984 59.9168 40.6471 59.9581 58.6246 60.0006C58.6246 60.6606 58.6246 61.3206 58.6246 62.0006C51.4831 62.012 44.3417 62.0208 37.2002 62.0261C36.3577 62.0267 35.5153 62.0274 34.6729 62.028C34.5471 62.0281 34.5471 62.0281 34.4189 62.0282C31.7002 62.0304 28.9815 62.0341 26.2628 62.0387C23.3906 62.0436 20.5184 62.0466 17.6461 62.0476C15.9249 62.0483 14.2036 62.0505 12.4823 62.0545C11.3033 62.0572 10.1242 62.058 8.94508 62.0573C8.26401 62.057 7.58297 62.0575 6.90191 62.0602C6.27905 62.0626 5.65623 62.0628 5.03337 62.061C4.80742 62.0608 4.58146 62.0615 4.35552 62.063C4.04951 62.065 3.74366 62.064 3.43766 62.0621C3.34893 62.0634 3.2602 62.0647 3.16878 62.0661C2.77568 62.0607 2.52953 62.0195 2.19492 61.8081C1.92565 61.3841 1.93058 61.0056 1.93669 60.519C1.9356 60.369 1.9356 60.369 1.93449 60.2159C1.93265 59.8785 1.9344 59.5413 1.93612 59.204C1.93554 58.9605 1.93475 58.7171 1.93376 58.4736C1.93166 57.803 1.9327 57.1325 1.93425 56.4618C1.93538 55.7393 1.93364 55.0167 1.93226 54.2941C1.93003 52.878 1.93052 51.4618 1.93197 50.0456C1.93309 48.895 1.93325 47.7445 1.9327 46.5939C1.93263 46.4303 1.93255 46.2668 1.93247 46.0983C1.93231 45.7661 1.93215 45.434 1.93199 45.1018C1.93055 42.0732 1.93204 39.0447 1.93466 36.0162C1.93703 33.2502 1.93682 30.4843 1.93443 27.7184C1.93175 24.6123 1.9307 21.5063 1.93223 18.4002C1.93239 18.0693 1.93255 17.7383 1.9327 17.4073C1.93278 17.2444 1.93286 17.0816 1.93294 16.9138C1.93337 15.7641 1.93264 14.6144 1.93146 13.4647C1.93006 12.0643 1.93044 10.664 1.9331 9.26356C1.93442 8.54857 1.93493 7.8336 1.93328 7.11861C1.9318 6.46477 1.9326 5.81098 1.93527 5.15714C1.93583 4.91994 1.93554 4.68273 1.93433 4.44552C1.93282 4.12434 1.93436 3.80332 1.93669 3.48214C1.93552 3.38894 1.93435 3.29574 1.93314 3.19972C1.93903 2.79707 1.97682 2.53697 2.1922 2.19317C2.61644 1.9274 2.99582 1.93157 3.48116 1.93767Z" fill="#025D67"/>
<path d="M34.5004 5.9997C34.7289 6.15409 34.7289 6.15409 34.9569 6.36445C35.0866 6.48357 35.0866 6.48357 35.2189 6.60511C35.7332 7.09763 36.2402 7.59659 36.7426 8.10126C36.8503 8.2085 36.958 8.31573 37.069 8.42621C37.1712 8.52861 37.2735 8.63101 37.3788 8.73652C37.4713 8.82914 37.5638 8.92176 37.659 9.01719C38.0083 9.39255 38.0682 9.71195 38.0568 10.2266C37.8594 11.1823 36.6748 11.8979 35.9591 12.4951C31.7222 15.8273 31.7222 15.8273 29.6244 20.5353C29.5719 21.1896 29.5836 21.8367 29.6176 22.4919C29.6251 22.6482 29.6326 22.8045 29.6404 22.9655C29.7363 24.4212 29.8214 25.5965 30.9153 26.6398C31.5036 27.0523 32.0639 27.0217 32.7621 27C32.9094 27 33.0567 27 33.2085 26.9999C33.5267 26.9991 33.8449 26.9958 34.163 26.9901C34.667 26.981 35.1707 26.9787 35.6747 26.9784C36.6535 26.9767 37.6321 26.9668 38.6108 26.9558C39.857 26.9421 41.1031 26.9314 42.3493 26.9295C42.9299 26.9283 43.5103 26.92 44.0908 26.9104C44.3955 26.9089 44.7001 26.9077 45.0048 26.9067C45.2107 26.9011 45.2107 26.9011 45.4207 26.8954C46.067 26.8986 46.5078 26.9331 47.0101 27.3603C47.1763 27.5291 47.3395 27.7008 47.5004 27.8747C47.709 28.0789 47.9181 28.2826 48.1276 28.486C48.3653 28.723 48.6026 28.9603 48.8397 29.1979C48.9714 29.3294 49.1031 29.4609 49.2349 29.5923C49.5897 29.9466 49.9441 30.3012 50.2985 30.656C50.6701 31.0279 51.042 31.3995 51.4138 31.7712C52.0372 32.3944 52.6604 33.0178 53.2834 33.6414C54.004 34.3627 54.7251 35.0835 55.4464 35.8042C56.0665 36.4237 56.6863 37.0435 57.306 37.6634C57.6758 38.0334 58.0456 38.4033 58.4157 38.773C58.7629 39.1198 59.1098 39.4669 59.4564 39.8143C59.5838 39.9419 59.7114 40.0694 59.839 40.1968C60.0128 40.3701 60.186 40.5439 60.3593 40.7178C60.4565 40.815 60.5537 40.9123 60.6539 41.0125C61.0236 41.4085 61.0178 41.6935 61.0292 42.2287C61.0004 42.4997 61.0004 42.4997 60.7504 43.1247C61.7404 44.1147 62.7304 45.1047 63.7504 46.1247C63.5102 46.605 63.3013 46.8502 62.9223 47.2184C62.8201 47.3184 62.7179 47.4183 62.6127 47.5212C62.5344 47.5966 62.4561 47.672 62.3754 47.7497C61.8925 47.5516 61.5893 47.2423 61.225 46.8737C61.1647 46.813 61.1043 46.7523 61.0422 46.6898C60.8506 46.4968 60.6598 46.303 60.4691 46.1091C60.339 45.9777 60.2088 45.8463 60.0785 45.715C59.7601 45.3939 59.4425 45.072 59.1254 44.7497C58.7563 44.9159 58.4974 45.0969 58.2129 45.3838C58.1354 45.4614 58.0578 45.5389 57.9779 45.6188C57.8547 45.744 57.8547 45.744 57.7289 45.8718C57.6436 45.9574 57.5583 46.0431 57.4704 46.1313C57.1986 46.4046 56.9276 46.6787 56.6566 46.9528C56.4723 47.1384 56.2879 47.324 56.1034 47.5095C55.6517 47.9639 55.2009 48.4191 54.7504 48.8747C54.9559 49.4017 55.3458 49.7535 55.7402 50.1429C55.8536 50.2564 55.8536 50.2564 55.9694 50.3722C56.219 50.6217 56.4696 50.8702 56.7201 51.1188C56.8936 51.2918 57.067 51.4649 57.2403 51.638C57.6964 52.0931 58.1532 52.5474 58.6101 53.0016C59.0765 53.4654 59.542 53.9298 60.0077 54.3942C60.9212 55.3051 61.8356 56.2151 62.7504 57.1247C62.5384 57.5788 62.2831 57.8679 61.9223 58.2184C61.8201 58.3184 61.7179 58.4183 61.6127 58.5212C61.5344 58.5966 61.4561 58.672 61.3754 58.7497C60.8484 58.5442 60.4966 58.1543 60.1072 57.7599C60.0315 57.6843 59.9559 57.6086 59.8779 57.5307C59.6284 57.2811 59.3798 57.0305 59.1312 56.78C58.9582 56.6065 58.7852 56.4331 58.6121 56.2598C58.157 55.8037 57.7026 55.3469 57.2484 54.8899C56.7847 54.4236 56.3202 53.958 55.8558 53.4924C54.945 52.5788 54.0349 51.6645 53.1254 50.7497C53.0326 50.7909 52.9398 50.8322 52.8441 50.8747C52.5004 50.9997 52.5004 50.9997 52.0004 50.9997C51.972 51.108 51.9437 51.2163 51.9144 51.3278C51.5789 52.1907 51.0624 52.6301 50.2348 53.0095C49.3549 53.2916 48.5157 53.2666 47.6698 52.8996C46.7984 52.439 46.1533 51.7242 45.4769 51.0231C45.3457 50.8898 45.2142 50.7566 45.0827 50.6235C44.3187 49.8474 43.5631 49.0637 42.8947 48.2025C41.8226 46.8024 41.8226 46.8024 40.3021 46.0124C39.5055 45.9261 38.7309 45.9478 37.9325 45.9924C37.0367 46.0348 36.5116 45.8382 35.8451 45.2541C35.2115 44.4886 34.9604 44.0201 35.0004 42.9997C34.8766 43.01 34.7529 43.0203 34.6254 43.0309C33.9201 43.0253 33.3856 42.7441 32.8764 42.2658C32.2014 41.5251 31.9604 41.0183 32.0004 39.9997C31.8766 40.01 31.7529 40.0203 31.6254 40.0309C30.9201 40.0253 30.3856 39.7441 29.8764 39.2658C29.2014 38.5251 28.9604 38.0183 29.0004 36.9997C28.8766 37.01 28.7529 37.0203 28.6254 37.031C27.9201 37.0253 27.3856 36.7441 26.8764 36.2658C26.0847 35.397 25.9439 34.7273 25.9599 33.5568C26.0354 32.7508 26.402 32.254 26.8754 31.6247C26.1052 30.5521 25.306 29.9702 23.9974 29.7058C23.4413 29.6204 22.8902 29.5751 22.3285 29.5466C22.1819 29.5379 22.0353 29.5292 21.8842 29.5202C19.3396 29.4451 17.8599 30.4145 16.0627 32.1061C14.3422 33.7598 12.7356 35.5442 11.1969 37.3673C10.8076 37.8251 10.6526 37.9787 10.0473 38.0622C9.58572 38.0545 9.38082 37.9458 9.04384 37.635C8.91417 37.5158 8.91417 37.5158 8.78188 37.3943C8.26761 36.9018 7.76054 36.4028 7.25819 35.8981C7.15048 35.7909 7.04276 35.6837 6.93178 35.5732C6.82954 35.4708 6.7273 35.3684 6.62196 35.2629C6.48324 35.124 6.48324 35.124 6.34172 34.9822C5.99226 34.6066 5.93296 34.2871 5.94349 33.7723C6.01244 33.4419 6.12041 33.3077 6.34809 33.0601C6.42815 32.973 6.50821 32.8859 6.5907 32.7961C7.17764 32.185 7.77449 31.5844 8.37462 30.9863C8.52502 30.8359 8.67539 30.6855 8.82574 30.5351C9.23139 30.1294 9.63742 29.7241 10.0435 29.3189C10.4688 28.8944 10.8938 28.4695 11.3187 28.0447C12.1224 27.2414 12.9264 26.4384 13.7305 25.6356C14.6464 24.7211 15.5619 23.8062 16.4775 22.8913C18.3597 21.0104 20.2424 19.1299 22.1254 17.2497C22.5795 17.4617 22.8686 17.717 23.2191 18.0778C23.319 18.18 23.4189 18.2821 23.5219 18.3874C23.5973 18.4657 23.6727 18.544 23.7504 18.6247C23.5553 19.0924 23.2671 19.3888 22.9103 19.7448C22.8499 19.8055 22.7895 19.8661 22.7272 19.9286C22.5247 20.1315 22.3214 20.3335 22.118 20.5355C21.9726 20.6808 21.8272 20.8262 21.6819 20.9716C21.2874 21.3663 20.892 21.7601 20.4966 22.1539C20.0834 22.5655 19.6709 22.9778 19.2584 23.39C18.4771 24.1706 17.6951 24.9504 16.913 25.7301C16.0225 26.6178 15.1328 27.5061 14.2431 28.3945C12.413 30.222 10.582 32.0487 8.75038 33.8747C8.93907 34.2723 9.13531 34.537 9.45351 34.8435C9.57194 34.9585 9.57194 34.9585 9.69276 35.0759C9.75303 35.1332 9.81329 35.1906 9.87538 35.2497C10.2624 35.0774 10.5266 34.8796 10.8254 34.5805C10.913 34.4933 11.0007 34.4062 11.091 34.3164C11.1863 34.2203 11.2816 34.1243 11.3799 34.0253C11.4819 33.9235 11.5839 33.8217 11.689 33.7168C11.9719 33.4342 12.2543 33.1511 12.5364 32.8677C12.8408 32.5622 13.146 32.2574 13.451 31.9525C13.9794 31.4243 14.5074 30.8956 15.035 30.3665C15.7979 29.6016 16.5614 28.8374 17.3251 28.0734C18.5642 26.8338 19.8027 25.5936 21.0408 24.3531C22.2436 23.148 23.4467 21.9432 24.6501 20.7387C24.7243 20.6645 24.7984 20.5902 24.8749 20.5138C25.2469 20.1413 25.619 19.7689 25.9911 19.3965C29.0784 16.3067 32.1647 13.216 35.2504 10.1247C35.0617 9.72709 34.8655 9.46236 34.5473 9.15595C34.4683 9.07925 34.3893 9.00255 34.308 8.92353C34.2176 8.83748 34.2176 8.83748 34.1254 8.7497C33.5984 8.95519 33.2466 9.34514 32.8572 9.73951C32.7815 9.81513 32.7059 9.89076 32.6279 9.96868C32.3784 10.2183 32.1298 10.4689 31.8812 10.7194C31.7083 10.8929 31.5352 11.0663 31.3621 11.2396C30.907 11.6957 30.4526 12.1525 29.9984 12.6095C29.5347 13.0758 29.0702 13.5414 28.6058 14.007C27.695 14.9206 26.7849 15.8349 25.8754 16.7497C25.4213 16.5377 25.1322 16.2824 24.7816 15.9216C24.6817 15.8194 24.5818 15.7173 24.4789 15.612C24.4035 15.5337 24.3281 15.4554 24.2504 15.3747C24.4126 15.0176 24.5839 14.76 24.8609 14.4832C24.9346 14.4091 25.0082 14.335 25.084 14.2586C25.1645 14.1788 25.245 14.0989 25.328 14.0167C25.413 13.9315 25.498 13.8463 25.5855 13.7585C25.8664 13.4771 26.1482 13.1966 26.4301 12.9162C26.6253 12.7211 26.8206 12.5259 27.0157 12.3307C27.4247 11.9219 27.8342 11.5135 28.2439 11.1054C28.77 10.5815 29.2952 10.0567 29.8202 9.53163C30.2232 9.12873 30.6264 8.72615 31.0298 8.32368C31.2237 8.13023 31.4174 7.9367 31.6111 7.7431C31.8814 7.47314 32.152 7.2036 32.4227 6.93418C32.5033 6.85359 32.5838 6.77301 32.6668 6.68998C33.2494 6.11158 33.6557 5.82081 34.5004 5.9997ZM27.3997 21.0834C27.3324 21.151 27.265 21.2186 27.1957 21.2882C27.1249 21.3588 27.0542 21.4293 26.9813 21.5019C26.7463 21.7364 26.5118 21.9713 26.2772 22.2062C26.1149 22.3685 25.9525 22.5308 25.7901 22.693C25.4494 23.0336 25.1088 23.3744 24.7684 23.7154C24.331 24.1535 23.8929 24.5911 23.4548 25.0286C23.1192 25.3637 22.784 25.699 22.4488 26.0345C22.2874 26.196 22.1259 26.3575 21.9642 26.5188C21.7388 26.7439 21.5138 26.9694 21.2889 27.195C21.2213 27.2623 21.1537 27.3297 21.0841 27.3991C20.7671 27.6559 20.7671 27.6559 20.6254 27.9997C23.8204 28.3916 23.8204 28.3916 26.7379 27.3525C27.8311 26.325 28.1045 25.368 28.1601 23.9155C28.1777 22.8146 28.1069 21.7199 28.0004 20.6247C27.7371 20.6247 27.5761 20.9081 27.3997 21.0834ZM28.8754 27.6247C28.4216 28.0785 27.9679 28.5322 27.5004 28.9997C27.904 29.807 28.4214 30.5868 29.2504 30.9997C30.1945 31.1843 31.174 31.094 32.1254 30.9997C31.7078 30.5031 31.2867 30.0223 30.8207 29.57C30.3809 29.1369 29.9712 28.6896 29.5761 28.2155C29.3437 27.9529 29.3437 27.9529 28.8754 27.6247ZM33.3754 28.9997C33.7627 29.8086 34.3365 30.5503 35.1254 30.9997C35.946 31.2324 36.8154 31.1421 37.6566 31.0935C37.8846 31.0859 38.1127 31.0791 38.3407 31.0729C38.8945 31.0566 39.4472 31.0308 40.0004 30.9997C40.0004 31.6597 40.0004 32.3197 40.0004 32.9997C39.6711 32.9977 39.3418 32.9958 39.0025 32.9937C37.9139 32.9875 36.8252 32.9834 35.7366 32.9803C35.0766 32.9783 34.4166 32.9757 33.7567 32.9714C33.1196 32.9673 32.4826 32.9651 31.8455 32.9641C31.6026 32.9634 31.3597 32.9621 31.1168 32.9601C30.7763 32.9573 30.4358 32.957 30.0953 32.9571C29.9951 32.9558 29.895 32.9544 29.7918 32.953C29.1877 32.9564 28.7742 33.0407 28.2504 33.3747C28.0728 33.7298 28.0861 33.9815 28.1254 34.3747C28.4044 34.7307 28.5691 34.8559 29.0004 34.9997C29.383 35.0284 29.7655 35.0473 30.1488 35.0651C30.5004 35.1247 30.5004 35.1247 30.7308 35.2717C30.9337 35.5917 30.9265 35.8497 30.9379 36.2263C30.975 36.8166 31.0144 37.2598 31.3754 37.7497C31.9594 38.0438 32.5152 38.0447 33.1576 38.0695C33.5004 38.1247 33.5004 38.1247 33.7299 38.2712C33.9338 38.5915 33.9265 38.8489 33.9379 39.2263C33.975 39.8166 34.0144 40.2598 34.3754 40.7497C34.9594 41.0438 35.5152 41.0447 36.1576 41.0695C36.5004 41.1247 36.5004 41.1247 36.7299 41.2712C36.9338 41.5915 36.9265 41.8489 36.9379 42.2263C36.975 42.8166 37.0144 43.2598 37.3754 43.7497C37.8942 44.0242 38.3471 44.0291 38.9275 44.0257C39.0187 44.0255 39.1098 44.0254 39.2037 44.0252C39.4009 44.0248 39.5981 44.0239 39.7953 44.0225C40.108 44.0207 40.4207 44.0209 40.7335 44.0217C41.6225 44.0241 42.5114 44.0249 43.4004 44.019C43.945 44.0156 44.4895 44.0164 45.0341 44.0199C45.2409 44.0204 45.4476 44.0194 45.6544 44.0167C47.4726 43.9939 47.4726 43.9939 48.1169 44.5514C48.2492 44.6969 48.3778 44.8459 48.5004 44.9997C48.5958 45.0911 48.6912 45.1824 48.7894 45.2766C48.8591 45.3476 48.9287 45.4187 49.0004 45.4919C49.0726 45.5652 49.1448 45.6385 49.2191 45.7141C49.2965 45.7936 49.2965 45.7936 49.3754 45.8747C49.7619 45.7027 50.0249 45.5057 50.3223 45.2062C50.4073 45.1211 50.4924 45.036 50.58 44.9484C50.7156 44.8109 50.7156 44.8109 50.8539 44.6706C50.9475 44.5766 51.0411 44.4826 51.1376 44.3858C51.4362 44.0858 51.7339 43.785 52.0316 43.4841C52.234 43.2804 52.4365 43.0768 52.639 42.8732C53.1352 42.3744 53.6305 41.8748 54.1254 41.3747C54.5517 41.5754 54.8276 41.8003 55.1566 42.1403C55.2449 42.2309 55.3332 42.3214 55.4242 42.4147C55.4906 42.484 55.557 42.5533 55.6254 42.6247C55.4534 43.0112 55.2564 43.2742 54.9569 43.5716C54.8293 43.6992 54.8293 43.6992 54.6991 43.8293C54.6074 43.9197 54.5157 44.0101 54.4213 44.1032C54.3273 44.1968 54.2333 44.2905 54.1365 44.3869C53.8365 44.6855 53.5356 44.9832 53.2348 45.2809C53.0311 45.4834 52.8275 45.6858 52.6239 45.8884C52.1251 46.3845 51.6255 46.8799 51.1254 47.3747C51.3194 47.7906 51.5387 48.0604 51.8754 48.3747C52.3379 48.181 52.6311 47.8992 52.9829 47.5455C53.0415 47.487 53.1001 47.4284 53.1605 47.3681C53.3532 47.1752 53.5449 46.9815 53.7367 46.7878C53.8705 46.6536 54.0043 46.5194 54.1381 46.3853C54.4897 46.0328 54.8405 45.6796 55.1911 45.3262C55.5493 44.9654 55.9081 44.6054 56.267 44.2453C56.9705 43.5391 57.6732 42.8322 58.3754 42.1247C58.0765 41.4669 57.5932 40.9572 57.1305 40.409C57.0265 40.2858 56.9226 40.1626 56.8155 40.0357C55.4382 38.4121 54.0087 36.8363 52.5551 35.281C52.4506 35.1689 52.4506 35.1689 52.344 35.0545C47.6154 29.9635 47.6154 29.9635 41.1122 28.1171C40.2872 28.103 39.471 28.1444 38.6488 28.2106C38.4475 28.2268 38.4475 28.2268 38.2422 28.2433C36.5975 28.3857 34.985 28.6354 33.3754 28.9997ZM43.8754 45.9997C44.0727 46.4865 44.4055 46.8099 44.7753 47.1696C44.8394 47.2331 44.9036 47.2966 44.9697 47.3621C45.1747 47.5648 45.3804 47.7667 45.5863 47.9684C45.8555 48.233 46.1242 48.4979 46.3925 48.7634C46.457 48.8272 46.5215 48.891 46.588 48.9567C47.0228 49.3898 47.4361 49.8353 47.8318 50.3043C48.1893 50.7187 48.4544 50.9712 49.0004 51.0622C49.4754 50.983 49.6747 50.8533 50.0004 50.4997C50.1896 50.1569 50.1896 50.1569 50.1254 49.7497C49.9742 49.5313 49.9742 49.5313 49.765 49.3142C49.493 49.0163 49.2239 48.7185 48.9628 48.411C47.6109 46.7097 47.6109 46.7097 45.7367 45.821C45.0999 45.7994 44.4988 45.8735 43.8754 45.9997Z" fill="#025D67"/>
<path d="M13.625 37.25C14.1075 37.4485 14.4122 37.7564 14.7783 38.1232C14.8425 38.1873 14.9068 38.2513 14.973 38.3172C15.1879 38.5318 15.402 38.7473 15.6161 38.9627C15.77 39.1167 15.9241 39.2707 16.0781 39.4246C16.4963 39.8427 16.9136 40.2615 17.3308 40.6805C17.767 41.1182 18.2038 41.5552 18.6406 41.9923C19.4676 42.82 20.294 43.6485 21.1201 44.4771C22.0607 45.4205 23.0019 46.3631 23.9432 47.3057C25.8796 49.2447 27.8151 51.1845 29.75 53.125C29.538 53.5791 29.2827 53.8682 28.9219 54.2188C28.7686 54.3686 28.7686 54.3686 28.6123 54.5215C28.534 54.5969 28.4557 54.6723 28.375 54.75C27.8925 54.5515 27.5878 54.2436 27.2217 53.8768C27.1575 53.8127 27.0932 53.7487 27.027 53.6828C26.8121 53.4682 26.598 53.2527 26.3839 53.0373C26.23 52.8833 26.0759 52.7293 25.9219 52.5754C25.5037 52.1573 25.0864 51.7385 24.6692 51.3195C24.233 50.8818 23.7962 50.4448 23.3594 50.0077C22.5324 49.18 21.706 48.3515 20.8799 47.5229C19.9393 46.5795 18.9981 45.6369 18.0568 44.6943C16.1204 42.7553 14.1849 40.8155 12.25 38.875C12.462 38.4209 12.7173 38.1318 13.0781 37.7812C13.1803 37.6813 13.2824 37.5814 13.3877 37.4785C13.5052 37.3654 13.5052 37.3654 13.625 37.25Z" fill="#025D67"/>
<path d="M38.5 12.25C38.9892 12.3183 39.1984 12.5374 39.5312 12.8906C39.887 13.2592 40.2433 13.6126 40.6328 13.9453C41.0694 14.3196 41.4717 14.7193 41.875 15.1289C42.1174 15.3675 42.3671 15.5909 42.625 15.8125C43.0639 16.1897 43.4691 16.5917 43.875 17.0039C44.1174 17.2425 44.3671 17.4659 44.625 17.6875C45.0639 18.0647 45.4691 18.4667 45.875 18.8789C46.1174 19.1175 46.3671 19.3409 46.625 19.5625C47.0639 19.9397 47.4691 20.3417 47.875 20.7539C48.1174 20.9925 48.3671 21.2159 48.625 21.4375C49.0639 21.8147 49.4691 22.2167 49.875 22.6289C50.1174 22.8675 50.3671 23.0909 50.625 23.3125C51.0639 23.6897 51.4691 24.0917 51.875 24.5039C52.1949 24.8188 52.5331 25.1086 52.8735 25.4009C53.2301 25.7186 53.5611 26.0597 53.896 26.3999C54.1646 26.6639 54.4488 26.8991 54.75 27.125C54.5606 27.5597 54.3028 27.8695 53.9844 28.2188C53.8485 28.3686 53.8485 28.3686 53.71 28.5215C53.6407 28.5969 53.5714 28.6723 53.5 28.75C53.0108 28.6817 52.8016 28.4626 52.4688 28.1094C52.113 27.7408 51.7567 27.3874 51.3672 27.0547C50.9306 26.6804 50.5283 26.2807 50.125 25.8711C49.8826 25.6325 49.6329 25.4091 49.375 25.1875C48.9361 24.8103 48.5309 24.4083 48.125 23.9961C47.8826 23.7575 47.6329 23.5341 47.375 23.3125C46.9361 22.9353 46.5309 22.5333 46.125 22.1211C45.8826 21.8825 45.6329 21.6591 45.375 21.4375C44.9361 21.0603 44.5309 20.6583 44.125 20.2461C43.8826 20.0075 43.6329 19.7841 43.375 19.5625C42.9361 19.1853 42.5309 18.7833 42.125 18.3711C41.8826 18.1325 41.6329 17.9091 41.375 17.6875C40.9361 17.3103 40.5309 16.9083 40.125 16.4961C39.8051 16.1812 39.4669 15.8914 39.1265 15.5991C38.7699 15.2814 38.4389 14.9403 38.104 14.6001C37.8354 14.3361 37.5512 14.1009 37.25 13.875C37.4394 13.4403 37.6972 13.1305 38.0156 12.7812C38.1062 12.6813 38.1967 12.5814 38.29 12.4785C38.394 12.3654 38.394 12.3654 38.5 12.25Z" fill="#025D67"/>
<path d="M12.625 43.25C13.147 43.4547 13.4956 43.8372 13.8817 44.2283C13.9562 44.3027 14.0306 44.3771 14.1073 44.4538C14.3527 44.6994 14.5973 44.9459 14.8418 45.1924C15.012 45.363 15.1822 45.5336 15.3525 45.7042C15.8002 46.1528 16.2472 46.6023 16.694 47.0518C17.1502 47.5106 17.6071 47.9686 18.064 48.4268C18.96 49.3255 19.8553 50.225 20.75 51.125C20.538 51.5791 20.2827 51.8682 19.9219 52.2188C19.8197 52.3187 19.7176 52.4186 19.6123 52.5215C19.534 52.5969 19.4557 52.6723 19.375 52.75C18.853 52.5453 18.5044 52.1628 18.1183 51.7717C18.0438 51.6973 17.9694 51.6229 17.8927 51.5462C17.6473 51.3006 17.4027 51.0541 17.1582 50.8076C16.988 50.637 16.8178 50.4664 16.6475 50.2958C16.1998 49.8472 15.7528 49.3977 15.306 48.9482C14.8498 48.4894 14.3929 48.0314 13.936 47.5732C13.04 46.6745 12.1447 45.775 11.25 44.875C11.462 44.4209 11.7173 44.1318 12.0781 43.7812C12.1803 43.6813 12.2824 43.5814 12.3877 43.4785C12.5052 43.3654 12.5052 43.3654 12.625 43.25Z" fill="#025D67"/>
<path d="M44.625 11.25C45.147 11.4547 45.4956 11.8372 45.8817 12.2283C45.9562 12.3027 46.0306 12.3771 46.1073 12.4538C46.3527 12.6994 46.5973 12.9459 46.8418 13.1924C47.012 13.363 47.1822 13.5336 47.3525 13.7042C47.8002 14.1528 48.2472 14.6023 48.694 15.0518C49.1502 15.5106 49.6071 15.9686 50.064 16.4268C50.96 17.3255 51.8553 18.225 52.75 19.125C52.538 19.5791 52.2827 19.8682 51.9219 20.2188C51.8197 20.3187 51.7176 20.4186 51.6123 20.5215C51.534 20.5969 51.4557 20.6723 51.375 20.75C50.853 20.5453 50.5044 20.1628 50.1183 19.7717C50.0438 19.6973 49.9694 19.6229 49.8927 19.5462C49.6473 19.3006 49.4027 19.0541 49.1582 18.8076C48.988 18.637 48.8178 18.4664 48.6475 18.2958C48.1998 17.8472 47.7528 17.3977 47.306 16.9482C46.8498 16.4894 46.3929 16.0314 45.936 15.5732C45.04 14.6745 44.1447 13.775 43.25 12.875C43.462 12.4209 43.7173 12.1318 44.0781 11.7812C44.1803 11.6813 44.2824 11.5814 44.3877 11.4785C44.5052 11.3654 44.5052 11.3654 44.625 11.25Z" fill="#025D67"/>
</svg>
