<svg width="159" height="55" viewBox="0 0 159 55" fill="none" xmlns="http://www.w3.org/2000/svg">
<g clip-path="url(#clip0_244_650)">
<path d="M40.5305 54.9987C39.6054 54.9987 38.796 54.1787 38.796 53.183C38.796 52.1872 39.5476 51.3672 40.5305 51.3672C41.4556 51.3672 42.2651 52.1872 42.2651 53.183C42.2651 54.1787 41.5134 54.9987 40.5305 54.9987ZM40.5305 51.6015C39.7211 51.6015 39.0851 52.3044 39.0851 53.1244C39.0851 54.003 39.7211 54.6473 40.5305 54.6473C41.34 54.6473 41.976 53.9444 41.976 53.1244C41.976 52.3044 41.34 51.6015 40.5305 51.6015Z" fill="white"/>
<path fill-rule="evenodd" clip-rule="evenodd" d="M40.1836 52.4218V53.1247H40.6462C40.8196 53.1247 40.9353 53.0661 40.9931 53.0661C41.0509 53.0075 41.1087 52.8904 41.1087 52.7732C41.1087 52.6561 41.0509 52.5975 40.9931 52.5389C40.9353 52.4804 40.8196 52.4804 40.6462 52.4804H40.1836V52.4218ZM39.9524 52.1875H40.704C40.8196 52.1875 40.9353 52.1875 40.9931 52.1875C41.0509 52.1875 41.1087 52.2461 41.1665 52.2461C41.2244 52.3046 41.2822 52.3632 41.34 52.4218C41.3978 52.4804 41.3978 52.5975 41.3978 52.7147C41.3978 52.8318 41.3978 52.8904 41.34 53.0075C41.2822 53.0661 41.2244 53.1247 41.1665 53.1832C41.2244 53.1832 41.2822 53.2418 41.34 53.3004C41.3978 53.359 41.3978 53.4175 41.3978 53.5347V53.8861C41.3978 53.9447 41.3978 54.0033 41.3978 54.0618C41.3978 54.1204 41.4556 54.1204 41.4556 54.1204V54.179H41.1665C41.1665 54.1204 41.1087 54.0618 41.1087 53.8861V53.6518C41.1087 53.5347 41.0509 53.4175 41.0509 53.4175C40.9931 53.359 40.8775 53.359 40.704 53.359H40.2993V54.2376H40.068V52.1875H39.9524Z" fill="white"/>
<path d="M159 41.002H45.5029V42.0563H159V41.002Z" fill="white"/>
<path d="M49.5502 49.7869C49.8971 50.1384 50.1284 50.5484 50.1862 51.017H49.4924C49.4345 50.6655 49.2611 50.3727 49.0298 50.1969C48.7985 50.0212 48.4516 49.9041 48.0469 49.9041C47.5265 49.9041 47.1218 50.0798 46.7749 50.4898C46.428 50.8412 46.3124 51.427 46.3124 52.247C46.3124 52.8913 46.428 53.4184 46.7171 53.7699C47.0062 54.1799 47.4109 54.3556 47.9891 54.3556C48.5095 54.3556 48.9142 54.1213 49.2033 53.7113C49.3767 53.477 49.4345 53.1842 49.5502 52.8327H50.244C50.1862 53.4184 49.9549 53.887 49.608 54.297C49.2033 54.7656 48.6251 54.9999 47.9313 54.9999C47.2953 54.9999 46.7749 54.8242 46.3702 54.4142C45.792 53.887 45.5607 53.1256 45.5607 52.0713C45.5607 51.2512 45.792 50.6069 46.1967 50.0798C46.6593 49.4941 47.2375 49.2598 48.0469 49.2598C48.6829 49.2598 49.2033 49.4355 49.5502 49.7869Z" fill="white"/>
<path d="M59.1475 49.2598V52.7156C59.1475 53.1256 59.2053 53.477 59.3788 53.7113C59.6101 54.1213 59.957 54.297 60.5352 54.297C61.1712 54.297 61.5759 54.0627 61.8072 53.6527C61.9228 53.4184 61.9806 53.067 61.9806 52.7156V49.2598H62.7323V52.3641C62.7323 53.067 62.6166 53.5942 62.4432 53.9456C62.0963 54.5899 61.4603 54.9413 60.5352 54.9413C59.6101 54.9413 58.9741 54.5899 58.6272 53.9456C58.4537 53.5942 58.3381 53.067 58.3381 52.3641V49.2598H59.1475Z" fill="white"/>
<path d="M66.4328 49.2598H68.6877C69.4393 49.2598 70.0753 49.5526 70.4801 50.0798C70.8848 50.6069 71.0583 51.2512 71.0583 52.0127C71.0583 52.5984 70.9426 53.1842 70.7113 53.6527C70.3066 54.5313 69.6706 54.9413 68.6877 54.9413H66.4328V49.2598ZM68.5143 54.297C68.7455 54.297 68.9768 54.297 69.1503 54.2385C69.4393 54.1213 69.6706 53.9456 69.8441 53.6527C70.0175 53.4184 70.0753 53.1256 70.191 52.7741C70.2488 52.5399 70.2488 52.3641 70.2488 52.1884C70.2488 51.4855 70.1332 50.9584 69.8441 50.5484C69.555 50.1384 69.1503 49.9626 68.5143 49.9626H67.1844V54.3556H68.5143V54.297Z" fill="white"/>
<path d="M76.8406 49.2598H77.7079L79.7315 54.9999H78.9221L78.3439 53.3013H76.1468L75.5108 54.9999H74.7014L76.8406 49.2598ZM78.1126 52.5984L77.2454 50.0798L76.3203 52.5984H78.1126Z" fill="white"/>
<path d="M83.4894 49.2598H85.7444C86.496 49.2598 87.132 49.5526 87.5367 50.0798C87.9414 50.6069 88.1149 51.2512 88.1149 52.0127C88.1149 52.5984 87.9993 53.1842 87.768 53.6527C87.3633 54.5313 86.7273 54.9413 85.7444 54.9413H83.4894V49.2598ZM85.5709 54.297C85.8022 54.297 86.0334 54.297 86.2069 54.2385C86.496 54.1213 86.7273 53.9456 86.9007 53.6527C87.0742 53.4184 87.132 53.1256 87.2476 52.7741C87.3054 52.5399 87.3054 52.3641 87.3054 52.1884C87.3054 51.4855 87.1898 50.9584 86.9007 50.5484C86.6116 50.1384 86.2069 49.9626 85.5709 49.9626H84.2411V54.3556H85.5709V54.297Z" fill="white"/>
<path d="M95.4582 49.2598H97.7131C98.4647 49.2598 99.0429 49.5526 99.5055 50.0798C99.9102 50.6069 100.084 51.2512 100.084 52.0127C100.084 52.5984 99.968 53.1842 99.7367 53.6527C99.332 54.5313 98.696 54.9413 97.7131 54.9413H95.4582V49.2598ZM97.5975 54.297C97.8287 54.297 98.06 54.297 98.2335 54.2385C98.5225 54.1213 98.7538 53.9456 98.9273 53.6527C99.1007 53.4184 99.1585 53.1256 99.2742 52.7741C99.332 52.5399 99.332 52.3641 99.332 52.1884C99.332 51.4855 99.2164 50.9584 98.9273 50.5484C98.6382 50.1384 98.2335 49.9626 97.5975 49.9626H96.2676V54.3556H97.5975V54.297Z" fill="white"/>
<path d="M103.783 49.2598H107.888V49.9626H104.535V51.7198H107.657V52.3641H104.535V54.297H107.946V54.9999H103.783V49.2598Z" fill="white"/>
<path d="M115.347 49.2598H116.446L118.065 54.0627L119.684 49.2598H120.782V54.9999H120.031V51.6027C120.031 51.4855 120.031 51.3098 120.031 51.017C120.031 50.7241 120.031 50.4312 120.031 50.1384L118.412 54.9413H117.66L116.041 50.1384V50.3141C116.041 50.4312 116.041 50.6655 116.041 50.9584C116.041 51.2512 116.041 51.427 116.041 51.6027V54.9999H115.289V49.2598H115.347Z" fill="white"/>
<path d="M124.483 49.2598H128.588V49.9626H125.234V51.7198H128.356V52.3641H125.234V54.297H128.645V54.9999H124.483V49.2598Z" fill="white"/>
<path d="M133.213 54.9413H132.288L134.312 52.0127L132.462 49.2012H133.445L134.89 51.3684L136.278 49.2012H137.203L135.353 52.0127L137.318 54.9413H136.393L134.89 52.5984L133.213 54.9413Z" fill="white"/>
<path d="M140.903 49.2598H141.654V54.9999H140.903V49.2598Z" fill="white"/>
<path d="M149.402 49.7869C149.749 50.1384 149.98 50.5484 150.038 51.017H149.344C149.286 50.6655 149.113 50.3727 148.881 50.1969C148.65 50.0212 148.303 49.9041 147.898 49.9041C147.378 49.9041 146.973 50.0798 146.626 50.4898C146.28 50.8412 146.164 51.427 146.164 52.247C146.164 52.8913 146.28 53.4184 146.569 53.7699C146.858 54.1799 147.262 54.3556 147.841 54.3556C148.361 54.3556 148.766 54.1213 149.055 53.7113C149.228 53.477 149.286 53.1842 149.402 52.8327H150.096C150.038 53.4184 149.806 53.887 149.46 54.297C149.055 54.7656 148.477 54.9999 147.783 54.9999C147.147 54.9999 146.626 54.8242 146.222 54.4142C145.644 53.887 145.412 53.1256 145.412 52.0713C145.412 51.2512 145.644 50.6069 146.048 50.0798C146.511 49.4941 147.089 49.2598 147.898 49.2598C148.534 49.2598 149.055 49.4355 149.402 49.7869Z" fill="white"/>
<path d="M158.48 50.1965C158.827 50.665 159 51.3094 159 52.0122C159 52.8322 158.769 53.4766 158.364 54.0623C157.901 54.7066 157.208 54.9994 156.34 54.9994C155.531 54.9994 154.895 54.7066 154.375 54.1794C153.97 53.6523 153.739 52.9494 153.739 52.1879C153.739 51.4265 153.912 50.8408 154.259 50.3136C154.721 49.6693 155.415 49.3179 156.283 49.3179C157.323 49.2593 158.017 49.5522 158.48 50.1965ZM157.844 53.6523C158.133 53.1837 158.248 52.6565 158.248 52.0708C158.248 51.4265 158.075 50.8993 157.728 50.5479C157.381 50.1379 156.976 49.9622 156.398 49.9622C155.82 49.9622 155.415 50.1379 155.068 50.5479C154.721 50.9579 154.548 51.4851 154.548 52.2465C154.548 52.8322 154.721 53.3594 155.011 53.7694C155.3 54.1794 155.82 54.4137 156.456 54.4137C157.092 54.3551 157.555 54.1209 157.844 53.6523Z" fill="white"/>
<path d="M53.9444 49.2598H54.696V54.9999H53.9444V49.2598Z" fill="white"/>
<path d="M130.207 0.0585938V0.292886C130.033 0.292886 129.86 0.351458 129.802 0.351458C129.687 0.410031 129.571 0.527177 129.571 0.761469C129.571 0.820042 129.571 0.937188 129.571 0.995761C129.571 1.05433 129.629 1.17148 129.629 1.28863L131.016 6.03303L132.057 2.51866L131.595 0.995761C131.537 0.702896 131.363 0.527177 131.19 0.410031C131.074 0.351458 130.959 0.292886 130.727 0.292886V0.0585938H133.329V0.292886C133.098 0.292886 132.924 0.292886 132.809 0.351458C132.693 0.410031 132.577 0.58575 132.577 0.761469C132.577 0.820042 132.577 0.878615 132.577 0.937188C132.577 0.995761 132.635 1.11291 132.693 1.28863L134.081 5.97446L135.295 1.69864C135.353 1.46434 135.411 1.23005 135.411 1.05433C135.411 0.937188 135.411 0.878615 135.411 0.820042C135.411 0.58575 135.353 0.410031 135.179 0.351458C135.064 0.292886 134.948 0.292886 134.775 0.234313V0.0585938H136.683V0.292886C136.509 0.351458 136.393 0.351458 136.278 0.468604C136.104 0.58575 135.989 0.820042 135.931 1.05433L134.948 4.803L134.543 6.26733L133.907 8.55167H133.734L133.329 7.08735L132.231 3.22153L130.727 8.55167H130.554L129.86 5.97446L129.051 3.04581C128.704 1.81578 128.472 1.11291 128.357 0.820042C128.241 0.527177 128.01 0.410031 127.721 0.351458V0.0585938H130.207Z" fill="white"/>
<path d="M138.186 2.81026C138.648 2.22453 139.169 1.99023 139.863 1.99023C140.499 1.99023 141.077 2.2831 141.539 2.81026C142.002 3.39599 142.291 4.21601 142.291 5.27032C142.291 6.32463 142.06 7.14465 141.539 7.73038C141.077 8.25754 140.556 8.55041 139.92 8.55041C139.227 8.55041 138.648 8.25754 138.186 7.61324C137.723 6.96894 137.492 6.20749 137.492 5.21175C137.434 4.21601 137.666 3.39599 138.186 2.81026ZM138.706 7.49609C138.995 7.96467 139.4 8.19897 139.805 8.19897C140.21 8.19897 140.614 7.96467 140.903 7.49609C141.192 7.02751 141.366 6.26606 141.366 5.27032C141.366 4.21601 141.192 3.45456 140.903 2.98597C140.614 2.51739 140.21 2.2831 139.805 2.2831C139.342 2.2831 138.995 2.51739 138.706 2.98597C138.417 3.45456 138.244 4.21601 138.244 5.21175C138.244 6.26606 138.417 6.96893 138.706 7.49609Z" fill="white"/>
<path d="M142.695 8.37662C142.984 8.31805 143.158 8.25947 143.216 8.14233C143.273 8.02518 143.331 7.79089 143.331 7.38088V3.04648C143.331 2.69504 143.273 2.46075 143.216 2.3436C143.158 2.22646 142.984 2.16789 142.695 2.10931V1.93359H144.835C145.297 1.93359 145.644 1.99217 145.933 2.16789C146.511 2.46075 146.743 2.92933 146.743 3.69078C146.743 4.15937 146.627 4.56938 146.396 4.80367C146.164 5.09653 145.817 5.27225 145.413 5.33082L146.974 7.84946C147.089 8.02518 147.147 8.14233 147.263 8.2009C147.379 8.25947 147.494 8.31804 147.61 8.31804V8.49376H146.396L144.488 5.44797H144.141V7.38088C144.141 7.73232 144.199 7.96661 144.256 8.08375C144.314 8.2009 144.545 8.25947 144.835 8.25947V8.43519H142.695V8.37662ZM145.297 4.92081C145.702 4.68652 145.933 4.27651 145.933 3.69078C145.933 3.10505 145.76 2.69504 145.413 2.51932C145.239 2.40218 144.95 2.3436 144.661 2.3436C144.43 2.3436 144.314 2.3436 144.256 2.40218C144.199 2.46075 144.199 2.51932 144.199 2.69504V5.15511C144.661 5.09653 145.066 5.03796 145.297 4.92081Z" fill="white"/>
<path d="M147.783 8.37662C148.072 8.31805 148.246 8.25947 148.304 8.2009C148.361 8.08375 148.419 7.84946 148.419 7.49802V3.04648C148.419 2.69504 148.361 2.46075 148.304 2.3436C148.246 2.22646 148.015 2.16789 147.783 2.16789V1.93359H149.923V2.10931C149.633 2.10931 149.46 2.16789 149.344 2.28503C149.229 2.40218 149.229 2.5779 149.229 2.92933V7.73232C149.229 7.84946 149.229 7.90803 149.287 7.96661C149.287 8.02518 149.402 8.08375 149.46 8.08375C149.518 8.08375 149.576 8.08375 149.633 8.08375C149.691 8.08375 149.807 8.08375 149.98 8.08375C150.674 8.08375 151.137 8.02518 151.368 7.84946C151.599 7.73232 151.831 7.3223 152.062 6.73658H152.235L151.888 8.43519H147.783V8.37662Z" fill="white"/>
<path d="M152.525 8.37662C152.814 8.31805 152.987 8.25947 153.045 8.2009C153.103 8.08375 153.161 7.84946 153.161 7.49802V3.04648C153.161 2.69504 153.103 2.46075 153.045 2.3436C152.987 2.22646 152.756 2.16789 152.525 2.16789V1.93359H154.606C155.3 1.93359 155.878 2.10931 156.341 2.40218C157.208 2.92933 157.613 3.8665 157.613 5.27225C157.613 5.74084 157.555 6.26799 157.381 6.678C157.208 7.14659 156.977 7.49802 156.688 7.79089C156.514 7.96661 156.283 8.14233 156.052 8.25947C155.647 8.43519 155.184 8.55234 154.606 8.55234H152.467V8.37662H152.525ZM154.028 8.08375C154.086 8.14233 154.201 8.14233 154.433 8.14233C155.011 8.14233 155.531 7.96661 155.878 7.67374C156.456 7.20516 156.745 6.38514 156.745 5.27225C156.745 4.27651 156.514 3.45649 155.994 2.98791C155.647 2.51932 155.069 2.3436 154.375 2.3436C154.201 2.3436 154.086 2.3436 154.028 2.40218C153.97 2.46075 153.912 2.5779 153.912 2.69504V7.73232C153.97 7.96661 153.97 8.02518 154.028 8.08375Z" fill="white"/>
<path d="M127.894 12.7676H133.444L133.502 14.9348H133.271C133.155 14.2319 132.982 13.8219 132.808 13.5876C132.635 13.3533 132.23 13.2947 131.71 13.2947H131.189V19.8549C131.189 20.3235 131.247 20.6749 131.363 20.7921C131.479 20.9092 131.768 20.9678 132.115 21.0264V21.2607H129.281V21.0264C129.686 20.9678 129.975 20.9092 130.033 20.7335C130.149 20.6164 130.207 20.2649 130.207 19.6792V13.2947H129.628C129.108 13.2947 128.703 13.4119 128.53 13.5876C128.356 13.7633 128.183 14.2319 128.067 14.9348H127.836L127.894 12.7676Z" fill="white"/>
<path d="M134.139 21.027C134.428 20.9685 134.601 20.9099 134.659 20.7927C134.717 20.6756 134.775 20.4413 134.775 20.0313V15.6969C134.775 15.3455 134.717 15.1112 134.659 14.994C134.601 14.8769 134.428 14.8183 134.139 14.7597V14.6426H136.278C136.74 14.6426 137.087 14.7012 137.376 14.8769C137.955 15.1697 138.186 15.6383 138.186 16.3998C138.186 16.8684 138.07 17.2784 137.839 17.5127C137.608 17.8055 137.261 17.9812 136.856 18.0398L138.417 20.5584C138.533 20.7342 138.591 20.8513 138.706 20.9099C138.822 20.9685 138.938 21.027 139.053 21.027V21.2027H137.839L135.931 18.157H135.584V20.1484C135.584 20.4999 135.642 20.7342 135.7 20.8513C135.758 20.9685 135.989 21.027 136.278 21.027V21.2027H134.139V21.027ZM136.74 17.5712C137.145 17.3369 137.376 16.9269 137.376 16.3412C137.376 15.7555 137.203 15.3455 136.856 15.1697C136.683 15.0526 136.394 14.994 136.104 14.994C135.873 14.994 135.758 14.994 135.7 15.0526C135.642 15.1112 135.642 15.1697 135.642 15.3455V17.8055C136.162 17.8055 136.509 17.6884 136.74 17.5712Z" fill="white"/>
<path d="M139.342 21.203V21.0273C139.515 21.0273 139.689 20.9101 139.804 20.7344C139.92 20.5587 140.093 20.1487 140.325 19.3872L141.886 14.5842H142.059L143.909 20.1487C144.025 20.5001 144.141 20.7344 144.199 20.8515C144.256 20.9101 144.372 20.9687 144.545 21.0273V21.203H142.637V21.0273C142.869 21.0273 142.984 20.9687 143.042 20.9101C143.1 20.8515 143.158 20.793 143.158 20.6172C143.158 20.5587 143.158 20.5001 143.1 20.383C143.1 20.2658 143.042 20.1487 142.984 20.0315L142.695 19.0943H140.729C140.556 19.7386 140.44 20.1487 140.383 20.2658C140.325 20.3829 140.325 20.5001 140.325 20.6172C140.325 20.793 140.383 20.9101 140.498 20.9687C140.556 21.0273 140.672 21.0273 140.845 21.0273V21.203H139.342ZM142.58 18.6843L141.712 15.99L140.845 18.6843H142.58Z" fill="white"/>
<path d="M144.834 21.027C145.123 20.9685 145.297 20.9099 145.355 20.8513C145.412 20.7342 145.47 20.4999 145.47 20.1484V15.6969C145.47 15.3455 145.412 15.1112 145.355 14.994C145.297 14.8769 145.065 14.8183 144.834 14.8183V14.6426H146.916C147.609 14.6426 148.188 14.8183 148.65 15.1112C149.517 15.6383 149.922 16.5755 149.922 17.9812C149.922 18.4498 149.864 18.977 149.691 19.387C149.517 19.8556 149.286 20.207 148.997 20.4999C148.824 20.6756 148.592 20.8513 148.361 20.9685C147.956 21.1442 147.494 21.2613 146.916 21.2613H144.776V21.027H144.834ZM146.337 20.7927C146.395 20.8513 146.511 20.8513 146.742 20.8513C147.32 20.8513 147.841 20.6756 148.188 20.3827C148.766 19.9141 149.055 19.0941 149.055 17.9812C149.055 16.9855 148.824 16.1655 148.303 15.6969C147.899 15.2283 147.32 15.0526 146.627 15.0526C146.453 15.0526 146.337 15.0526 146.28 15.1112C146.222 15.1697 146.164 15.2869 146.164 15.404V20.4999C146.28 20.617 146.28 20.7342 146.337 20.7927Z" fill="white"/>
<path d="M150.27 21.027C150.559 20.9685 150.732 20.9099 150.79 20.8513C150.848 20.7342 150.906 20.4999 150.906 20.1484V15.6969C150.906 15.3455 150.848 15.1112 150.79 14.994C150.732 14.8769 150.501 14.8183 150.27 14.8183V14.6426H154.317V16.0483H154.144C154.086 15.6383 153.97 15.3455 153.854 15.1697C153.739 15.0526 153.45 14.994 152.987 14.994H151.946C151.831 14.994 151.773 14.994 151.715 15.0526C151.715 15.1112 151.657 15.1697 151.657 15.3455V17.5712H152.814C153.161 17.5712 153.334 17.5127 153.45 17.3955C153.565 17.2784 153.623 17.0441 153.681 16.6341H153.854V18.9184H153.681C153.623 18.5084 153.565 18.2741 153.45 18.157C153.334 18.0398 153.161 17.9812 152.814 17.9812H151.657V20.4413C151.657 20.617 151.715 20.7342 151.773 20.7927C151.889 20.8513 152.178 20.8513 152.64 20.8513C153.161 20.8513 153.565 20.7927 153.797 20.617C154.028 20.4413 154.259 20.0899 154.433 19.5627H154.664L154.317 21.2613H150.212V21.027H150.27Z" fill="white"/>
<path d="M132.173 25.7128C132.52 25.8299 132.751 25.8885 132.751 25.8885C132.867 25.8885 132.924 25.8299 132.982 25.7714C133.04 25.7128 133.098 25.5956 133.156 25.4785H133.329L133.445 28.2314H133.213C133.098 27.7043 132.924 27.2357 132.693 26.8842C132.288 26.2399 131.768 25.9471 131.132 25.9471C130.496 25.9471 129.918 26.2985 129.513 26.9428C129.108 27.6457 128.877 28.5829 128.877 29.7543C128.877 30.8672 129.108 31.7458 129.513 32.3901C129.976 33.0344 130.496 33.3858 131.19 33.3858C131.652 33.3858 132.115 33.2101 132.52 32.9173C132.751 32.7415 133.04 32.5072 133.271 32.1558L133.445 32.3901C133.213 32.7415 132.982 33.0344 132.693 33.2687C132.173 33.7373 131.595 33.913 130.959 33.913C129.976 33.913 129.166 33.503 128.53 32.6244C128.01 31.8629 127.721 30.8672 127.721 29.6957C127.721 28.5243 128.01 27.47 128.588 26.7085C129.224 25.8299 129.976 25.4199 130.959 25.4199C131.421 25.4785 131.768 25.5371 132.173 25.7128Z" fill="white"/>
<path d="M134.601 33.7966C134.89 33.738 135.063 33.6794 135.121 33.6208C135.179 33.5037 135.237 33.2694 135.237 32.918V28.4664C135.237 28.115 135.179 27.8807 135.121 27.7635C135.063 27.6464 134.832 27.5878 134.601 27.5878V27.4121H138.648V28.8179H138.475C138.417 28.4079 138.301 28.115 138.185 27.9393C138.07 27.8221 137.781 27.7635 137.318 27.7635H136.277C136.162 27.7635 136.104 27.7635 136.046 27.8221C136.046 27.8807 135.988 27.9393 135.988 28.115V30.3408H137.145C137.492 30.3408 137.665 30.2822 137.781 30.165C137.896 30.0479 137.954 29.8136 138.012 29.4036H138.185V31.6294H138.012C137.954 31.2194 137.896 30.9851 137.781 30.8679C137.665 30.7508 137.492 30.6922 137.145 30.6922H135.988V33.1523C135.988 33.328 136.046 33.4451 136.104 33.5037C136.22 33.5623 136.509 33.5623 136.971 33.5623C137.492 33.5623 137.896 33.5037 138.128 33.328C138.359 33.1523 138.59 32.8008 138.764 32.2737H138.995L138.648 33.9723H134.543V33.7966H134.601Z" fill="white"/>
<path d="M139.284 33.7965C139.573 33.738 139.804 33.6794 139.92 33.5037C140.036 33.3865 140.036 33.0351 140.036 32.5079V28.115L139.92 27.9392C139.804 27.7635 139.689 27.6464 139.631 27.6464C139.573 27.5878 139.457 27.5878 139.284 27.5878V27.4121H140.614L143.563 32.1565V28.8178C143.563 28.2907 143.505 27.9392 143.389 27.7635C143.331 27.6464 143.1 27.5878 142.869 27.5292V27.3535H144.661V27.5292C144.372 27.5878 144.199 27.6464 144.083 27.8221C143.967 27.9392 143.909 28.2907 143.909 28.8178V34.0308H143.794L140.44 28.5835V32.4494C140.44 32.9765 140.498 33.328 140.614 33.5037C140.672 33.6208 140.845 33.6794 141.134 33.738V33.9723H139.342V33.7965H139.284Z" fill="white"/>
<path d="M144.834 27.3535H149.171L149.228 29.0521H149.055C148.939 28.525 148.824 28.1735 148.708 27.9978C148.592 27.8221 148.303 27.7635 147.841 27.7635H147.436V32.8594C147.436 33.2694 147.494 33.5037 147.552 33.5622C147.667 33.6794 147.841 33.738 148.13 33.738V33.9723H145.875V33.7965C146.222 33.738 146.395 33.6794 146.453 33.5622C146.511 33.4451 146.569 33.2108 146.569 32.7422V27.7635H146.164C145.759 27.7635 145.47 27.8221 145.297 27.9978C145.123 28.1735 145.008 28.525 144.95 29.0521H144.776L144.834 27.3535Z" fill="white"/>
<path d="M149.46 33.7966C149.749 33.738 149.923 33.6794 149.98 33.6208C150.038 33.5037 150.096 33.2694 150.096 32.918V28.4664C150.096 28.115 150.038 27.8807 149.98 27.7635C149.923 27.6464 149.691 27.5878 149.46 27.5878V27.4121H153.507V28.8179H153.334C153.276 28.4079 153.16 28.115 153.045 27.9393C152.929 27.8221 152.64 27.7635 152.177 27.7635H151.137C151.021 27.7635 150.963 27.7635 150.905 27.8221C150.905 27.8807 150.848 27.9393 150.848 28.115V30.3408H152.004C152.351 30.3408 152.524 30.2822 152.64 30.165C152.756 30.0479 152.813 29.8136 152.871 29.4036H153.045V31.6294H152.871C152.813 31.2194 152.756 30.9851 152.64 30.8679C152.524 30.7508 152.351 30.6922 152.004 30.6922H150.848V33.1523C150.848 33.328 150.905 33.4451 150.963 33.5037C151.079 33.5623 151.368 33.5623 151.831 33.5623C152.351 33.5623 152.756 33.5037 152.987 33.328C153.218 33.1523 153.449 32.8008 153.623 32.2737H153.854L153.507 33.9723H149.402V33.7966H149.46Z" fill="white"/>
<path d="M154.086 33.7965C154.375 33.738 154.548 33.6794 154.606 33.5622C154.664 33.4451 154.722 33.2108 154.722 32.8008V28.4664C154.722 28.115 154.664 27.8807 154.606 27.7635C154.548 27.6464 154.375 27.5878 154.086 27.5292V27.3535H156.225C156.688 27.3535 157.035 27.4121 157.324 27.5878C157.902 27.8807 158.133 28.3493 158.133 29.1107C158.133 29.5793 158.018 29.9893 157.786 30.2236C157.555 30.5165 157.208 30.6922 156.803 30.7507L158.364 33.2694C158.48 33.4451 158.538 33.5622 158.654 33.6208C158.769 33.6794 158.885 33.738 159 33.738V33.9723H157.786L155.878 30.9265H155.531V32.9179C155.531 33.2694 155.589 33.5037 155.647 33.6208C155.705 33.738 155.936 33.7965 156.225 33.7965V33.9723H154.086V33.7965ZM156.688 30.3407C157.092 30.1064 157.324 29.6964 157.324 29.1107C157.324 28.525 157.15 28.115 156.803 27.9392C156.63 27.8221 156.341 27.7635 156.052 27.7635C155.82 27.7635 155.705 27.7635 155.647 27.8221C155.589 27.8807 155.589 27.9392 155.589 28.115V30.575C156.052 30.5165 156.456 30.4579 156.688 30.3407Z" fill="white"/>
<path fill-rule="evenodd" clip-rule="evenodd" d="M19.3113 13.1203L19.8895 2.51864L20.4098 13.0032C24.8618 13.1789 26.076 16.5176 26.3651 17.9819L30.0655 16.459L36.1364 21.672V0H0V54.9414H0.346909L0.636 53.5942L1.61891 53.36L1.32982 54.7071L0.346909 54.9414H3.35345L3.64255 54.8829V54.9414H4.27855L4.33636 54.7071L6.18655 54.2971L6.07091 54.8829H6.70691L6.82255 54.1214L8.61491 53.7114L8.44146 54.8829H9.07746L9.25091 53.5942L10.9855 53.2428L10.812 54.6486L9.71346 54.8829H12.72L13.0669 54.8243V54.8829H13.7029V54.6486L15.4375 54.2385L15.3796 54.8243H16.0156L16.0735 54.0628L17.808 53.6528L17.7502 54.7657H18.5018L18.5596 53.4771L20.352 53.0671L20.2942 54.5314L19.4269 54.7071H23.1851V54.59L24.9196 54.2385V54.7071H25.5556V54.1214L27.348 53.77V54.7071H27.984V53.8871L29.7185 53.5357L29.7764 54.9414H30.4124L30.3545 53.36L32.1469 53.0085L32.2625 54.9414H36.1942V23.2535L30.2967 18.1576L6.24436 27.4121L6.53346 26.1235L26.1338 18.1576C25.44 17.279 23.6476 15.8147 20.0051 16.2833C14.628 16.9862 13.0669 22.082 13.0669 22.082C13.0669 22.082 11.6793 14.2332 19.3113 13.1203ZM25.44 43.8126L27.0589 43.4026L27.1167 44.9254L25.44 45.2769V43.8126ZM25.44 45.9798L27.0589 45.6283L27.1167 46.9755L25.44 47.3855V45.9798ZM25.4978 47.9712L27.1745 47.5612L27.2324 49.0841L25.4978 49.4356V47.9712ZM25.4978 50.1384L27.2324 49.787L27.2902 51.1928L25.5556 51.6028L25.4978 50.1384ZM25.5556 53.7114V52.1299L27.2902 51.7199L27.348 53.3014L25.5556 53.7114ZM27.6371 41.1768L29.3138 40.7668L29.3716 42.2311L27.6949 42.6411L27.6371 41.1768ZM27.6949 43.2854L29.3716 42.8754L29.4295 44.3983L27.7527 44.8083L27.6949 43.2854ZM27.7527 45.4526L29.4295 45.0426L29.4873 46.3898L27.7527 46.7998V45.4526ZM27.8105 47.4441L29.5451 47.0341L29.6029 48.557L27.8684 48.9084L27.8105 47.4441ZM27.8684 49.6113L29.6029 49.2598L29.6607 50.6656L27.9262 51.017L27.8684 49.6113ZM27.984 53.2428L27.9262 51.6613L29.6607 51.3099L29.7185 52.9499L27.984 53.2428ZM32.0891 52.4228L30.3545 52.7742L30.2967 51.1342L32.0313 50.7827L32.0891 52.4228ZM31.9735 50.1384L30.2967 50.4899L30.2389 49.0841L31.9156 48.7327L31.9735 50.1384ZM31.8578 48.0884L30.1811 48.4398L30.1233 46.9169L31.7422 46.5655L31.8578 48.0884ZM31.7422 45.8626L30.1233 46.2726L30.0655 44.9254L31.6265 44.574L31.7422 45.8626ZM31.6265 43.8711L30.0655 44.2226L30.0076 42.6997L31.5109 42.3482L31.6265 43.8711ZM31.5109 41.7039L30.0076 42.0554L29.9498 40.5911L31.3953 40.2396L31.5109 41.7039ZM31.3953 39.5367L29.9498 39.8882L29.892 38.4239L31.3375 38.0724L31.3953 39.5367ZM31.2796 37.4281L29.892 37.7796L29.8342 36.3738L31.2218 36.0224L31.2796 37.4281ZM31.164 35.3781L29.7764 35.7295L29.7185 34.2066L31.0484 33.7966L31.164 35.3781ZM30.9905 33.1523L29.6607 33.5037L29.6029 32.1565L30.8749 31.8051L30.9905 33.1523ZM30.9327 31.1022L29.6607 31.4537L29.6029 29.8722L30.8171 29.4622L30.9327 31.1022ZM30.7593 28.8179L29.5451 29.1693L29.4873 27.6464L30.6436 27.2364L30.7593 28.8179ZM30.6436 26.5921L29.4873 27.0021V25.3621L30.5858 24.9521L30.6436 26.5921ZM30.528 24.2492L29.4295 24.6592L29.3716 23.1949L30.4124 22.7849L30.528 24.2492ZM30.4124 22.1406L29.3716 22.5506L29.3138 21.1448L30.3545 20.7348L30.4124 22.1406ZM30.2389 18.8019L30.2967 20.0905L29.3138 20.5005L29.256 19.2119L30.2389 18.8019ZM29.3138 40.0639L27.6371 40.4739L27.5793 39.0096L29.256 38.541L29.3138 40.0639ZM29.1982 37.9553L27.5215 38.4239L27.4636 37.0181L29.1404 36.5495L29.1982 37.9553ZM29.1404 35.9052L27.4636 36.3152L27.4058 34.7923L29.0825 34.3237L29.1404 35.9052ZM29.0825 33.6794L27.4058 34.148V32.8008L29.0825 32.3323V33.6794ZM29.0247 31.688L27.348 32.1565L27.2902 30.5751L28.9091 30.0479L29.0247 31.688ZM28.9669 29.4036L27.348 29.9308L27.2902 28.4079L28.9091 27.8807L28.9669 29.4036ZM28.9091 27.1778L27.2902 27.705L27.2324 26.1235L28.8513 25.5378L28.9091 27.1778ZM28.7935 24.8935L27.1745 25.4792V24.0735L28.7935 23.4878V24.8935ZM28.7356 22.7849L27.1167 23.3706L27.0589 22.0234L28.6778 21.3791L28.7356 22.7849ZM28.62 19.4462L28.6778 20.7348L27.0589 21.3791L27.0011 20.0905L28.62 19.4462ZM27.0589 42.7583L25.44 43.1683V41.7625L27.0011 41.3525L27.0589 42.7583ZM27.0011 40.7082L25.44 41.0596V39.5953L26.9433 39.1853L27.0011 40.7082ZM26.9433 38.541L25.44 38.951V37.5453L26.9433 37.1353V38.541ZM26.8855 36.4909L25.3822 36.901V35.4366L26.8276 35.0266L26.8855 36.4909ZM26.7698 34.3237L25.3244 34.7338V33.3866L26.712 32.9766L26.7698 34.3237ZM26.7698 32.3323L25.3822 32.7423V31.2194L26.712 30.8094L26.7698 32.3323ZM26.6542 30.1065L25.3244 30.5165V29.0522L26.6542 28.6422V30.1065ZM26.5964 27.9393L25.3244 28.3493V26.8264L26.5964 26.3578V27.9393ZM26.5385 25.7135L25.2665 26.1821V24.7764L26.4807 24.3078L26.5385 25.7135ZM26.4807 23.6049L25.2665 24.0735V22.7263L26.4807 22.2577V23.6049ZM26.4229 20.2662L26.4807 21.5548L25.3244 22.0234V20.7348L26.4229 20.2662ZM23.6476 21.3791L24.6305 20.9691V22.2577L23.5898 22.6677L23.6476 21.3791ZM23.5898 23.3706L24.6305 22.9606V24.3078L23.5898 24.7178V23.3706ZM23.5898 25.4207L24.6884 25.0106V26.4164L23.5898 26.8264V25.4207ZM23.532 27.5293L24.6884 27.1193V28.6422L23.532 29.0522V27.5293ZM23.532 29.6379L24.6884 29.2279V30.6922L23.4742 31.1022L23.532 29.6379ZM23.4742 31.8051L24.6884 31.3951V32.918L23.4164 33.2694L23.4742 31.8051ZM23.4742 33.9723L24.7462 33.6209V34.9681L23.4164 35.3195L23.4742 33.9723ZM23.4164 35.9638L24.7462 35.6124V37.0767L23.4164 37.4281V35.9638ZM23.4164 38.131L24.804 37.7796V39.1853L23.4164 39.5367V38.131ZM23.3585 40.181L24.7462 39.8296V41.2939L23.3585 41.5868V40.181ZM23.3585 42.2897L24.804 41.9382V43.344L23.3007 43.6954L23.3585 42.2897ZM23.3007 44.3397L24.804 43.9883V45.4526L23.2429 45.804L23.3007 44.3397ZM23.3007 46.4483L24.8618 46.0969V47.4441L23.3007 47.7955V46.4483ZM23.2429 48.4984L24.8618 48.147V49.6699L23.2429 50.0213V48.4984ZM23.2429 50.607L24.8618 50.2556V51.6613L23.1851 52.0128L23.2429 50.607ZM23.1851 52.6571L24.8618 52.3056V53.8285L23.1273 54.18L23.1851 52.6571ZM5.66618 30.3408L6.53346 29.9893L6.24436 31.278L5.37709 31.5708L5.66618 30.3408ZM16.8251 33.9137L16.7673 35.2609L15.3796 35.6709L15.4953 34.3237L16.8251 33.9137ZM15.5531 33.6209L15.6687 32.2737L16.9407 31.8637L16.8251 33.2109L15.5531 33.6209ZM16.7095 35.9638L16.6516 37.311L15.264 37.721L15.3796 36.3738L16.7095 35.9638ZM16.5938 37.9553L16.4782 39.3024L15.0327 39.7125L15.1484 38.3653L16.5938 37.9553ZM14.8593 41.7625L14.9749 40.4153L16.4204 40.0053L16.3047 41.3525L14.8593 41.7625ZM16.3047 42.0554L16.1891 43.4026L14.6858 43.8126L14.8015 42.4654L16.3047 42.0554ZM15.0905 31.8051L13.9342 32.2151L14.0498 30.9851L15.2062 30.5751L15.0905 31.8051ZM15.0327 32.508L14.9171 33.8552L13.7029 34.2066L13.8185 32.918L15.0327 32.508ZM14.8593 34.558L14.7436 35.9052L13.4716 36.2567L13.6451 34.9095L14.8593 34.558ZM14.6858 36.5495L14.5702 37.8967L13.2982 38.2481L13.4138 36.901L14.6858 36.5495ZM3.29564 48.557L3.58473 47.2684L5.20364 46.8584L4.97236 48.147L3.29564 48.557ZM4.79891 48.8498L4.56764 50.0799L2.89091 50.4899L3.12218 49.2598L4.79891 48.8498ZM3.70036 46.6241L3.93164 45.394L5.55055 44.984L5.31927 46.2726L3.70036 46.6241ZM4.10509 44.6326L4.39418 43.2854L5.95527 42.8754L5.724 44.2226L4.10509 44.6326ZM10.7542 37.721L10.5807 39.0096L9.13527 39.4196L9.36655 38.131L10.7542 37.721ZM9.42436 37.4281L9.59782 36.1981L10.9855 35.7295L10.812 37.0181L9.42436 37.4281ZM10.4651 39.7125L10.2916 41.0011L8.78836 41.4111L8.96182 40.1225L10.4651 39.7125ZM10.2338 41.7039L10.0604 43.0511L8.49927 43.4611L8.73055 42.1139L10.2338 41.7039ZM8.73055 37.6624L7.45855 38.0138L7.68982 36.7838L8.904 36.3738L8.73055 37.6624ZM8.61491 38.3653L8.38364 39.6539L7.05382 40.0639L7.28509 38.7167L8.61491 38.3653ZM8.32582 40.3568L8.15236 41.5868L6.76473 41.9968L6.996 40.7668L8.32582 40.3568ZM7.16946 36.3152L5.724 36.7838L5.95527 35.6124L7.34291 35.1438L7.16946 36.3152ZM6.996 37.0181L6.76473 38.2481L5.31927 38.6581L5.55055 37.4867L6.996 37.0181ZM6.64909 38.951L6.41782 40.2396L4.91455 40.6496L5.20364 39.361L6.64909 38.951ZM6.30218 40.9425L6.07091 42.1725L4.50982 42.5825L4.74109 41.3525L6.30218 40.9425ZM5.83964 46.7412L7.40073 46.3312L7.22727 47.6198L5.60836 48.0298L5.83964 46.7412ZM5.95527 46.0383L6.18655 44.7497L7.68982 44.3397L7.51636 45.6283L5.95527 46.0383ZM6.36 44.0469L6.59127 42.6997L8.03673 42.2897L7.80546 43.6368L6.36 44.0469ZM8.09455 46.1555L9.71346 45.7455L9.54 47.0341L7.86327 47.4441L8.09455 46.1555ZM8.21018 45.4526L8.38364 44.164L9.94473 43.754L9.77127 45.0426L8.21018 45.4526ZM10.0604 47.5612L11.6215 47.1512L11.5058 48.4984L9.88691 48.8498L10.0604 47.5612ZM10.176 46.9169L10.3495 45.6283L11.8527 45.2183L11.7371 46.5655L10.176 46.9169ZM10.4651 44.8669L10.6385 43.5783L12.084 43.1683L11.9684 44.5154L10.4651 44.8669ZM10.6964 42.8754L10.8698 41.5282L12.3153 41.1182L12.1418 42.524L10.6964 42.8754ZM10.9855 40.8253L11.1589 39.5367L12.5465 39.1267L12.4309 40.4153L10.9855 40.8253ZM11.2167 38.8339L11.3902 37.4867L12.72 37.0767L12.6044 38.4239L11.2167 38.8339ZM12.5465 45.0426L13.992 44.6912L13.8764 45.9798L12.3731 46.3312L12.5465 45.0426ZM12.6044 44.3397L12.7778 42.9925L14.1655 42.6411L14.0498 43.9883L12.6044 44.3397ZM12.8356 42.3482L13.0091 41.0011L14.3389 40.6496L14.2233 41.9968L12.8356 42.3482ZM13.0669 40.2396L13.1825 38.8924L14.5124 38.541L14.3967 39.8882L13.0669 40.2396ZM13.2404 32.4494L12.0262 32.8594L12.1996 31.688L13.4138 31.278L13.2404 32.4494ZM13.1825 33.1523L13.0669 34.4409L11.7949 34.8509L11.9684 33.5623L13.1825 33.1523ZM12.9513 35.1438L12.8356 36.4324L11.5058 36.8424L11.6793 35.5538L12.9513 35.1438ZM11.3902 33.0351L10.0604 33.5037L10.2338 32.3908L11.5636 31.9223L11.3902 33.0351ZM11.2745 33.7966L11.1011 35.0852L9.71346 35.4952L9.88691 34.2652L11.2745 33.7966ZM9.65564 31.9223L8.55709 32.3323L8.78836 31.0437L9.82909 30.6337L9.65564 31.9223ZM9.54 32.6251L9.36655 33.738L8.21018 34.148L8.44146 33.0351L9.54 32.6251ZM9.25091 34.4409L9.07746 35.6709L7.86327 36.0809L8.09455 34.8509L9.25091 34.4409ZM7.86327 32.5666L6.53346 33.0351L6.82255 31.7465L8.15236 31.2194L7.86327 32.5666ZM7.68982 33.2694L7.51636 34.3823L6.12873 34.8509L6.36 33.7966L7.68982 33.2694ZM5.20364 32.3323L6.07091 32.0394L5.78182 33.2694L4.91455 33.5623L5.20364 32.3323ZM4.79891 34.3823L5.66618 34.0895L5.43491 35.0852L4.56764 35.3781L4.79891 34.3823ZM4.39418 36.0809L5.26146 35.7881L5.03018 36.9595L4.16291 37.2524L4.39418 36.0809ZM3.98945 37.9553L4.85673 37.6624L4.62545 38.8339L3.75818 39.0682L3.98945 37.9553ZM3.58473 39.8296L4.452 39.5953L4.16291 40.8839L3.23782 41.1182L3.58473 39.8296ZM3.18 41.8211L4.04727 41.5868L3.816 42.7583L2.89091 42.9925L3.18 41.8211ZM2.77527 43.754L3.70036 43.5197L3.41127 44.8669L2.48618 45.1012L2.77527 43.754ZM2.31273 45.804L3.23782 45.5698L3.00655 46.7998L2.08145 47.0341L2.31273 45.804ZM1.908 47.737L2.83309 47.5027L2.544 48.7327L1.61891 48.967L1.908 47.737ZM1.50327 49.6699L2.42836 49.4356L2.19709 50.6656L1.21418 50.8999L1.50327 49.6699ZM0.809455 52.9499L1.09855 51.5442L2.08145 51.3099L1.73455 52.7157L0.809455 52.9499ZM3.816 54.2385L2.02364 54.6486L2.31273 53.2428L4.04727 52.8328L3.816 54.2385ZM4.16291 52.1885L2.42836 52.5985L2.71745 51.1928L4.452 50.7827L4.16291 52.1885ZM6.24436 53.6528L4.452 54.0628L4.74109 52.7157L6.47564 52.3056L6.24436 53.6528ZM6.59127 51.6028L4.85673 52.0128L5.088 50.607L6.76473 50.197L6.59127 51.6028ZM5.26146 49.9627L5.49273 48.7327L7.11164 48.3227L6.93818 49.6113L5.26146 49.9627ZM8.73055 53.1257L6.93818 53.5357L7.16946 52.1885L8.904 51.7785L8.73055 53.1257ZM8.96182 51.0756L7.22727 51.4856L7.45855 50.1384L9.13527 49.7284L8.96182 51.0756ZM9.25091 49.0256L7.57418 49.4356L7.74764 48.147L9.42436 47.737L9.25091 49.0256ZM11.0433 52.6571L9.36655 53.0085L9.54 51.6028L11.2167 51.2513L11.0433 52.6571ZM11.2745 50.5485L9.65564 50.9585L9.82909 49.6113L11.448 49.2598L11.2745 50.5485ZM13.1825 54.2385L11.5058 54.59L11.6793 53.1842L13.2982 52.8328L13.1825 54.2385ZM13.356 52.1299L11.7371 52.4814L11.9105 51.0756L13.5295 50.7242L13.356 52.1299ZM13.5295 50.0213L11.9684 50.3727L12.1418 49.0256L13.7029 48.6741L13.5295 50.0213ZM13.7029 48.0298L12.1418 48.3813L12.3153 47.0341L13.8185 46.6826L13.7029 48.0298ZM15.5531 53.7114L13.8185 54.1214L13.9342 52.7157L15.6687 52.3642L15.5531 53.7114ZM15.6687 51.6028L13.992 51.9542L14.1076 50.5485L15.7844 50.1384L15.6687 51.6028ZM15.8422 49.4941L14.1655 49.8456L14.2811 48.4984L15.9 48.147L15.8422 49.4941ZM15.9578 47.5027L14.3389 47.8541L14.4545 46.5069L16.0156 46.0969L15.9578 47.5027ZM16.0735 45.4526L14.5124 45.8626L14.628 44.5154L16.1891 44.1054L16.0735 45.4526ZM17.9236 53.1842L16.1891 53.5357L16.3047 52.1299L17.9815 51.7785L17.9236 53.1842ZM18.0393 51.1342L16.3625 51.4856L16.4782 50.0213L18.1549 49.6699L18.0393 51.1342ZM18.0971 48.967L16.4782 49.3184L16.5938 47.9712L18.2127 47.6198L18.0971 48.967ZM18.2127 46.9755L16.5938 47.3269L16.7095 45.9212L18.2705 45.5112L18.2127 46.9755ZM18.3284 44.9254L16.7673 45.3355L16.8829 43.9883L18.444 43.5783L18.3284 44.9254ZM18.3862 42.8754L16.8829 43.2854L16.9985 41.9382L18.5018 41.5282L18.3862 42.8754ZM18.5018 40.8253L16.9985 41.2354L17.1142 39.8882L18.5596 39.4782L18.5018 40.8253ZM18.7331 35.3781L18.6753 36.7252L17.2876 37.1353L17.3455 35.7881L18.7331 35.3781ZM17.4033 35.0852L17.5189 33.6794L18.8487 33.2694L18.7909 34.6752L17.4033 35.0852ZM18.6175 37.3695L18.5596 38.7753L17.1142 39.1853L17.2298 37.8381L18.6175 37.3695ZM20.352 52.6571L18.5596 53.0671L18.6175 51.6613L20.352 51.2513V52.6571ZM20.4098 50.607L18.6753 51.017L18.7331 49.5527L20.4676 49.1427L20.4098 50.607ZM20.4676 48.4398L18.7909 48.8498L18.8487 47.5027L20.5255 47.0927L20.4676 48.4398ZM20.5255 46.4483L18.8487 46.8584L18.9065 45.4526L20.5255 45.0426V46.4483ZM20.5833 44.3397L18.9644 44.7497L19.0222 43.344L20.5833 42.934V44.3397ZM20.5833 42.2897L19.0222 42.6997L19.08 41.2939L20.6411 40.8839L20.5833 42.2897ZM20.6411 40.2396L19.1378 40.6496L19.1956 39.2439L20.6989 38.8339L20.6411 40.2396ZM20.6989 38.1896L19.1956 38.5996L19.2535 37.1938L20.6989 36.7838V38.1896ZM22.5491 54.3557L20.9302 54.7071L20.988 53.2428L22.5491 52.8914V54.3557ZM22.5491 52.1885L20.988 52.5399L21.0458 51.1342L22.6069 50.7827L22.5491 52.1885ZM21.6818 22.1406L22.9538 21.6134V22.902L21.6818 23.4292V22.1406ZM21.6818 24.1321L23.0116 23.6049V24.9521L21.6818 25.4207V24.1321ZM21.624 26.1235L22.9538 25.5964V27.0021L21.5662 27.5293L21.624 26.1235ZM21.5662 28.2322L22.896 27.7636V29.2279L21.5662 29.6965V28.2322ZM21.5084 30.3408L22.896 29.8722V31.3365L21.5084 31.7465V30.3408ZM21.4505 32.4494L22.8382 32.0394V33.5623L21.4505 33.9723V32.4494ZM21.3927 34.558L22.7804 34.148V35.4952L21.3927 35.9052V34.558ZM21.3927 36.6081L22.8382 36.1981V37.6624L21.3927 38.0724V36.6081ZM21.3349 38.6581L22.7804 38.2481V39.6539L21.3349 40.0639V38.6581ZM21.2771 40.7082L22.7225 40.2982V41.7039L21.2771 42.0554V40.7082ZM21.2193 42.8168L22.7225 42.4654V43.8711L21.2193 44.2226V42.8168ZM21.1615 44.8669L22.6647 44.5154V45.9798L21.1615 46.2726V44.8669ZM21.1036 46.9755L22.6069 46.6241V47.9712L21.1036 48.3227V46.9755ZM22.6069 48.6155V50.0799L21.0458 50.4313L21.1036 48.967L22.6069 48.6155ZM19.9473 22.7849L21.1036 22.3163L21.0458 23.6049L19.8895 24.0735L19.9473 22.7849ZM19.8316 24.8349L20.988 24.3663L20.9302 25.7135L19.716 26.1821L19.8316 24.8349ZM19.7738 26.8264L20.988 26.3578L20.9302 27.7636L19.6582 28.2322L19.7738 26.8264ZM19.6582 28.935L20.9302 28.4665L20.8724 29.8722L19.6004 30.2822L19.6582 28.935ZM19.5425 30.9851L20.8724 30.5165L20.8145 31.9223L19.4847 32.3323L19.5425 30.9851ZM19.4847 33.0937L20.8724 32.6837L20.8145 34.0895L19.4269 34.4995L19.4847 33.0937ZM19.3691 35.2023L20.7567 34.7923L20.6989 36.1395L19.2535 36.5495L19.3691 35.2023ZM18.1549 23.4878L19.3113 23.0192L19.2535 24.3078L18.0971 24.7764L18.1549 23.4878ZM18.0393 25.5378L19.1956 25.0692L19.1378 26.4164L17.9236 26.8264L18.0393 25.5378ZM17.8658 27.5293L19.08 27.0607L19.0222 28.4079L17.7502 28.8765L17.8658 27.5293ZM17.7502 29.6379L19.0222 29.1693L18.9644 30.5165L17.6924 30.9265L17.7502 29.6379ZM17.6345 31.6294L18.9065 31.2194L18.8487 32.6251L17.5189 33.0351L17.6345 31.6294ZM16.3625 24.1906L17.4611 23.7806L17.4033 25.0692L16.2469 25.5378L16.3625 24.1906ZM16.1891 26.2407L17.3455 25.7721L17.2876 27.1193L16.0735 27.5293L16.1891 26.2407ZM16.0156 28.2322L17.2298 27.7636L17.1142 29.1108L15.9 29.5793L16.0156 28.2322ZM15.8422 30.3408L17.1142 29.8722L17.0564 31.1608L15.7844 31.5708L15.8422 30.3408ZM14.7436 24.8349L15.7265 24.4249L15.6109 25.7721L14.5702 26.1821L14.7436 24.8349ZM14.5124 26.885L15.5531 26.475L15.4375 27.7636L14.3967 28.1736L14.5124 26.885ZM14.2811 28.935L15.3796 28.525L15.264 29.8722L14.1655 30.2822L14.2811 28.935ZM13.0091 25.4792L14.0498 25.0692L13.8764 26.4164L12.7778 26.8264L13.0091 25.4792ZM12.72 27.5879L13.8185 27.1778L13.7029 28.4665L12.5465 28.8765L12.72 27.5879ZM13.6451 29.1693L13.4716 30.5165L12.3153 30.9265L12.4887 29.5793L13.6451 29.1693ZM11.1589 26.2407L12.3731 25.7721L12.1418 27.1193L10.9276 27.5879L11.1589 26.2407ZM10.812 28.2907L12.0262 27.8222L11.8527 29.1108L10.5807 29.5793L10.812 28.2907ZM11.7949 29.8722L11.6215 31.2194L10.2916 31.6294L10.5229 30.3408L11.7949 29.8722ZM9.54 26.8264L10.4651 26.475L10.2338 27.8222L9.25091 28.1736L9.54 26.8264ZM9.19309 28.935L10.176 28.5836L9.94473 29.8722L8.904 30.2822L9.19309 28.935ZM7.632 27.6464L8.904 27.1193L8.67273 28.4665L7.40073 28.935L7.632 27.6464ZM8.44146 29.2279L8.21018 30.5165L6.93818 30.9851L7.22727 29.6965L8.44146 29.2279ZM6.93818 27.8807L6.64909 29.2279L5.78182 29.5793L6.07091 28.1736L6.93818 27.8807Z" fill="white"/>
<path d="M77.6498 0V0.878594C77.2451 0.937167 76.8982 1.11289 76.6091 1.40575C76.32 1.69862 76.0887 2.1672 75.8575 2.75293C75.7996 2.92865 75.4527 4.21725 74.8745 6.56017L68.1098 33.9723H67.4738L62.0967 12.5932L56.1993 33.9723H55.6211L48.5095 6.85303C47.7578 4.10011 47.2953 2.46006 47.0062 1.93291C46.7171 1.34718 46.2545 1.05431 45.5607 0.937167V0H54.9273V0.878594C54.1756 0.937167 53.6553 1.11289 53.424 1.40575C53.1927 1.69862 53.0771 2.10863 53.0771 2.57721C53.0771 3.22151 53.3662 4.51012 53.8865 6.5016L58.1073 22.6092L61.5185 10.016L60.6513 6.5016C60.1887 4.56869 59.784 3.28009 59.4949 2.63578C59.2058 1.99148 58.9167 1.5229 58.5698 1.23003C58.2229 0.937167 57.7025 0.820021 57.0665 0.820021V0H67.5316V0.878594C66.78 0.878594 66.2596 0.99574 65.9705 1.17146C65.7393 1.2886 65.5658 1.46432 65.4502 1.75719C65.3345 2.05005 65.2767 2.34292 65.2767 2.69436C65.2767 3.04579 65.508 4.21725 65.9705 6.15016L69.9022 21.8477L73.4291 7.61448C73.776 6.15016 74.0073 5.15442 74.1229 4.62726C74.1807 4.10011 74.2385 3.57295 74.2385 3.10437C74.2385 2.46006 74.0651 1.93291 73.776 1.5229C73.4869 1.11289 72.9087 0.937167 72.0415 0.878594V0H77.6498Z" fill="white"/>
<path d="M99.1582 0V9.19595H98.58C98.2331 7.08733 97.8284 5.56443 97.4236 4.62726C97.0189 3.6901 96.4407 2.98722 95.6891 2.40149C95.2844 2.10863 94.5327 1.93291 93.492 1.93291H91.8153V28.115C91.8153 29.8722 91.8731 30.9265 91.9887 31.3951C92.1044 31.8051 92.3356 32.2151 92.7404 32.508C93.0873 32.8594 93.6076 32.9766 94.2436 32.9766H94.9953V33.9723H83.3738V33.0351H84.1255C84.7615 33.0351 85.2818 32.8594 85.6866 32.508C85.9756 32.2737 86.2069 31.8637 86.3804 31.278C86.496 30.8679 86.5538 29.8136 86.5538 28.115V1.93291H84.9349C83.4316 1.93291 82.3331 2.40149 81.6971 3.39723C80.772 4.74441 80.136 6.67732 79.9047 9.19595H79.2687V0H99.1582Z" fill="white"/>
<path d="M120.898 0V11.246H120.262C119.799 8.31736 118.932 6.03301 117.718 4.51012C116.446 2.92865 115.058 2.1672 113.497 2.1672C112.167 2.1672 110.953 2.75293 109.855 3.92439C108.756 5.09585 107.947 6.61874 107.426 8.49308C106.79 10.8946 106.443 13.5889 106.443 16.5176C106.443 19.4462 106.675 22.082 107.137 24.4835C107.6 26.885 108.351 28.7007 109.392 29.8722C110.433 31.1022 111.763 31.688 113.381 31.688C114.711 31.688 115.925 31.2194 117.024 30.3408C118.123 29.4622 119.279 27.8807 120.551 25.7135V28.525C119.337 30.3994 118.123 31.8051 116.851 32.6837C115.579 33.5623 114.075 33.9723 112.341 33.9723C110.086 33.9723 108.062 33.2694 106.328 31.8637C104.593 30.4579 103.205 28.4665 102.28 25.8892C101.355 23.312 100.835 20.5005 100.835 17.5719C100.835 14.4675 101.355 11.5389 102.396 8.72737C103.437 5.97444 104.882 3.80724 106.675 2.28434C108.467 0.761448 110.375 0 112.399 0C113.902 0 115.463 0.468584 117.14 1.46432C118.123 2.05005 118.701 2.34292 118.99 2.34292C119.337 2.34292 119.626 2.1672 119.857 1.75719C120.088 1.40575 120.262 0.761448 120.32 0L120.898 0Z" fill="white"/>
</g>
<defs>
<clipPath id="clip0_244_650">
<rect width="159" height="55" fill="white"/>
</clipPath>
</defs>
</svg>
